<svg width="60" height="60" viewBox="0 0 60 60" fill="none" xmlns="http://www.w3.org/2000/svg">
<path d="M49.9999 0H10C4.49999 0 0 4.49999 0 10V50C0 55.5 4.49999 60 10 60H50C55.5 60 60 55.5 60 50V10C59.9999 4.49999 55.4999 0 49.9999 0ZM28.747 30.5311C26.6645 32.6136 23.3915 33.5916 19.6938 33.5916C18.7162 33.5916 17.8237 33.5487 17.1435 33.4212V44.2171H11.9585V15.9526C13.8286 15.6127 16.4214 15.3574 19.9487 15.3574C23.7744 15.3574 26.5796 16.165 28.4073 17.6953C30.1075 19.098 31.2124 21.3506 31.2124 24.0283C31.2123 26.7486 30.3623 29.001 28.747 30.5311ZM39.6259 44.6425C37.1181 44.6425 34.8656 44.0473 33.3354 43.1971L34.3554 39.4144C35.5454 40.137 37.7983 40.9022 39.6684 40.9022C41.9633 40.9022 42.9838 39.9671 42.9838 38.6068C42.9838 37.2045 42.1338 36.4817 39.5834 35.5892C35.5453 34.1864 33.8457 31.9764 33.8881 29.5536C33.8881 25.8983 36.9057 23.0508 41.7085 23.0508C44.0039 23.0508 46.0015 23.6459 47.1913 24.2832L46.1713 27.981C45.2787 27.4711 43.6209 26.7909 41.7934 26.7909C39.9232 26.7909 38.9032 27.6835 38.9032 28.9585C38.9032 30.2763 39.8808 30.914 42.5161 31.849C46.2563 33.2089 47.999 35.1215 48.0415 38.1821C48.0414 41.9223 45.1089 44.6425 39.6259 44.6425ZM25.9843 24.2407C25.9843 27.5985 23.6039 29.5111 19.6938 29.5111C18.6313 29.5111 17.7812 29.4686 17.1435 29.2987V19.6079C17.6963 19.4805 18.7163 19.353 20.1616 19.353C23.7744 19.353 25.9843 21.0531 25.9843 24.2407Z" fill="#31A8FF"/>
</svg>
