<svg width="204" height="204" viewBox="0 0 204 204" fill="none" xmlns="http://www.w3.org/2000/svg">
<g clip-path="url(#clip0_396_401)">
<path d="M102.167 204.291C158.569 204.291 204.291 158.569 204.291 102.167C204.291 45.7654 158.569 0.0429688 102.167 0.0429688C45.7654 0.0429688 0.0429688 45.7654 0.0429688 102.167C0.0429688 158.569 45.7654 204.291 102.167 204.291Z" fill="#00539F"/>
<path d="M103.188 175.696C144.361 175.696 177.739 142.318 177.739 101.145C177.739 59.9717 144.361 26.5942 103.188 26.5942C62.0147 26.5942 28.6372 59.9717 28.6372 101.145C28.6372 142.318 62.0147 175.696 103.188 175.696Z" fill="#AAB5DA"/>
<path d="M131.439 162.567C131.439 147.696 118.47 135.493 102.451 135.588C84.9542 135.684 72.7482 147.6 73.0342 164.283L131.439 162.567Z" fill="#FFD520"/>
<path d="M94.2979 121.479L96.8718 135.874L98.5408 135.683L96.4428 122.528" fill="#FFD520"/>
<path d="M125.669 147.314L175.206 113.233L173.966 118.095L126.098 148.553L125.669 147.314Z" fill="#FFD520"/>
<path d="M122.046 143.167L124.62 140.117L125.669 141.356L122.713 143.93L122.046 143.167Z" fill="#FFD520"/>
<path d="M117.612 139.449L122.713 132.919L122.809 134.778L118.661 140.117L117.612 139.449Z" fill="#FFD520"/>
<path d="M166.577 97.0268L175.016 88.4468L175.635 92.6888L168.437 99.5048" fill="#FFD520"/>
<path d="M159.758 79.9618L168.006 68.5229L165.669 64.0898L157.661 76.8168" fill="#FFD520"/>
<path d="M91.866 137.161L89.292 131.918L90.34 130.25L92.819 136.923L91.866 137.209" fill="#FFD520"/>
<path d="M86.574 136.923L87.766 139.211L86.765 139.783L85.478 138.162L86.574 136.923Z" fill="#FFD520"/>
<path d="M81.3772 139.878L83.1412 142.5L82.2352 143.072L79.4702 140.546L81.3772 139.878Z" fill="#FFD520"/>
<path d="M68.695 139.068L79.232 146.408L78.373 147.743L67.646 140.307L68.695 139.068Z" fill="#FFD520"/>
<path d="M54.059 129.106L29.5049 112.137L30.1248 116.379L55.155 132.919L54.059 129.106Z" fill="#FFD520"/>
<path d="M30.1252 88.0181L42.4258 100.077L40.7571 102.842L29.0762 92.2601L30.1252 88.0181Z" fill="#FFD520"/>
<path d="M36.2744 68.3309L43.7119 77.8649L46.0481 74.9089L39.2303 63.8979L36.2744 68.3309Z" fill="#FFD520"/>
<path d="M144.359 58.846L148.316 58.179L152.988 47.7878L149.365 44.8325L143.644 57.941" fill="#FFD520"/>
<path d="M130.532 33.5832L126.098 32.1055L123.953 45.4519L127.767 45.881L130.532 33.5832Z" fill="#FFD520"/>
<path d="M52.1519 47.9782L58.3499 59.1318L62.0689 58.1308L57.2529 43.7837L52.1519 47.9782Z" fill="#FFD520"/>
<path d="M79.2792 47.1683L76.3232 33.1547L81.8062 31.248L83.0932 46.0721L79.2792 47.1683Z" fill="#FFD520"/>
<path d="M104.691 27.8633L104.501 40.3994L100.687 41.448V28.1016L104.691 27.8633Z" fill="#FFD520"/>
<path d="M117.421 125.293L118.232 128.248L122.761 120.049H121.378L118.089 126.293" fill="#FFD520"/>
<path d="M47.8127 72.86C47.8127 72.383 47.7173 71.907 47.6697 71.43C47.5265 70.381 49.4336 69.38 50.9118 70C51.5314 70.238 51.8176 68.761 52.866 68.332C53.725 67.95 52.485 66.187 53.82 65.567C54.344 65.329 55.298 65.853 55.393 65.091C55.441 64.852 54.773 64.566 54.726 64.28C54.726 62.85 54.011 61.754 53.963 60.467C53.915 59.085 55.489 59.228 56.776 59.132C57.062 59.132 57.3 58.751 57.205 58.37C58.206 58.322 59.684 57.75 60.209 58.751C60.59 57.702 61.305 58.465 61.067 57.559C60.733 56.129 60.876 56.892 60.685 56.606C59.446 54.938 60.733 51.1721 62.688 51.4104C64.547 51.6488 66.216 52.078 66.55 54.27C67.456 52.65 69.267 53.889 70.269 54.699C71.222 55.51 71.079 56.701 71.079 57.988C71.079 59.037 71.604 57.512 72.08 57.559C72.128 56.082 72.033 55.128 73.272 54.652C74.369 54.223 73.511 52.411 73.797 51.5534C74.273 50.1711 74.703 49.4562 76.181 48.6935C77.325 48.1214 78.183 49.0271 76.371 48.5028C78.421 49.1225 77.086 48.3122 77.945 46.9299C78.85 45.4521 80.853 45.7859 82.617 45.6905C82.522 46.1196 82.855 45.9288 83.189 46.0242C83.427 46.1196 83.904 48.1214 84.19 48.1214C84.047 51.3629 83.284 50.5524 85.62 50.3618C86.24 50.314 87.003 49.7897 86.765 49.5516C85.907 48.6457 85.859 47.6449 86.05 46.5009C86.24 45.4523 87.051 45.3091 88.052 45.0232C89.244 44.6897 87.48 43.4025 88.147 42.7352C89.196 41.6866 89.673 40.3042 90.722 39.3986C91.199 38.9697 92.057 38.493 92.724 38.9697C94.345 40.1137 94.679 42.2109 95.966 43.3073C97.54 44.6897 98.255 41.639 100.019 41.0669C100.829 40.7809 101.64 40.4472 102.117 41.2099C103.69 39.494 105.883 40.0659 107.981 40.4472C110.127 40.8285 108.315 43.1643 108.696 44.7372C108.982 45.9288 110.317 44.07 111.08 45.5953C112.177 44.9278 112.51 43.7362 113.607 43.2119C114.37 42.8306 115.228 43.927 115.609 43.7362C117.183 43.0689 117.517 40.3996 119.137 39.9707C121.807 39.2556 123.238 42.3539 123.714 44.7848C123.905 44.4989 124.287 44.1176 124.477 44.4035C125.717 46.2148 126.527 45.5475 128.339 45.7383C128.816 45.7859 129.197 46.4531 129.626 46.8823C130.771 44.4989 134.251 45.4523 135.252 46.7393C136.778 48.7411 136.158 51.3629 134.394 51.5058C134.919 52.078 134.728 52.507 135.157 53.222C135.348 52.936 135.586 52.697 136.015 52.793C137.159 52.983 137.541 54.175 138.542 54.509C138.828 52.078 142.165 51.1245 143.214 52.65C143.977 53.746 144.979 56.368 143.31 57.941C143.262 57.988 143.691 58.465 144.025 58.227C144.311 58.036 144.692 57.655 144.788 57.893C144.979 58.513 145.837 57.702 146.075 58.179C147.553 56.987 148.888 56.844 150.223 58.084C151.415 59.228 152.654 62.231 150.414 63.374C150.7 63.661 151.129 63.899 151.176 64.233C151.415 65.567 150.318 66.902 152.13 67.092C152.368 67.14 152.654 66.473 152.988 66.425C154.752 66.235 156.707 66.616 157.088 68.475C157.375 69.81 155.896 70.429 156.373 71.859C155.515 71.764 154.895 72.241 154.276 72.717C154.323 72.765 154.371 72.765 154.418 72.812H47.8127V72.86Z" fill="black"/>
<path d="M154.323 72.86C155.133 73.575 156.135 74.671 155.038 75.72C156.85 76.483 160.044 76.197 159.186 78.914C158.995 79.486 160.282 80.153 160.282 80.82C160.378 83.299 162.285 82.584 163.429 84.205C164.049 85.062 163.62 85.921 163.381 86.779C162.857 88.685 165.002 91.355 163.095 93.07C164.764 93.929 163.238 96.55 164.382 96.55C165.526 96.55 167.338 97.17 168.006 97.932C168.817 98.838 168.102 101.031 167.481 101.698C166.147 103.223 167.242 104.653 165.955 106.083C165.669 106.369 165.384 106.608 165.098 106.798H38.6106C38.6582 106.321 39.4211 104.415 40.4223 103.414C41.1374 102.699 39.7071 100.745 43.2352 99.696C44.0457 99.458 44.1889 99.124 43.9503 98.647C43.426 97.694 41.6141 97.694 41.6141 95.93C41.6141 96.645 41.8049 95.883 41.9479 95.74C42.1386 95.549 40.6131 95.263 39.8978 94.786C37.514 93.261 37.2757 91.783 37.8954 90.211C38.3721 89.067 39.4211 88.256 40.7083 87.97C41.8527 87.732 42.3294 88.304 43.2352 88.447C43.6644 88.542 43.569 87.875 43.8073 87.208C44.2365 86.064 45.7144 87.589 46.6202 86.731C45.7622 85.873 44.7132 85.158 44.1889 84.157C43.6166 83.013 44.0457 82.632 45.0469 81.869C43.8551 81.059 43.0445 79.2 43.8073 77.913C44.4272 76.864 44.761 75.577 45.5236 75.1C46.3343 74.576 47.5739 74.767 47.8122 73.527C47.8598 73.289 47.8598 73.051 47.8598 72.812H154.323V72.86Z" fill="black"/>
<path d="M165.051 106.75C163.907 107.513 163.239 107.322 162.429 108.848C164.765 109.849 165.003 113.996 163.859 115.664C162.953 117.046 164.05 115.902 163.764 118.429C163.573 120.287 161.761 121.67 159.854 119.858C159.187 121.765 158.805 124.434 156.612 125.102C155.659 125.388 154.324 125.769 153.275 124.863C152.75 125.626 151.177 126.055 151.415 126.436C152.369 128.2 151.32 129.344 150.223 130.25C149.413 130.917 148.03 129.63 147.506 130.107C146.123 131.489 144.55 131.441 145.122 133.634C145.313 134.492 145.694 135.636 145.122 136.637C144.645 137.495 145.122 139.068 144.312 138.734C143.31 138.305 141.642 139.306 141.022 138.782C140.402 138.257 139.735 138.448 139.306 137.733C138.352 138.114 138.781 137.543 138.876 137.924C138.018 137.924 136.922 137.638 136.207 137.352C135.253 136.97 134.919 136.541 134.967 135.397C134.967 135.112 134.585 134.778 134.204 135.016C133.87 135.207 133.394 135.588 133.441 135.826C133.68 137.924 131.82 138.353 131.2 139.449C130.342 140.975 128.817 142.547 127.005 142.5C125.241 142.452 125.241 141.022 124.383 139.688C124.24 139.497 123.381 138.448 123.334 138.305C122.189 134.73 121.379 132.585 123.524 129.725C123.81 129.773 124.955 128.391 124.478 127.771C123.286 126.198 125.288 124.482 126.48 123.052C126.766 122.718 126.766 121.813 126.48 121.527C123.668 118.953 118.9 119.62 117.946 123.195C117.088 126.341 119.52 130.202 118.423 133.252C116.659 138.114 113.083 141.689 111.033 146.456C110.27 148.22 111.462 150.079 113.083 150.984C114.37 151.699 116.23 151.413 117.088 152.51C119.567 155.608 123.429 155.751 126.004 158.468C126.623 159.135 127.005 160.374 127.911 160.708C132.345 162.281 136.54 165.236 141.403 164.664C140.211 166.856 137.78 167.428 135.825 168.286C131.153 170.29 126.719 172.434 121.522 173.674C109.984 176.438 99.257 176.962 87.671 174.626C79.137 172.91 71.604 169.669 64.309 165.522C64.453 165.379 64.596 165.141 64.739 165.141C66.312 165.236 67.981 165.236 69.316 164.855C73.559 163.568 77.564 161.471 81.473 159.898C84.572 158.659 85.86 154.273 87.338 150.746C87.814 149.602 88.863 148.696 89.912 147.838C94.298 144.263 97.111 139.401 99.591 134.444C100.64 132.347 101.021 129.439 99.829 127.056C97.54 122.385 92.439 120.43 87.624 118.953C87.242 121.288 88.72 123.338 88.625 125.721C88.625 126.198 89.96 126.246 90.055 127.008C90.341 128.867 90.532 131.251 88.434 132.061C89.149 132.49 88.959 133.252 88.768 133.729C87.385 137.018 84.429 139.449 80.949 140.307C79.948 140.545 78.66 143.405 76.563 143.358C75.561 143.358 74.036 142.023 73.797 141.022C73.368 139.497 74.608 138.21 72.748 138.21C71.413 138.257 69.602 137.828 68.553 139.306C68.553 139.354 68.791 139.544 68.934 139.688C67.695 140.259 67.313 142.023 65.978 142.071C64.596 142.166 63.451 141.022 62.307 140.307C61.783 140.021 62.736 138.496 61.735 138.067C60.4 137.543 59.447 137.114 58.016 136.875C57.11 136.732 55.68 135.97 55.632 134.969C55.489 133.252 54.583 132.538 53.821 131.108C53.535 130.536 53.964 129.535 53.582 129.153C52.152 127.723 51.6751 126.246 52.057 124.387C52.152 124.053 52.533 123.815 52.819 123.529C52.009 122.766 51.9612 121.86 51.0076 121.241C49.6726 123.29 45.8585 123.767 44.7143 122.004C43.7131 120.383 42.9502 117.475 46.0017 116.76C44.6667 115.998 45.4294 114.997 44.5235 113.853C42.1397 110.849 44.4281 110.087 43.3317 108.371C43.141 108.037 41.9968 108.943 41.7584 109.134C40.9955 109.753 39.1839 109.563 38.8501 109.086C38.3732 108.371 38.2302 107.799 38.3732 106.75H165.051Z" fill="black"/>
<path d="M186.172 125.578H189.889V125.626L186.887 127.866L188.031 131.441L187.984 131.489L185.026 129.296L182.071 131.489L182.024 131.441L183.214 127.866L180.165 125.626V125.578H183.882L184.979 122.099H185.026L186.172 125.578Z" fill="white"/>
<path d="M20.6363 125.578H24.355V125.626L21.3513 127.866L22.4955 131.441L22.4479 131.489L19.4921 129.296L16.536 131.489L16.4884 131.441L17.6802 127.866L14.6289 125.626V125.578H18.3477L19.4443 122.099H19.4921L20.6363 125.578Z" fill="white"/>
<path d="M172.612 172.563C211.525 133.658 211.525 70.5822 172.612 31.6777C133.698 -7.22654 70.607 -7.22654 31.6938 31.6777C-7.21956 70.5822 -7.21956 133.658 31.6938 172.563C70.607 211.468 133.698 211.468 172.612 172.563Z" stroke="#FFD520" stroke-width="3.00954"/>
<path d="M128.387 152.367L169.103 133.11L167.577 136.732L128.625 153.225L128.387 152.367Z" fill="#FFD520"/>
<path d="M129.674 157.038L157.422 151.127L154.895 153.892L129.913 158.087L129.674 157.038Z" fill="#FFD520"/>
<path d="M36.7036 135.445L38.6107 138.639L75.99 152.7L76.466 151.175L36.7036 135.445Z" fill="#FFD520"/>
<path d="M47.2412 151.509L74.799 157.086L74.417 158.516L49.1959 153.892L47.2412 151.509Z" fill="#FFD520"/>
<path d="M86.9082 100.935C87.0512 101.078 87.1942 101.316 87.3372 101.316C87.4802 101.316 87.6232 101.078 87.7662 100.935C87.4802 100.935 87.1942 100.935 86.9082 100.935Z" fill="white"/>
<path d="M65.7389 94.5962C65.5959 94.7392 65.3579 94.8822 65.3579 95.0252C65.3579 95.1682 65.5959 95.3112 65.7389 95.4542C65.7389 95.1682 65.7389 94.8822 65.7389 94.5962Z" fill="white"/>
<path d="M130.103 106.321C130.628 106.226 131.534 105.797 131.772 105.32C131.915 105.034 131.057 103.89 129.722 102.842C128.625 103.7 126.718 108.228 127.767 107.942C129.341 107.465 129.341 106.464 130.103 106.321Z" fill="#009D57"/>
<path d="M49.6241 71.7159C50.0533 71.6199 50.1962 71.9059 50.4824 72.0969C50.8161 72.3349 51.0545 72.0019 50.9113 71.9059C50.2438 71.4769 49.8149 71.1909 49.052 71.6199C46.6205 73.0499 57.062 78.2459 55.536 77.0069C55.727 76.3389 54.249 75.7199 53.82 75.4339C51.1499 73.8609 50.6254 72.2879 49.6241 71.7159Z" fill="#009D57"/>
<path d="M80.376 115.473C81.091 115.139 81.806 115.044 82.569 115.187C85.001 115.711 86.908 117.046 89.196 117.665C92.534 118.524 95.537 120.192 98.35 122.337C101.974 125.101 103.547 130.249 101.64 134.444C99.59 138.972 97.397 142.499 93.678 145.931C92.486 147.028 90.674 148.887 89.673 150.031C88.434 151.413 87.957 153.319 87.003 155.083C86.86 155.369 86.622 155.798 86.527 156.18C85.811 159.516 82.855 161.375 80.042 162.185" stroke="#FFD520" stroke-width="0.551867"/>
<path d="M88.0048 117.38C90.4368 116.522 92.3908 117.618 93.6308 118.095C99.4948 120.192 102.308 122.385 104.168 128.677C104.835 130.917 103.786 134.015 103.071 135.827C102.308 137.781 100.735 140.212 99.2568 141.975C97.0638 144.692 94.6798 146.933 92.4868 149.411C90.3888 151.747 89.1018 154.512 88.7678 155.179C88.0998 156.514 86.7178 157.658 86.0498 158.992" stroke="#FFD520" stroke-width="0.551867"/>
<path d="M86.7168 159.326C87.6708 158.039 88.1478 158.039 88.9578 158.516C88.9578 158.516 90.3878 155.513 92.4388 158.039C92.4388 158.039 95.1558 155.322 96.2528 158.849C96.2528 158.849 98.9698 156.466 100.21 162.043C100.21 162.043 93.0578 155.846 87.4798 159.803L86.7168 159.326Z" fill="#FFD520"/>
<path d="M88.624 160.327C88.624 160.327 92.104 157.276 100.829 163.044C100.829 163.044 99.495 164.283 98.827 162.853C98.827 162.853 95.966 164.855 95.394 162.281C95.394 162.281 92.391 163.616 91.437 160.994C91.437 160.994 90.531 163.187 88.624 160.327Z" fill="#FFD520"/>
<path d="M98.9699 149.412C99.6369 147.028 100.162 146.456 102.212 146.409C104.929 146.313 105.168 149.888 105.168 149.888C105.263 150.842 98.5879 150.699 98.9699 149.412Z" fill="#FFD520"/>
<path d="M98.7319 150.412C98.7319 150.412 97.2059 151.032 97.0629 152.796C96.8249 155.37 98.3979 157.086 102.164 157.086C105.883 157.086 106.837 155.036 106.837 153.177C106.837 151.366 105.407 150.698 105.407 150.698C105.407 150.698 104.31 151.08 102.212 151.08C100.162 151.127 98.7319 150.412 98.7319 150.412Z" fill="#FFD520"/>
<path d="M99.4468 150.603C99.4468 150.603 98.5408 151.413 96.9678 152.033" stroke="black" stroke-width="0.553195"/>
<path d="M101.021 151.08C101.021 151.08 99.0179 153.367 96.5869 153.701" stroke="black" stroke-width="0.553195"/>
<path d="M103.166 151.127C103.166 151.127 100.878 155.56 97.3501 155.656" stroke="black" stroke-width="0.553195"/>
<path d="M104.93 150.889C104.93 150.889 104.548 156.132 99.9238 156.847" stroke="black" stroke-width="0.553195"/>
<path d="M106.264 151.08C106.264 151.08 107.313 154.654 103.261 157.038" stroke="black" stroke-width="0.553195"/>
<path d="M104.787 150.889C104.787 150.889 105.502 151.699 107.075 152.319" stroke="black" stroke-width="0.553195"/>
<path d="M103.261 151.08C103.261 151.08 104.786 153.463 107.218 153.797" stroke="black" stroke-width="0.553195"/>
<path d="M101.116 151.127C101.116 151.127 103.023 155.417 106.503 155.513" stroke="black" stroke-width="0.553195"/>
<path d="M99.686 150.841C99.686 150.841 100.067 156.323 104.691 157.038" stroke="black" stroke-width="0.553195"/>
<path d="M113.273 119.286C113.75 122.861 114.132 125.102 115.371 128.486C115.896 129.868 115.991 131.203 115.657 132.633C115.657 132.538 115.657 132.442 115.657 132.299" stroke="#FFD520" stroke-width="0.551867"/>
<path d="M113.369 137.256C112.367 139.544 111.938 139.449 111.271 140.641C108.458 145.598 106.122 150.222 110.174 152.319C113.845 154.178 116.897 155.37 121.521 158.897C124.001 160.184 124.859 162.901 127.433 164.045C128.005 164.331 130.58 164.569 131.152 164.617" stroke="#FFD520" stroke-width="0.551867"/>
<path d="M114.751 118.381C114.322 120.335 115.085 121.479 115.276 122.814C115.323 123.195 115.514 123.862 115.609 124.244C115.943 125.578 116.229 126.436 116.754 127.676C117.278 128.82 117.564 129.964 117.374 131.203C117.183 132.395 116.897 133.539 116.42 134.587C116.039 135.445 115.323 136.16 114.56 136.732C113.75 137.352 112.51 136.875 111.748 136.208" stroke="#FFD520" stroke-width="0.551867"/>
<path d="M114.608 132.109C114.894 132.204 115.133 132.585 115.228 132.919C115.419 133.586 115.085 134.159 114.656 134.635C114.417 134.873 114.179 135.16 113.798 135.112C113.559 135.112 113.369 134.873 113.178 134.778" stroke="#FFD520" stroke-width="0.551867"/>
<path d="M115.61 136.351C115.371 136.589 115.038 136.923 114.942 137.256C114.847 137.59 114.37 138.162 114.227 138.4C114.275 138.305 114.322 138.353 114.322 138.305C113.703 139.592 113.846 138.829 113.13 140.212C112.272 141.975 110.651 143.834 110.365 145.026C109.936 146.694 109.221 148.982 110.461 150.365C111.796 151.842 113.75 152.271 115.514 153.177C115.991 153.415 116.373 153.844 116.802 154.178C118.041 155.226 119.71 155.942 122.284 157.705C123.858 158.801 125.288 159.802 126.575 161.185C127.004 161.661 127.386 162.138 127.91 162.472C128.435 162.805 129.007 163.044 129.627 163.139C129.722 163.139 129.674 163.234 129.627 163.234C130.437 163.33 131.2 163.616 131.963 163.902C132.344 164.045 132.869 163.949 133.298 163.949" stroke="#FFD520" stroke-width="0.551867"/>
<path d="M117.898 159.421C117.898 159.421 117.755 155.989 115.371 158.23C115.371 158.23 113.94 154.083 112.033 157.61C112.033 157.61 107.599 154.607 106.789 158.706C106.789 158.706 103.213 157.753 103.547 162.377C103.499 162.329 109.363 155.846 117.898 159.421Z" fill="#FFD520"/>
<path d="M118.66 160.279C118.66 160.279 110.317 156.561 103.547 163.282C103.547 163.282 108.791 164.569 108.458 161.709C108.458 161.709 111.938 164.092 112.129 161.566C112.129 161.566 114.274 163.33 115.561 161.089C115.561 161.089 121.044 161.852 118.66 160.279Z" fill="#FFD520"/>
<path d="M102.165 166.809C105.407 172.863 113.607 168.715 113.607 168.715L112.987 167.763C99.4949 173.578 102.498 157.61 102.498 157.61H101.116C101.116 157.562 100.305 163.377 102.165 166.809Z" fill="#FFD520"/>
<path d="M97.9212 150.174C97.9212 150.174 97.6822 155.322 101.02 157.419" stroke="black" stroke-width="0.553195"/>
<path d="M47.4795 76.244C47.4795 76.244 53.201 86.731 58.302 90.878C58.302 90.878 58.159 83.776 56.061 86.731C56.061 86.731 57.349 78.485 54.154 81.011C54.154 81.011 54.297 73.766 51.2936 78.151C51.2936 78.151 50.3402 72.765 47.4795 76.244Z" fill="#009D57"/>
<path d="M45.9051 76.2441C45.9051 76.2441 51.6263 85.7771 55.44 89.9241C55.44 89.9241 52.246 85.7771 49.0996 88.0181C49.0996 88.0181 43.7119 81.9641 47.1925 81.3441C47.1925 81.3441 42.9493 79.8191 45.9051 76.2441Z" fill="#009D57"/>
<path d="M60.828 92.689C60.828 92.689 57.3 78.58 63.355 73.384C63.355 73.384 61.782 71.144 60.495 73.718C60.495 73.718 55.727 75.005 58.588 80.391C58.588 80.391 55.727 83.251 58.921 87.064C58.921 87.064 60.209 89.829 60.828 92.689Z" fill="#009D57"/>
<path d="M61.7821 91.8307C61.7821 91.8307 59.2551 78.4838 64.3091 74.0518C64.3091 74.0518 66.8361 74.3848 64.6431 79.1518C64.6431 79.1518 68.1231 82.3448 64.0231 84.5378C64.0231 84.4898 67.1701 85.1577 61.7821 91.8307Z" fill="#009D57"/>
<path d="M39.1351 90.5442C39.1351 90.5442 51.6265 95.9302 56.68 96.2642C56.68 96.2642 57.014 92.4512 54.439 92.4512C54.439 92.4512 52.199 87.6842 48.3845 89.2572C48.3845 89.2572 45.19 85.7782 43.9505 89.2572C43.9983 89.2572 39.0875 87.7802 39.1351 90.5442Z" fill="#009D57"/>
<path d="M39.0883 91.1641C39.0883 91.1641 42.3304 94.2621 54.822 97.2181C54.822 97.2181 46.5736 101.65 47.5271 97.5511C47.5271 97.5511 40.8522 97.8851 43.093 95.0251C43.0454 94.9771 37.4672 93.6901 39.0883 91.1641Z" fill="#009D57"/>
<path d="M47.5749 100.077C47.5749 100.077 43.2841 101.126 40.328 107.608C40.328 107.608 46.0494 101.078 50.1973 100.554L52.247 100.316C52.247 100.316 49.2436 102.365 52.962 101.031C52.962 101.031 53.201 100.697 53.678 100.697C54.154 100.697 49.1482 102.604 49.0053 104.653C49.0053 104.653 49.0053 106.322 47.0028 106.322C47.0028 106.322 45.1911 108.467 42.4736 106.941C42.4736 106.941 40.9001 109.182 39.7559 108.276C39.7559 108.276 38.0872 106.941 41.0433 103.986C41.0433 103.986 41.0433 100.077 45.6679 99.696C45.6679 99.744 47.1936 98.981 47.5749 100.077Z" fill="#009D57"/>
<path d="M48.2899 108.323L46.0013 111.517C46.0013 111.517 45.4292 112.47 46.2397 112.232C46.2397 112.232 53.725 102.127 58.779 100.935C58.779 100.935 60.447 99.8391 60.304 101.078C60.304 101.078 60.686 103.223 58.779 102.651C58.779 102.651 60.114 106.703 55.06 107.036C55.06 107.036 56.729 111.326 51.1028 111.088C51.1028 111.088 49.7679 113.614 48.1468 112.137C48.1468 112.137 45.62 114.901 44.9047 112.232C44.9047 112.232 44.3326 108.895 46.5734 108.276C46.5734 108.276 48.0992 107.132 48.3851 107.656C48.5759 108.037 48.2899 108.323 48.2899 108.323Z" fill="#009D57"/>
<path d="M46.5249 114.615C46.5249 114.615 47.1448 115.33 47.8123 115.807C47.8123 115.807 49.1473 115.473 47.4785 117.38C47.4785 117.38 45.9528 119.191 46.1912 120.001L46.6681 120.335C46.6681 120.335 48.4798 117.094 49.7669 116.522C49.7669 116.522 49.2902 117.618 52.151 117.809C52.151 117.809 52.151 119.477 51.4357 120.097C51.4357 120.097 50.6252 119.286 50.3868 119.954C50.3868 119.954 49.2902 122.575 45.9528 122.003C45.9528 122.003 43.712 119.143 46.1912 117.713C46.1912 117.713 47.3832 116.379 46.5249 116.188C45.6669 116.045 45.8098 115.235 45.8098 115.235L46.5249 114.615Z" fill="#009D57"/>
<path d="M52.819 112.708C52.819 112.708 49.8625 112.613 50.2916 114.138L51.0067 114.281C51.0067 114.281 49.7195 115.33 50.7683 116.331C50.7683 116.331 53.534 117.856 55.87 115.997C55.87 115.997 56.919 114.472 55.774 114.186C55.774 114.186 59.589 116.093 59.827 114.424C59.827 114.424 60.065 113.566 59.446 112.422C59.446 112.422 62.211 110.992 61.973 108.371C61.973 108.371 64.261 104.796 63.736 104.558C63.736 104.558 53.963 113.519 53.247 115.425H52.675C52.675 115.425 53.534 113.28 55.059 112.327C55.059 112.375 53.057 112.708 52.819 112.708Z" fill="#009D57"/>
<path d="M56.2989 122.623C58.3009 122.289 56.4419 127.39 56.4419 127.39C57.0139 126.818 57.7289 127.866 57.7289 127.866C57.3479 129.773 55.6789 129.868 55.6789 129.868C53.6289 129.153 54.6299 127.151 54.6299 127.151C53.4379 126.818 53.3429 125.817 53.3429 124.863C53.3429 124.863 53.9149 123.338 54.3919 123.29C54.3919 123.29 52.3409 121.765 52.5799 121.241C52.5799 121.241 52.4369 118.285 54.3439 118.238C54.3439 118.238 57.2999 118.953 56.1079 122.766" fill="#009D57"/>
<path d="M75.6088 135.112C75.6088 135.112 72.6048 136.542 74.8938 138.067C74.8938 138.067 73.7018 141.785 75.8468 141.403C75.8468 141.403 76.0848 142.833 76.9438 142.595C76.9438 142.595 77.1818 141.737 76.0848 141.26C76.0848 141.26 76.6578 139.831 75.2748 138.162C75.2748 138.114 76.6578 135.97 75.6088 135.112Z" fill="#009D57"/>
<path d="M81.2351 117.571C81.2351 117.571 76.5621 125.912 79.1851 127.581C79.1851 127.581 79.0891 132.919 75.8471 131.298C75.8471 131.298 74.8931 135.112 72.5101 135.016C72.5101 135.016 72.1761 137.495 70.7461 137.257C70.7461 137.257 70.8411 129.296 80.2811 117.094C80.2811 117.094 81.2351 116.188 81.2351 117.571Z" fill="#009D57"/>
<path d="M75.9899 116.618C75.9899 116.618 78.6119 114.234 78.6119 117.809C78.6119 117.809 75.5129 120.526 74.3209 124.149C74.3209 124.149 70.8889 121.861 72.7479 120.24C72.7479 120.24 73.9399 119.144 75.4649 119.764C75.4649 119.764 75.0839 118.667 75.5609 117.523C75.9899 116.427 75.9899 116.618 75.9899 116.618Z" fill="#009D57"/>
<path d="M66.216 119.715C66.216 119.715 63.975 128.629 65.167 138.686L64.786 138.448C64.786 138.448 63.737 136.303 63.832 134.73C63.832 134.73 64.452 126.865 61.21 129.582C61.21 129.582 62.878 129.821 62.497 131.584C62.497 131.584 62.163 133.872 61.21 134.825C61.21 134.825 59.922 136.732 62.783 136.732C62.783 136.732 63.403 140.784 65.501 140.879C65.501 140.879 66.931 140.164 66.931 138.591C66.931 138.591 70.745 137.256 68.361 132.061C68.361 132.061 71.937 132.061 70.411 130.154C70.411 130.154 66.979 125.006 67.551 122.671C67.598 122.623 68.552 121.765 66.216 119.715Z" fill="#009D57"/>
<path d="M83.3799 111.184C83.3799 111.184 65.8829 102.604 71.3179 108.324C71.3179 108.324 70.6979 110.564 74.1789 109.896C74.1789 109.944 70.9839 113.09 83.3799 111.184Z" fill="#009D57"/>
<path d="M67.8371 106.417C67.8371 106.417 64.0231 112.47 66.2641 118.81C66.2641 118.81 68.5051 118.19 67.5511 116.284C67.5511 116.284 72.3191 116.284 68.1711 112.137C68.1711 112.137 70.0781 110.85 68.5051 108.657L67.8371 106.417Z" fill="#009D57"/>
<path d="M64.6421 110.897C64.6421 110.897 63.6891 116.283 64.9761 119.477C64.9761 119.477 62.1151 121.383 62.7351 118.19C62.7351 118.19 59.2551 118.524 62.4011 114.377L64.6421 110.897Z" fill="#009D57"/>
<path d="M59.5888 116.283C59.5888 116.283 55.7748 119.144 58.6348 123.91C58.6348 123.91 62.1158 122.337 60.5418 120.431C60.5418 120.431 61.7818 119.763 59.5888 116.283Z" fill="#009D57"/>
<path d="M57.9679 130.869C57.9679 130.869 55.1069 131.823 57.6339 133.729C57.6339 133.729 57.9679 136.923 60.1609 135.302C60.1609 135.302 58.2539 129.582 61.1149 125.769H59.5419C59.5419 125.769 57.9679 130.536 59.2079 132.776L57.9679 130.869Z" fill="#009D57"/>
<path d="M69.2681 101.507C72.5571 102.317 77.6591 104.128 80.6151 105.797C85.3351 108.466 88.1481 112.47 89.6261 114.52" stroke="#FFD520" stroke-width="0.551867"/>
<path d="M69.2681 99.6011C73.7971 101.555 78.6601 102.079 82.8551 105.13C85.4781 107.036 87.7661 109.038 89.8161 111.469C90.7221 112.518 91.0081 113.519 92.1531 115.473" stroke="#FFD520" stroke-width="0.551867"/>
<path d="M62.4019 94.0239C62.4019 94.0239 63.9749 99.4099 66.5499 93.0699C66.5499 93.0699 71.3169 94.3579 69.7439 87.9699C69.7439 87.9699 71.9849 85.4439 73.8919 85.4439C73.8439 85.4439 68.1229 84.2049 62.4019 94.0239Z" fill="#009D57"/>
<path d="M82.1398 96.2638C82.1398 96.2638 81.8058 84.2048 91.3418 86.1108C91.3418 86.1108 80.8528 81.3438 80.2328 95.6438C80.2328 95.6438 76.4188 89.9238 79.6128 89.3048C79.6128 89.3048 80.2328 81.3438 83.7608 85.1578C83.7608 85.1578 86.9548 79.7718 89.8158 84.2048C89.8158 84.2048 95.5368 83.8708 94.9168 87.3978C94.9168 87.3978 94.2968 89.6378 88.5758 88.9708C88.5758 88.9708 92.3898 91.8308 85.0958 92.4508C85.0008 92.4508 87.1938 94.3568 82.1398 96.2638Z" fill="#009D57"/>
<path d="M90.7221 91.497C90.7221 91.497 95.8241 91.497 98.0171 96.597C100.258 101.698 94.8231 90.544 87.1941 94.071C87.1941 94.071 89.1011 95.024 85.2871 97.265C85.2871 97.265 92.9161 99.171 91.6281 96.645C91.6281 96.645 94.1551 103.318 97.0161 99.505C97.0161 99.505 104.024 101.412 101.45 96.645C101.45 96.645 105.264 92.498 95.7281 91.545C95.7281 91.545 97.3021 89.018 94.7751 89.638C94.8231 89.591 93.8691 91.831 90.7221 91.497Z" fill="#009D57"/>
<path d="M73.3682 68.7612C77.3732 69.6192 79.2322 73.8612 82.0452 76.6262C83.8092 78.3422 86.1452 79.2952 87.8142 81.0112C88.2912 81.4882 87.9572 80.7732 88.2912 81.4882" stroke="#FFD520" stroke-width="0.551867"/>
<path d="M84.5239 76.3872C87.6709 78.6282 89.5309 79.5812 90.5789 82.7272" stroke="#FFD520" stroke-width="0.551867"/>
<path d="M66.646 79.2002C67.075 79.2952 67.504 79.2472 67.933 79.5332C72.224 82.2502 76.944 82.3462 81.759 81.6312C82.856 81.4882 83.904 81.6782 84.954 82.0602" stroke="#FFD520" stroke-width="0.551867"/>
<path d="M70.459 82.6792C72.605 83.5852 74.131 83.9662 76.514 83.9192C78.803 83.8712 80.805 83.2992 82.712 83.4892" stroke="#FFD520" stroke-width="0.551867"/>
<path d="M113.178 71.0962C113.559 72.1932 114.465 73.0512 114.846 74.1472C114.989 74.5762 115.228 75.0522 115.276 75.5292C115.371 76.1012 115.8 76.5782 116.038 77.1022C116.563 78.2942 116.849 79.5332 116.896 80.7722C116.992 84.5862 116.896 89.0662 113.559 91.6402C110.937 93.6902 108.553 95.6922 106.789 98.4092C107.123 97.6462 106.741 96.7882 107.027 96.0262C107.218 95.5012 107.361 94.9292 107.647 94.4532C108.601 93.0702 109.793 92.1172 111.175 91.1642C112.51 90.2102 114.036 89.2572 114.274 87.5892" stroke="#FFD520" stroke-width="0.551867"/>
<path d="M102.546 56.606C102.069 58.512 102.927 60.181 103.404 61.992C103.833 63.708 105.12 64.756 106.122 66.234C106.503 66.806 106.98 67.33 107.552 67.807C108.363 68.522 109.078 69.285 109.793 70.143C110.889 71.43 111.891 72.669 112.606 74.099C112.987 74.862 113.512 75.672 113.512 76.578" stroke="#FFD520" stroke-width="0.551867"/>
<path d="M108.935 73.5269C108.076 73.7179 105.168 74.7659 104.405 75.2909C104.024 75.5289 103.595 75.8149 103.07 75.9099C102.117 76.0529 101.449 76.8159 100.782 77.4359C98.9218 79.1039 97.4438 81.4399 97.4438 83.9659C97.4438 85.3479 97.7778 86.8259 98.5408 88.0169C99.1608 88.9709 99.5418 89.9719 100.353 90.7819" stroke="#FFD520" stroke-width="0.553112"/>
<path d="M96.8251 78.7231C96.8251 79.0091 96.7301 79.1521 96.5391 79.3901C96.3961 79.5331 96.5871 79.9141 96.4431 80.1531C96.2531 80.5821 96.0141 81.0111 95.9191 81.4401C95.3471 83.4421 95.5851 85.4911 96.6341 87.2071C97.3491 88.3511 98.7801 88.7801 99.6851 89.8291" stroke="#FFD520" stroke-width="0.553112"/>
<path d="M137.017 84.252C135.92 84.633 134.633 85.0619 134.251 86.2059C133.965 86.9689 133.632 87.684 133.203 88.399C132.726 89.209 132.201 89.924 131.724 90.687C131.343 91.354 131.009 92.022 130.58 92.641C129.96 93.452 129.007 94.357 128.244 95.024C128.244 95.024 127.243 97.217 127.243 97.169C126.385 101.459 126.862 105.559 124.621 109.276C124.43 109.563 123.572 109.801 122.761 109.706C123.19 109.324 123.143 109.276 123.19 109.229C123.381 108.848 123.333 108.514 123.476 108.18C124.907 105.559 125.24 102.889 125.145 100.029" stroke="#FFD520" stroke-width="0.551867"/>
<path d="M144.359 104.605C143.214 104.558 143.024 105.463 142.022 106.131C139.829 107.513 136.492 111.851 134.299 113.328C130.866 115.712 128.577 114.329 124.859 114.615C122.189 114.806 121.044 115.235 117.755 117.904C117.516 118.095 116.563 119.191 116.754 119.525C117.087 120.001 117.04 120.001 117.326 120.383C117.707 120.049 117.755 120.192 118.089 119.858C119.9 118.095 121.331 117.523 123.619 116.808C126.194 115.997 129.34 117.332 133.345 115.95C136.444 114.853 139.495 110.659 141.832 108.323C144.263 105.892 148.506 104.748 151.176 107.036" stroke="#FFD520" stroke-width="0.551867"/>
<path d="M127.243 123.91C127.243 123.91 124.716 126.627 125.812 127.389L126.432 128.2C126.432 128.2 121.522 132.633 124.048 133.586C124.048 133.586 122.618 138.353 125.145 137.542C125.145 137.542 124.334 141.022 126.718 140.736C126.766 140.736 125.812 130.25 127.243 123.91Z" fill="#009D57"/>
<path d="M128.53 121.861C128.53 121.861 127.577 134.111 128.053 141.404C128.053 141.404 130.771 139.02 129.817 137.733C129.817 137.733 133.965 137.114 130.628 132.347C130.628 132.347 134.585 130.583 129.675 126.77C129.627 126.77 132.487 125.817 128.53 121.861Z" fill="#009D57"/>
<path d="M131.057 122.146C131.057 122.146 141.403 133.586 143.31 137.256C143.31 137.256 142.356 139.02 140.592 136.637C140.592 136.637 135.491 137.733 136.921 133.634C136.921 133.634 133.25 135.683 132.773 133.014C132.773 133.014 135.157 130.964 131.962 127.151C132.01 127.104 133.441 125.96 131.057 122.146Z" fill="#009D57"/>
<path d="M129.484 119.001C129.484 119.001 139.019 125.674 143.787 136.16C143.787 136.16 144.788 135.636 143.31 133.157C143.31 133.157 145.837 129.964 141.88 128.534C141.88 128.534 142.977 122.48 136.492 122.671C136.492 122.623 137.923 118.81 129.484 119.001Z" fill="#009D57"/>
<path d="M145.218 113.09C145.218 113.09 145.694 123.433 147.744 126.579C149.079 128.676 148.364 126.722 148.364 126.722C148.364 126.722 146.934 116.712 146.934 112.089C146.934 112.089 146.314 109.372 145.98 108.276C145.742 107.513 148.841 110.325 148.984 111.612C149.127 112.899 148.507 112.899 148.507 112.899C148.507 112.899 153.275 118.762 149.938 119.096C149.938 119.096 153.275 123.719 150.271 124.959C150.271 124.959 150.414 131.155 148.221 128.915C147.268 127.962 146.791 126.865 146.791 126.865C146.791 126.865 146.934 130.202 145.218 129.249C145.218 129.249 142.357 125.912 143.93 122.099C143.93 122.099 139.21 123.338 142.977 115.092C142.977 115.092 139.973 114.138 142.023 110.659C142.023 110.659 143.12 110.039 143.787 108.752C144.407 107.561 145.218 113.09 145.218 113.09Z" fill="#009D57"/>
<path d="M150.461 110.23C150.461 110.23 156.04 115.33 156.66 122.766L157.136 122.147C157.136 122.147 158.09 116.284 151.749 110.087C151.749 110.087 152.702 107.227 154.752 109.611C154.752 109.611 155.706 110.564 155.372 112.137C155.372 112.137 159.043 112.613 158.09 116.093C158.09 116.093 158.71 123.386 156.516 123.72C156.516 123.72 154.466 123.72 154.752 121.336C154.752 121.336 152.226 123.243 153.179 118.619C153.179 118.667 152.702 121.861 150.461 110.23Z" fill="#009D57"/>
<path d="M154.418 107.847C154.418 107.847 160.473 110.087 162.38 116.761C162.38 116.761 163.191 119.477 161.57 119.144C161.57 119.144 159.043 119.763 159.997 113.757C159.997 113.757 157.756 113.9 157.279 110.564C157.279 110.564 156.993 111.851 154.418 107.847Z" fill="#009D57"/>
<path d="M159.043 108.991C159.043 108.991 162.38 108.657 162.857 111.517L162.38 112.804C162.38 112.804 163.668 112.184 163.334 114.091L163 114.568L159.043 108.991Z" fill="#009D57"/>
<path d="M166.67 101.364C166.337 102.794 164.621 104.367 164.621 104.367C166.194 106.75 159.233 107.084 159.233 107.084C159.377 110.563 151.128 105.034 151.128 105.034C151.128 105.034 159.377 106.607 165.576 100.887L162.714 101.507C162.714 101.507 159.996 103.89 153.798 103.557C153.798 103.557 154.895 99.6001 158.423 101.316C158.423 101.316 161.76 95.1201 163.81 98.4561C163.81 98.4561 167.148 97.1691 167.481 99.2671L167.338 100.554L166.67 101.364Z" fill="#009D57"/>
<path d="M152.226 103.414C152.226 103.414 148.555 103.557 148.078 103.557C147.601 103.557 157.136 100.22 159.997 90.8302L159.377 90.4962C159.377 90.4962 155.706 96.0732 153.656 97.7892C151.606 99.5052 151.272 94.9292 152.845 94.4532C152.845 94.4532 152.512 89.3522 154.896 90.1632C154.896 90.1632 159.329 81.9162 161.57 86.0162C161.57 86.0162 162.858 89.6862 162.381 91.2592C161.904 92.8322 159.52 94.9292 159.52 94.9292C159.52 94.9292 161.284 95.4062 159.377 97.4552C159.377 97.4552 157.947 98.8862 157.947 99.6962C157.947 99.7432 154.276 98.3132 152.226 103.414Z" fill="#009D57"/>
<path d="M154.132 84.4902C154.132 84.4902 153.989 83.5372 153.989 86.5402C153.989 86.5402 156.23 87.3502 153.369 89.7342L150.842 91.7832C150.842 91.7832 153.369 92.5942 150.222 95.2632C150.222 95.2632 151.51 96.0732 147.362 99.4102C147.362 99.4102 146.265 102.127 146.265 102.746L145.788 100.84C145.788 100.84 152.129 89.5432 151.986 85.7302H151.033C151.033 85.7302 148.315 93.2132 147.219 94.9292C147.219 94.9292 144.024 93.6422 145.931 90.9732C145.931 90.9732 141.498 86.6832 146.074 84.9192C146.074 84.9192 147.171 84.5862 147.838 85.8732C147.743 85.9202 151.748 82.1072 154.132 84.4902Z" fill="#009D57"/>
<path d="M141.068 81.9641C141.068 81.9641 151.224 77.1981 156.468 80.6771L156.611 79.8671C156.611 79.8671 152.94 77.4841 145.169 79.3901C145.169 79.3901 147.695 73.6701 149.126 76.6731C149.126 76.6731 154.37 73.6701 153.56 77.0071C153.56 77.0071 158.947 76.6731 157.04 79.0571C157.04 79.0571 160.997 83.4901 159.424 83.6801C159.424 83.6801 154.323 85.1101 155.276 82.5841C155.276 82.5841 151.939 83.6801 148.458 82.2501C148.554 82.2981 148.554 85.7781 141.068 81.9641Z" fill="#009D57"/>
<path d="M138.066 83.394C138.066 83.394 144.121 92.593 142.214 101.84C142.214 101.84 146.648 96.454 144.741 95.024C142.833 93.594 144.264 95.024 144.264 95.024C144.264 95.024 145.551 89.7811 142.5 89.7811C142.5 89.7811 143.787 83.442 141.213 85.157C141.26 85.157 138.066 83.871 138.066 83.394Z" fill="#009D57"/>
<path d="M137.445 83.7281C137.445 83.7281 142.07 94.3571 140.926 97.2181C140.926 97.2181 134.871 92.7851 139.162 92.5941C139.162 92.5941 131.39 88.1611 136.921 86.3971C136.968 86.3971 135.348 81.8211 137.445 83.7281Z" fill="#009D57"/>
<path d="M131.248 94.834C131.248 94.834 136.158 98.504 135.395 106.893C135.395 106.893 131.915 103.891 133.822 103.223C133.822 103.223 128.244 100.84 131.104 99.076C131.104 99.076 127.29 97.17 129.531 95.406L131.248 94.834Z" fill="#009D57"/>
<path d="M133.298 91.0208C133.298 91.0208 131.725 94.4998 134.252 95.6438L135.539 95.9778C135.539 95.9778 133.155 98.5998 137.923 100.888C137.923 100.888 135.539 102.794 139.21 104.367C139.21 104.367 140.021 98.0268 133.822 89.9238L133.298 91.0208Z" fill="#009D57"/>
<path d="M132.964 107.37C132.964 107.37 129.007 111.04 125.669 110.23C122.332 109.42 133.631 116.093 132.678 109.753C132.678 109.753 136.158 109.611 132.964 107.37Z" fill="#009D57"/>
<path d="M121.855 102.46C121.855 102.46 112.177 96.741 104.691 107.37L104.548 106.56C104.548 106.56 109.459 96.55 119.328 100.029C119.328 100.029 116.992 94.5 115.657 97.646C115.657 97.646 109.459 94.167 109.793 98.456C109.793 98.456 103.595 97.98 105.168 102.127C105.168 102.127 100.067 104.51 103.404 107.227C103.404 107.227 102.45 110.42 105.931 108.657C105.931 108.657 109.888 110.42 110.699 106.131C110.699 106.131 114.37 107.227 115.323 103.89C115.323 103.89 115.514 106.131 121.855 102.46Z" fill="#009D57"/>
<path d="M93.8208 104.129C94.1068 104.415 94.6318 105.893 94.9648 106.417C96.3478 108.562 96.4908 109.039 96.5858 109.706C96.5858 109.801 96.8728 109.944 96.9678 110.039C98.3028 112.327 99.8278 114.186 101.02 115.188C101.163 115.33 101.783 116.57 101.831 116.713C102.355 118 102.022 118.333 102.451 119.668C102.737 120.669 103.881 121.146 104.501 122.004C105.55 123.338 106.36 124.53 106.789 126.246C107.362 125.865 107.219 125.007 107.886 124.673C107.409 124.292 107.123 123.052 106.885 122.671C105.645 120.86 103.977 120.574 103.547 118.429C103.07 116.284 103.357 115.616 102.594 114.234C101.926 113.09 100.21 112.184 99.3518 111.136C98.9698 110.659 98.6368 110.135 98.3978 109.563C97.8738 108.085 97.1108 106.703 96.2528 105.368C95.4898 104.224 94.6788 103.223 94.2498 101.936" stroke="#FFD520" stroke-width="0.551867"/>
<path d="M113.273 107.703C113.273 107.703 106.598 111.04 107.695 112.947C107.695 112.947 110.698 111.993 111.032 115.807C111.032 115.807 112.796 113.423 112.796 111.517C112.796 111.517 114.847 113.566 116.134 109.944C116.134 109.944 122.189 110.277 120.282 106.941C120.282 106.941 122.666 105.368 122.666 103.461C122.666 103.414 118.994 106.702 113.273 107.703Z" fill="#009D57"/>
<path d="M119.948 84.2042C119.948 84.2042 125.812 75.6242 140.592 79.4382C140.592 79.4382 142.642 81.6782 137.588 81.3442C137.588 81.3442 138.542 83.7272 132.821 82.1552C132.821 82.1552 133.297 85.1572 126.003 82.2982C126.003 82.2982 128.863 83.7282 119.948 84.2042Z" fill="#009D57"/>
<path d="M124.096 79.7241C124.096 79.7241 129.484 75.4341 139.019 77.9601C139.019 77.9601 137.923 74.9571 135.205 76.5301C135.205 76.5301 133.822 70.9531 129.961 76.8641C129.865 77.0071 129.484 77.0071 129.484 77.0071C129.484 77.0071 126.766 72.9081 124.096 79.7241Z" fill="#009D57"/>
<path d="M122.666 86.3972C122.666 86.3972 119.185 93.2612 123 100.84C123.143 101.173 123.476 101.173 123.476 101.173C123.476 101.173 128.864 90.5442 124.907 91.4972C124.907 91.4972 132.058 85.7772 126.194 84.8242L122.666 86.3972Z" fill="#009D57"/>
<path d="M120.282 87.3512C120.282 87.3512 118.708 93.8812 120.615 97.5032C120.615 97.5032 113.797 94.1672 117.612 92.4032C117.564 92.4512 116.753 83.0602 120.282 87.3512Z" fill="#009D57"/>
<path d="M103.261 92.3071C103.261 92.3071 96.9198 86.2541 101.688 85.7771C101.688 85.7771 97.2538 79.1041 103.261 79.1041C103.261 79.1041 107.409 73.2411 109.125 77.3401C109.125 77.3401 111.986 73.5271 112.796 76.8641C112.796 76.8641 104.072 79.3901 103.404 85.4441C103.404 85.4441 101.02 88.6371 103.404 91.3061L103.261 92.3071Z" fill="#009D57"/>
<path d="M105.788 82.4408C105.788 82.4408 109.459 78.4848 113.083 77.6738L113.703 80.8678C113.703 80.8678 111.462 82.2978 110.508 81.0108C110.508 81.0108 107.648 79.9148 107.648 83.0608C107.648 83.0608 106.551 85.1098 104.644 84.9668L105.788 82.4408Z" fill="#009D57"/>
<path d="M104.358 91.0211C104.358 91.0211 106.742 85.6341 112.797 85.3011V84.3471C112.797 84.3471 106.742 85.3011 105.025 88.3041C105.025 88.3041 104.882 85.1101 107.743 84.9671C107.743 84.9671 108.696 80.5341 112.368 82.7271C112.368 82.7271 113.178 81.7731 113.798 82.1071C113.798 82.1071 114.275 85.3011 112.987 87.4931C112.94 87.5411 111.843 92.5931 104.358 91.0211Z" fill="#009D57"/>
<path d="M90.3878 102.46C90.3878 102.46 93.7248 102.318 93.2488 106.75C93.2488 106.75 96.7288 109.944 97.3958 115.473C97.3958 115.473 92.2948 110.707 92.1518 106.75L91.3418 106.893C91.3418 106.893 90.8648 110.087 93.5818 113.09C93.5818 113.09 87.8608 108.8 89.6248 106.75C89.6248 106.75 82.9498 105.94 84.2378 102.127C85.5248 98.3131 83.9038 101.507 83.9038 101.507L87.0978 100.411C87.0498 100.411 88.6238 102.603 90.3878 102.46Z" fill="#009D57"/>
<path d="M79.0891 85.3009C79.0891 85.3009 76.8481 85.9209 78.1351 88.3039C78.1351 88.3039 74.3211 91.9739 80.0421 98.1709C80.0421 98.1709 71.4611 95.6439 74.1781 90.4009C74.1781 90.4009 75.1321 88.9709 75.6091 89.1139C75.6091 89.1139 73.7021 84.9669 79.0891 85.3009Z" fill="#009D57"/>
<path d="M74.035 86.5879C74.035 86.5879 73.082 88.0179 74.369 88.8279C74.369 88.8279 69.124 91.5449 74.702 97.0739C74.702 97.0739 70.412 95.8819 69.458 94.2139L70.555 93.7369C70.555 93.7369 72.795 90.0669 71.508 88.4939C71.46 88.4939 72.605 86.5879 74.035 86.5879Z" fill="#009D57"/>
<path d="M75.942 80.1998C76.514 80.1998 82.283 80.5338 83.237 80.0568C83.237 80.0568 81.33 76.7208 78.135 77.1968C78.135 77.1968 79.518 71.7628 74.178 74.6708C74.178 74.6708 72.748 66.9018 69.411 71.4768C69.411 71.4768 67.503 74.3368 68.934 76.1008C70.364 77.8648 72.7481 80.0568 73.7021 80.5338C74.6551 81.0108 74.798 80.1998 75.942 80.1998Z" fill="#009D57"/>
<path d="M69.553 69.4281C69.553 69.4281 60.352 69.2851 53.486 71.9541V70.8581C53.486 70.8581 61.114 68.1411 64.786 68.4751C64.786 68.4751 64.642 64.3281 62.545 64.1851C62.545 64.1851 60.781 63.5651 60.781 66.4251C60.781 66.4251 57.11 63.5651 56.633 67.8551C56.633 67.8551 53.295 66.7591 53.772 69.9051C53.772 69.9051 49.2905 71.6211 52.962 73.8611C52.962 73.8611 55.203 74.3381 56.299 72.9081C56.299 72.9081 58.6829 75.7671 61.6869 71.1441C61.6869 71.1441 64.69 73.3841 66.931 71.4771C67.026 71.4771 67.98 70.5241 69.553 69.4281Z" fill="#009D57"/>
<path d="M75.2749 61.945C75.2749 61.945 76.0859 51.3151 80.5189 47.9785L81.6159 47.6448C81.6159 47.6448 72.8909 61.134 80.0429 69.905C80.0429 69.905 80.8529 66.711 79.7089 64.519C79.7089 64.519 82.0929 62.612 80.6629 58.656C80.6629 58.656 84.1429 56.797 81.7589 53.269C81.4259 52.793 81.4259 52.793 81.4259 52.793C81.4259 52.793 84.4289 49.9328 81.9019 46.9299C81.9019 46.9299 78.8989 46.1195 78.4219 48.0261C78.4219 48.0261 77.4679 49.3131 77.9449 50.4095C77.9449 50.4095 73.7969 48.0261 74.9409 55.176C74.9889 55.128 71.6519 56.844 75.2749 61.945Z" fill="#009D57"/>
<path d="M73.7009 67.6641C73.7009 67.6641 69.8869 66.6631 63.0689 53.9841C62.9739 53.8411 62.7359 54.7951 62.7359 54.7951C62.7359 54.7951 65.5959 62.4211 69.0769 65.6151C69.0769 65.6151 65.7389 62.2781 65.1189 62.2781C64.4999 62.2781 62.2589 62.2781 64.4999 60.7051C64.4999 60.7051 59.8749 60.5621 63.0689 57.9881C63.0689 57.9881 60.8289 53.5551 62.2589 52.6021C62.2589 52.6021 65.7389 52.7451 66.0729 55.6051C66.0729 55.6051 68.4569 53.5551 69.0769 55.1281C69.0769 55.1281 70.3639 57.369 68.1229 58.465C68.1229 58.465 70.3639 58.3221 69.4109 60.7051C69.4109 60.6571 70.0299 57.6551 73.7009 67.6641Z" fill="#009D57"/>
<path d="M56.8721 61.4672C56.8721 61.4672 58.6361 63.2312 61.7821 63.3742C61.7821 63.3742 61.3051 60.0382 60.0181 60.8482C60.0181 60.8482 58.2541 58.3212 57.3011 59.8952C57.3011 59.8952 53.8201 59.8952 56.0131 62.8972C56.0131 62.8972 54.9171 65.1382 58.7311 63.9942C58.7311 63.9942 59.0651 64.1372 59.0651 63.9942L56.3471 62.0872L56.8721 61.4672Z" fill="#009D57"/>
<path d="M87.194 65.1379C87.194 65.1379 84.667 69.0939 85.287 73.0979L85.763 72.7639C85.763 72.7639 88.624 61.1819 94.202 60.3709C94.202 60.3709 96.586 59.7519 97.063 60.0379C97.54 60.3709 96.252 69.2369 94.536 63.9939C94.536 63.9939 92.772 71.9539 90.865 67.3299C90.865 67.3299 88.815 74.6229 87.194 71.7629C87.194 71.7629 86.574 77.1499 84.953 74.7659C84.953 74.7659 82.569 71.7629 84.619 69.8569C84.667 69.9039 81.663 68.6169 87.194 65.1379Z" fill="#009D57"/>
<path d="M94.2028 49.8848C94.2028 49.8848 83.0938 56.701 82.7598 65.948C82.7598 65.948 92.9148 59.895 87.5278 58.465C87.5278 58.465 96.1098 56.224 91.9618 53.841C91.9618 53.841 100.067 45.4042 91.6278 48.7408C91.6278 48.7408 89.2438 47.3108 87.4798 51.4579C87.4798 51.4579 83.5228 51.6009 84.1428 56.224C84.1428 56.224 90.4838 50.3615 93.2018 49.4082C95.9668 48.4548 94.2028 49.8848 94.2028 49.8848Z" fill="#009D57"/>
<path d="M91.4839 80.6772C91.4839 80.6772 91.5799 65.9012 103.547 69.3802C103.833 69.4762 102.927 69.3802 102.927 69.3802L103.737 68.7612C103.737 68.7612 100.066 67.1882 96.5859 68.1412C96.5859 68.1412 101.02 61.4682 103.118 65.7582C103.118 65.7582 103.261 66.3772 102.641 67.1882C102.641 67.1882 107.265 66.3772 106.789 69.5712C106.789 69.5712 109.983 71.4782 106.169 71.6212C106.169 71.6212 106.312 74.1472 102.832 71.2872C102.832 71.2872 102.975 74.1472 98.2069 71.7642C98.2069 71.7642 100.925 73.0512 93.1049 77.4832C93.1049 77.5312 92.1519 77.8172 91.4839 80.6772Z" fill="#009D57"/>
<path d="M88.3382 48.455C88.3382 48.455 86.5742 45.452 89.4352 45.7379C89.4352 45.7379 88.0052 41.7816 90.3882 42.4013C90.3882 42.4013 91.6762 37.4918 93.3922 41.7816L93.7262 44.022C93.7262 44.022 95.2992 44.165 96.5862 44.8323C96.5862 44.8323 94.5362 44.9753 94.3462 47.2157C94.3462 47.2157 92.9152 46.596 92.2952 47.3586C92.2952 47.3586 91.8192 42.9256 92.4392 42.5921H91.6282C91.6282 42.5921 90.6742 46.739 91.0082 47.6924C91.0082 47.6446 89.2922 47.0249 88.3382 48.455Z" fill="#009D57"/>
<path d="M95.7759 47.311C95.7759 47.311 97.3489 47.6447 96.7289 49.8373C96.7289 49.8373 99.9239 43.7836 104.501 43.1641L105.311 43.6406C105.311 43.6406 94.8219 48.0736 98.4929 58.751L99.4469 60.991C99.4469 60.991 101.497 57.988 100.4 57.178C99.3039 56.368 103.738 52.078 100.4 51.7916C100.4 51.7916 106.456 50.5046 103.738 47.025C103.738 47.025 108.172 45.1184 107.695 42.1153C107.695 42.1153 105.788 40.5424 104.501 41.4958C104.501 41.4958 102.451 41.8293 101.64 42.9258C101.64 42.9258 99.7329 41.4958 98.1599 45.3089C98.1599 45.2613 96.2529 45.738 95.7759 47.311Z" fill="#009D57"/>
<path d="M106.122 62.0878C106.122 62.0878 104.358 59.7038 103.404 55.5568C103.404 55.5568 105.168 53.0308 103.881 52.2208C103.881 52.2208 108.172 49.8373 106.408 47.4539C106.408 47.4539 110.222 45.0707 111.033 47.9306C111.033 47.9306 113.416 42.5444 114.99 44.451C114.99 44.451 117.374 44.3081 116.086 47.4539C116.086 47.4539 117.993 49.8373 113.845 51.8869C113.845 51.8869 118.136 54.1268 110.365 58.2268C110.365 58.2268 112.606 60.6098 107.648 65.7098C107.648 65.7098 106.074 55.5568 114.179 46.5007H113.369C113.416 46.5483 106.456 50.8383 106.122 62.0878Z" fill="#009D57"/>
<path d="M119.138 75.767C119.138 75.767 119.615 65.424 117.231 59.418H117.851C117.851 59.418 123 67.473 119.901 80.725C119.901 80.725 126.433 70.095 122.285 71.048C122.285 71.048 127.386 61.849 121.665 65.328C121.665 65.328 123.715 57.845 120.568 60.419C120.568 60.419 117.708 53.412 116.278 56.272C116.278 56.272 115.324 57.225 116.278 59.466C116.278 59.466 114.704 59.132 115.467 61.849C115.467 61.849 110.842 61.229 114.18 66.282C114.18 66.282 114.8 67.378 115.753 68.331C115.801 68.284 111.701 69.904 119.138 75.767Z" fill="#009D57"/>
<path d="M117.565 48.1216C117.565 48.1216 118.661 45.7382 117.421 44.3082C117.421 44.3082 117.421 42.5446 118.518 42.5446C118.518 42.5446 120.759 38.5885 122.475 45.2617C122.475 45.2617 124.525 47.3113 122.952 48.4553C122.952 48.4553 124.239 51.9349 121.855 54.986C121.855 54.986 124.096 55.796 122.332 57.988C122.332 57.988 120.568 56.225 119.948 55.748C119.948 55.748 122.332 47.3113 120.425 43.212H119.805C119.805 43.212 120.902 49.2656 118.852 55.129C118.852 55.129 117.565 53.079 115.991 54.795C115.991 54.795 117.565 53.031 115.991 51.9349C115.991 51.9349 119.138 49.4085 117.565 48.1216Z" fill="#009D57"/>
<path d="M125.049 54.651C125.049 54.651 123.762 49.4082 124.573 49.2652C124.573 49.2652 126.623 44.8322 129.483 48.4548C129.483 48.4548 129.96 46.5481 131.247 46.6913C132.535 46.8342 133.774 46.2146 134.442 47.3108C135.061 48.4072 135.062 50.7905 133.154 51.2671C133.154 51.2671 135.586 53.317 130.151 54.747C130.151 54.747 134.918 57.607 125.383 61.897C125.383 61.897 124.429 60.943 123.953 59.37C123.953 59.37 130.484 49.5036 133.011 48.4072L132.201 47.9304C132.201 47.9782 128.863 49.8847 125.049 54.651Z" fill="#009D57"/>
<path d="M138.066 57.6549C138.066 57.6549 136.492 52.5539 134.251 56.8439C134.251 56.8439 133.441 57.6549 134.251 59.5609C134.251 59.5609 129.627 57.6549 130.771 63.3749C130.771 63.3749 133.965 65.7579 134.442 66.2339C134.442 66.2339 135.729 60.5139 135.539 58.4649H136.159C136.159 58.4649 136.778 65.7579 134.394 71.9539C134.394 71.9539 140.449 66.3769 137.398 64.1849C137.398 64.1849 141.689 59.4179 137.875 59.4179L138.066 57.6549Z" fill="#009D57"/>
<path d="M139.496 56.2251C139.496 56.2251 140.306 53.3651 141.546 53.5081C142.833 53.6511 143.119 55.2721 142.499 57.6551L142.022 59.2281H143.119L140.735 61.4681C140.735 61.4681 141.212 58.7511 140.258 58.4651L141.355 56.5591L140.878 56.0821L139.448 57.6551V56.2251H139.496Z" fill="#009D57"/>
<path d="M137.589 73.3842C137.589 73.3842 136.016 67.9982 138.876 69.5712C138.876 69.5712 138.256 59.8952 142.071 63.8512C142.071 63.8512 142.881 57.6552 145.885 60.0382C145.885 60.0382 150.795 57.6552 149.079 62.8982C149.079 62.8982 151.94 67.3312 146.552 67.6652C146.552 67.6652 149.747 71.3352 143.692 72.7652C143.692 72.7652 145.742 75.4822 141.165 77.5312C141.165 77.5312 139.877 74.3382 140.354 73.3842C140.831 72.4312 144.264 62.9462 148.316 61.1342L147.696 60.5152C147.696 60.5152 141.498 65.4242 138.781 74.6712L137.589 73.3842Z" fill="#009D57"/>
<path d="M148.554 71.1439C148.554 71.1439 147.458 69.2369 148.697 68.6179C149.984 67.9979 152.654 68.7609 153.131 68.2839C153.131 68.2839 157.422 66.2339 154.228 71.2869C154.228 71.2869 153.131 72.0969 152.94 74.0039C152.94 74.0039 150.557 74.3379 147.076 75.0999C147.076 75.0999 150.747 69.8569 152.94 69.7139L152.321 69.2369C152.368 69.2369 148.697 70.1909 148.554 71.1439Z" fill="#009D57"/>
<path d="M128.196 64.6618C128.196 64.6618 130.58 70.5248 128.673 74.1948C128.673 74.1948 133.583 71.3348 131.533 69.4278C131.533 69.4278 134.06 66.4248 127.386 62.8978C127.386 62.8978 125.621 62.2778 125.478 63.8508C125.478 63.8508 124.859 66.0918 126.289 66.0918C126.289 66.0918 122.952 69.5708 126.289 71.4778C126.289 71.4778 124.239 73.0508 126.909 74.4808C126.909 74.4808 129.293 72.4308 127.529 64.4708L128.196 64.6618Z" fill="#009D57"/>
<path d="M86.24 120.097C86.24 120.097 88.624 124.863 86.574 124.72C86.574 124.72 91.962 130.917 87.194 130.774C87.194 130.774 87.528 138.067 83.713 135.54C83.713 135.54 84.524 138.877 81.187 138.877C81.187 138.877 84.047 135.683 82.951 132.204C82.951 132.204 86.288 129.344 84.858 124.101C84.81 124.053 86.431 123.433 86.24 120.097Z" fill="#009D57"/>
<path d="M83.5701 119.62C83.5701 119.62 85.1441 122.623 82.6171 123.577C82.6171 123.577 85.9541 129.63 81.3291 131.537C81.3291 131.537 82.2831 136.923 80.2331 137.733C80.2331 137.733 80.3761 141.213 77.7061 141.213C77.7061 141.213 75.1791 135.016 77.3721 133.11C77.3721 133.11 81.8061 132.776 79.8991 125.007C79.8991 125.007 80.0421 120.097 82.4261 117.714L83.5701 119.62Z" fill="#009D57"/>
<path d="M9.33736 111.85L9.19436 113.042L8.52686 113.09L8.28836 107.275C8.04996 102.317 12.1027 100.315 15.5353 100.125C18.9681 99.9821 23.1638 101.65 23.4021 106.607L23.6405 112.422L22.973 112.47L22.7346 111.278L9.33736 111.85ZM22.5915 108.657C22.6868 108.371 22.7346 107.799 22.6868 107.036C22.5915 104.558 21.1613 102.746 15.6307 102.984C10.1002 103.223 8.86066 105.129 8.95576 107.608C9.00356 108.323 9.09896 108.895 9.19436 109.181L22.5915 108.657Z" fill="white"/>
<path d="M24.6416 88.7799C24.4033 89.1619 24.1649 89.8759 24.0695 90.7349L23.1161 98.9809L22.4486 98.8849L22.4008 97.6939L9.09891 96.1679L8.81301 97.3119L8.14551 97.2169L9.09891 89.1139C9.19431 88.2559 9.19431 87.4929 9.00381 87.0639L13.4854 86.5879L13.5806 87.3979C10.9584 88.2559 9.81421 89.2569 9.43271 92.4029C9.38511 92.7839 9.38511 93.1179 9.48051 93.4989L15.2493 94.1659L15.3446 93.3079C15.5354 91.8309 14.9155 91.2109 13.1992 90.6869L13.2946 90.0189L18.7775 90.6389L18.6821 91.3059C16.918 91.4499 16.1553 91.9259 16.0121 93.4039L15.9167 94.2619L22.7824 95.0719C22.9731 94.7379 23.0207 94.3569 23.0683 93.9759C23.4498 90.8769 22.2103 89.3519 19.7311 87.8749L20.017 87.1119L24.6416 88.7799Z" fill="white"/>
<path d="M11.2443 81.7261L10.7676 82.8222L10.1001 82.6311L11.578 77.1971C12.3887 74.3371 14.105 71.7161 16.8703 72.4791C20.3029 73.4321 20.1124 76.9591 19.2541 80.1051L18.9682 81.1062L24.8323 82.7272L25.309 81.6302L25.9765 81.8211L24.6416 86.6351L23.9741 86.4452L24.1173 85.2532L11.2443 81.7261ZM18.1575 80.9151C18.3007 80.6771 18.4912 80.2961 18.6344 79.9141C19.2065 77.8651 18.6344 75.9581 16.2982 75.3381C14.3434 74.8141 12.8176 75.5291 12.1979 77.7691C12.055 78.2461 12.0072 78.7701 12.0072 79.2471L18.1575 80.9151Z" fill="white"/>
<path d="M26.8828 77.8169L26.2631 77.5309C26.406 76.2919 26.1677 75.6719 25.214 74.8619L16.394 67.1399H15.0112L16.0125 64.4229L31.0784 65.7579L31.7935 64.7569L32.4134 65.0429L30.3634 69.7619L29.7435 69.4759L29.9818 68.2839L25.9293 67.9029L23.8793 72.6219L25.5002 74.0519C25.7864 74.2899 25.9769 74.4329 26.3107 74.5759C27.0259 74.8619 27.4551 74.1949 27.9318 73.6219L28.5515 73.9089L26.8828 77.8169ZM24.9757 67.7599L17.5858 67.0449V67.0919L23.164 71.9539L24.9757 67.7599Z" fill="white"/>
<path d="M21.1142 56.2722L20.3037 57.1782L19.7314 56.7972L22.6875 52.1732C24.2133 49.79 26.4541 47.4066 29.3146 49.2657C30.8879 50.2665 31.0787 52.4592 30.3636 54.0322L37.9919 54.6992L38.8023 53.7942L39.3744 54.1752L37.372 57.2732L28.9808 56.5112L28.1704 57.7502L33.7486 61.3252L34.5591 60.4192L35.1312 60.8012L32.4136 64.9952L31.8415 64.6142L32.3183 63.5182L21.1142 56.2722ZM27.6459 57.3692L28.1704 56.5582C29.6961 54.1752 29.3624 52.6972 27.5983 51.6013C25.6912 50.3619 24.1179 51.2675 23.1167 52.7932C22.8783 53.1262 22.6875 53.6032 22.4492 54.0322L27.6459 57.3692Z" fill="white"/>
<path d="M33.9861 37.6353C34.5582 36.968 34.9873 36.3483 35.0827 35.9194L39.1352 38.255L38.8014 38.8747C36.7514 38.1596 34.749 37.8261 33.1278 39.6373L43.2831 48.5985L44.1889 47.8359L44.7134 48.3126L41.376 52.0782L40.8517 51.6014L41.5192 50.6006L31.364 41.6394C29.7428 43.4506 30.3627 45.4049 31.3162 47.3591L30.7441 47.7405L27.9312 43.9749C28.3603 43.832 28.9324 43.3553 29.5045 42.688L33.9861 37.6353Z" fill="white"/>
<path d="M46.9074 45.595L46.4783 45.0707C47.0504 44.165 47.4317 43.5931 46.4783 42.3538L39.6127 33.1542L38.5639 33.7739L38.1348 33.2496L41.2338 30.8186L48.9097 35.3468L46.24 26.8148L49.2912 24.3838L49.7203 24.9081L48.9097 25.7661L57.587 35.9665L58.636 35.3468L59.065 35.8713L55.108 39.0172L54.679 38.4929L55.489 37.6348L47.7179 28.4831L47.6701 28.5306L50.817 38.7788L50.3878 39.1125L41.2338 33.6785L41.186 33.7263L47.3364 41.8295C48.147 42.8781 48.9575 42.9259 49.9109 42.2584L50.34 42.7827L46.9074 45.595Z" fill="white"/>
<path d="M69.2668 30.9137C68.8378 30.9137 68.1228 31.1521 67.3598 31.581L60.0178 35.4897L59.6838 34.87L60.6378 34.1549L54.2968 22.3338L53.1528 22.763L52.8188 22.1433L60.0178 18.2824C60.7808 17.8532 61.4008 17.4243 61.6388 17.043L64.5948 20.4272L63.9748 20.9515C61.7818 19.2832 60.3038 18.9019 57.4908 20.3796C57.1568 20.5702 56.8708 20.7609 56.5848 21.0469L59.3028 26.1472L60.0658 25.7182C61.4008 25.0032 61.5438 24.1451 61.0188 22.4768L61.6388 22.1433L64.2608 27.0052L63.6408 27.3387C62.4968 25.9564 61.7338 25.6229 60.3988 26.3377L59.6368 26.7668L62.9258 32.8679C63.3078 32.8204 63.6408 32.6774 63.9748 32.4866C66.7398 31.0091 67.2648 29.1024 67.0738 26.2425L67.8368 26.0042L69.2668 30.9137Z" fill="white"/>
<path d="M79.6129 22.1431L76.9429 14.0876C76.5619 12.9436 75.9419 12.896 74.8449 13.0868L74.6069 12.4193L78.6599 11.0371L78.8979 11.7044C77.9439 12.1809 77.5629 12.9914 77.8969 13.9924L81.9969 26.1948L81.0429 26.5286L69.3629 17.4242H69.3149L72.3659 26.4332C72.7479 27.5294 73.7009 27.8155 74.7019 27.5772L74.9409 28.2444L70.5549 29.722L70.3159 29.0547C71.2219 28.6258 71.7939 27.6723 71.4129 26.4808L68.3609 17.4242C67.9319 16.185 66.9309 15.8037 65.9299 15.9942L65.6909 15.327L69.4579 14.04L79.6129 22.1431Z" fill="white"/>
<path d="M90.2928 9.03547C91.1508 8.89247 91.8658 8.65416 92.1998 8.36816L93.8688 12.7535L93.2008 13.0394C92.0568 11.1805 90.7218 9.65516 88.3378 10.0365L90.5308 23.4305H91.7228L91.8178 24.098L86.9548 24.9083L86.8598 24.241L88.0038 23.8597L85.8108 10.4655C83.3798 10.8468 82.6638 12.7535 82.1398 14.8507L81.4248 14.8031L81.5678 10.1317C81.9968 10.2749 82.7598 10.2749 83.6178 10.1317L90.2928 9.03547Z" fill="white"/>
<path d="M100.926 15.6607C101.116 12.0382 104.024 7.93885 107.743 8.12945C111.796 8.36775 113.894 12.1336 113.655 16.3758C113.465 19.9983 110.556 24.0975 106.837 23.9069C102.785 23.6686 100.687 19.8554 100.926 15.6607ZM110.795 16.1849C111.081 10.8941 109.841 9.08285 107.648 8.98745C105.788 8.89205 104.024 10.8465 103.738 15.8036C103.452 21.0946 104.692 22.906 106.885 23.0014C108.745 23.1444 110.508 21.1422 110.795 16.1849Z" fill="white"/>
<path d="M113.75 24.0977L113.893 23.4304L115.085 23.5258L117.851 10.4175L116.706 9.98859L116.85 9.32129L124.525 10.9418C125.384 11.1326 126.147 11.1802 126.576 11.0372L126.766 15.8037H125.908C125.098 13.1822 124.382 11.6093 121.522 10.9896C121.14 10.8942 120.807 10.8942 120.425 10.9418L119.186 16.8048L120.425 17.0431C121.808 17.3291 122.475 16.4234 122.904 15.2319L123.572 15.3748L122.428 20.7135L121.76 20.5705C121.855 19.0928 121.665 17.9964 120.235 17.7104L118.995 17.472L117.612 24.0501L118.757 24.479L118.613 25.1463L113.75 24.0977Z" fill="white"/>
<path d="M138.352 32.2962C138.066 31.9627 137.446 31.5336 136.636 31.2L129.007 27.8634L129.293 27.2438L130.438 27.5773L135.825 15.3273L134.824 14.7076L135.11 14.0879L142.595 17.3769C143.406 17.7105 144.121 17.9488 144.55 17.9012L143.692 22.334L142.881 22.1911C142.834 19.4741 142.214 18.0442 139.306 16.7572C138.972 16.6143 138.638 16.5189 138.209 16.4713L135.873 21.7621L136.683 22.0959C138.066 22.7154 138.829 22.2864 139.83 20.8565L140.45 21.1424L138.304 26.0522L137.685 25.766C138.066 24.0501 137.828 23.1921 136.493 22.5724L135.682 22.2389L132.869 28.5783C133.155 28.8643 133.489 29.055 133.823 29.198C136.683 30.485 138.495 29.7223 140.64 27.8157L141.308 28.2924L138.352 32.2962Z" fill="white"/>
<path d="M148.888 21.3809L147.982 20.5706L148.363 19.9985L153.226 23.1446C157.374 25.8615 156.659 30.2943 154.8 33.202C152.94 36.0621 149.126 38.5406 144.978 35.8237L140.115 32.6777L140.497 32.1058L141.593 32.6301L148.888 21.3809ZM143.786 34.06C143.977 34.2984 144.406 34.6797 145.026 35.061C147.124 36.3956 149.412 36.3002 152.416 31.6766C155.42 27.0531 154.609 24.9081 152.511 23.5259C151.891 23.1446 151.367 22.8584 151.081 22.8108L143.786 34.06Z" fill="white"/>
<path d="M164.955 32.0582L164.479 32.5825L163.477 31.9152L156.612 39.3987C155.277 40.8764 155.515 43.1166 156.755 44.2606C158.233 45.6429 160.283 45.7859 161.856 44.0698L167.53 37.8733C168.341 37.0153 168.102 36.0621 167.434 35.2994L167.912 34.7751L171.344 37.9209L170.868 38.4454C170.057 37.8257 169.056 37.6828 168.292 38.5406L163.001 44.3082C161.236 46.2626 158.757 47.3112 155.754 44.5943C153.37 42.4015 152.464 40.0659 154.705 37.635L161.57 30.1515L160.808 29.1981L161.284 28.6738L164.955 32.0582Z" fill="white"/>
<path d="M171.105 55.2242C168.578 56.1292 165.813 55.7482 164.192 53.6982C161.761 50.6954 163.048 46.7869 166.242 44.2605C169.15 41.925 174.013 40.7334 176.542 43.927C176.922 44.4035 177.161 44.8326 177.351 45.3092C177.543 45.7859 177.733 46.1672 177.923 46.4056C178.162 46.6915 178.687 47.0728 179.258 47.3588L176.254 51.1245L175.588 50.6002C176.446 48.6935 177.257 46.2626 175.968 44.6419C174.299 42.5922 171.248 43.6408 169.246 45.2616C166.624 47.3588 164.193 50.9337 166.242 53.5072C167.338 54.8422 169.246 55.1282 170.868 54.5562L171.105 55.2242Z" fill="white"/>
<path d="M167.53 57.0829L168.149 56.7489C169.056 57.6069 169.724 57.7499 170.915 57.5119L182.406 55.0809L183.264 53.9839L184.836 56.4629L174.73 67.7119L175.11 68.8559L174.491 69.1899L171.915 64.7089L172.536 64.3759L173.347 65.2809L176.064 62.2779L173.49 57.7979L171.393 58.2739C171.011 58.3699 170.772 58.4649 170.486 58.6079C169.818 58.9889 170.104 59.7039 170.247 60.4669L169.628 60.8009L167.53 57.0829ZM176.685 61.6109L181.691 56.1289V56.0819L174.444 57.6549L176.685 61.6109Z" fill="white"/>
<path d="M191.607 71.9542C191.893 72.7642 192.275 73.4322 192.608 73.7182L188.652 76.2442L188.223 75.6721C189.796 74.1471 191.035 72.5742 190.178 70.2862L177.494 75.1482L177.78 76.3391L177.114 76.5782L175.302 71.9062L175.968 71.6682L176.542 72.7172L189.224 67.8552C188.366 65.5672 186.362 65.2332 184.169 65.1382L184.075 64.4231L188.699 63.6602C188.652 64.0892 188.795 64.8522 189.128 65.6622L191.607 71.9542Z" fill="white"/>
<path d="M178.448 80.6298L179.116 80.4388L179.592 81.5348L192.561 78.2458L192.418 77.0548L193.084 76.8638L194.324 81.7258L193.656 81.9168L193.18 80.8198L180.212 84.1088L180.355 85.3008L179.688 85.4918L178.448 80.6298Z" fill="white"/>
<path d="M187.648 85.5391C191.225 85.1101 195.802 87.2551 196.278 90.9251C196.756 94.9291 193.418 97.6941 189.221 98.2181C185.647 98.6471 181.069 96.5021 180.592 92.8321C180.069 88.8281 183.453 86.0631 187.648 85.5391ZM188.841 95.3581C194.133 94.6911 195.659 93.1651 195.373 91.0211C195.134 89.1611 192.893 87.7791 187.983 88.3991C182.689 89.0661 181.165 90.5911 181.451 92.7361C181.641 94.5481 183.929 95.9781 188.841 95.3581Z" fill="white"/>
<path d="M185.551 110.469L194.038 110.898C195.23 110.945 195.516 110.373 195.706 109.325L196.374 109.372L196.184 113.662L195.516 113.567C195.42 112.471 194.752 111.851 193.752 111.803L180.88 111.231L180.927 110.23L193.656 102.651V102.604L184.168 102.175C183.024 102.127 182.406 102.937 182.263 103.938L181.546 103.891L181.738 99.2671L182.406 99.3151C182.453 100.316 183.12 101.174 184.407 101.221L193.942 101.65C195.23 101.698 195.992 100.935 196.135 99.8871L196.85 99.9341L196.66 103.891L185.551 110.469Z" fill="white"/>
<path d="M32.3174 144.12L31.9361 144.359L31.4116 143.739L25.5472 147.314C24.403 148.029 24.1647 149.554 24.7368 150.508C25.452 151.699 26.7392 152.128 28.0742 151.366L32.9373 148.41C33.6046 147.981 33.6524 147.314 33.3662 146.694L33.7478 146.456L35.3687 149.125L34.9874 149.364C34.5582 148.839 33.9383 148.553 33.2709 148.935L28.7416 151.699C27.2159 152.653 25.452 152.891 24.0217 150.508C22.8773 148.649 22.7343 146.933 24.6414 145.789L30.5057 142.214L30.172 141.451L30.5533 141.213L32.3174 144.12Z" fill="white"/>
<path d="M34.0815 159.278L38.6109 155.751C39.2783 155.226 39.1354 154.845 38.7538 154.178L39.1354 153.892L40.8995 156.18L40.5179 156.466C39.9934 155.941 39.3737 155.941 38.8492 156.37L31.9838 161.757L31.5547 161.232L34.7489 151.747L29.6952 155.703C29.0755 156.18 29.1231 156.847 29.4569 157.467L29.0755 157.753L27.1685 155.274L27.5498 154.988C28.0265 155.465 28.7418 155.608 29.4093 155.083L34.5106 151.127C35.1781 150.603 35.2259 149.84 34.8921 149.268L35.2734 148.982L36.9422 151.079L34.0815 159.278Z" fill="white"/>
<path d="M33.8911 163.473L34.2249 163.139L34.8445 163.663L41.5194 157.562L41.0427 156.895L41.3764 156.561L43.6648 159.04L43.3311 159.374L42.7114 158.849L36.0841 164.998L36.5611 165.665L36.2273 165.998L33.8911 163.473Z" fill="white"/>
<path d="M48.6708 163.854C49.1 164.235 49.5291 164.569 49.815 164.617L48.1941 167.334L47.765 167.095C48.2895 165.712 48.5279 164.378 47.3359 163.234L41.0902 169.955L41.6147 170.576L41.2809 170.908L38.8018 168.621L39.1355 168.288L39.803 168.764L46.0485 162.043C44.8567 160.899 43.5217 161.28 42.1868 161.9L41.9006 161.519L44.4752 159.707C44.5705 159.993 44.9043 160.375 45.3334 160.803L48.6708 163.854Z" fill="white"/>
<path d="M49.5287 177.82C49.3857 177.534 49.052 177.201 48.5753 176.819L44.0938 173.435L44.3796 173.053L45.0949 173.435L50.5299 166.19L49.9578 165.618L50.244 165.236L54.6299 168.574C55.1069 168.907 55.5359 169.193 55.8699 169.193L54.6299 171.956L54.1059 171.719C54.4869 169.908 54.3439 168.907 52.6279 167.571C52.4369 167.428 52.199 167.285 51.9604 167.238L49.6241 170.384L50.101 170.719C50.9115 171.337 51.4836 171.194 52.3899 170.384L52.771 170.67L50.5299 173.674L50.1486 173.388C50.6731 172.338 50.6731 171.719 49.8624 171.098L49.3857 170.766L46.5728 174.483C46.7158 174.722 46.9066 174.865 47.0973 175.008C48.766 176.295 50.101 176.056 51.8173 175.151L52.1989 175.58L49.5287 177.82Z" fill="white"/>
<path d="M57.205 171.148L56.585 170.623L56.824 170.241L60.209 172.244C63.069 173.96 62.736 177.01 61.544 179.011C60.352 181.015 57.825 182.73 54.964 181.015L51.5791 179.011L51.8175 178.631L52.58 178.964L57.205 171.148ZM54.106 179.822C54.249 180.012 54.535 180.204 54.964 180.49C56.394 181.348 57.968 181.205 59.875 178.01C61.782 174.818 61.21 173.388 59.732 172.53C59.303 172.291 58.969 172.101 58.731 172.052L54.106 179.822Z" fill="white"/>
<path d="M72.461 181.395L71.937 181.301C71.889 180.108 71.699 178.392 70.364 177.82C69.41 177.391 68.552 177.724 68.218 178.535C67.122 181.205 72.652 182.062 71.126 185.733C70.411 187.352 68.599 187.973 66.979 187.305C65.977 186.877 65.405 186.162 64.976 185.972C64.69 185.876 64.356 185.829 64.022 185.829L64.738 182.73L65.262 182.873C65.31 184.446 65.787 186.162 67.312 186.781C68.218 187.162 69.315 186.781 69.696 185.876C70.745 183.349 65.357 182.348 66.931 178.582C67.455 177.344 68.981 176.533 70.554 177.201C70.936 177.391 71.222 177.534 71.46 177.724C71.699 177.916 71.889 178.059 72.128 178.202C72.414 178.296 72.795 178.392 73.176 178.296L72.461 181.395Z" fill="white"/>
<path d="M80.376 181.013C80.949 181.205 81.425 181.252 81.759 181.205L81.473 184.35L80.996 184.303C80.853 182.825 80.519 181.491 78.946 181.013L76.229 189.785L76.944 190.118L76.801 190.547L73.559 189.546L73.702 189.117L74.512 189.26L77.23 180.49C75.656 180.012 74.655 180.919 73.702 182.016L73.272 181.777L74.798 179.011C74.989 179.25 75.466 179.44 76.038 179.632L80.376 181.013Z" fill="white"/>
<path d="M78.8511 191.311L78.9461 190.833C79.8041 190.737 80.1861 190.5 80.5671 189.785L84.4761 182.92L84.2861 182.016L86.2401 182.302L87.3851 192.455L88.1481 192.788L88.0521 193.264L84.6191 192.549L84.7151 192.073H85.5251L85.2391 189.356L81.8541 188.641L81.1391 189.928C80.9961 190.165 80.9481 190.308 80.9011 190.547C80.8051 191.023 81.2821 191.262 81.7111 191.501L81.6161 191.977L78.8511 191.311ZM85.2391 188.688L84.7151 183.731H84.6671L82.1881 188.07L85.2391 188.688Z" fill="white"/>
<path d="M95.5369 183.731C96.1089 183.778 96.6339 183.778 96.9199 183.684L97.2059 186.83L96.7289 186.877C96.2999 185.447 95.7279 184.207 94.1069 184.064L93.1059 193.169L93.8689 193.359L93.8209 193.835L90.4359 193.455L90.4839 192.977L91.2939 192.93L92.2949 183.827C90.6739 183.635 89.8159 184.732 89.1009 186.019L88.6719 185.829L89.6729 182.824C89.9109 183.016 90.4359 183.112 91.0079 183.206L95.5369 183.731Z" fill="white"/>
<path d="M104.787 194.456C104.549 194.313 104.024 194.217 103.452 194.217L97.8262 194.17V193.693L98.6372 193.599L98.6842 184.54L97.8742 184.397V183.921L103.404 183.968C103.977 183.968 104.501 183.921 104.787 183.778L105.454 186.734L104.93 186.83C104.167 185.161 103.404 184.446 101.259 184.397C101.021 184.397 100.782 184.446 100.496 184.493L100.448 188.403H101.021C102.022 188.403 102.403 187.925 102.642 186.781H103.118L103.071 190.5H102.594C102.356 189.307 102.022 188.878 101.021 188.831H100.448L100.401 193.503C100.639 193.599 100.877 193.646 101.164 193.646C103.261 193.646 104.215 192.739 105.025 190.929L105.55 191.072L104.787 194.456Z" fill="white"/>
<path d="M112.892 186.209L112.415 186.401C111.796 185.351 110.842 183.921 109.412 184.064C108.363 184.16 107.743 184.828 107.838 185.733C108.077 188.593 113.417 186.734 113.75 190.786C113.893 192.549 112.558 193.932 110.794 194.075C109.698 194.171 108.887 193.789 108.363 193.836C108.077 193.885 107.743 194.028 107.457 194.171L106.646 191.119L107.171 190.976C107.934 192.312 109.173 193.646 110.842 193.503C111.796 193.407 112.606 192.549 112.511 191.597C112.272 188.832 107.028 190.5 106.694 186.448C106.599 185.114 107.552 183.684 109.269 183.541C109.698 183.492 110.031 183.541 110.317 183.588C110.604 183.635 110.842 183.684 111.128 183.684C111.414 183.635 111.796 183.541 112.082 183.302L112.892 186.209Z" fill="white"/>
<path d="M117.945 187.831C117.373 185.447 118.517 182.206 120.949 181.681C123.619 181.062 125.717 183.112 126.337 185.876C126.909 188.26 125.764 191.501 123.333 192.026C120.663 192.645 118.565 190.594 117.945 187.831ZM124.429 186.305C123.619 182.824 122.475 181.873 121.044 182.206C119.805 182.492 119.042 184.113 119.805 187.355C120.615 190.833 121.759 191.787 123.19 191.454C124.429 191.168 125.192 189.546 124.429 186.305Z" fill="white"/>
<path d="M129.006 190.357L128.863 189.928L129.578 189.546L126.623 180.966L125.812 181.109L125.669 180.68L130.675 178.964C131.247 178.774 131.676 178.535 131.867 178.296L133.631 180.966L133.154 181.252C131.772 180.014 130.818 179.346 128.911 179.965C128.673 180.061 128.434 180.157 128.244 180.3L129.578 184.16L130.389 183.874C131.295 183.541 131.39 182.824 131.2 181.966L131.629 181.824L132.821 185.304L132.392 185.447C131.962 184.542 131.438 183.97 130.532 184.303L129.722 184.589L131.2 188.878L132.01 188.735L132.153 189.164L129.006 190.357Z" fill="white"/>
<path d="M139.447 186.544L139.257 186.115C139.877 185.543 140.02 185.114 139.877 184.256L138.637 176.438L137.922 175.819L139.638 174.818L146.885 182.016L147.696 181.824L147.886 182.253L144.787 183.827L144.597 183.398L145.216 182.873L143.309 180.919L140.21 182.491L140.449 183.921C140.496 184.16 140.544 184.35 140.639 184.542C140.878 185.018 141.402 184.828 141.879 184.732L142.07 185.161L139.447 186.544ZM142.833 180.49L139.304 176.916H139.257L140.067 181.824L142.833 180.49Z" fill="white"/>
<path d="M148.507 181.966L148.268 181.586C148.698 181.014 148.984 180.633 148.411 179.775L144.359 173.196L143.644 173.531L143.405 173.149L145.598 171.67L150.509 175.151L149.222 169.24L151.415 167.81L151.653 168.192L151.034 168.717L156.278 176.104L156.993 175.769L157.232 176.151L154.371 178.059L154.133 177.677L154.753 177.152L150.08 170.526H150.033L151.558 177.63L151.224 177.82L145.36 173.625H145.312L148.984 179.44C149.46 180.204 150.033 180.3 150.7 179.918L150.938 180.3L148.507 181.966Z" fill="white"/>
<path d="M164.144 170.67C163.858 170.719 163.429 171.004 162.952 171.386L158.661 175.008L158.375 174.675L158.9 174.054L153.035 167.142L152.368 167.573L152.082 167.238L156.277 163.664C156.707 163.282 157.088 162.901 157.183 162.615L159.615 164.426L159.281 164.855C157.612 164.093 156.564 163.997 154.943 165.427C154.752 165.569 154.561 165.761 154.466 165.998L156.993 169.003L157.422 168.621C158.185 167.953 158.185 167.381 157.612 166.333L157.946 166.047L160.378 168.907L160.044 169.193C159.091 168.431 158.518 168.335 157.756 169.003L157.327 169.383L160.33 172.959C160.569 172.863 160.807 172.72 160.998 172.577C162.619 171.194 162.714 169.908 162.142 168.002L162.619 167.763L164.144 170.67Z" fill="white"/>
<path d="M159.424 161.614L158.804 162.09L158.471 161.757L161.045 159.087C162.38 157.705 164.144 156.418 165.813 158.039C166.719 158.897 166.577 160.374 165.909 161.328L170.868 162.758L171.487 162.281L171.82 162.615L170.104 164.426L164.621 162.805L163.906 163.52L167.148 166.619L167.767 166.141L168.102 166.476L165.766 168.907L165.431 168.574L165.909 167.906L159.424 161.614ZM163.62 163.139L164.097 162.662C165.431 161.28 165.384 160.279 164.383 159.278C163.286 158.229 162.094 158.611 161.236 159.516C161.045 159.707 160.854 159.993 160.616 160.279L163.62 163.139Z" fill="white"/>
<path d="M172.394 161.757L172.012 161.471L172.44 160.756L165.432 155.036L164.812 155.608L164.431 155.322L166.577 152.7L166.958 152.986L166.527 153.701L173.537 159.421L174.156 158.849L174.538 159.135L172.394 161.757Z" fill="white"/>
<path d="M177.732 149.888C178.829 151.366 179.068 153.225 178.065 154.655C176.589 156.8 173.823 156.752 171.533 155.179C169.436 153.749 167.767 150.841 169.293 148.554C169.532 148.22 169.771 147.981 170.008 147.743C170.296 147.505 170.486 147.314 170.629 147.171C170.772 146.98 170.915 146.551 170.962 146.123L173.966 147.362L173.776 147.886C172.393 147.695 170.629 147.648 169.865 148.792C168.864 150.269 170.153 152.033 171.533 153.034C173.394 154.321 176.16 155.227 177.446 153.368C178.114 152.414 177.875 151.127 177.256 150.174L177.732 149.888Z" fill="white"/>
<path d="M180.355 151.032L179.926 150.793C180.116 149.935 179.973 149.554 179.401 148.934L173.966 143.167L173.012 143.071L173.87 141.308L183.882 143.215L184.407 142.595L184.836 142.833L183.167 145.884L182.739 145.645L182.977 144.835L180.306 144.311L178.637 147.361L179.64 148.41C179.83 148.601 179.926 148.696 180.163 148.791C180.594 149.03 180.927 148.601 181.309 148.267L181.738 148.505L180.355 151.032ZM179.734 144.168L174.824 143.215V143.262L178.257 146.885L179.734 144.168Z" fill="white"/>
</g>
<defs>
<clipPath id="clip0_396_401">
<rect width="204" height="204" fill="white"/>
</clipPath>
</defs>
</svg>
