<svg width="302" height="194" viewBox="0 0 302 194" fill="none" xmlns="http://www.w3.org/2000/svg">
<path fill-rule="evenodd" clip-rule="evenodd" d="M260.334 1.09554C259.705 1.845 259.415 2.60978 259.415 3.51803C259.415 4.55304 259.161 5.08568 258.261 5.94017C256.564 7.55232 255.928 7.78482 252.084 8.19747C250.163 8.40397 246.834 8.87751 244.687 9.24992C242.54 9.6227 237.35 10.4363 233.154 11.0579C225.673 12.1659 225.378 12.1823 218.072 11.8896C213.973 11.7255 208.696 11.5866 206.346 11.5813C202.084 11.5713 202.067 11.5749 200.01 12.8174C198.875 13.5028 196.897 15.0249 195.613 16.1998L193.279 18.3361L185.98 18.3204C178.265 18.3037 176.149 18.0676 168.744 16.3981C154.654 13.2219 145.41 11.614 132.546 10.1034C124.859 9.20043 123.424 9.14276 107.882 9.11178C92.5323 9.08116 90.9847 9.13528 85.7027 9.88688C76.5412 11.19 69.867 12.7078 64.1567 14.7864C55.8398 17.8141 52.2236 20.2708 48.9737 25.1008C45.4331 30.3628 43.3173 35.6069 42.1565 41.996C41.4748 45.7476 41.3893 47.913 41.1788 66.7575C40.9563 86.626 40.919 87.4887 40.1898 89.5441C39.0084 92.8752 38.6794 93.536 35.845 98.2732C31.3739 105.746 28.564 107.842 22.6056 108.15C20.7223 108.247 18.7162 108.148 17.8648 107.916C16.2317 107.471 14.1951 105.465 14.1951 104.3C14.1951 103.631 14.3693 103.604 17.4777 103.804C20.3823 103.99 20.8912 103.931 21.8962 103.293C24.1813 101.841 24.797 98.4259 23.1788 96.1793C22.0932 94.6722 19.0217 93.3598 15.5156 92.9048C9.8134 92.1653 5.45836 93.5674 2.72971 97.021C0.397462 99.9729 0 101.291 0 106.079C0 110.068 0.0532311 110.376 1.09728 112.407C3.71201 117.493 6.96765 120.145 11.9686 121.261C16.0092 122.163 23.051 121.838 26.5973 120.585C28.0509 120.072 29.2841 119.696 29.3376 119.75C29.5687 119.981 28.2727 128.673 27.4976 132.091C27.0313 134.147 26.5426 137.271 26.4113 139.034C26.1998 141.877 26.2594 142.423 26.9412 143.876C27.8738 145.866 29.4061 147.49 31.5315 148.739C33.0032 149.604 33.505 149.687 38.1208 149.823C44.7382 150.018 46.9928 149.603 48.5691 147.9C49.6923 146.687 49.7537 146.491 49.6135 144.546C49.4535 142.324 48.2675 140.054 46.744 139.052C46.2979 138.759 44.7797 138.411 43.3698 138.28C39.8416 137.951 39.4541 137.62 40.0375 135.431C41.2466 130.895 47.8352 121.82 55.3366 114.357C61.3085 108.415 67.2665 102.091 69.2233 99.6151C70.5182 97.9769 70.5551 97.9581 70.7723 98.8254C71.1332 100.269 71.6684 108.122 71.6769 112.109C71.6826 114.645 71.4501 116.807 70.9352 119.008C69.9487 123.224 70.1243 125.36 71.6673 127.915C73.7316 131.332 80.6148 140.397 84.6381 144.997C86.0043 146.559 87.6144 148.581 88.2163 149.49C88.8182 150.398 89.936 151.622 90.7004 152.209L92.0905 153.275L101.495 153.376C110.69 153.475 110.934 153.459 112.475 152.664C114.618 151.558 115.354 150.426 115.584 147.877C115.807 145.418 115.296 144.114 113.526 142.619C111.198 140.654 109.982 140.28 105.929 140.28H102.173L99.4382 137.39C94.2847 131.944 93.4756 130.036 93.8042 124.102C94.0494 119.672 96.0828 107.198 97.2262 103.11C97.6393 101.632 98.5925 98.616 99.3445 96.4075C100.096 94.1993 101.327 89.8671 102.079 86.7805L103.447 81.1683L105.043 81.3997C107.255 81.7201 111.061 83.0264 117.109 85.5419C119.939 86.7189 123.99 88.3005 126.111 89.0563C128.233 89.8122 131.433 91.2253 133.223 92.1966C137.047 94.2706 147.869 98.4804 151.177 99.1804C152.446 99.4488 156.199 99.8404 159.517 100.051C167.39 100.55 171.414 101.08 171.631 101.647C171.726 101.894 171.66 108.645 171.485 116.649C171.181 130.535 171.131 131.27 170.399 132.7C169.377 134.694 169.432 136.019 170.668 139.212C171.237 140.68 172.074 143.62 172.53 145.744C173.344 149.547 173.377 149.617 174.681 150.287C176.936 151.447 180.207 151.967 186.883 152.224C194.323 152.511 195.214 152.335 197.145 150.19C198.657 148.51 199.441 146.817 199.441 145.227C199.441 143.9 196.28 139.239 194.774 138.347C193.675 137.696 190.35 137.605 188.317 138.171C187.567 138.38 186.865 138.463 186.756 138.354C186.648 138.245 186.483 136.956 186.389 135.489C186.222 132.88 186.25 132.767 187.646 130.409C188.431 129.082 190.036 126.369 191.214 124.379C192.391 122.39 194.028 119.506 194.851 117.971C195.675 116.435 197.662 112.776 199.268 109.838C200.874 106.901 202.913 103.136 203.801 101.471C205.281 98.6943 205.572 98.3671 207.327 97.5034L209.24 96.5624L210.248 98.3939C211.815 101.24 213.326 102.992 219.501 109.126C222.656 112.259 226.954 116.746 229.053 119.095C233.475 124.046 236.252 126.573 240.995 129.965C244.697 132.613 247.058 135.123 249.594 139.106C251.387 141.923 252.171 142.573 254.212 142.932C255.913 143.232 258.412 145.467 259.803 147.934C261.249 150.497 261.739 150.701 266.867 150.88C272.436 151.075 285.065 150.406 286.123 149.861C286.56 149.636 287.437 148.959 288.071 148.356C289.049 147.428 289.224 147.01 289.224 145.614C289.224 142.911 288.25 140.68 286.151 138.574C283.849 136.264 281.789 135.307 278.427 134.985C276.126 134.764 275.699 134.598 274.292 133.372C273.429 132.62 272.004 131.744 271.126 131.425C269.722 130.915 269.267 130.449 267.366 127.575C262.937 120.876 256.624 109.554 251.043 98.2967C245.11 86.3301 244.152 83.9333 243.48 79.3891C243.015 76.2407 242.388 67.7149 242.384 64.4657L242.381 62.1739L243.376 63.1306C243.923 63.6568 244.611 64.0872 244.905 64.0872C245.199 64.0872 246.216 63.185 247.165 62.082C249.096 59.8375 250.641 59.0236 254.092 58.4333C257.667 57.8216 266.423 56.9661 269.106 56.9664C272.559 56.9664 278.119 58.2136 282.759 60.0287C286.578 61.523 286.819 61.5718 287.972 61.0883C289.416 60.483 291.139 58.2101 291.983 55.7968C292.498 54.3253 292.851 53.9152 294.193 53.2287C295.309 52.6576 296.151 51.8377 296.991 50.5057C297.652 49.4572 298.781 48.1808 299.5 47.6692C301.258 46.4191 302 44.7318 302 41.9864C302 39.8341 301.939 39.6821 300.301 37.768C299.366 36.6757 297.815 34.6605 296.853 33.2898C295.89 31.919 294.502 29.9982 293.768 29.0208C293.033 28.0439 292.085 26.3616 291.661 25.2824C290.117 21.356 286.698 17.6083 281.48 14.123C278.165 11.9092 277.868 11.6172 277.86 10.573C277.835 7.27105 275.579 2.83978 273.472 1.95074C272.38 1.48967 270.79 1.73783 269.857 2.51436C269.471 2.83622 269.017 2.61334 267.712 1.46119C266.123 0.0576786 265.963 0 263.655 0C261.408 0 261.193 0.0708519 260.334 1.09554ZM262.742 4.19843C262.526 4.33693 262.24 4.80405 262.105 5.23628C261.883 5.95014 261.969 6.01245 263.04 5.91596C264.648 5.77106 266.092 4.99168 265.416 4.63351C264.53 4.16425 263.146 3.93887 262.742 4.19843ZM272.059 4.89021C271.959 5.23593 271.768 6.47993 271.635 7.65486C271.501 8.8298 271.236 10.0916 271.045 10.4587C270.387 11.7265 268.214 14.4203 267.619 14.7062C266.788 15.1054 266.603 22.6655 267.387 24.1862C267.671 24.7373 267.81 25.2828 267.695 25.3974C267.403 25.6901 265.756 24.7868 264.948 23.891C264.577 23.4794 264.071 23.1426 263.824 23.1426C263.057 23.1426 261.194 24.3642 261.191 24.8691C261.187 25.7353 260.054 27.7711 259.576 27.7711C259.019 27.7711 258.911 27.4397 258.177 23.4987C257.556 20.1576 257.728 15.6487 258.555 13.615C258.992 12.5383 258.981 12.4789 258.396 12.7929C258.049 12.9791 257.561 13.8218 257.311 14.6657C256.505 17.3911 255.256 18.1192 255.653 15.633C256.002 13.4405 257.067 11.6425 258.678 10.5221C259.474 9.96877 260.125 9.46497 260.125 9.40231C260.125 9.34 259.526 9.50058 258.794 9.75977C257.2 10.3237 253.512 10.9297 249.748 11.2455C247.085 11.4691 247.008 11.5015 247.211 12.3147C247.482 13.3985 245.221 16.1048 241.143 19.579C238.57 21.7704 238.153 22.291 237.785 23.7689C237.221 26.0383 235.885 28.2593 234.483 29.2565C233.85 29.7073 232.652 30.7152 231.823 31.496C230.51 32.7326 230.315 33.1107 230.315 34.4213C230.315 37.7296 228.583 39.0989 228.482 35.8711C228.424 34.0524 228.434 32.2943 228.505 31.4494C228.525 31.2205 229.305 30.1345 230.239 29.0361C231.937 27.0395 232.87 25.4409 234.094 22.4305C234.453 21.5493 235.317 20.1875 236.015 19.4042C236.712 18.6209 237.628 17.4805 238.048 16.8703C238.469 16.2596 239.715 15.3026 240.816 14.7436C243.748 13.255 244.017 12.0174 241.24 12.7929C238.808 13.4719 234.925 14.2519 232.622 14.5239L230.492 14.7757L230.036 16.3778C229.069 19.7713 227.197 22.6791 224.878 24.3888C223.704 25.2543 222.474 29.2402 221.637 34.8919C221.074 38.6945 220.219 41.8493 219.659 42.1965C219.489 42.3022 219.173 42.058 218.957 41.6542C218.672 41.1198 218.67 39.6034 218.949 36.0979C219.4 30.4297 219.842 28.1147 220.845 26.169C221.248 25.3857 221.91 23.7945 222.316 22.6335C222.916 20.9177 223.352 20.3125 224.644 19.4021C226.242 18.2763 227.831 16.3102 227.831 15.46C227.831 15.1435 227.313 15.0231 226.145 15.0676C225.218 15.1029 221.421 15.0021 217.707 14.8437L210.955 14.5553L210.5 16.2611C210.25 17.1996 209.674 18.4557 209.22 19.0528C208.766 19.6495 208.203 21.0943 207.968 22.2635C207.733 23.4324 207.076 26.2085 206.507 28.4327C205.804 31.1838 205.474 33.3531 205.474 35.2184C205.474 38.358 204.832 39.9107 204.101 38.5399C203.657 37.7089 203.62 32.6866 204.005 25.5637C204.212 21.7291 204.365 20.8846 205.014 20.0048C205.434 19.4341 205.888 18.382 206.021 17.6664C206.158 16.9358 206.636 16.0724 207.111 15.6975C208.449 14.6414 208.178 14.1882 206.28 14.311L204.603 14.4196L204.338 16.0218C203.722 19.7503 203.517 19.8991 201.57 18.0299L200.328 16.8375L198.908 17.9722C197.021 19.4804 195.303 20.4684 193.631 21.0049C192.741 21.2908 192.413 21.5419 192.699 21.7192C193.368 22.1336 192.954 24.0106 191.451 27.3827C190.145 30.3118 190.121 30.4461 190.315 33.6134C190.466 36.0904 190.739 37.3433 191.479 38.9519C192.602 41.3954 193.407 46.6534 193.365 51.2698C193.333 54.7747 193.051 56.0763 192.327 56.0763C191.945 56.0763 191.752 55.4202 191.586 53.5499C191.294 50.2739 190.465 47.4676 188.868 44.3484L187.581 41.8347L187.442 36.0986C187.224 27.0605 188.277 22.7663 190.942 21.8167C191.988 21.4439 191.436 21.3984 187.136 21.5023C182.673 21.6102 182 21.7078 181.16 22.3704L180.214 23.117L180.251 32.1583C180.285 40.1948 180.212 41.4481 179.596 43.4344C178.939 45.5514 178.929 45.9064 179.405 50.1607C179.682 52.6309 179.912 56.1525 179.915 57.9865C179.922 60.9366 179.813 61.5223 178.971 63.0736C177.657 65.4964 176.935 65.2978 176.816 62.4815C176.767 61.3087 176.487 57.9455 176.194 55.0082C175.527 48.3043 175.526 44.453 176.191 42.2527C176.63 40.8036 176.651 39.4916 176.331 33.873C175.884 26.0415 176.089 24.7687 178.127 22.7239L179.457 21.3895L177.981 21.1673C176.638 20.9651 176.396 21.0548 175.286 22.1649C174.616 22.8354 173.844 23.4581 173.571 23.5481C172.968 23.7472 172.161 29.6838 172.125 34.1799C172.112 35.8443 171.853 38.9686 171.55 41.1226C171.246 43.2767 170.89 47.202 170.758 49.8456C170.562 53.7738 170.421 54.6522 169.986 54.6522C168.89 54.6522 168.548 49.4907 168.877 37.9183C169.157 28.0759 169.244 27.0694 169.991 25.1008C170.436 23.9259 171.176 22.5117 171.635 21.9581C172.73 20.6386 172.688 20.2943 171.434 20.2943C170.865 20.2943 170.166 20.2046 169.881 20.0949C169.206 19.835 168.964 21.0366 168.562 26.6421C168.202 31.6719 167.83 33.0683 166.417 34.6822C165.07 36.2214 164.668 38.6774 164.341 47.3533C164.09 54.0334 164.039 54.3905 162.996 56.7884C161.98 59.1233 161.899 59.6414 161.703 64.9905C161.414 72.8814 160.808 75.4449 158.7 77.7058C157.836 78.6326 156.874 79.0011 156.84 78.4179C156.832 78.2712 156.805 73.7448 156.78 68.3597L156.734 58.5686L157.991 56.0763C158.682 54.7056 159.507 52.6818 159.824 51.5792C160.364 49.6957 161.352 41.4527 162.174 31.9592C162.543 27.6957 163.314 24.9228 164.131 24.9228C164.841 24.9228 165.017 25.7916 165.023 29.3135C165.027 31.5526 165.137 32.41 165.372 32.0436C165.562 31.7499 165.719 29.0725 165.722 26.0938C165.727 21.0979 165.784 20.6254 166.454 19.9988C167.179 19.3212 167.176 19.318 165.511 18.8975C163.817 18.4696 163.264 18.6882 163.249 19.7937C163.246 20.008 162.457 21.0847 161.496 22.1863C159.361 24.6348 159.088 25.7417 158.67 33.6615C158.457 37.7015 158.203 39.6953 157.803 40.4722C157.152 41.7336 156.212 42.2442 155.924 41.4915C155.817 41.2117 155.908 36.9395 156.127 31.9984C156.457 24.5248 156.638 22.756 157.201 21.4788C158.001 19.6652 159.499 18.167 160.545 18.1356L161.291 18.1128L160.553 17.813C159.632 17.4392 154.675 17.4339 154.194 17.8063C153.999 17.9572 152.897 18.2748 151.746 18.512C149.266 19.0222 148.525 19.7232 146.048 23.9006C144.213 26.9953 143.986 27.6487 143.35 31.6527C143.045 33.5749 142.453 35.212 141.163 37.7054C140.19 39.5849 138.93 42.0441 138.363 43.1699C137.311 45.2602 136.27 45.8811 136.275 44.416C136.279 43.2646 137.435 39.7273 138.715 36.952C139.451 35.3552 139.997 33.3457 140.359 30.8993C141.626 22.3522 143.755 17.379 146.869 15.6921L147.806 15.1848L146.664 14.8839C145.268 14.5165 142.771 15.4625 138.639 17.9256C137.11 18.8367 135.713 19.5822 135.533 19.5822C134.675 19.5822 135.391 18.1997 137.071 16.6118C138.782 14.9946 138.833 14.9031 137.692 15.491C137.009 15.8431 135.848 16.5302 135.112 17.0187C134.376 17.5069 133.678 17.8102 133.561 17.6927C133.098 17.2274 133.898 15.4828 135.07 14.4057L136.308 13.2686L133.409 13.0147C131.292 12.8296 129.924 12.9061 128.335 13.2985C127.138 13.5936 124.487 14.0095 122.443 14.222C119.836 14.4933 118.641 14.7661 118.434 15.137C118.271 15.4279 117.976 15.6658 117.776 15.6658C116.92 15.6658 114.189 17.9708 112.891 19.7894C112.116 20.8746 110.992 23.123 110.392 24.7854C109.068 28.4565 108.993 29.2444 110.199 26.8166C110.693 25.8232 111.866 24.2987 112.807 23.4289C113.749 22.5591 115.166 20.7372 115.958 19.3796C117.639 16.4985 118.962 15.1271 119.764 15.4358C120.264 15.6284 120.25 15.7989 119.637 17.0045C119.258 17.7486 118.691 19.2465 118.376 20.3335C118.061 21.4201 117.074 23.4178 116.182 24.7729C115.289 26.1284 113.954 28.4387 113.213 29.9074C112.472 31.376 111.13 33.4749 110.23 34.5711C108.94 36.1431 108.548 36.9342 108.379 38.3096C108.261 39.2695 107.782 41.2031 107.314 42.6066C106.683 44.499 106.463 45.9384 106.463 48.1744C106.463 50.3555 106.211 52.0627 105.552 54.3435C104.625 57.5518 103.93 58.7466 102.989 58.7466C102.537 58.7466 102.49 57.7244 102.649 51.3588C102.826 44.2622 102.885 43.7744 104.15 38.9864C104.976 35.8589 105.586 32.5513 105.787 30.1085C106.248 24.518 106.922 22.4519 109.328 19.2507C111.47 16.401 113.523 14.5332 115.425 13.704C116.516 13.228 116.385 13.2005 112.939 13.1874C109.094 13.1728 108.401 12.8199 110.455 11.9241C111.602 11.4243 111.595 11.4211 109.257 11.4072C107.644 11.3976 106.773 11.5521 106.487 11.8985C106.257 12.1766 104.964 12.7409 103.614 13.1521C101.324 13.85 101.029 14.0618 99.2405 16.2963C97.8973 17.9743 97.1411 19.3319 96.7152 20.8284C95.6996 24.3998 93.6828 27.3001 93.6903 25.1788C93.6974 23.055 94.5146 19.6349 95.3021 18.4326C95.7801 17.7027 96.1716 16.9351 96.1716 16.7275C96.1716 15.6651 97.732 13.5171 99.2554 12.4821C100.194 11.844 100.67 11.4186 100.312 11.5357C99.9549 11.6532 99.0514 11.7493 98.3051 11.7493C97.1766 11.7493 96.9757 11.8565 97.1134 12.3852C97.2106 12.7573 96.8096 13.6068 96.1478 14.4324C95.5253 15.2086 94.8102 16.3273 94.559 16.9183C93.8922 18.4849 92.7445 23.5019 92.1171 27.5931C91.8165 29.5513 91.2494 32.996 90.8569 35.248C90.4417 37.6278 90.1419 40.9382 90.1408 43.1531C90.1387 46.8844 89.7735 48.5685 88.893 48.9078C88.5996 49.0207 88.3792 48.5358 88.2312 47.4534C87.8841 44.912 87.9874 37.7139 88.3934 36.1381C88.5957 35.3548 88.903 31.9101 89.0765 28.4832C89.2678 24.7078 89.6138 21.5176 89.9552 20.3879C90.6813 17.9836 93.1441 14.3815 95.0704 12.9065C96.2858 11.9758 96.436 11.7493 95.8373 11.7493C94.9849 11.7493 92.566 13.1746 91.0812 14.5517C90.5258 15.0666 89.5897 16.4491 89.0006 17.624C88.4115 18.7989 87.7294 20.0006 87.4845 20.2943C87.2397 20.588 86.5264 22.333 85.8989 24.1723C85.0032 26.7991 84.8574 27.5771 85.2183 27.801C85.5753 28.0221 85.6569 29.6663 85.5831 35.1383C85.4749 43.1635 85.9405 46.8036 87.4604 49.8125C87.9838 50.8489 88.6499 53.0831 88.9402 54.7768C89.574 58.4736 90.6731 62.338 91.6238 64.2129C92.0064 64.967 92.7679 67.3906 93.3159 69.5984C94.8496 75.776 97.8934 80.8211 100.088 80.8211C101.348 80.8211 101.01 78.5054 99.4137 76.2079C96.3554 71.8058 96.1716 71.2184 96.1716 65.8493C96.1716 62.3608 96.3043 60.8366 96.6496 60.3631C97.3441 59.4103 97.6759 60.159 97.8111 62.9835C97.8728 64.2759 98.1543 66.1768 98.436 67.2076C98.957 69.111 100.708 72.4723 101.017 72.1622C101.11 72.0689 100.537 70.1086 99.7434 67.8061C98.2376 63.4371 98.0474 62.3476 98.6798 61.7132C98.9485 61.4436 98.9439 60.6974 98.6639 59.1483C98.4467 57.9466 98.2362 53.5595 98.1961 49.3992C98.1273 42.2356 98.1642 41.7592 98.8942 40.4106C100.184 38.0269 100.713 37.4725 101.113 38.0842C101.574 38.7899 101.214 42.9566 100.556 44.5314C100.101 45.618 100.082 46.5024 100.424 50.5841C100.644 53.2131 100.918 57.2869 101.034 59.6367C101.216 63.3492 101.408 64.3525 102.498 67.2916C103.629 70.3414 103.755 71.0414 103.777 74.4124C103.79 76.4685 103.961 78.2687 104.156 78.4125C104.802 78.8882 106.199 78.7251 105.997 78.1975C105.744 77.5352 107.032 75.4805 107.7 75.4805C108.121 75.4805 108.237 75.0134 108.237 73.33C108.237 71.8624 108.469 70.7238 108.967 69.7444C109.77 68.166 110.263 64.9887 110.675 58.7466C110.962 54.3859 111.945 51.2342 113.234 50.5424C114.135 50.0585 114.221 50.4103 113.878 53.1953C113.648 55.0573 113.712 56.2682 114.139 58.1798C114.449 59.5687 114.784 61.7071 114.883 62.9319C115.047 64.9603 114.948 65.3911 113.779 67.7648C112.653 70.0513 112.496 70.6953 112.495 73.0149C112.494 76.6508 111.808 77.9838 109.592 78.6518L107.93 79.1524L111.189 80.3116C112.981 80.9493 116.444 82.298 118.884 83.3088C121.323 84.3199 124.917 85.7078 126.868 86.3935C128.82 87.0789 131.361 88.1082 132.514 88.6811C133.668 89.2536 134.666 89.7221 134.732 89.7221C135.126 89.7221 134.748 87.3516 134.176 86.2365C133.266 84.462 131.821 83.1482 129.847 82.303C128.03 81.5243 127.756 80.8902 127.756 77.4719C127.756 75.9071 127.979 75.2975 129.264 73.3511C131.112 70.5519 131.881 70.1374 131.513 72.1394C130.919 75.3655 130.867 76.554 131.297 77.0738C131.539 77.3658 133.318 78.7376 135.251 80.1222C139.696 83.3063 140.038 83.7926 139.448 86.0991C139.108 87.4292 139.1 88.1089 139.413 89.0093C139.638 89.6556 139.821 90.6906 139.821 91.3094C139.821 92.3348 139.971 92.485 141.507 93.0016C142.434 93.3139 144.47 94.0491 146.032 94.6358L148.871 95.7025L148.848 91.8488C148.823 87.7486 148.526 86.8806 147.142 86.8656C146.064 86.8535 143.016 85.0801 142.228 84.0059C141.384 82.8559 141.814 81.5019 143.519 79.9342C144.498 79.0345 144.727 78.519 144.94 76.7263C145.534 71.7439 147.691 66.4246 150.257 63.6141C151.521 62.2294 151.764 62.1272 152.572 62.6403C153.005 62.9152 152.932 63.6906 152.076 67.8865C151.524 70.5946 150.685 74.0685 150.211 75.6059C149.317 78.5069 149.134 80.4751 149.482 83.4626C149.718 85.4917 150.512 86.3006 152.874 86.9212C154.805 87.4278 155.436 88.3407 155.436 90.6243C155.436 92.2112 155.564 92.5317 156.465 93.1999C157.031 93.6201 157.772 94.6917 158.111 95.5815C158.449 96.4709 158.824 97.215 158.944 97.2346C159.064 97.2542 160.71 97.3745 162.601 97.5016L166.04 97.733L165.285 96.9266C164.666 96.2661 164.591 95.9446 164.871 95.1464C165.368 93.7276 166.823 93.786 167.204 95.2408C167.544 96.5428 169.083 98.2653 169.911 98.2721C170.245 98.2746 170.871 98.3718 171.302 98.4875C171.954 98.663 171.724 98.1535 169.917 95.4309C167.723 92.1222 164.837 89.2475 162.883 88.4233C160.668 87.489 161.047 85.7352 163.945 83.4975C166.83 81.2705 167.239 79.91 166.939 73.5301C166.719 68.8521 167.104 66.289 168.072 65.971C168.299 65.8966 169.034 67.5771 169.807 69.9345C171.076 73.8039 171.139 74.2123 170.972 77.4224C170.821 80.3255 170.627 81.159 169.64 83.1706L168.485 85.5237L170.226 87.0515C172.847 89.3511 173.945 91.1452 174.202 93.5449L174.422 95.5925L176.682 95.9973C179.032 96.4185 179.553 96.8169 179.562 98.1973L179.568 99.0173L183.56 98.7827C187.822 98.5316 201.089 96.74 203.492 96.091C204.672 95.772 207.439 94.5621 207.89 94.1669C207.95 94.1143 206.653 91.3702 205.007 88.069C201.466 80.9689 200.51 78.2907 201.214 77.4402C202.222 76.2211 203.064 76.9407 204.275 80.0585C204.911 81.6952 205.547 83.1372 205.687 83.2629C205.827 83.3885 205.821 83.171 205.674 82.7794C205.05 81.1166 202.592 69.341 202.771 68.8724C203.073 68.0824 203.623 68.2611 204.206 69.3388C204.881 70.5875 204.882 70.3902 204.214 67.2257C203.912 65.7934 203.426 62.218 203.134 59.2807C202.842 56.3434 202.432 53.2992 202.222 52.5159C202.013 51.7326 201.724 49.5697 201.58 47.7094L201.318 44.327L201.261 48.9555C201.204 53.5613 200.904 55.0164 200.163 54.273C199.552 53.6599 198.984 42.6696 199.226 36.1381C199.524 28.1144 199.896 25.5761 201.199 22.6976C202.932 18.8687 203.566 19.725 202.754 24.7971C201.854 30.4147 201.608 33.2107 201.63 37.5622C201.642 39.9121 201.725 41.5545 201.814 41.2117C201.993 40.5263 202.816 40.3746 203.176 40.9599C203.302 41.1643 203.562 43.047 203.753 45.1434C203.944 47.2401 204.403 50.3274 204.773 52.0043C205.143 53.6813 206.001 58.2475 206.678 62.1515C208.049 70.0402 208.453 71.4206 210.277 74.4338C213.32 79.4579 215.454 85.5337 214.735 87.1181C214.529 87.5713 214.227 87.9419 214.063 87.9419C213.9 87.9419 213.298 86.9464 212.725 85.7295C211.731 83.6178 205.778 75.2448 206.324 76.7267C206.469 77.1183 206.909 78.6172 207.304 80.0578C207.699 81.4987 208.486 83.7727 209.054 85.1121C209.622 86.4512 210.087 87.7258 210.087 87.9444C210.087 88.163 210.501 89.2198 211.007 90.2925C212.086 92.5826 211.954 93.7938 210.742 92.7079C210.006 92.0481 210.007 92.0645 210.794 93.6386C213.538 99.1252 215.55 101.765 220.011 105.733L222.483 107.931L223.272 107.194C224.513 106.033 226.039 106.279 225.27 107.515C224.691 108.445 225.146 109.209 226.925 110.292C229.173 111.662 229.024 112.914 226.766 111.619C224.997 110.604 225.345 111.153 228.898 114.987L232.515 118.889L235.201 118.992C236.803 119.054 237.942 119.259 238.021 119.499C238.094 119.721 237.349 120.193 236.364 120.548L234.574 121.194L235.534 122.198C236.061 122.751 237.673 124.11 239.116 125.219C241.264 126.869 242.082 127.282 243.622 127.491C246.547 127.889 249.549 128.86 249.369 129.349C249.283 129.584 249.072 129.756 248.902 129.732C248.731 129.707 247.746 129.581 246.714 129.451L244.837 129.214L246.891 131.297C248.021 132.442 249.585 134.291 250.365 135.405C251.506 137.032 252.064 137.504 253.204 137.805C255.463 138.4 255.527 138.439 255.895 139.474C256.087 140.015 256.894 140.939 257.688 141.526C259.352 142.757 261.534 145.277 262.391 146.956L262.982 148.113L269.627 148.102C277.441 148.089 284.595 147.625 285.642 147.062C287.271 146.188 286.169 142.126 283.717 139.965C281.897 138.362 280.41 137.788 278.08 137.788C275.65 137.788 274.716 137.433 272.965 135.846C272.2 135.152 270.888 134.342 270.049 134.045C269.211 133.748 268.293 133.312 268.009 133.076C265.826 131.258 255.592 113.612 249.061 100.403C243.58 89.3212 243.248 88.7494 241.205 86.8738C240.031 85.7968 238.304 84.3943 237.366 83.757C235.853 82.7284 235.418 82.1018 233.489 78.1672C232.294 75.7298 231.415 73.5746 231.536 73.3774C231.982 72.6543 232.892 73.5095 234.961 76.5974C236.908 79.5023 237.928 80.4687 240.478 81.8244C241.209 82.2129 241.226 82.1784 240.945 80.9012C240.785 80.1717 240.468 77.5723 240.242 75.1245C239.774 70.0801 239.266 68.9479 235.728 65.0696C233.09 62.1774 233.217 60.163 235.869 62.824C237.445 64.4052 237.245 63.6678 234.905 59.2807C232.839 55.4073 230.945 51.0583 229.569 47.0286C229.007 45.3816 228.317 43.7787 228.035 43.4668C227.389 42.7505 225.265 37.7534 224.648 35.4976C224.055 33.3321 224.501 31.6616 226.193 29.7059C227.707 27.9563 228.214 28.3397 227.188 30.4589C226.761 31.3408 226.411 32.588 226.411 33.2299C226.411 34.6178 228.605 40.2393 229.756 41.802C230.519 42.8373 232.107 47.5275 232.576 50.1294C232.885 51.8405 234.7 55.8446 237.332 60.6158C238.601 62.9169 239.657 64.7983 239.679 64.7968C239.701 64.7958 239.774 62.5125 239.841 59.7233C239.932 55.9012 240.091 54.5076 240.484 54.0658C241.24 53.2152 240.773 49.3885 239.679 47.468C238.641 45.6454 238.601 43.8887 239.537 41.2957C240.125 39.6682 240.821 38.7963 243.707 36.0654C247.203 32.7589 248.046 32.2405 248.075 33.3788C248.086 33.7993 248.23 33.6889 248.518 33.0395C248.999 31.9567 254.718 26.5001 255.036 26.8198C255.603 27.3888 254.541 29.0126 252.117 31.2838C249.436 33.7957 249.426 33.8121 249.09 36.1986C248.769 38.4673 247.869 40.2183 247.332 39.618C247.197 39.4663 247.202 38.3811 247.345 37.2062C247.487 36.0313 247.583 35.0393 247.557 35.002C247.531 34.9646 246.765 35.8675 245.855 37.0086C244.284 38.9782 244.21 39.1705 244.388 40.815C244.788 44.5232 244.668 49.7548 244.164 50.5549C243.501 51.6084 243.112 50.3459 242.87 46.3511C242.712 43.741 242.506 42.4571 242.281 42.6828C241.929 43.036 242.554 53.5388 243.099 56.4324L243.368 57.8565L243.406 56.4228C243.457 54.5432 244.169 53.5915 246.352 52.4814C248.582 51.3478 249.028 51.686 248.076 53.7898C247.685 54.6557 247.361 55.8695 247.357 56.4872L247.349 57.6102L249.071 56.9536C251.082 56.1871 255.4 55.3176 258.768 55.0015L261.136 54.7793L260.939 53.5584C260.719 52.2012 261.229 51.9413 262.266 52.8827C262.996 53.5456 266.232 54.1113 269.351 54.1217C272.387 54.1316 277.496 55.2243 282.187 56.8664C286.909 58.5191 287.542 58.3952 288.947 55.5423C289.477 54.4653 289.916 53.3797 289.923 53.1301C289.94 52.4362 288.35 51.9819 285.902 51.9819C283.986 51.9819 283.432 52.1471 281.756 53.2188C280.691 53.8992 279.573 54.4599 279.27 54.4649C277.719 54.4909 277.394 52.2183 278.726 50.6667C279.535 49.726 279.749 49.6687 282.382 49.6833C284.505 49.695 285.818 49.9311 287.823 50.6606C289.897 51.4151 290.696 51.5525 291.531 51.2986L292.596 50.975L291.48 50.9444C290.822 50.9262 290.278 50.6877 290.154 50.3622C289.981 49.9104 290.183 49.8382 291.27 49.9624C291.999 50.0457 292.859 50.2248 293.181 50.3601C293.503 50.4954 293.872 50.4352 294 50.2259C294.137 50.0041 293.935 49.8456 293.516 49.8456C292.621 49.8456 289.56 48.8288 288.943 48.3268C288.266 47.7749 288.986 47.2113 289.804 47.6542C290.717 48.1491 291.973 48.5988 293.217 48.8765C293.461 48.931 293.838 49.0869 294.055 49.2229C294.454 49.4736 294.902 49.2275 294.902 48.7586C294.902 48.5197 294.188 48.3382 291.531 47.9016C290.946 47.8055 290.097 47.5299 289.645 47.2896C288.971 46.9307 288.766 46.9453 288.502 47.3697C288.259 47.761 288.031 47.7941 287.57 47.5061C285.778 46.3856 287.58 45.6746 290.49 46.3536C291.551 46.6007 292.419 46.8869 292.42 46.9891C292.421 47.0917 293.017 47.2067 293.744 47.2448C294.472 47.2829 295.127 47.4943 295.2 47.7147C295.279 47.9526 295.514 47.8518 295.778 47.4673C296.511 46.3999 295.893 42.628 294.765 41.2832C293.705 40.0196 293.617 39.5828 294.366 39.2947C294.674 39.1762 295.599 39.6672 296.584 40.4725C299.691 43.0118 299.516 42.9274 299.516 41.8903C299.516 41.3099 298.956 40.3354 298.004 39.2602C296.579 37.6502 292.697 32.327 290.57 29.0664C290.042 28.2561 289.342 26.8721 289.015 25.9909C288.479 24.5486 287.876 23.609 285.956 21.2257L285.349 20.4723L285.553 21.2691C285.857 22.4601 284.688 22.7816 283.846 21.7384C283.486 21.2923 283.192 20.6354 283.192 20.2779C283.192 19.3173 282.424 17.5503 282.232 18.069C282.023 18.6359 280.627 18.6473 280.069 18.0868C279.834 17.8519 279.643 17.2911 279.643 16.8407C279.643 16.3903 279.483 16.0218 279.288 16.0218C279.093 16.0218 278.933 16.182 278.933 16.3778C278.933 16.5737 278.775 16.7339 278.582 16.7339C278.01 16.7339 276.804 15.549 276.804 14.9864C276.804 14.6998 276.474 14.1131 276.071 13.6826C275.568 13.1457 275.225 12.0751 274.981 10.2771C274.519 6.88297 272.54 3.23285 272.059 4.89021ZM266.644 7.63243C263.966 9.44112 263.849 11.1715 266.43 10.7763C267.888 10.553 268.996 9.18335 268.996 7.6068C268.996 6.94777 268.874 6.40872 268.726 6.40872C268.577 6.40872 267.64 6.95952 266.644 7.63243ZM86.7751 12.8303C86.9001 13.0332 86.4884 14.0027 85.8603 14.9847C84.901 16.4843 84.6973 17.1811 84.5887 19.3333L84.4596 21.8965L85.5185 19.752C86.1012 18.5728 86.7425 16.736 86.9441 15.67C87.1453 14.6044 87.4675 13.5747 87.6599 13.3818C88.2174 12.8224 88.068 12.4614 87.2787 12.4614C86.8649 12.4614 86.6467 12.6213 86.7751 12.8303ZM83.0411 13.1318C81.0577 13.6759 78.5892 19.077 78.2113 23.7005C78.1002 25.0581 77.7723 26.927 77.4827 27.853C77.1931 28.7794 77.0469 29.8244 77.158 30.1755C77.2691 30.5269 77.0068 31.4512 76.5749 32.2298C75.8343 33.5661 75.7892 34.0763 75.7793 41.3007L75.7683 48.9555L76.9642 52.5159C78.201 56.1974 82.6128 65.4128 84.6349 68.5377C85.2683 69.5169 86.3887 71.4395 87.1243 72.8102C88.9151 76.147 90.0091 77.8058 91.8183 79.925C93.3719 81.745 93.7013 82.6013 92.8481 82.6013C91.8194 82.6013 88.1524 79.3211 86.4802 76.9047C85.8706 76.0235 84.0089 73.8445 82.3431 72.0622C79.4654 68.9835 75.1937 62.7186 74.5301 60.6037C74.363 60.0718 74.04 57.0732 73.8122 53.9401C73.3072 46.9945 73.0812 45.8259 73.2657 51.1163C73.4027 55.0378 73.1429 56.4352 72.4126 55.7025C71.6858 54.9733 71.3093 51.6675 71.0942 44.1315C70.9157 37.8748 70.9817 35.8714 71.4526 33.2723C71.7699 31.5195 72.0087 29.0159 71.9828 27.7088L71.9363 25.3326L71.2784 26.6272C70.7691 27.6291 70.6187 28.73 70.6126 31.4957C70.6066 34.2842 70.4505 35.411 69.9029 36.6219C69.3897 37.7563 69.1995 38.954 69.1956 41.0724C69.1907 43.9535 68.7389 45.5543 67.8482 45.8491C67.4752 45.9726 67.4177 45.1972 67.56 41.9608C67.8929 34.3842 68.4092 28.6644 68.9369 26.703C69.2268 25.626 69.6577 23.7098 69.894 22.4451C70.4125 19.673 70.9604 18.5223 72.8473 16.2454C74.8924 13.7773 73.425 14.7354 70.191 17.98C68.6913 19.4847 67.308 20.6186 67.1167 20.5001C66.6433 20.2067 67.2282 18.2496 68.1732 16.9653L68.9199 15.9502L68.0845 16.2116C65.3239 17.075 64.7181 17.7725 64.3625 20.4955C64.2362 21.4617 63.8977 22.7332 63.6099 23.3206C63.0186 24.528 63.3008 24.278 64.7139 22.3415C66.5248 19.8603 66.8953 20.9302 65.4797 24.554C64.9946 25.7962 64.0581 27.5073 63.3984 28.3568L62.1992 29.901L61.9409 39.4496C61.7159 47.7738 61.7553 49.1724 62.2478 50.3555C63.3646 53.0372 62.5832 59.8824 60.9997 61.2913C60.3603 61.8602 60.3709 61.946 61.3543 64.1396C61.9118 65.3836 63.2248 68.7834 64.2717 71.6944C66.3328 77.4256 66.6118 77.573 66.6813 72.9672C66.7409 69.0302 67.7665 68.5669 70.0991 71.4231C70.8071 72.2897 72.9708 74.286 74.907 75.8594C78.3514 78.6578 79.7369 80.3807 79.3518 81.3872C79.0658 82.1346 78.7691 82.0281 76.6438 80.4156C74.1568 78.5282 70.7631 76.9054 69.3035 76.905C68.6125 76.9047 67.8978 77.1913 67.4883 77.6324C66.8218 78.3499 66.8279 78.3972 67.9007 81.0127L68.9891 83.6652L69.9128 82.7772C70.421 82.2887 71.0101 81.8893 71.2223 81.8893C71.4342 81.8893 73.1024 82.7779 74.929 83.8639C79.8927 86.8151 82.7831 88.184 82.9556 87.6656C83.1951 86.9447 84.4461 87.1693 86.3826 88.2809C87.3898 88.8587 89.7245 89.7506 91.5716 90.2626C93.4184 90.7746 95.6006 91.3987 96.4207 91.6494C97.6826 92.0353 97.9417 92.0275 98.1063 91.5967C98.507 90.5492 98.2611 90.2149 96.7926 89.8129C95.9632 89.5861 94.1857 88.5914 92.8428 87.603C91.5 86.6146 90.2174 85.8057 89.9928 85.8057C89.7682 85.8057 88.661 85.2264 87.5328 84.5182C84.9089 82.8716 80.0414 77.0984 78.0672 73.2916C77.2698 71.7542 76.5632 70.496 76.4972 70.496C76.4308 70.496 76.9273 71.7738 77.6005 73.3357C78.965 76.5024 79.2535 78.1508 78.4433 78.1508C77.7201 78.1508 74.803 74.4199 73.3253 71.6054C72.6454 70.3098 71.5485 68.7264 70.8884 68.087C69.7166 66.9519 69.6616 66.9373 68.5923 67.4725C67.9003 67.8185 67.2172 68.6171 66.7384 69.6393C65.7327 71.7859 65.0886 71.5288 65.2249 69.0355C65.3715 66.3584 65.94 63.3 66.3722 62.8664C66.6189 62.6189 66.9301 62.6253 67.3467 62.8856C67.9184 63.2431 67.9589 62.8126 67.9589 56.3708C67.9589 50.4338 68.033 49.4867 68.4912 49.5704C68.784 49.6238 69.4188 50.4687 69.9025 51.4478C70.668 52.9987 70.7819 53.7097 70.7855 56.9664C70.7879 59.0226 70.6591 61.4258 70.4998 62.307C70.2769 63.5396 70.3355 64.0734 70.7539 64.6213C71.2667 65.2928 71.2862 65.2597 71.0974 64.0434C70.7095 61.5469 72.6454 62.1201 73.4946 64.7534C73.9733 66.2381 75.5217 69.4278 75.7633 69.4278C75.8528 69.4278 75.7843 69.054 75.6111 68.5972C75.4287 68.1158 75.4283 67.554 75.61 67.2621C76.0923 66.4855 77.0132 67.2339 78.3113 69.4577C78.9306 70.5184 80.7671 73.1324 82.3924 75.2673C85.153 78.8925 85.5114 79.2246 87.832 80.3059C89.1982 80.9425 91.3541 82.3621 92.6228 83.4604C94.7095 85.267 98.0244 87.2299 98.9886 87.2299C99.7388 87.2299 99.3346 86.5039 97.787 85.0726C96.0963 83.5092 93.2193 78.3096 92.0855 74.7684C91.7409 73.6914 90.7782 71.2825 89.9467 69.415C89.1148 67.548 88.0037 64.5839 87.4771 62.8283C86.9508 61.073 85.9007 57.7141 85.1441 55.3643C83.2054 49.3425 82.9102 46.93 83.1611 39.1644C83.2782 35.5417 83.462 32.1771 83.5695 31.6876C83.6767 31.198 83.2984 31.7794 82.7288 32.9796C80.8831 36.8673 80.1886 36.34 81.2998 31.8955C81.8285 29.7792 81.9797 28.4501 81.798 27.5134C81.5773 26.378 81.4921 26.2797 81.2494 26.881C81.0911 27.2727 80.9506 28.2707 80.9367 29.0992C80.9232 29.9273 80.6876 31.2091 80.4136 31.9475C80.1017 32.7874 79.7667 36.2168 79.5179 41.1134C79.2993 45.4161 78.9647 49.0933 78.7741 49.2845C78.5487 49.5106 78.2726 49.4764 77.9841 49.1866C77.2403 48.4403 77.4178 31.8848 78.2059 28.4832C78.5463 27.0146 79.1542 24.4048 79.5566 22.6837C80.3455 19.3106 81.2685 17.6817 81.9893 18.392C82.3097 18.7078 82.2742 19.3358 81.837 21.0851C81.5233 22.3397 81.2852 23.8365 81.3076 24.4115C81.3473 25.4287 81.3558 25.4234 81.6277 24.2107C81.781 23.5254 82.1394 21.8431 82.4233 20.4723C83.0379 17.5076 83.8059 15.5935 85.022 13.9938L85.9163 12.8174L84.9223 12.8531C84.3755 12.8726 83.5291 12.998 83.0411 13.1318ZM106.198 15.0751C101.794 19.2899 98.1674 27.366 96.6925 36.2428C95.8564 41.2725 95.8994 42.4436 96.8962 41.8255C97.6596 41.3523 99.7594 36.3232 100.627 32.8896C103.033 23.3737 104.95 18.7744 107.517 16.3561C109.379 14.6012 109.873 13.4583 108.859 13.2493C108.48 13.1714 107.445 13.8813 106.198 15.0751ZM128.74 14.2615C126.939 15.2154 124.963 17.9654 122.869 22.4305C121.905 24.4867 120.678 26.5695 120.143 27.0591C118.932 28.1667 118.063 29.8412 117.274 32.5884C116.938 33.7576 115.866 36.0736 114.891 37.7356C113.814 39.5728 112.893 41.7066 112.541 43.1781C112.025 45.341 111.884 45.5788 111.215 45.4136C110.212 45.1658 109.43 46.094 108.976 48.0708C108.323 50.9155 108.619 55.8983 109.44 55.8983C110.161 55.8983 110.63 54.6668 110.887 52.0983C111.107 49.9047 111.224 49.595 111.779 49.7406C113.009 50.0632 116.022 46.4636 118.572 41.625C119.864 39.173 121.038 36.7754 121.181 36.2965C121.324 35.8176 122.061 34.4562 122.82 33.2705C123.579 32.0849 124.827 29.6624 125.595 27.8872C126.362 26.112 127.549 23.5467 128.232 22.1863C128.915 20.8259 129.584 19.1219 129.719 18.4002C129.854 17.6781 130.425 16.5053 130.989 15.7936C131.553 15.0819 132.014 14.2815 132.014 14.0145C132.014 13.3074 130.296 13.437 128.74 14.2615ZM76.8879 14.4132C76.5987 14.7034 76.3077 15.0698 76.2413 15.2271C76.1753 15.3845 75.6061 15.8762 74.9766 16.3198C74.0986 16.9379 73.6642 17.6699 73.1134 19.4597C72.2209 22.3586 72.1844 23.3359 73.0187 21.9855C73.3516 21.4468 73.8264 21.0064 74.0741 21.0064C74.7264 21.0064 74.6678 27.4233 73.9918 30.0281C73.699 31.1557 73.4754 33.3122 73.4949 34.8204C73.5304 37.5519 73.5343 37.5398 74.522 31.6787C75.0674 28.4426 75.7701 24.9289 76.0834 23.87C76.3971 22.8115 76.6558 21.2933 76.659 20.4965C76.6644 19.1069 77.34 15.8135 77.8873 14.5086C78.2088 13.7424 77.6129 13.6855 76.8879 14.4132ZM214.076 15.9364C213.409 16.6054 212.571 19.4284 212.571 21.0064C212.571 21.3788 212.013 22.773 211.33 24.1043C210.304 26.1052 209.997 27.2538 209.556 30.7266C208.921 35.7254 208.835 49.3764 209.414 53.1597C209.931 56.5342 210.809 58.2386 215.341 64.6605C217.428 67.6195 220.154 71.9052 221.398 74.1845C222.641 76.4639 223.862 78.3288 224.11 78.3288C226.45 78.3288 222.187 66.671 216.73 58.151C213.465 53.0525 212.155 49.4935 211.683 44.4413C211.365 41.0319 211.989 35.9391 213.082 33.0249C213.555 31.7648 214.195 29.3915 214.506 27.7512C215.237 23.881 215.629 16.7065 215.154 15.8563C214.813 15.2442 214.762 15.2481 214.076 15.9364ZM275.333 17.4424C274.566 18.2125 274.303 18.7793 274.385 19.4896C274.557 20.9953 275.749 20.9601 277.106 19.4095C278.312 18.0313 278.461 17.4709 277.797 16.8051C277.124 16.1293 276.475 16.2974 275.333 17.4424ZM139.237 18.1481C137.642 19.3244 136.902 20.3434 134.056 25.2789C131.259 30.1303 130.479 31.7965 129.223 35.604C128.61 37.4643 127.71 39.7722 127.224 40.7328C126.739 41.6934 126.148 43.4159 125.913 44.5602C125.672 45.7291 125.294 46.6413 125.05 46.6413C123.956 46.6413 122.281 48.7458 120.549 52.2977L118.706 56.0763L118.742 61.4169C118.777 66.4321 118.847 66.9555 119.896 70.0043C121.36 74.2593 121.419 77.2212 120.096 80.0268C119.119 82.0986 119.289 82.9805 120.535 82.3112C121.53 81.7771 123.772 77.7467 124.239 75.6521C124.634 73.8798 124.601 73.6989 123.357 70.9339C122.645 69.3527 121.763 66.8822 121.396 65.4445C120.782 63.033 120.769 62.5858 121.232 59.6805C121.949 55.1877 124.352 49.4896 125.53 49.4896C125.964 49.4896 126.036 49.9393 125.923 51.9406C125.799 54.1473 125.623 54.6362 124.16 56.844C121.273 61.199 120.802 62.6631 122.286 62.6631C123.403 62.6631 127.166 58.3393 128.622 55.3824C129.918 52.752 130.026 52.2866 130.276 48.2694C130.46 45.3083 130.828 43.0353 131.457 40.9628C131.958 39.3086 132.369 37.7232 132.369 37.4401C132.369 37.1571 133.066 35.3865 133.918 33.5055C134.77 31.6242 136.328 28.1763 137.378 25.8432C138.429 23.51 139.702 21.1855 140.207 20.6774C141.931 18.9424 142.501 17.0899 141.311 17.0899C140.959 17.0899 140.025 17.5663 139.237 18.1481ZM146.834 17.828C146.496 18.0263 146.036 18.5422 145.813 18.9745C145.476 19.6281 145.609 19.5808 146.605 18.6921C147.263 18.1046 147.87 17.5841 147.952 17.535C148.035 17.4858 147.956 17.451 147.777 17.4567C147.598 17.4627 147.174 17.6297 146.834 17.828ZM252.293 19.8297C251.818 20.5624 250.871 21.5226 250.188 21.9641C248.306 23.1804 247.854 23.7269 247.37 25.3721C246.877 27.0466 246.002 28.6036 244.255 30.9139C243.136 32.3936 242.727 33.8238 243.422 33.8238C243.605 33.8238 245.751 31.856 248.192 29.4513L252.63 25.0788L253.211 22.4195C253.968 18.9477 253.981 18.7929 253.535 18.6334C253.327 18.559 252.768 19.0973 252.293 19.8297ZM58.1103 21.3329C57.2813 22.4918 55.8256 24.8149 54.876 26.4954C53.926 28.1763 53.0079 29.5513 52.8354 29.5513C52.2826 29.5513 52.4994 27.1253 53.223 25.2148C53.6087 24.1965 53.8674 23.306 53.7979 23.2363C53.7283 23.1661 53.0789 23.9188 52.3549 24.9082C50.3513 27.6469 48.6394 32.9832 48.3768 37.3105C48.1663 40.7734 48.1819 40.8699 49.2877 42.9363C49.9067 44.0927 50.7406 45.4396 51.1406 45.9292L51.8681 46.8193L51.6498 45.8163C51.1594 43.5615 50.7687 39.5155 50.7584 36.5831C50.7491 33.9217 50.852 33.3627 51.4653 32.7475C52.0356 32.1754 52.3276 32.1049 52.8848 32.4039C53.52 32.745 53.5864 33.1605 53.5864 36.8C53.5864 41.1454 54.3188 46.2585 55.3984 49.4469C55.771 50.5474 56.9928 53.6634 58.1135 56.3715L60.1516 61.2952L60.2591 59.4794C60.3184 58.4807 60.1629 56.1849 59.9142 54.3777C59.665 52.5704 59.4571 48.3492 59.4518 44.9974C59.4432 39.8769 59.3677 39.0092 58.978 39.5678C58.023 40.9368 57.7395 40.3169 57.9375 37.2952C58.1959 33.3574 59.4841 29.4744 61.3922 26.8832L62.9257 24.8007L61.6183 25.8008C59.4262 27.4785 58.0788 29.5229 56.93 32.9138C56.2011 35.0664 55.6407 36.1762 55.2444 36.2531C54.4956 36.3983 54.4909 35.8176 55.2092 32.0183C55.9087 28.318 56.6887 26.2448 58.1327 24.2463C58.7551 23.3847 59.2655 22.4234 59.2665 22.1101C59.2679 21.7968 59.5075 21.0815 59.7988 20.5207C60.4263 19.3138 60.438 19.2262 59.9734 19.2262C59.7779 19.2262 58.9393 20.1743 58.1103 21.3329ZM152.329 20.3833C151.077 21.7274 148.352 27.8067 147.981 30.0854C147.789 31.2603 147.632 33.5625 147.631 35.2013C147.629 37.9546 147.537 38.3334 146.426 40.1859C144.533 43.3418 143.094 46.392 142.829 47.8109C142.693 48.5361 142.777 49.9186 143.018 50.9269C143.443 52.7018 143.422 52.805 142.007 55.8584C140.149 59.8717 139.229 63.3303 138.76 68.0635C138.553 70.1527 138.068 72.7814 137.683 73.905C136.275 78.0098 137.016 78.9722 139.499 76.2635C141.372 74.2198 142.153 72.2598 142.507 68.7158C142.972 64.0552 144.102 58.2653 144.877 56.5702C145.501 55.2062 145.853 54.8302 146.508 54.8302C147.655 54.8302 149.218 53.0496 149.697 51.1979C151.751 43.2511 152.314 40.5188 151.97 40.1727C151.307 39.5084 150.767 40.2443 148.555 44.824C146.396 49.2934 146.387 49.3055 146.279 47.8258C146.19 46.6057 146.389 46.0331 147.388 44.6214C149.826 41.1793 150.318 39.4261 150.824 32.3523C151.213 26.9295 151.649 24.9823 153.032 22.5071C154.437 19.9913 153.98 18.6113 152.329 20.3833ZM279.537 20.1629C279.414 20.2868 279.489 20.7272 279.703 21.142C280.065 21.8416 280.027 21.8349 279.177 21.0502C277.911 19.8824 276.991 20.2526 277.3 21.8053C277.58 23.2078 280.55 26.1533 282.833 27.2912C283.713 27.7305 284.187 28.098 283.886 28.1083C283.543 28.1201 283.179 28.7278 282.91 29.7343C282.322 31.9421 282.367 32.5132 283.216 33.596C283.74 34.2646 283.796 34.4729 283.41 34.3244C282.563 33.9983 282.124 34.4658 282.449 35.3484C282.612 35.7934 283.137 36.2157 283.651 36.3161C284.419 36.4664 284.496 36.5842 284.138 37.0698C283.781 37.5555 283.364 37.5975 281.468 37.3372C280.233 37.1677 279.077 36.9392 278.9 36.8295C278.723 36.7199 278.579 35.3178 278.58 33.7138C278.581 31.4277 278.734 30.5458 279.289 29.6318C280.433 27.7498 280.226 26.9462 278.177 25.3091C277.176 24.5091 276.201 23.8547 276.012 23.8547C275.808 23.8547 275.753 24.5461 275.878 25.5459C275.993 26.4759 276.228 29.4801 276.401 32.2216C276.754 37.8464 276.758 37.8339 274.149 40.3589C272.647 41.813 272.624 41.8703 272.629 44.238C272.632 45.56 272.783 46.6413 272.964 46.6413C273.478 46.6413 274.761 43.4497 274.559 42.6753C274.425 42.1623 274.73 41.7614 275.745 41.1187C276.497 40.6427 277.242 40.0193 277.402 39.733C277.639 39.3083 278 39.2791 279.377 39.5735C280.908 39.9011 281.042 40.0107 280.851 40.7766C280.557 41.9511 281.355 44.2494 281.974 44.0108C282.24 43.9083 282.553 43.9774 282.669 44.1647C282.784 44.3519 283.451 44.505 284.15 44.505C285.198 44.505 285.725 44.2006 287.146 42.7757C288.8 41.1159 288.87 40.9656 288.87 39.0373C288.87 37.1638 288.515 36.5205 287.969 37.4056C287.817 37.653 287.596 37.6021 287.327 37.2575C287.102 36.9687 286.598 36.6572 286.208 36.5653C285.586 36.4194 285.6 36.3937 286.322 36.3574C287.629 36.2919 287.237 34.7673 285.853 34.5359C284.837 34.3661 284.784 34.2692 284.687 32.3997C284.597 30.6722 284.643 30.5148 285.081 31.0645C285.353 31.4074 285.913 31.6876 286.323 31.6876C286.734 31.6876 287.241 32.008 287.45 32.3997C287.907 33.2563 288.447 33.2976 289.502 32.5567C290.127 32.117 290.217 31.8628 289.936 31.3347C289.74 30.9677 289.285 30.5735 288.924 30.4589C288.563 30.3439 288.072 29.8187 287.833 29.2918C287.468 28.4889 287.488 28.2682 287.956 27.9242C288.924 27.2143 288.583 26.703 287.14 26.703C286.05 26.703 285.479 26.4356 284.39 25.4163C283.633 24.7085 282.495 23.9053 281.861 23.6311C280.503 23.0447 280.426 22.898 281.495 22.9365C282.559 22.9746 282.677 22.0635 281.76 20.8935C281.054 19.9938 280.038 19.6598 279.537 20.1629ZM198.415 21.6351C197.34 22.5356 197.199 22.8941 196.771 25.8047C196.446 28.0079 196.413 29.1974 196.662 29.6646C196.86 30.0359 197.153 30.2025 197.313 30.0345C197.936 29.3812 200.86 22.3775 200.86 21.5383C200.86 20.3402 199.917 20.3776 198.415 21.6351ZM67.5046 22.1635C67.3048 22.4085 66.9599 23.3295 66.7381 24.2107C66.5166 25.0919 65.7742 27.0391 65.0883 28.538C63.5577 31.883 63.0364 35.0304 63.3071 39.2926C63.4207 41.0824 63.6141 45.7024 63.7369 49.559C63.9523 56.3352 63.9346 56.6036 63.2092 57.529C62.6084 58.2952 62.4583 58.9806 62.4583 60.9569C62.4583 63.1177 62.536 63.4125 63.0793 63.3086C63.4672 63.2342 63.8313 62.6588 64.0492 61.7751C64.2412 60.9972 64.6805 60.0775 65.0251 59.7318C65.5777 59.1774 65.8257 58.3265 65.5635 57.8854C65.5148 57.8031 65.852 57.3332 66.3126 56.8411C67.0152 56.0909 67.1182 55.6972 66.9503 54.409C66.8399 53.5638 66.489 49.5074 66.1699 45.3951C65.4932 36.6689 65.7774 31.8556 67.2381 27.3254C68.6938 22.8108 68.8099 20.5663 67.5046 22.1635ZM272.803 24.1132C271.935 26.2897 271.444 28.38 270.733 32.9337C269.814 38.8116 268.945 41.808 267.41 44.3929C265.996 46.7734 265.87 48.1502 267.045 48.367C268.258 48.5909 268.642 49.1652 268.642 50.7582C268.642 52.8837 269.227 53.0439 270.04 51.1413C271.49 47.7464 271.668 45.9292 270.549 45.9292C270.218 45.9292 270.103 45.6575 270.21 45.1281C270.299 44.6873 270.468 43.2265 270.586 41.8817C270.807 39.3424 272.034 35.787 273.274 34.0873C274.664 32.1828 275.035 23.3213 273.743 22.8902C273.524 22.8168 273.101 23.3673 272.803 24.1132ZM283.406 23.0465C282.912 23.5421 283.267 24.1395 284.43 24.7679C285.608 25.4045 285.7 25.4067 286.288 24.8174C287.17 23.9316 286.496 23.0162 284.884 22.913C284.189 22.8681 283.523 22.9283 283.406 23.0465ZM269.261 27.3261C268.369 28.3262 267.548 31.7677 267.614 34.224C267.694 37.1756 267.34 38.3986 266.103 39.4432C265.374 40.0588 265.093 40.6181 265.093 41.4552C265.093 42.7362 263.903 44.2177 263.556 43.3696C263.417 43.0328 263.16 43.1371 262.631 43.7435C261.521 45.0174 261.713 46.6819 263.052 47.4011C263.669 47.7322 263.98 47.5556 265.317 46.115C266.705 44.6197 266.867 44.2647 266.867 42.7188C266.867 41.3381 267.002 40.95 267.539 40.7787C268.724 40.4013 269.513 37.1567 269.409 33.0829C269.376 31.7944 269.587 29.9519 269.879 28.9884C270.17 28.0254 270.41 27.1167 270.412 26.97C270.419 26.5019 269.835 26.6824 269.261 27.3261ZM93.4887 28.9283C92.8992 30.2773 92.8048 31.8125 92.6203 43.0809C92.4745 52.0096 92.2779 56.1312 91.9514 57.1199C91.3346 58.9884 91.6806 62.2081 93.0043 66.9092C93.5788 68.9511 94.1204 70.6932 94.2077 70.7808C94.295 70.8684 94.6129 70.8452 94.9142 70.7292C95.6811 70.434 95.8053 60.6746 95.3301 38.0963C95.2127 32.5154 95.1144 27.8288 95.1119 27.6821C95.1091 27.5354 94.8915 27.4151 94.6286 27.4151C94.3652 27.4151 93.8524 28.0958 93.4887 28.9283ZM280.796 29.075C280.552 29.1739 280.353 29.5723 280.353 29.9604C280.353 30.3485 280.175 30.9994 279.958 31.4063C279.662 31.9603 279.678 32.4961 280.02 33.5369C280.585 35.2547 280.912 35.4833 281.425 34.5206C281.7 34.0058 281.715 33.4607 281.475 32.7682C281.219 32.0344 281.256 31.5096 281.611 30.8242C281.878 30.3079 282.006 29.65 281.896 29.3623C281.688 28.8168 281.534 28.7766 280.796 29.075ZM255.969 32.3359C255.239 32.7885 251.608 42.0263 251.608 43.4294C251.608 43.7794 251.29 44.1493 250.902 44.2512C249.924 44.5079 249.392 46.1407 249.657 48.075C249.957 50.2658 250.239 50.6478 251.349 50.3683C253.168 49.9101 253.542 49.0399 253.767 44.7365C253.927 41.6549 254.178 40.2486 254.887 38.4523C256.991 33.1196 257.096 32.7792 256.744 32.4257C256.55 32.2316 256.202 32.1914 255.969 32.3359ZM45.8398 40.9446C45.7794 44.7112 46.6861 49.7139 48.1401 53.6382C48.7203 55.204 48.5311 56.6104 47.7405 56.6104C47.4633 56.6104 46.6233 54.9423 45.7237 52.6049C44.3362 48.9993 44.1715 48.727 44.0757 49.8755C43.9919 50.8771 44.3606 51.8345 45.7894 54.326C48.1035 58.3607 49.1252 59.4587 50.5653 59.4587C52.2105 59.4587 52.5217 58.9129 52.5217 56.0268C52.5217 53.5445 52.471 53.3904 51.1441 51.8526C50.3868 50.9743 48.9893 49.0047 48.0389 47.4758C46.322 44.713 46.31 44.6727 46.1056 40.951L45.9001 37.2062L45.8398 40.9446ZM286.031 38.4612C285.3 38.6332 284.385 39.2374 283.809 39.9288L282.83 41.1041L283.618 41.3968C284.051 41.5577 284.812 41.6261 285.307 41.5485C286.055 41.4313 286.013 41.3982 285.055 41.3541C283.61 41.2871 283.513 40.355 284.85 39.377C285.57 38.85 285.914 38.7863 286.399 39.0904C286.905 39.4072 287.057 39.3503 287.203 38.7888C287.302 38.4078 287.358 38.1127 287.328 38.1326C287.297 38.1529 286.714 38.3007 286.031 38.4612ZM278.345 40.5573C278.026 40.9318 277.525 41.1461 277.232 41.0336C276.622 40.7983 275.739 41.8379 275.739 42.7928C275.739 43.5765 276.215 43.6203 276.93 42.9028C277.223 42.6091 277.719 42.3688 278.033 42.3688C278.495 42.3688 278.53 42.5051 278.219 43.0883C277.675 44.1095 278.139 44.6919 278.927 43.9763C279.373 43.5715 279.561 42.8783 279.561 41.6385C279.561 39.7451 279.264 39.4809 278.345 40.5573ZM257.006 47.546L255.485 49.093L256.041 50.4292C256.782 52.2087 258.262 54.1181 258.901 54.1181C259.274 54.1181 259.415 53.6752 259.415 52.4956C259.415 51.603 259.596 50.1518 259.817 49.2703C260.253 47.5342 259.838 45.8975 258.979 45.9641C258.731 45.9833 257.843 46.695 257.006 47.546ZM288.237 49.1884C288.324 49.4522 288.681 49.7228 289.029 49.7908C289.433 49.8691 289.604 49.741 289.502 49.4348C289.415 49.1709 289.058 48.9003 288.711 48.8323C288.306 48.754 288.135 48.8822 288.237 49.1884ZM147.314 55.3938C146.586 56.322 145.145 59.8144 145.145 60.649C145.145 60.8975 144.806 62.1059 144.393 63.3349C143.827 65.0147 143.741 65.6702 144.047 65.9771C144.617 66.5489 145.391 66.0002 147.008 63.8768C149.013 61.2453 149.537 59.584 149.24 56.8027C148.964 54.2125 148.504 53.876 147.314 55.3938ZM207.41 56.4534C208.078 60.922 209.839 65.3199 212.771 69.8409C213.702 71.2782 215.004 73.5266 215.662 74.8372C216.821 77.1457 219.166 79.9228 225.679 86.7029C227.188 88.2734 228.87 90.2359 229.416 91.0644C230.451 92.6338 231.38 93.0383 231.38 91.9196C231.38 91.5618 230.146 89.2863 228.639 86.8631C226.503 83.4291 224.851 81.3541 221.147 77.4558C216.062 72.1035 215.148 70.6359 213.041 64.4433C212.542 62.9746 211.338 60.211 210.367 58.3016C209.013 55.6402 208.434 54.8302 207.885 54.8302C207.234 54.8302 207.19 54.9815 207.41 56.4534ZM174.811 55.4871C174.3 56.3152 173.832 61.6833 174.034 64.3959C174.277 67.6694 176.003 73.4874 177.174 74.9817C178.165 76.2449 179.239 75.9882 179.863 74.3387C180.469 72.7355 180.172 71.208 179.254 71.208C178.588 71.208 178.124 70.2674 176.88 66.4015C176.555 65.3911 176.206 62.6321 176.074 60.0213C175.923 57.0387 175.697 55.3735 175.43 55.2849C175.204 55.2101 174.925 55.3009 174.811 55.4871ZM55.3749 67.1898L55.3608 77.2351L56.869 78.6703C57.6987 79.4596 59.3354 80.7186 60.5065 81.4684C63.0222 83.0788 66.3633 85.0936 66.5184 85.0936C66.5788 85.0936 65.474 82.1695 64.0637 78.5959C62.6535 75.0223 60.3368 69.1341 58.9159 65.5114C57.4946 61.8887 56.1198 58.5241 55.8608 58.0346C55.4583 57.2755 55.387 58.622 55.3749 67.1898ZM129.069 58.8168C128.585 59.4637 127.661 61.0342 127.016 62.307C125.994 64.3254 125.84 64.9855 125.813 67.4696C125.796 69.0362 125.588 70.6679 125.35 71.0955C124.475 72.6667 125.143 76.1926 126.315 76.1926C126.963 76.1926 127.546 75.1968 128.792 71.9618C129.323 70.5814 129.53 69.2306 129.53 67.1353C129.53 65.1319 129.759 63.545 130.265 62.0411C131.481 58.4298 130.778 56.5346 129.069 58.8168ZM43.6612 62.9073C43.6502 64.334 43.7627 64.4899 46.289 66.561C47.7405 67.7509 49.0322 69.0547 49.16 69.4581C49.3062 69.9206 49.5876 70.1161 49.9212 69.9875C50.2122 69.8757 50.9166 69.7839 51.4862 69.7839H52.5217V67.0897C52.5217 64.449 52.5058 64.4009 51.7233 64.6783C49.5188 65.4591 45.8252 64.313 44.4096 62.4085L43.6722 61.4169L43.6612 62.9073ZM44.0047 74.7282C44.0047 75.2801 44.3156 75.5044 45.3355 75.6892C48.8374 76.3236 48.8339 77.8553 45.3291 78.5151L44.0047 78.7643V81.7575C44.0047 84.7493 44.0054 84.7511 44.8663 84.5343C46.1702 84.2056 47.0836 84.645 47.9197 86.0022C48.3356 86.6773 48.8686 87.2299 49.1043 87.2299C49.3399 87.2299 50.1086 87.5243 50.8127 87.8846L52.0927 88.5394L52.3031 87.2615C52.4192 86.5587 52.5157 83.5402 52.5178 80.5541C52.5214 75.7063 52.4579 75.1245 51.9259 75.1245C51.5983 75.1245 50.7974 74.9312 50.1462 74.6951C49.1458 74.3319 48.803 74.3597 47.9367 74.8731C46.6212 75.6525 46.2862 75.6379 45.0353 74.7442C44.0061 74.009 44.0047 74.009 44.0047 74.7282ZM55.3764 82.533C55.354 86.2482 54.7866 89.7179 53.5211 93.8796C52.4983 97.2421 52.4611 97.5451 53.0026 98.0884C53.3238 98.4106 53.5864 98.9083 53.5864 99.1946C53.5864 99.8757 55.2351 103.132 55.738 103.444C55.9527 103.577 57.4329 103.47 59.0273 103.205C60.6214 102.941 62.1283 102.746 62.376 102.772C62.8231 102.818 67.1671 98.3006 67.8198 97.11C68.1193 96.5635 67.9876 96.4869 66.7466 96.4869C62.8355 96.4869 60.5412 95.2294 59.6675 92.6064C58.9468 90.4428 59.1498 90.3541 61.8919 91.6351C63.5517 92.4106 65.4467 92.9329 68.3734 93.4214C69.454 93.6019 69.487 93.5716 69.2183 92.6449C68.3602 89.6872 67.961 89.197 65.8718 88.5362C63.2866 87.7183 57.0351 83.0496 56.068 81.2142L55.392 79.931L55.3764 82.533ZM182.448 83.0909C181.794 83.7891 181.676 84.2687 181.765 85.8466C181.896 88.1281 182.618 88.5287 183.599 86.8624C183.955 86.2579 184.791 85.5027 185.456 85.1844C186.883 84.5015 187.019 83.772 185.778 83.4597C185.29 83.3369 184.891 83.0133 184.891 82.7409C184.891 81.9416 183.313 82.1677 182.448 83.0909ZM71.4189 88.1783C70.9796 88.2713 70.6204 88.3763 70.6208 88.4119C70.6208 88.4472 70.9196 89.2771 71.2851 90.2562C71.6507 91.2353 72.3242 93.6386 72.7823 95.5968C73.2405 97.555 73.7991 99.2736 74.0237 99.416C74.2484 99.5585 75.6906 100.725 77.2286 102.008C80.6972 104.903 82.2338 105.662 85.439 106.065C87.8064 106.364 93.1618 106.034 93.6335 105.561C93.856 105.337 94.7105 102.268 94.7364 101.599C94.7531 101.169 94.4192 101.094 88.9967 100.305C85.4128 99.7842 83.2494 98.7485 82.1142 97.0099C81.5027 96.0739 79.344 94.8602 77.718 94.5383C74.8158 93.9633 73.8143 93.5902 73.8143 93.0832C73.8143 92.1347 75.2871 91.7665 77.4642 92.1703C82.2327 93.0547 84.6622 94.0605 87.9881 96.5275C90.0783 98.0777 96.8813 97.1968 96.8813 95.3761C96.8813 95.2315 95.9632 94.8577 94.8408 94.5454C93.7183 94.2332 91.2281 93.4905 89.3065 92.8945C87.3848 92.2988 84.6061 91.5796 83.1313 91.2965C81.6568 91.0135 79.2337 90.2306 77.7471 89.5573C75.0323 88.3275 72.9034 87.8636 71.4189 88.1783ZM40.3938 95.7424L38.7344 98.9044L40.1241 98.7171C41.8875 98.48 42.488 98.9756 42.7768 100.907C43.0739 102.895 43.2509 103.121 44.6687 103.325C45.8142 103.49 45.9303 103.396 47.4151 101.093C48.2678 99.7703 49.4265 97.487 49.99 96.0187L51.0146 93.3491L49.5504 93.1387C48.7448 93.023 47.6067 92.9575 47.0211 92.9931C44.79 93.1287 43.098 93.0657 42.5852 92.8275C42.1831 92.6409 41.6469 93.3537 40.3938 95.7424ZM5.43103 98.0001C3.24499 100.308 2.66157 101.977 2.66157 105.922C2.66157 109.145 2.75775 109.668 3.67652 111.441C4.23474 112.518 5.0939 113.936 5.58611 114.593C6.4623 115.763 9.35242 117.849 10.0969 117.849C10.3038 117.849 10.6903 117.357 10.9561 116.754C11.2216 116.152 11.8149 115.488 12.2741 115.278C13.513 114.712 14.1951 115.451 14.1951 117.359C14.1951 118.841 14.2458 118.917 15.2221 118.917C16.2473 118.917 16.2484 118.915 15.9063 117.404C15.5823 115.971 15.6383 114.741 16.166 111.735C16.3761 110.539 16.3041 110.38 15.3197 109.869L14.244 109.311L12.5637 111.285C11.5001 112.534 10.8074 113.727 10.6761 114.536C10.4351 116.021 9.52311 116.787 8.65225 116.236C8.33641 116.036 7.73773 115.279 7.32146 114.554C6.62271 113.335 6.60638 113.161 7.10605 112.258C7.40344 111.721 8.7981 110.476 10.2052 109.492C11.6123 108.508 12.7663 107.577 12.7695 107.424C12.7727 107.271 12.5183 107.047 12.2039 106.926C11.5754 106.684 10.2336 107.389 7.84526 109.216C6.00735 110.622 4.84265 110.641 4.68366 109.268C4.60311 108.572 4.90262 108.055 5.89237 107.183C6.61596 106.546 7.67066 105.863 8.23562 105.665C8.80058 105.467 9.20124 105.244 9.12565 105.168C9.05006 105.092 8.05889 105.351 6.92293 105.743C4.31353 106.644 3.65452 106.639 3.36317 105.718C2.96287 104.453 3.48666 103.359 5.33451 101.604C7.19016 99.8415 7.67882 98.8321 7.28313 97.5807C6.96871 96.5873 6.71462 96.6446 5.43103 98.0001ZM50.6398 101.03L49.6448 102.645L50.6689 103.749C53.0054 106.269 53.8344 107.885 52.7879 107.877C52.5441 107.875 51.3687 107.252 50.1767 106.494L48.0091 105.114L46.5524 107.12C45.751 108.223 44.0622 110.236 42.7995 111.593L40.5035 114.06L41.0645 115.154C41.3733 115.755 42.0234 116.772 42.51 117.414C42.9961 118.056 43.2992 118.676 43.1835 118.792C42.6899 119.287 40.8832 118.393 39.5439 116.991L38.0992 115.478L36.882 116.339C36.2127 116.812 35.0008 117.494 34.1892 117.854C33.3776 118.214 32.6298 118.801 32.528 119.158C32.182 120.371 31.6241 123.715 31.3828 126.024C31.2504 127.289 30.7586 130.013 30.2898 132.077C29.821 134.141 29.349 137.271 29.2408 139.034C29.0023 142.912 29.5055 144.119 32.0975 145.887L33.7935 147.045L39.3427 147.009C42.3946 146.989 45.2794 146.865 45.7528 146.732C47.1166 146.35 47.4108 144.861 46.4966 142.966C45.7972 141.517 45.602 141.368 44.1594 141.188C43.2935 141.08 41.8364 140.898 40.9208 140.782C38.6269 140.492 36.9036 138.798 36.9157 136.844C36.9331 134.016 39.7806 128.782 45.1254 121.753L48.4999 117.315L47.4946 115.927C45.5697 113.27 46.5243 111.947 48.6685 114.3L50.0592 115.827L53.9565 111.943L57.8538 108.06L56.809 107.788C55.1886 107.367 53.3181 104.886 52.4195 101.965L51.6345 99.4146L50.6398 101.03ZM195.36 100.277C191.503 100.871 187.519 101.208 182.939 101.329C174.111 101.561 174.535 101.448 174.669 103.53C174.773 105.15 174.819 105.214 175.964 105.324C176.7 105.395 177.847 105.102 178.981 104.554C181.825 103.18 181.94 103.175 183.283 104.359C184.08 105.06 184.675 105.339 184.969 105.148C185.219 104.986 186.541 104.843 187.907 104.83C189.273 104.817 191.15 104.675 192.077 104.515C193.452 104.277 193.763 104.319 193.763 104.743C193.763 105.72 192.169 106.763 188.972 107.879C185.16 109.211 181.697 110.756 181.697 111.126C181.697 111.567 183.1 111.878 186.182 112.118C187.79 112.243 189.235 112.476 189.393 112.635C190.758 114.004 182.269 114.533 179.845 113.229L178.537 112.525L176.39 113.3L174.244 114.075L174.232 119.789C174.225 122.933 174.047 127.106 173.836 129.065C173.626 131.023 173.474 133.313 173.498 134.153C173.523 134.994 173.37 136.008 173.157 136.406C172.861 136.961 172.911 137.48 173.37 138.616C173.7 139.434 174.414 141.864 174.956 144.018L175.943 147.935L177.312 148.415C178.661 148.888 186.13 149.48 191.232 149.517C193.806 149.537 193.867 149.516 195.224 148.155C197.056 146.317 197.035 145.295 195.114 142.669L193.626 140.636L191.654 140.634C190.569 140.633 188.915 140.908 187.979 141.245C185.944 141.976 185.373 141.736 184.381 139.734C183.863 138.686 183.689 137.561 183.672 135.13L183.649 131.913L187.715 124.97C189.952 121.152 193.206 115.384 194.947 112.153C196.688 108.922 198.955 104.716 199.985 102.807C201.015 100.897 201.674 99.3505 201.448 99.369C201.222 99.3876 198.482 99.7963 195.36 100.277ZM74.292 106.075C74.534 109.255 75.1103 110.01 77.5008 110.28C78.492 110.392 79.1375 110.644 79.1375 110.918C79.1375 111.485 77.2857 112.153 75.7133 112.153H74.5241L74.5156 114.022C74.5078 115.692 74.1532 117.889 73.5915 119.744C73.4091 120.347 73.4666 120.356 74.4034 119.873C76.6793 118.697 78.0292 118.555 79.8955 119.292C80.8671 119.677 82.5021 119.986 83.5656 119.986C84.6203 119.986 85.582 120.146 85.7027 120.342C85.8234 120.537 86.4316 120.7 87.0544 120.703C88.701 120.71 89.7838 121.069 89.7838 121.608C89.7838 122.265 89.5407 122.371 86.6137 122.983C84.3169 123.463 83.9134 123.464 83.0021 122.992C82.4382 122.699 81.9765 122.302 81.9765 122.109C81.9765 121.899 81.4083 121.848 80.5627 121.984C79.5435 122.148 78.899 122.047 78.2549 121.623C77.4114 121.069 77.2463 121.081 75.3215 121.846C73.5798 122.538 73.2653 122.803 73.1667 123.665C72.9431 125.625 73.3459 125.827 74.7501 124.459C76.5707 122.685 79.4924 121.878 79.4924 123.149C79.4924 123.851 77.1278 126.394 76.4752 126.394C76.0195 126.394 75.1767 128.506 75.4532 128.955C75.5614 129.13 76.3606 128.856 77.229 128.346C78.1552 127.801 79.2038 127.463 79.7656 127.529L80.7238 127.64L79.487 128.91C78.8067 129.609 77.9355 130.356 77.5505 130.571C76.8883 130.941 76.9419 131.074 78.5402 133.039C79.4693 134.182 81.3207 136.559 82.654 138.322C83.9876 140.084 86.2968 142.877 87.7858 144.528C89.2752 146.179 90.4935 147.711 90.4935 147.933C90.4935 148.624 92.4422 150.247 93.7119 150.612C95.6896 151.181 108.528 151.053 110.544 150.445C112.59 149.827 112.838 149.496 112.845 147.378C112.85 146.067 112.663 145.573 111.875 144.816C110.209 143.215 108.609 142.75 105.635 143.002C104.183 143.125 102.55 143.114 102.007 142.977C100.758 142.662 96.2269 138.292 94.1821 135.43C92.093 132.505 90.8484 129.112 90.8484 126.343V124.171L90.0499 124.759C88.6081 125.82 86.7886 126.505 85.5253 126.463C84.8421 126.44 83.7644 126.415 83.1298 126.408C82.4953 126.4 81.9765 126.245 81.9765 126.064C81.9765 125.346 83.8871 124.258 85.1487 124.258C86.5452 124.258 89.7015 122.856 90.5762 121.847C90.8726 121.505 91.4535 119.173 91.8829 116.603C92.308 114.057 92.7403 111.635 92.8435 111.22L93.0316 110.465L90.9659 111.164C89.8267 111.55 87.4207 111.953 85.6026 112.062L82.3055 112.259L79.366 109.268C77.7496 107.624 75.9014 105.637 75.2587 104.854L74.0908 103.43L74.292 106.075ZM32.9556 106.694L31.666 107.917L32.3704 109.412C32.7579 110.234 33.5724 111.642 34.1803 112.542L35.2854 114.177L37.0722 112.925C39.2884 111.37 40.6703 110.125 41.5656 108.876L42.2552 107.913L41.4177 107.362C40.9567 107.059 39.3941 106.595 37.9448 106.331C36.4959 106.067 35.0707 105.766 34.7779 105.661C34.4702 105.551 33.7009 105.987 32.9556 106.694ZM174.244 110.016C174.244 110.553 174.43 110.745 174.865 110.661C175.207 110.595 175.486 110.305 175.486 110.016C175.486 109.728 175.207 109.438 174.865 109.372C174.43 109.288 174.244 109.48 174.244 110.016ZM25.9947 110.608C25.3215 110.881 25.4635 112.461 26.2811 113.788C27.0991 115.115 26.823 116.198 25.565 116.599C23.9251 117.121 22.5283 115.081 22.7717 112.52C22.8934 111.24 22.8242 111.085 22.1337 111.085C21.5286 111.085 21.2355 111.449 20.7936 112.75C19.8585 115.503 20.3032 118.928 21.5935 118.909C23.7714 118.876 30.645 116.472 30.1773 115.906C30.0087 115.702 29.2826 114.374 28.5637 112.954C27.3152 110.488 27.0011 110.201 25.9947 110.608ZM179.585 121.275C178.932 121.551 177.982 121.734 177.474 121.682C176.664 121.599 176.551 121.719 176.551 122.656C176.551 123.457 176.728 123.746 177.261 123.812C178.059 123.911 181.402 122.162 181.599 121.543C181.812 120.874 180.842 120.745 179.585 121.275ZM147.449 155.177C143.742 156.937 140.463 161.242 139.243 165.952C138.453 169.005 138.455 174.695 139.248 177.412C139.887 179.601 141.682 181.951 143.395 182.839C146.505 184.453 150.291 183.584 154.636 180.257L157.577 178.006L157.931 178.939C158.885 181.457 161.518 181.959 163.474 179.996C164.501 178.966 164.729 178.865 164.891 179.373C164.997 179.706 165.251 180.425 165.454 180.971C166.443 183.622 169.743 183.03 172.09 179.779L173.15 178.311L173.367 179.323C173.825 181.456 174.688 183.383 175.418 183.895C176.822 184.882 178.691 184.578 180.337 183.094C181.89 181.693 185.246 176.855 185.246 176.016C185.246 175.314 185.34 175.365 187.195 177.073L188.872 178.619L187.149 179.477C186.201 179.948 185.191 180.764 184.903 181.289C183.27 184.279 188.194 186.779 191.248 184.511C192.645 183.473 193.763 181.608 193.763 180.312C193.763 179.332 194.035 178.949 195.492 177.875C197.216 176.606 199.302 174.296 200.112 172.761C201.073 170.939 199.201 170.684 197.856 172.453C196.919 173.686 192.996 176.952 192.453 176.952C191.799 176.952 187.02 171.748 187.02 171.035C187.02 170.111 188.08 169.119 189.068 169.119C189.666 169.119 189.877 169.424 190.115 170.629C190.32 171.671 190.616 172.179 191.069 172.266C192.562 172.555 192.825 169.749 191.459 168.119C189.983 166.36 187.099 166.42 184.925 168.254C183.404 169.539 182.937 171.203 183.631 172.87C184.172 174.17 184.162 174.22 182.951 176.22C181.421 178.746 178.826 181.581 178.041 181.581C177.714 181.581 177.38 181.223 177.29 180.779C176.817 178.438 176.727 176.507 176.943 173.358C177.178 169.933 177.199 169.867 178.109 169.761C179.377 169.613 179.462 167.933 178.211 167.756C177.465 167.65 177.407 167.509 177.612 166.291C177.833 164.98 177.237 163.779 176.365 163.779C175.497 163.779 174.208 164.708 174.058 165.442C173.965 165.898 173.811 166.652 173.716 167.119C173.621 167.585 173.221 168.05 172.829 168.153C171.921 168.391 171.898 169.485 172.796 169.72C173.395 169.877 173.454 170.14 173.29 171.912C173.143 173.503 172.758 174.479 171.456 176.562C169.821 179.179 168.829 180.182 168.352 179.704C168.216 179.567 168.295 177.355 168.529 174.788C168.999 169.625 168.874 169.119 167.129 169.119C166.581 169.119 165.893 169.36 165.6 169.654C165.201 170.054 164.843 170.103 164.179 169.85C162.301 169.133 159.638 170.745 158.26 173.432C156.715 176.445 150.538 180.512 147.508 180.512C145.528 180.512 143.618 178.554 143.063 175.955C141.881 170.419 143.295 163.936 146.629 159.599C148.42 157.271 149.944 156.302 151.816 156.302C153.012 156.302 153.387 156.483 154.014 157.366C155.215 159.058 155.288 160.545 154.269 162.561C152.517 166.026 150.919 166.466 151.328 163.371C151.518 161.932 151.455 161.59 150.962 161.4C149.431 160.811 148.793 164.685 150.139 166.401C151.416 168.03 153.56 167.474 155.863 164.916C157.42 163.188 158.059 161.34 157.823 159.245C157.595 157.218 156.698 155.981 154.719 154.967C152.506 153.832 150.139 153.901 147.449 155.177ZM10.7251 155.045C8.29808 155.805 5.51265 158.181 3.65026 161.08C-0.43366 167.437 -0.112496 178.726 4.2571 182.415C7.53616 185.183 13.1549 184.119 17.8024 179.851L19.8131 178.004L20.0388 179.035C20.3749 180.57 21.7777 181.723 23.3101 181.723C24.3644 181.723 24.8137 181.473 25.7846 180.346L26.9706 178.97V179.946C26.9706 181.222 28.7234 183.005 29.9775 183.005C32.4428 183.005 34.2105 181.039 37.1215 175.057C39.7228 169.713 40.451 170.027 39.1929 175.95C38.4225 179.576 38.4083 182.711 39.1574 183.858C40.7817 186.345 43.9579 184.938 46.8568 180.445L48.1639 178.42L48.5769 179.803C49.3261 182.312 51.6317 183.313 53.9235 182.124C54.4796 181.835 55.5886 180.834 56.3874 179.899L57.8403 178.198L57.8428 179.996C57.8452 182.02 58.2697 182.649 59.6352 182.649C60.7847 182.649 61.7485 181.65 61.7485 180.46C61.7485 178.404 63.8735 173.005 65.0776 172.003C65.8726 171.341 66.0163 172.352 65.9151 177.901C65.8371 182.181 65.8946 182.676 66.5749 183.597C68.0586 185.606 70.5555 184.84 72.4605 181.792C73.084 180.795 73.6351 179.92 73.6855 179.849C73.7359 179.778 74.2061 180.058 74.7306 180.472C75.2551 180.886 75.9102 181.224 76.1867 181.224C77.2623 181.224 78.7808 180.092 79.6453 178.645L80.5502 177.13L80.5538 179.134L80.557 181.138L78.6268 182.632C76.5518 184.238 73.5766 187.642 73.0588 189.003C72.5957 190.221 73.304 192.443 74.4439 193.346C75.7459 194.377 78.2677 194.164 79.9427 192.883C82.0982 191.233 84.4606 185.649 84.4606 182.203C84.4606 180.968 84.7406 180.557 87.3884 177.897C90.6025 174.668 91.9698 172.594 91.3161 171.938C90.7377 171.358 89.6684 171.823 88.9977 172.946C88.6762 173.485 87.5303 174.795 86.4515 175.857L84.4897 177.789L84.5639 173.379L84.6381 168.97L83.6764 168.625C82.9911 168.379 82.4304 168.415 81.7245 168.751C81.1802 169.009 80.0694 169.187 79.2567 169.145C76.39 168.998 74.2253 171.065 73.4076 174.731C72.9658 176.711 70.4405 181.234 69.6279 181.5C69.2595 181.621 69.2166 180.83 69.4135 177.53C69.6197 174.067 69.5608 173.151 69.0441 171.794C68.3553 169.984 67.6696 169.475 65.9226 169.475C64.7185 169.475 63.113 170.767 62.1609 172.501C61.8071 173.146 61.7691 173.109 61.7592 172.112C61.7468 170.814 60.8046 169.831 59.5735 169.831C58.3609 169.831 57.8449 170.465 57.8449 171.952C57.8449 174.074 54.7717 179.132 53.1726 179.641C51.9763 180.022 51.752 179.188 51.9561 175.117C52.1427 171.398 52.1292 171.313 51.2857 170.758C49.9492 169.88 48.7128 170.514 48.4399 172.218C48.0666 174.552 46.0364 178.265 43.8251 180.659C42.1391 182.484 41.7346 180.714 42.9056 176.634C44.6208 170.661 44.1818 169.296 40.3101 168.568C39.441 168.404 39.0364 168.135 39.0364 167.722C39.0364 166.611 37.1755 165.203 35.707 165.203C33.4815 165.203 31.7838 167.371 32.5141 169.281C32.7846 169.988 34.4706 170.899 35.5086 170.899C36.1662 170.899 36.24 171.037 36.0317 171.878C35.3454 174.647 31.9804 180.156 30.9758 180.156C30.4395 180.156 30.4001 177.905 30.8597 173.57C31.1117 171.194 31.0698 170.618 30.6081 170.098C29.9509 169.358 28.2861 169.277 27.7237 169.957C27.4525 170.285 26.7861 170.388 25.6395 170.281C23.4801 170.079 21.794 171.138 20.6815 173.394C19.0271 176.75 12.9974 180.868 9.73852 180.868C7.95704 180.868 6.44669 179.792 5.54104 177.877C4.71915 176.14 4.4427 171.889 4.95408 168.848C5.74794 164.125 9.32438 158.153 12.0328 157.028C16.0745 155.348 18.5583 160.004 15.8282 164.143C14.1195 166.734 13.1173 166.427 13.4072 163.4C13.5453 161.959 13.474 161.642 13.0105 161.642C12.1957 161.642 11.6517 162.886 11.6517 164.75C11.6517 167.769 13.7501 168.644 16.4404 166.747C19.2329 164.778 20.6616 161.65 19.9132 159.144C18.7662 155.303 15.1092 153.671 10.7251 155.045ZM99.9819 156.611C96.4303 160.555 94.5881 173.554 96.2205 183.152C96.7525 186.28 97.5222 187.935 98.738 188.566C101.854 190.182 104.798 186.35 104.877 180.574C104.903 178.727 105.062 177.871 105.422 177.642C106.236 177.125 106.463 177.249 106.463 178.21C106.463 179.587 107.333 181.375 108.42 182.233C110.521 183.891 114.29 182.71 116.045 179.844C116.808 178.598 117.107 178.394 118.179 178.386C118.865 178.38 120.023 178.055 120.752 177.663L122.078 176.951V179.444C122.078 182.09 122.744 183.367 124.118 183.355C125.323 183.345 125.666 182.73 126.355 179.348C126.738 177.469 127.371 175.181 127.763 174.265C128.576 172.36 129.787 170.543 130.242 170.543C130.412 170.543 130.661 171.304 130.796 172.234C130.93 173.165 131.185 174.206 131.362 174.549C131.904 175.598 134.498 175.268 134.498 174.15C134.498 173.111 133.108 169.703 132.391 168.983C130.905 167.492 128.45 168.527 126.673 171.394L126.035 172.422L126.232 170.952C126.466 169.206 125.949 168.407 124.586 168.407C122.908 168.407 122.277 169.186 122.224 171.324C122.157 174.057 121.038 175.52 118.659 175.987L117.547 176.205L117.394 174.082C117.182 171.147 116.354 170.1 113.939 169.71C112.919 169.546 111.702 169.509 111.233 169.627C110.147 169.9 107.994 171.787 107.357 173.023C107.088 173.545 106.234 174.412 105.461 174.95L104.055 175.928L103.146 175.016C102.47 174.338 101.868 174.104 100.801 174.104C99.9773 174.104 99.3654 173.933 99.3654 173.705C99.3654 173.485 100.156 171.923 101.122 170.233C104.281 164.707 105.873 158.159 104.551 156.134C104.09 155.428 103.667 155.234 102.592 155.234C101.452 155.234 101.015 155.465 99.9819 156.611ZM219.669 165.202V174.46H221.443H223.217L223.22 169.564L223.223 164.669L226.68 168.407C228.581 170.463 230.812 172.866 231.637 173.748L233.138 175.35L233.146 166.004L233.154 156.658H231.38H229.605L229.599 161.553L229.593 166.449L227.203 163.957C225.889 162.586 223.655 160.222 222.241 158.704L219.669 155.943V165.202ZM261.197 164.936L261.189 174.104H262.964H264.738V169.313V164.522L269.562 169.669C272.215 172.5 274.451 174.816 274.53 174.816C274.61 174.816 274.674 170.73 274.674 165.737V156.658H272.9H271.126V161.55V166.442L267.846 162.885C266.042 160.929 263.81 158.527 262.885 157.548L261.204 155.768L261.197 164.936ZM236.348 165.561V174.567L239.808 174.35C244.099 174.081 246.126 173.4 248.267 171.51C252.25 167.992 252.25 163.125 248.267 159.608C246.107 157.7 244.065 157.012 239.808 156.76L236.348 156.554V165.561ZM254.447 165.381V174.104H256.221H257.995V165.381V156.658H256.221H254.447V165.381ZM284.228 157.492C281.411 158.655 279.813 160.003 278.773 162.097C277.579 164.501 277.599 166.385 278.845 168.777C279.981 170.958 282.296 172.741 285.064 173.566C287.113 174.176 291.206 174.278 292.585 173.752L293.507 173.4L293.406 169.568L293.306 165.737L290.534 165.632L287.763 165.528L287.872 167.057C287.976 168.494 288.051 168.592 289.136 168.696C290.201 168.8 290.289 168.905 290.289 170.081V171.355L288.474 171.139C284.754 170.697 282.244 168.723 281.874 165.947C281.326 161.852 286.504 158.544 291.265 159.947L293.128 160.496V158.796C293.128 156.774 292.909 156.666 288.87 156.671C286.912 156.674 285.685 156.891 284.228 157.492ZM206.183 165.737V174.46H211.329H216.475V172.858V171.255H213.103H209.732V170.009V168.763H213.103H216.475V167.339V165.915H213.103H209.732V162.888V159.862H213.103H216.475V158.438V157.014H211.329H206.183V165.737ZM101.655 158.705C100.993 160.29 100.237 163.835 99.9301 166.805L99.709 168.941L100.283 167.695C101.445 165.173 102.589 161.409 102.799 159.417C103.055 156.996 102.512 156.658 101.655 158.705ZM239.897 165.559V171.255H241.15C244.888 171.255 248.152 167.888 247.547 164.656C247.081 162.163 244.076 159.887 241.227 159.87L239.897 159.862V165.559ZM48.4999 165.084C47.9995 165.586 48.2962 167.641 48.9989 168.537C49.9585 169.761 51.1104 169.73 52.4841 168.442C53.6985 167.304 53.9267 165.929 53.0253 165.179C52.5693 164.799 52.3287 164.796 51.7414 165.164C51.2229 165.489 50.9099 165.508 50.6345 165.232C50.2097 164.806 48.8697 164.713 48.4999 165.084ZM34.8645 168.14C34.9447 168.385 35.4678 168.639 36.0271 168.704C36.9203 168.809 36.9874 168.755 36.5775 168.259C36.0228 167.589 34.653 167.493 34.8645 168.14ZM77.7815 172.056C76.972 173.387 76.3034 175.627 76.3006 177.02C76.2949 179.657 78.4742 177.752 79.8121 173.95C80.6922 171.449 80.6042 170.899 79.3231 170.899C78.7592 170.899 78.2553 171.277 77.7815 172.056ZM162.779 171.892C161.83 172.944 161.114 175.049 161.114 176.789C161.114 179.122 162.025 178.797 163.5 175.939C164.767 173.483 164.992 171.814 164.101 171.471C163.363 171.187 163.436 171.164 162.779 171.892ZM24.7086 172.633C23.6461 173.745 23.067 175.418 23.067 177.374C23.067 179.861 24.325 179.251 25.764 176.068C27.0306 173.265 27.1481 172.444 26.3439 172.012C25.7821 171.71 25.4801 171.825 24.7086 172.633ZM114.067 172.44C113.882 172.925 114.46 174.816 114.794 174.816C114.896 174.816 114.98 174.175 114.98 173.392C114.98 172.021 114.442 171.46 114.067 172.44ZM58.5507 173.043C58.3335 173.45 58.2058 174.171 58.2665 174.646C58.3648 175.412 58.4432 175.351 58.9702 174.098C59.5884 172.628 59.2396 171.751 58.5507 173.043ZM110.708 173.774C109.742 175.673 109.659 178.463 110.539 179.438C111.421 180.416 111.872 180.346 113.153 179.031L114.25 177.906L113.018 176.538C111.926 175.325 111.627 174.478 111.691 172.769C111.719 172.015 111.476 172.264 110.708 173.774ZM48.9719 173.929C48.3434 175.839 48.7657 176.248 49.6267 174.563C50.5316 172.792 50.5472 172.68 49.8878 172.68C49.61 172.68 49.198 173.242 48.9719 173.929ZM265.736 183.002L263.022 188.701H264.389C265.443 188.701 265.806 188.539 265.98 187.989C266.177 187.368 266.517 187.277 268.653 187.277C270.737 187.277 271.157 187.383 271.481 187.989C271.748 188.491 272.224 188.701 273.09 188.701C273.766 188.701 274.32 188.628 274.32 188.54C274.32 188.166 268.931 177.478 268.701 177.395C268.562 177.344 267.228 179.868 265.736 183.002ZM205.474 178.732C205.474 179.761 205.533 179.8 207.07 179.8H208.667V184.251V188.701H209.91H211.152V184.251V179.8H212.749C214.286 179.8 214.345 179.761 214.345 178.732V177.664H209.91H205.474V178.732ZM216.475 183.383V189.103L217.628 188.991C218.734 188.884 218.786 188.81 218.89 187.188L218.998 185.497H221.108H223.217V187.3V189.103L224.371 188.991L225.524 188.879L225.622 183.272L225.72 177.664H224.468H223.217V180.512V183.361H220.911H218.604V180.512V177.664H217.539H216.475V183.383ZM227.476 183.183V188.701H230.847C234.207 188.701 234.219 188.698 234.219 187.811C234.219 186.961 234.124 186.921 232.089 186.921C230.197 186.921 229.96 186.842 229.96 186.209C229.96 185.583 230.197 185.497 231.912 185.497C233.844 185.497 233.864 185.486 233.864 184.429C233.864 183.371 233.844 183.361 231.912 183.361H229.96V181.581V179.8H231.912C233.844 179.8 233.864 179.79 233.864 178.732V177.664H230.67H227.476V183.183ZM242.381 178.732C242.381 179.761 242.44 179.8 243.978 179.8H245.575V184.251V188.701H246.817H248.059V184.27V179.839L249.744 179.731C251.288 179.632 251.44 179.54 251.542 178.643L251.655 177.664H247.018H242.381V178.732ZM253.382 183.183V188.701H254.624C255.756 188.701 255.866 188.611 255.866 187.675C255.866 186.096 257.009 185.996 257.819 187.503C258.379 188.547 258.639 188.701 259.841 188.701H261.219L260.284 187.101L259.349 185.5L260.269 184.403C261.981 182.362 261.189 179.489 258.57 178.242C257.899 177.923 256.467 177.664 255.369 177.664H253.382V183.183ZM276.094 183.183V188.701H278.522C282.733 188.701 285.676 186.431 285.676 183.183C285.676 179.934 282.733 177.664 278.522 177.664H276.094V183.183ZM287.45 180.994C287.45 182.826 287.553 185.309 287.678 186.513L287.906 188.701H291.049H294.193V187.633V186.565H292.063C290.171 186.565 289.934 186.486 289.934 185.853C289.934 185.22 290.171 185.141 292.063 185.141C294.098 185.141 294.193 185.101 294.193 184.251C294.193 183.4 294.098 183.361 292.063 183.361H289.934V181.402V179.444H292.063C294.098 179.444 294.193 179.405 294.193 178.554C294.193 177.667 294.181 177.664 290.821 177.664H287.45V180.994ZM99.5354 181.402C100.137 187.954 101.372 188.086 101.586 181.621L101.672 178.992L100.489 178.951L99.3065 178.91L99.5354 181.402ZM255.866 181.937C255.866 184.536 256.021 184.747 257.398 184.019C258.423 183.478 258.693 183.026 258.7 181.842C258.704 181.111 258.409 180.677 257.552 180.152C256.917 179.764 256.279 179.446 256.132 179.446C255.986 179.445 255.866 180.566 255.866 181.937ZM278.578 183.161V186.935L279.554 186.7C282.043 186.101 283.192 184.991 283.192 183.183C283.192 181.388 281.964 180.134 279.726 179.641L278.578 179.388V183.161ZM188.528 181.61C187.652 181.943 187.442 182.649 188.219 182.649C188.715 182.649 189.721 181.67 189.466 181.435C189.389 181.365 188.967 181.444 188.528 181.61ZM267.991 183.955L267.292 185.331L268.667 185.2L270.042 185.068L269.474 183.947C269.162 183.331 268.858 182.771 268.799 182.703C268.74 182.635 268.376 183.199 267.991 183.955ZM78.1882 186.48C75.9624 188.525 75.1004 189.855 75.3953 190.787C75.9606 192.574 78.0764 191.725 79.1549 189.279C79.7681 187.888 80.463 184.78 80.1588 184.789C80.085 184.791 79.1982 185.552 78.1882 186.48Z" fill="white"/>
</svg>
