<svg width="1800" height="1350" viewBox="0 0 1800 1350" fill="none" xmlns="http://www.w3.org/2000/svg">
<rect y="760" width="1800" height="590" fill="#E5D4A9"/>
<path d="M0 0H1800V760H0V0Z" fill="#43432B"/>
<path fill-rule="evenodd" clip-rule="evenodd" d="M1113.06 206.496C1111.65 210.525 1109.65 213.827 1108.61 213.837C1107.57 213.844 1092.35 216.04 1074.8 218.713C1051.56 222.254 1037.65 223.163 1023.63 222.058C1003.64 220.481 994.581 222.825 987.459 231.418C983.477 236.221 958.539 236.351 938.731 231.673C892.093 220.659 865.874 217.6 817.118 217.484C777.957 217.392 765.026 218.216 749.742 221.769C713.4 230.22 700.57 239.324 689.041 264.845C684.28 275.389 683.625 281.487 682.462 326.262L681.171 375.973L673.268 389.68C668.921 397.219 662.918 404.991 659.93 406.951C651.545 412.452 639.377 413.579 633.905 409.358C629.337 405.838 629.42 405.713 636.387 405.639C644.956 405.549 649.271 401.845 649.271 394.573C649.271 386.948 640.592 381.891 627.505 381.891C596.085 381.891 589.534 422.309 618.586 436.924C627.663 441.493 643.28 442.336 652.663 438.764C655.999 437.492 658.727 436.844 658.727 437.317C658.727 437.793 657.063 446.966 655.027 457.706C652.084 473.249 651.902 478.611 654.134 484.006C655.675 487.734 657.606 490.783 658.422 490.781C659.24 490.781 659.909 505.959 659.909 524.513C659.909 557.694 659.996 558.26 665.228 559.006C670.519 559.756 670.547 559.598 670.547 527.64V495.517H683.599C695.171 495.517 696.953 494.857 699.301 489.696C702.76 482.098 696.625 471.845 688.618 471.845C680.672 471.845 679.739 469.774 683.937 461.484C689.251 450.997 701.897 435.734 723.402 413.849L742.012 394.911L740.849 421.395C739.511 451.864 739.48 451.781 763.333 480.656L777.459 497.754L771.378 504.991C756.506 522.688 762.799 547.101 784.47 555.784C790.78 558.312 797.298 559.24 802.231 558.315C808.87 557.067 810.026 555.855 810.026 550.148C810.026 543.619 809.751 543.475 799.567 544.623C790.614 545.633 788.231 544.926 783.019 539.706C774.073 530.748 774.659 519.154 784.475 510.885C790.785 505.569 793.496 504.764 801.023 505.969C806.468 506.84 810.026 506.463 810.026 505.015C810.026 503.696 813.141 502.619 816.95 502.619C831.177 502.619 836.255 487.926 825.073 479.12C821.463 476.274 815.361 474.212 810.557 474.212C802.404 474.212 800.506 472.816 791.846 460.452C787.205 453.826 787.383 438.077 792.354 415.563C796.454 396.997 806.184 363.645 808.042 361.784C809.498 360.326 846.361 374.196 868.457 384.517C886.984 393.169 907.095 398.462 921.438 398.462C940.284 398.462 940.048 398.102 940.048 426.769C940.048 440.757 938.911 455.467 937.523 459.455C935.57 465.066 935.837 469.189 938.705 477.645C943.301 491.207 943.322 493.15 938.866 493.15C935.882 493.15 935.32 498.41 935.32 526.291V559.432H941.23C946.549 559.432 947.14 558.485 947.14 549.963C947.14 538.276 949.759 537.905 954.972 548.853C959.251 557.834 963.816 560.798 969.818 558.492C973.092 557.233 972.816 555.737 967.683 546.966C961.847 536.995 961.832 536.83 966.284 531.328C971.192 525.259 972.21 512.085 968.333 504.83C966.166 500.775 966.7 500.252 972.988 500.252H980.09L980.754 529.25L981.418 558.248H996.785C1011.6 558.248 1012.15 558.035 1012.15 552.33C1012.15 547.061 1011.05 546.332 1002.1 545.685C993.224 545.042 992.057 544.284 992.057 539.176C992.057 534.238 993.18 533.388 999.74 533.357C1009.57 533.31 1014.02 530.441 1012.95 524.823C1012.31 521.45 1009.69 520.198 1002.08 519.646C992.726 518.967 992.057 518.451 992.057 511.953C992.057 505.275 992.496 504.986 1002.69 504.986C1012.47 504.986 1013.33 504.503 1013.33 499.068C1013.33 493.884 1012.31 493.15 1005.06 493.15C997.945 493.15 996.785 492.369 996.785 487.578C996.785 484.512 994.064 479.065 990.74 475.474C985.889 470.233 983.317 469.215 977.738 470.333C971.719 471.54 970.78 471.021 970.78 466.507C970.78 463.636 974.336 455.407 978.683 448.221C983.031 441.034 991.532 425.95 997.577 414.701C1003.62 403.452 1010.04 393.683 1011.83 392.994C1013.69 392.281 1016.34 394.054 1017.97 397.101C1020.6 402.017 1064.16 445.811 1080.75 460.208C1084.63 463.574 1091.24 469.966 1095.43 474.411C1099.63 478.859 1106.28 485.36 1110.21 488.856C1117.22 495.098 1117.35 495.631 1117.35 517.973C1117.35 543.801 1120.4 552.446 1131.06 556.868C1139.9 560.535 1149.31 558.078 1155.21 550.562C1159.17 545.522 1159.9 540.944 1159.9 521.237C1159.9 502.058 1160.54 497.885 1163.45 497.885C1166.42 497.885 1167 502.882 1167 528.658V559.432H1182.36H1197.73V552.33C1197.73 545.624 1197.2 545.229 1188.27 545.229C1179.82 545.229 1178.82 544.613 1178.82 539.453C1178.82 534.489 1180.06 533.575 1187.68 532.943C1195.38 532.306 1196.65 531.352 1197.29 525.699C1198 519.542 1197.52 519.189 1188.43 519.189C1179.32 519.189 1178.82 518.815 1178.82 512.088C1178.82 505.381 1179.34 504.986 1188.27 504.986C1196.78 504.986 1197.73 504.394 1197.73 499.068C1197.73 493.545 1196.94 493.15 1185.91 493.15C1174.28 493.15 1174.09 493.029 1174.09 485.866C1174.09 476.603 1162.85 464.744 1154.08 464.744C1145.26 464.744 1134.67 456.129 1124.99 441.072C1110.37 418.342 1086.72 368.888 1084.26 355.897C1081.56 341.644 1081.09 323.493 1083.49 325.888C1084.37 326.769 1087.39 325.32 1090.21 322.669C1100.43 313.053 1135.99 310.591 1157.01 318.043L1170.54 322.842L1176.01 316.268C1179.02 312.651 1185.65 304.898 1190.75 299.039C1195.86 293.18 1200.02 286.256 1200 283.652C1199.98 281.049 1195.21 272.607 1189.39 264.895C1183.57 257.18 1178.82 249.695 1178.82 248.26C1178.82 245.318 1169.19 234.715 1157.95 225.277C1153.82 221.814 1150.45 216.921 1150.45 214.4C1150.45 208.693 1143.56 202.225 1137.38 202.119C1134.81 202.076 1128.87 201.395 1124.16 200.606C1116.21 199.273 1115.42 199.69 1113.06 206.496ZM1138.63 218.187C1138.63 220.59 1136.64 224.356 1134.21 226.56C1130.89 229.569 1129.96 233.193 1130.49 241.13C1131.22 252.057 1129.9 253.814 1124.76 248.736C1122.36 246.364 1121.07 246.715 1118.28 250.5C1115.3 254.55 1114.48 254.718 1112.57 251.683C1111.34 249.738 1110.32 244.771 1110.29 240.647C1110.28 236.526 1109.04 232.746 1107.56 232.251C1105.53 231.574 1105.53 230.083 1107.56 226.283C1110.14 221.452 1109.87 221.281 1101.71 222.609C1092.55 224.096 1076.12 239.48 1070.96 251.402C1069.48 254.818 1066.02 258.953 1063.26 260.591C1060.51 262.232 1058.25 265.631 1058.25 268.145C1058.25 270.661 1057.28 273.322 1056.09 274.056C1054.02 275.337 1057.85 286.91 1068.6 311.865L1073.61 323.504L1075.35 311.865C1076.39 304.841 1076.07 297.709 1074.54 293.888C1071.35 285.93 1073.41 279.297 1081.48 271.442C1084.96 268.064 1086.47 266.029 1084.85 266.921C1080.68 269.208 1081.16 265.962 1086.55 255.381C1092 244.681 1100.71 234.791 1103.29 236.384C1106.58 238.42 1102.63 248.05 1095.29 255.838C1086.59 265.094 1089.51 266.175 1098.9 257.171C1103.67 252.597 1105.53 251.828 1105.53 254.436C1105.53 256.432 1103.5 259.905 1101.02 262.156C1098.53 264.405 1095.83 268.928 1095.01 272.207C1094.02 276.156 1092.35 277.718 1090.06 276.84C1087.33 275.791 1086.62 277.929 1086.62 287.137C1086.62 293.531 1085.55 299.418 1084.25 300.223C1082.95 301.028 1081.89 302.9 1081.89 304.387C1081.89 306.333 1082.68 306.292 1084.73 304.247C1089.32 299.652 1094.24 300.758 1092.57 306.011C1091.25 310.168 1091.98 310.48 1100.09 309.228C1111.32 307.49 1111.21 307.609 1107.85 301.333C1105.61 297.138 1105.76 295.425 1108.62 292.565C1113.32 287.857 1117.71 290.851 1116.02 297.607C1115.15 301.099 1115.76 303.087 1117.78 303.274C1119.5 303.433 1127.5 304.474 1135.57 305.589C1149.35 307.493 1150.28 307.32 1150.93 302.735C1151.48 298.895 1153.89 297.553 1162.27 296.435C1168.12 295.654 1171.51 294.856 1169.81 294.66C1168.11 294.466 1167.43 293.145 1168.31 291.725C1169.27 290.172 1173.08 289.743 1177.91 290.65C1186.28 292.222 1188.12 289.642 1183.66 282.583C1180.1 276.937 1183.65 274.733 1188.86 279.356C1191.52 281.718 1189.02 277.093 1183.3 269.075C1177.58 261.058 1172.49 254.908 1171.98 255.407C1171.47 255.906 1172.32 257.843 1173.87 259.713C1177.27 263.815 1173.88 266.58 1168.16 264.379C1164.62 263.02 1164.52 263.42 1167.33 267.922C1169.07 270.716 1171.31 273 1172.29 273C1173.28 273 1174.09 275.107 1174.09 277.68C1174.09 283.347 1163.71 290.745 1159.46 288.112C1151.12 282.952 1140.98 287.895 1137.52 298.805C1135.49 305.211 1133.24 305.099 1130.3 298.448C1128.97 295.436 1126.23 293.405 1124.01 293.777C1118.64 294.667 1115.85 289.469 1119.94 286.204C1125.14 282.062 1129.17 273.642 1129.17 266.959C1129.17 259.625 1133.36 251.08 1136.11 252.787C1137.2 253.459 1138.67 251.795 1139.37 249.089C1140.37 245.256 1141.87 244.506 1146.14 245.687C1151.5 247.169 1151.52 247.117 1146.96 243.474C1143.2 240.465 1142.81 238.912 1144.96 235.463C1146.94 232.282 1146.93 228.963 1144.91 222.503C1142.03 213.268 1138.63 210.934 1138.63 218.187ZM807.661 225.912C800.614 228.679 793.603 237.059 793.529 242.799C793.501 245.065 791.35 248.251 788.749 249.877C783.231 253.329 782.392 256.908 787.567 254.919C790.201 253.906 791.134 255.298 791.198 260.319C791.269 265.861 792.09 264.843 795.735 254.697C800.647 241.029 808.125 229.375 814.29 225.774C819.394 222.794 815.385 222.877 807.661 225.912ZM850.526 255.362C842.64 271.703 834.172 287.947 831.708 291.462C828.037 296.705 827.401 300.988 828.174 315.259C828.692 324.832 828.155 333.887 826.983 335.381C825.808 336.874 824.3 342.44 823.628 347.747C822.503 356.636 822.931 357.592 829.077 359.914C835.262 362.253 835.924 361.929 838.172 355.471C839.98 350.277 839.654 344.814 836.886 333.996C832.623 317.34 834.647 306.278 844.02 295.003C847.044 291.365 851.417 282.528 853.737 275.367C856.056 268.206 860.642 257.691 863.93 252.003C868.774 243.618 869.394 240.832 867.193 237.3C865.699 234.905 865.103 231.304 865.871 229.301C866.64 227.296 866.729 225.656 866.067 225.656C865.408 225.656 858.415 239.024 850.526 255.362ZM776.203 239.755C771.782 249.761 771.175 254.55 772.076 272.304L773.13 293.121L775.163 268.266C776.281 254.595 778.714 239.949 780.57 235.717C782.425 231.484 783.369 228.023 782.666 228.023C781.964 228.023 779.057 233.302 776.203 239.755ZM816.912 231.058C814.851 232.644 811.806 236.488 810.148 239.604C805.361 248.601 798.316 275.367 800.737 275.367C801.945 275.367 803.004 277.765 803.092 280.693C803.335 288.879 809.948 266.036 809.99 256.865C810.03 248.095 812.995 241.258 820.189 233.349C825.33 227.699 823.21 226.217 816.912 231.058ZM835.472 241.701C832.023 249.224 826.621 259.187 823.467 263.841C818.014 271.887 814.075 284.834 811.156 304.302C810.43 309.147 808.141 314.064 806.068 315.224C803.248 316.805 802.683 319.348 803.818 325.348C804.652 329.756 805.99 337.835 806.792 343.299C808.87 357.474 813.349 351.842 817.212 330.201C819.538 317.163 819.609 312.424 817.51 310.321C812.784 305.589 814.449 296.805 822.768 282.592C827.177 275.062 831.557 266.36 832.503 263.257C833.451 260.153 835.524 256.015 837.113 254.062C838.699 252.109 842.753 245.451 846.122 239.267L852.245 228.023H846.994C842.897 228.023 840.363 231.032 835.472 241.701ZM1061.2 230.464C1058.28 231.643 1055.89 234.081 1055.89 235.887C1055.89 237.691 1053.29 241.975 1050.11 245.406C1046.38 249.444 1043.25 257.126 1041.25 267.177C1037.56 285.703 1033.2 287.364 1033.99 269.942C1034.66 255.016 1038.12 245.555 1046.07 236.9L1052.04 230.39L1040.37 230.393L1028.7 230.395L1028.04 241.637C1027.67 247.82 1025.7 258.738 1023.66 265.898C1018.64 283.518 1020.82 296.603 1031.95 315.51C1041.91 332.441 1047.14 346.267 1046.05 352.825C1045.67 355.14 1048.79 362.021 1052.98 368.114C1061.43 380.374 1061.98 381.977 1057.66 381.704C1052.28 381.368 1028.77 352.143 1019.55 334.325C1010.56 316.976 1010.49 316.902 1012.19 327.361C1013.14 333.174 1016.98 343.957 1020.72 351.326C1027.7 365.089 1029.27 372.423 1025.21 372.423C1023.95 372.423 1021.21 369.128 1019.13 365.101C1013.88 354.936 1012.56 357.782 1016.85 369.984C1018.82 375.559 1020.43 382.14 1020.43 384.609C1020.43 390.458 1038.93 410.539 1043.58 409.735C1045.8 409.351 1049.33 413.43 1052.86 420.449C1057.24 429.15 1060.17 432.107 1065.5 433.172C1072.34 434.543 1075.23 438.624 1069.48 438.79C1063.73 438.955 1080.8 450.517 1086.81 450.529C1094.22 450.543 1096.81 452.718 1093.77 456.38C1092.25 458.215 1093.23 460.741 1096.75 464.107C1099.63 466.86 1107.03 473.985 1113.2 479.946L1124.42 490.783H1141.97C1161.4 490.783 1167 489.443 1167 484.784C1167 480.261 1155.44 471.845 1149.24 471.845C1146.32 471.845 1142.61 470.247 1140.99 468.294C1139.37 466.342 1136.56 464.744 1134.74 464.744C1130.24 464.744 1112.46 436.68 1095.43 402.676C1086.3 384.45 1078.84 372.683 1074.28 369.324C1066.87 363.868 1056.84 347.008 1059.45 344.393C1060.29 343.552 1063.82 346.327 1067.3 350.562C1070.77 354.796 1074.18 358.253 1074.86 358.241C1078.39 358.179 1073.6 337.17 1068.5 330.391C1065.32 326.151 1063.3 321.738 1064.01 320.581C1065.19 318.673 1062.66 312.156 1048.43 280.44C1042.58 267.404 1043.51 260.856 1051.76 256.91C1055.34 255.199 1059.98 250.393 1062.08 246.236C1064.18 242.077 1068.08 236.278 1070.76 233.349C1075.45 228.21 1075.46 228.028 1071.07 228.172C1068.57 228.255 1064.13 229.287 1061.2 230.464ZM882.743 235.717C871.892 252.341 859.67 284.919 859.67 297.219C859.67 305.419 856.446 312.192 848.448 320.782C844.001 325.559 842.909 328.646 844.053 333.21C846.113 341.424 849.427 340.903 849.427 332.367C849.427 325.616 855.708 313.243 859.134 313.243C860.079 313.245 860.897 321.379 860.954 331.323C861.053 349.226 861.138 349.473 869.819 356.768C876.985 362.795 878.583 365.714 878.583 372.782C878.583 380.353 879.509 381.752 886.027 384.027C895.675 387.395 895.131 387.63 895.131 380.102C895.131 375.131 893.443 372.83 888.039 370.434C880.141 366.935 879.278 363.702 884.417 356.896C886.327 354.37 887.923 349.783 887.963 346.705C888.062 339.419 897.471 322.711 901.476 322.711C905.455 322.711 905.389 325.737 901.041 342.451C895.925 362.118 896.377 367.381 903.405 370.055C906.656 371.294 909.315 373.966 909.315 375.997C909.315 381.579 916.471 391.36 920.556 391.36C922.537 391.36 925.542 389.497 927.23 387.218C930.128 383.305 930.511 383.338 934.121 387.809C937.885 392.471 937.906 392.463 935.464 387.4C934.1 384.571 929.688 379.673 925.658 376.516L918.332 370.775L924.462 364.152C929.608 358.591 930.592 355.303 930.592 343.671C930.592 335.788 931.636 329.813 933.015 329.813C937.464 329.813 940.509 342.686 939.315 356.444C938.627 364.36 939.128 370.671 940.513 371.528C941.823 372.337 944.395 376.598 946.23 380.997C948.067 385.395 951.149 388.993 953.081 388.993C955.014 388.993 956.596 390.058 956.596 391.36C956.596 392.662 960.055 393.69 964.279 393.645C972.728 393.555 1008.48 387.535 1010.08 385.935C1010.64 385.383 1007.86 378.123 1003.92 369.8C998.272 357.855 997.402 354.169 999.789 352.301C1002.61 350.093 1003.11 341.386 1001.91 315.018C1001.66 309.337 1000.45 306.354 998.558 306.733C996.38 307.168 995.425 300.931 994.929 283.061C994.553 269.516 993.248 258.797 991.974 258.797C988.711 258.797 989.149 246.085 992.529 242.7C994.09 241.138 998.078 239.791 1001.39 239.71L1007.42 239.559L1002.01 237.383C994.347 234.303 988.042 238.893 982.34 251.695C977.844 261.791 977.79 263.037 981.281 275.524C985.137 289.31 986.272 310.875 983.144 310.875C982.142 310.875 978.851 302.903 975.83 293.159C970.383 275.587 969.686 256.25 974.142 246.378C975.775 242.757 975.024 242.432 968.073 243.76C963.712 244.591 959.844 245.51 959.478 245.796C959.114 246.083 958.681 263.24 958.518 283.922C958.303 311.062 957.362 322.541 955.135 325.166C951.858 329.027 953.239 339.282 957.036 339.282C960.326 339.282 958.31 349.387 954.79 350.55C950.22 352.055 944.776 336.316 944.776 321.604C944.776 314.4 945.575 308.501 946.549 308.492C947.523 308.482 948.686 294.901 949.133 278.31C949.577 261.718 951.038 246.814 952.376 245.185C953.96 243.259 953.986 242.226 952.447 242.226C946.665 242.226 944.057 251.193 941.773 278.909C940.431 295.188 938.547 308.508 937.582 308.508C934.171 308.508 932.686 295.664 934.329 280.315C935.809 266.476 935.591 265.094 932.357 267.78C929.897 269.826 928.329 276.705 927.511 289.064C926.225 308.489 920.492 344.816 917.625 351.71C916.677 353.989 914.485 355.852 912.752 355.852C907.684 355.852 908.483 320.273 913.864 306.558C916.251 300.469 918.982 285.556 919.934 273.417C921.14 258.028 922.658 250.961 924.946 250.083C926.75 249.39 928.228 246.035 928.228 242.631V236.441L923.171 241.502C919.644 245.034 917.816 250.384 917.131 259.192C915.783 276.468 914.367 282.469 911.634 282.469C910.301 282.469 909.315 273.982 909.315 262.516C909.315 247.534 910.24 241.637 913.029 238.844C916.407 235.463 916.301 235.125 911.847 235.125C908.708 235.125 906.951 236.654 906.951 239.386C906.951 241.729 905.894 244.705 904.601 246C901.254 249.352 898.717 276.75 901.592 278.527C903.093 279.458 902.781 284.403 900.712 292.39C898.942 299.219 897.495 308.264 897.495 312.492C897.495 317.657 895.169 322.832 890.403 328.267C886.502 332.715 883.311 338.446 883.311 341.003C883.311 345.571 874.864 355.284 872.741 353.158C870.857 351.272 876.597 319.445 880.027 312.769C881.833 309.251 883.311 303.085 883.311 299.063C883.311 295.041 885.438 287.573 888.039 282.469C890.639 277.365 892.767 269.376 892.767 264.715C892.767 260.054 894.916 252.022 897.542 246.866C900.171 241.71 901.294 237.492 900.041 237.492C896.214 237.492 890.436 247.479 886.523 260.866C882.441 274.828 874.602 289.571 871.257 289.571C868.512 289.571 868.37 290.38 873.855 274.752C876.455 267.345 878.606 258.858 878.635 255.897C878.663 252.936 880.739 245.983 883.247 240.451C888.278 229.356 888.084 227.533 882.743 235.717ZM1016.87 235.717C1011.25 252.912 1008.8 263.231 1008.71 270.041C1008.55 281.908 1004.24 279.138 1003.19 266.49C1002.52 258.423 1002.42 258.922 1002.86 268.266C1003.42 280.393 1009.8 318.244 1010.84 315.61C1011.1 314.959 1012.16 300.5 1013.19 283.48C1014.23 266.459 1016.14 250.481 1017.43 247.972C1021.13 240.768 1023.09 230.39 1020.75 230.39C1019.57 230.39 1017.83 232.788 1016.87 235.717ZM709.176 255.381C708.398 257.41 706.315 258.513 704.544 257.833C700.459 256.264 698.277 264.518 699.535 276.776C700.452 285.7 700.5 285.629 700.883 274.775C701.211 265.482 702.053 263.531 705.731 263.531C708.603 263.531 710.585 261.432 711.315 257.613C712.575 251.004 711.343 249.721 709.176 255.381ZM1142.76 266.488C1137.02 280.533 1137.29 284.862 1143.52 278.622C1147.08 275.055 1148.21 271.364 1147.66 265.049L1146.9 256.375L1142.76 266.488ZM1099.85 277.652C1095.91 286.193 1093.93 293.628 1094.83 296.469C1097.03 303.414 1103.17 299.837 1103.17 291.609C1103.17 287.8 1104.76 280.859 1106.71 276.186C1110.73 266.549 1111.11 263.531 1108.31 263.531C1107.24 263.531 1103.43 269.885 1099.85 277.652ZM711.083 272.231C707.095 276.544 709.062 291.538 715.379 304.957L719.835 314.426L718.551 299.039C717.845 290.577 716.594 280.305 715.774 276.212C714.49 269.807 713.837 269.253 711.083 272.231ZM781.808 274.184C781.39 278.09 780.867 284.285 780.65 287.951C780.43 291.616 779.215 295.344 777.95 296.237C776.473 297.276 776.615 301.669 778.343 308.508L781.035 319.161L782.681 308.508C783.588 302.649 783.931 290.932 783.449 282.469C782.964 274.006 782.227 270.278 781.808 274.184ZM759.908 284.244C759.397 294.028 758.317 297.673 756.066 297.205C753.844 296.743 753.397 298.121 754.527 301.939C756.494 308.574 778.662 350.971 782.716 355.852C784.338 357.805 786.385 361.42 787.265 363.884C788.142 366.348 789.376 367.849 790.007 367.217C790.638 366.585 788.064 359.242 784.286 350.9C772.648 325.192 765.109 299.018 765.109 284.311C765.109 266.557 760.832 266.502 759.908 284.244ZM739.459 280.22C739.263 284.841 737.783 289.947 736.168 291.564C733.833 293.902 733.951 294.951 736.759 296.708C739.551 298.45 740.442 297.432 741.031 291.831C741.44 287.937 741.334 281.842 740.795 278.284C739.967 272.827 739.757 273.13 739.459 280.22ZM791.113 299.828C791.113 309.81 792.116 317.977 793.34 317.977C795.366 317.977 794.09 285.113 791.969 282.665C791.499 282.123 791.113 289.847 791.113 299.828ZM696.516 301.082C697.738 305.459 698.511 310.12 698.235 311.439C697.961 312.755 699.065 314.322 700.689 314.919C705.353 316.632 704.135 305.72 698.916 299.039L694.292 293.121L696.516 301.082ZM1158.56 306.406C1156.86 309.161 1161.4 313.143 1166.32 313.207C1167.9 313.226 1170.33 311.112 1171.72 308.508C1173.99 304.266 1173.52 303.774 1167.22 303.774C1163.35 303.774 1159.45 304.957 1158.56 306.406ZM743.156 315.579C742.126 319.518 742.759 322.063 745.095 323.372C747 324.439 748.56 326.923 748.56 328.887C748.56 330.852 749.676 331.768 751.04 330.926C752.747 329.867 752.698 328.4 750.875 326.203C749.421 324.449 747.433 320.025 746.459 316.37L744.683 309.727L743.156 315.579ZM730.967 317.977C729.892 321.232 727.892 324.612 726.525 325.49C724.797 326.601 724.847 328.769 726.684 332.592L729.329 338.098L729.487 332.062C729.577 328.741 730.811 324.861 732.234 323.436C733.655 322.013 734.393 318.869 733.873 316.452C733.074 312.755 732.615 312.996 730.967 317.977ZM710.736 330.447C710.736 337.741 711.752 346.386 712.994 349.657C715.18 355.412 726.341 364.689 728.49 362.537C729.535 361.491 714.228 320.685 711.927 318.379C711.272 317.724 710.736 323.154 710.736 330.447ZM694.159 330.966C700.417 337.637 703.644 338.531 703.644 333.596C703.644 331.771 700.254 329.093 696.11 327.647L688.578 325.017L694.159 330.966ZM1025.63 331.226C1027.32 335.258 1031.7 342.182 1035.38 346.613L1042.06 354.669L1035.67 342.833C1027.54 327.77 1021.03 320.245 1025.63 331.226ZM788.749 341.964C788.749 346.173 798.101 359.112 799.867 357.344C800.484 356.726 798.236 352.162 794.87 347.202C791.447 342.158 788.749 339.85 788.749 341.964ZM693.597 353.682C687.722 360.125 688.436 363.695 696.552 368.495L703.644 372.69V360.722C703.644 347.721 700.831 345.749 693.597 353.682ZM844.387 357.242C842.184 360.608 840.732 363.716 841.16 364.145C841.59 364.573 847.524 367.13 854.351 369.823C868.115 375.254 870.561 373.01 859.67 364.947C855.77 362.059 852.578 357.767 852.578 355.407C852.578 349.312 849.061 350.1 844.387 357.242ZM736.012 358.056C736.691 360.648 738.572 362.102 740.362 361.413C742.097 360.748 748.199 362.949 753.922 366.308C759.645 369.667 764.936 371.805 765.681 371.062C766.426 370.316 770.057 371.234 773.754 373.1C777.451 374.965 783.666 377.214 787.567 378.094C793.704 379.479 793.227 378.843 784.021 373.36C778.17 369.876 769.766 363.711 765.345 359.663C760.641 355.357 757.877 353.925 758.681 356.212C760.872 362.447 757.887 363.183 750.828 358.148C742.118 351.939 734.402 351.892 736.012 358.056ZM961.35 364.107C959.745 366.043 959.123 369.435 959.969 371.644C961.367 375.287 961.962 375.202 966.43 370.728C969.14 368.017 970.631 364.625 969.745 363.193C967.544 359.628 964.816 359.924 961.35 364.107ZM710.736 372.269C710.736 376.089 709.696 381.953 708.426 385.298C706.833 389.493 706.979 393.273 708.899 397.489C711.242 402.64 712.776 403.379 718.665 402.2C729.237 400.083 737.419 391.36 728.833 391.36C724.937 391.36 717.828 383.814 717.828 379.676C717.828 377.709 719.275 377.259 721.965 378.393C729.998 381.773 736.74 382.429 736.74 379.832C736.74 378.395 733.147 375.718 728.755 373.878C724.362 372.042 720.045 369.364 719.159 367.93C715.866 362.594 710.736 365.236 710.736 372.269ZM772.641 386.709C778.74 389.935 782.945 390.731 786.65 389.358C791.309 387.632 790.636 387.069 781.026 384.645C765.423 380.71 762.608 381.404 772.641 386.709ZM682.367 388.993C680.389 392.693 680.571 393.728 683.19 393.728C685.034 393.728 687.207 396.125 688.017 399.054L689.49 404.38L694.076 398.462C702.209 387.968 701.892 384.259 692.868 384.259C687.318 384.259 684.129 385.696 682.367 388.993ZM746.196 387.002C746.196 396.798 762.47 407.931 776.789 407.931C784.981 407.931 786.593 407.202 785.948 403.788C785.454 401.179 782.546 399.354 778.09 398.857C774.201 398.422 767.827 395.669 763.927 392.738C755.882 386.692 746.196 383.558 746.196 387.002ZM984.964 398.583C979.113 399.624 968.208 400.557 960.733 400.654C952.984 400.753 947.14 401.89 947.14 403.298C947.14 404.657 950.598 405.53 954.823 405.242C968.955 404.269 984.964 405.542 984.964 407.635C984.964 408.773 979.913 411.884 973.735 414.545C963.906 418.78 963.317 419.407 969.007 419.575C972.582 419.682 975.508 420.709 975.508 421.857C975.508 424.908 965.27 426.376 959.334 424.177C949.424 420.505 947.889 423.398 946.518 448.301C945.244 471.469 947.655 487.59 952.955 491.339C957.752 494.731 984.213 493.361 987.366 489.554C992.068 483.88 984.648 477.098 975.251 478.481C960.239 480.687 959.752 466.093 974.01 441.28C994.255 406.042 999.468 396.099 997.548 396.391C996.48 396.554 990.815 397.541 984.964 398.583ZM666.788 410.644C665.334 412.999 669.977 422.134 672.628 422.134C674.715 422.134 682.367 414.294 682.367 412.156C682.367 409.962 668.065 408.575 666.788 410.644ZM689.72 417.071C685.285 422.678 683.233 427.124 684.672 428.016C686.006 428.84 687.095 431.172 687.095 433.198C687.095 436.47 686.502 436.493 681.776 433.402C678.112 431.006 674.973 430.59 671.687 432.062C667.829 433.795 666.216 438.494 663.254 456.667C658.602 485.218 660.143 488.416 678.561 488.416C685.422 488.416 691.672 487.779 692.448 487C695.353 484.093 691.124 478.947 685.828 478.947C680.252 478.947 672.911 473.403 672.911 469.192C672.911 465.456 680.01 452.555 688.5 440.868C694.431 432.701 695.712 429.342 693.67 427.297C690.003 423.625 693.242 420.768 697.275 424.12C699.755 426.182 701.925 425.271 706.88 420.089C712.861 413.839 713.015 413.179 709.192 410.073C706.528 407.907 705.719 407.779 706.875 409.706C709.069 413.363 703.275 413.716 699.708 410.144C697.927 408.362 695.003 410.39 689.72 417.071ZM755.4 420.565C753.317 422.089 750.804 425.891 749.813 429.011C748.378 433.537 748.743 434.406 751.608 433.305C753.584 432.545 761.154 433.31 768.43 435.004C781.532 438.053 781.657 438.032 781.657 432.67C781.657 429.692 782.314 425.538 783.12 423.438C784.373 420.167 783.191 419.843 774.858 421.178C769.18 422.087 763.896 421.705 762.161 420.264C760.076 418.531 758.052 418.621 755.4 420.565ZM953.641 437.968C949.395 439.081 948.357 441.502 950.996 444.144C952.934 446.085 961.324 441.597 961.324 438.622C961.324 436.242 960.504 436.174 953.641 437.968ZM756.196 446.822C751.123 452.181 751.09 452.42 755.605 451.239C760.497 449.958 762.274 453.824 758.007 456.463C755.534 457.995 762.362 468.38 776.399 484.436C784.272 493.439 784.387 493.479 803.666 493.905C821.595 494.303 823.028 493.983 823.028 489.599C823.028 485.715 821.023 484.635 811.846 483.577C798.47 482.038 788.596 473.694 782.402 458.698C778.454 449.144 777.844 448.706 770.225 449.944C762.861 451.142 762.333 450.832 763.816 446.159C765.927 439.5 762.877 439.765 756.196 446.822ZM611.446 526.575V560L625.987 558.947C638.191 558.064 641.42 556.854 646.082 551.431C653.519 542.771 653.462 530.917 645.954 523.68C641.543 519.428 640.545 516.522 641.491 510.677C643.264 499.738 635.968 493.15 622.084 493.15H611.446V526.575ZM695.37 497.51C681.502 505.999 676.079 518.804 680.07 533.639C684.353 549.568 705.797 562.824 719.986 558.315C724.443 556.897 724.92 554.927 724.92 537.968V519.189H716.646C709.369 519.189 708.372 519.911 708.372 525.181C708.372 528.478 709.968 531.788 711.918 532.536C713.868 533.286 715.464 536.449 715.464 539.564C715.464 549.783 700.88 545.996 694.573 534.141C690.391 526.279 691.244 520.127 697.53 512.812C702.32 507.237 704.982 506.205 714.079 506.397C724.471 506.615 724.92 506.345 724.92 499.887C724.92 493.427 724.459 493.15 713.691 493.16C706.968 493.164 699.615 494.909 695.37 497.51ZM826.657 523.221C817.018 560.611 817.229 557.974 823.791 558.97C827.765 559.576 829.638 558.445 830.569 554.884C832.354 548.048 845.389 547.901 847.165 554.697C848.772 560.852 859.713 561.373 859.578 555.289C859.526 553.01 856.004 538.364 851.748 522.74C845.335 499.191 843.195 494.213 839.24 493.631C834.992 493.003 833.609 496.251 826.657 523.221ZM854.942 499.068C854.942 504.051 856.051 504.986 861.956 504.986H868.97L869.64 531.617L870.309 558.248H876.219H882.129L882.798 531.617L883.467 504.986H890.481C896.386 504.986 897.495 504.051 897.495 499.068C897.495 493.195 897.337 493.15 876.219 493.15C855.101 493.15 854.942 493.195 854.942 499.068ZM1026.65 498.057C1022.14 501.613 1020.43 505.145 1020.43 510.897C1020.43 518.827 1021.24 519.805 1038.89 532.924C1042.45 535.57 1043.83 538.357 1042.85 540.923C1040.63 546.699 1036.04 547.657 1028.75 543.87C1021.42 540.066 1018.06 541.19 1018.06 547.447C1018.06 558.918 1039.4 562.282 1049.84 552.456C1060.91 542.045 1057.22 527.12 1041.62 519.149C1036.47 516.514 1032.25 512.855 1032.25 511.015C1032.25 506.676 1039.66 504.385 1047.41 506.331C1052.38 507.581 1053.52 507.024 1053.52 503.348C1053.52 492.554 1037.62 489.419 1026.65 498.057ZM1080.24 497.719C1064.58 507.408 1059.95 522.3 1067.37 539.093C1071.22 547.816 1074.34 551.061 1082.38 554.716C1099.32 562.417 1110.26 560.566 1110.26 550.001C1110.26 543.645 1109.93 543.479 1099.8 544.623C1090.85 545.633 1088.46 544.926 1083.25 539.706C1075.44 531.887 1075.3 521.623 1082.87 512.812C1087.67 507.218 1090.31 506.205 1099.54 506.399C1110 506.62 1110.47 506.347 1109.79 500.481C1109.15 494.994 1107.93 494.265 1098.44 493.69C1091.09 493.245 1085.46 494.49 1080.24 497.719ZM1132.04 520.965C1132.71 543.825 1132.77 544.045 1138.63 544.045C1144.48 544.045 1144.54 543.825 1145.21 520.965L1145.89 497.885H1138.63H1131.36L1132.04 520.965ZM947.14 516.822C947.14 529.534 951.707 533.071 956.513 524.08C959.946 517.658 959.563 513.03 955.246 508.705C949.055 502.508 947.14 504.425 947.14 516.822ZM623.266 537.1C623.266 544.843 623.786 545.482 629.529 544.793C642.64 543.226 642.06 528.658 628.888 528.658C624.02 528.658 623.266 529.79 623.266 537.1Z" fill="#E5D4A9"/>
<path d="M396.254 985.4C407.187 986.667 414.954 989.033 419.554 992.5C424.221 995.9 426.554 1001.03 426.554 1007.9C426.554 1014.77 423.187 1020.33 416.454 1024.6C409.721 1028.87 400.787 1031 389.654 1031C378.521 1031 369.854 1028.97 363.654 1024.9C357.521 1020.77 354.454 1015.7 354.454 1009.7C354.454 1008.23 355.221 1007.5 356.754 1007.5H377.254C378.654 1007.5 379.787 1007.93 380.654 1008.8C382.521 1010.6 385.754 1011.5 390.354 1011.5C396.687 1011.5 399.854 1010.53 399.854 1008.6C399.854 1007.4 398.854 1006.47 396.854 1005.8C394.854 1005.07 390.887 1004.37 384.954 1003.7C366.087 1001.43 356.654 994.2 356.654 982C356.654 975.133 359.687 969.6 365.754 965.4C371.821 961.133 379.921 959 390.054 959C400.254 959 408.487 961.233 414.754 965.7C421.021 970.1 424.154 974.767 424.154 979.7C424.154 980.367 423.921 980.9 423.454 981.3C423.054 981.7 422.487 981.9 421.754 981.9H400.254C399.054 981.9 398.021 981.5 397.154 980.7C395.554 979.233 393.154 978.5 389.954 978.5C385.487 978.5 383.254 979.433 383.254 981.3C383.254 982.3 384.121 983.1 385.854 983.7C387.587 984.233 391.054 984.8 396.254 985.4ZM491.415 960H512.315C512.915 960 513.415 960.233 513.815 960.7C514.282 961.1 514.515 961.533 514.515 962C514.515 962.467 514.415 962.9 514.215 963.3L489.015 1005V1027.3C489.015 1028.03 488.748 1028.67 488.215 1029.2C487.682 1029.73 487.048 1030 486.315 1030H465.015C464.282 1030 463.648 1029.73 463.115 1029.2C462.582 1028.67 462.315 1028.03 462.315 1027.3V1005L437.215 963.3C437.015 962.9 436.915 962.467 436.915 962C436.915 961.533 437.115 961.1 437.515 960.7C437.982 960.233 438.515 960 439.115 960H460.215C462.082 960 463.448 960.767 464.315 962.3L475.615 982.1L487.215 962.5C488.215 960.833 489.615 960 491.415 960ZM566.176 985.4C577.109 986.667 584.876 989.033 589.476 992.5C594.142 995.9 596.476 1001.03 596.476 1007.9C596.476 1014.77 593.109 1020.33 586.376 1024.6C579.642 1028.87 570.709 1031 559.576 1031C548.442 1031 539.776 1028.97 533.576 1024.9C527.442 1020.77 524.376 1015.7 524.376 1009.7C524.376 1008.23 525.142 1007.5 526.676 1007.5H547.176C548.576 1007.5 549.709 1007.93 550.576 1008.8C552.442 1010.6 555.676 1011.5 560.276 1011.5C566.609 1011.5 569.776 1010.53 569.776 1008.6C569.776 1007.4 568.776 1006.47 566.776 1005.8C564.776 1005.07 560.809 1004.37 554.876 1003.7C536.009 1001.43 526.576 994.2 526.576 982C526.576 975.133 529.609 969.6 535.676 965.4C541.742 961.133 549.842 959 559.976 959C570.176 959 578.409 961.233 584.676 965.7C590.942 970.1 594.076 974.767 594.076 979.7C594.076 980.367 593.842 980.9 593.376 981.3C592.976 981.7 592.409 981.9 591.676 981.9H570.176C568.976 981.9 567.942 981.5 567.076 980.7C565.476 979.233 563.076 978.5 559.876 978.5C555.409 978.5 553.176 979.433 553.176 981.3C553.176 982.3 554.042 983.1 555.776 983.7C557.509 984.233 560.976 984.8 566.176 985.4ZM611.137 960H680.137C680.87 960 681.503 960.267 682.037 960.8C682.57 961.333 682.837 961.967 682.837 962.7V978.8C682.837 979.533 682.57 980.167 682.037 980.7C681.503 981.233 680.87 981.5 680.137 981.5H658.637V1027.3C658.637 1028.03 658.37 1028.67 657.837 1029.2C657.303 1029.73 656.67 1030 655.937 1030H635.337C634.603 1030 633.97 1029.73 633.437 1029.2C632.903 1028.67 632.637 1028.03 632.637 1027.3V981.5H611.137C610.403 981.5 609.77 981.233 609.237 980.7C608.703 980.167 608.437 979.533 608.437 978.8V962.7C608.437 961.967 608.703 961.333 609.237 960.8C609.77 960.267 610.403 960 611.137 960ZM723.098 1010.5H762.998C763.731 1010.5 764.364 1010.77 764.898 1011.3C765.431 1011.83 765.698 1012.47 765.698 1013.2V1027.3C765.698 1028.03 765.431 1028.67 764.898 1029.2C764.364 1029.73 763.731 1030 762.998 1030H699.798C699.064 1030 698.431 1029.73 697.898 1029.2C697.364 1028.67 697.098 1028.03 697.098 1027.3V962.7C697.098 961.967 697.364 961.333 697.898 960.8C698.431 960.267 699.064 960 699.798 960H761.998C762.731 960 763.364 960.267 763.898 960.8C764.431 961.333 764.698 961.967 764.698 962.7V976.8C764.698 977.533 764.431 978.167 763.898 978.7C763.364 979.233 762.731 979.5 761.998 979.5H723.098V985.8H756.498C757.231 985.8 757.864 986.067 758.398 986.6C758.931 987.133 759.198 987.767 759.198 988.5V1001.5C759.198 1002.23 758.931 1002.87 758.398 1003.4C757.864 1003.93 757.231 1004.2 756.498 1004.2H723.098V1010.5ZM832.959 960H851.259C851.992 960 852.625 960.267 853.159 960.8C853.692 961.333 853.959 961.967 853.959 962.7V1027.3C853.959 1028.03 853.692 1028.67 853.159 1029.2C852.625 1029.73 851.992 1030 851.259 1030H833.159C832.425 1030 831.792 1029.73 831.259 1029.2C830.725 1028.67 830.459 1028.03 830.459 1027.3V996.3L823.159 1010.7C822.759 1011.5 822.159 1012.13 821.359 1012.6C820.559 1013 819.759 1013.2 818.959 1013.2H812.159C811.025 1013.2 810.092 1012.9 809.359 1012.3C808.625 1011.7 808.159 1011.17 807.959 1010.7L800.659 996.3V1027.3C800.659 1028.03 800.392 1028.67 799.859 1029.2C799.325 1029.73 798.692 1030 797.959 1030H779.859C779.125 1030 778.492 1029.73 777.959 1029.2C777.425 1028.67 777.159 1028.03 777.159 1027.3V962.7C777.159 961.967 777.425 961.333 777.959 960.8C778.492 960.267 779.125 960 779.859 960H798.159C800.025 960 801.459 960.9 802.459 962.7L815.559 986.7L828.659 962.7C829.659 960.9 831.092 960 832.959 960ZM953.28 960H985.18C992.514 960 998.88 960.967 1004.28 962.9C1009.68 964.833 1014.05 968.1 1017.38 972.7C1020.71 977.3 1022.38 983.033 1022.38 989.9V1000.1C1022.38 1010.77 1018.78 1018.53 1011.58 1023.4C1004.98 1027.8 996.18 1030 985.18 1030H953.28C952.547 1030 951.914 1029.73 951.38 1029.2C950.847 1028.67 950.58 1028.03 950.58 1027.3V962.7C950.58 961.967 950.847 961.333 951.38 960.8C951.914 960.267 952.547 960 953.28 960ZM976.58 979.5V1010.5H985.68C988.814 1010.5 991.28 1009.77 993.08 1008.3C994.947 1006.77 995.88 1004.63 995.88 1001.9V988.1C995.88 985.367 994.947 983.267 993.08 981.8C991.28 980.267 988.814 979.5 985.68 979.5H976.58ZM1062.94 1010.5H1102.84C1103.57 1010.5 1104.21 1010.77 1104.74 1011.3C1105.27 1011.83 1105.54 1012.47 1105.54 1013.2V1027.3C1105.54 1028.03 1105.27 1028.67 1104.74 1029.2C1104.21 1029.73 1103.57 1030 1102.84 1030H1039.64C1038.91 1030 1038.27 1029.73 1037.74 1029.2C1037.21 1028.67 1036.94 1028.03 1036.94 1027.3V962.7C1036.94 961.967 1037.21 961.333 1037.74 960.8C1038.27 960.267 1038.91 960 1039.64 960H1101.84C1102.57 960 1103.21 960.267 1103.74 960.8C1104.27 961.333 1104.54 961.967 1104.54 962.7V976.8C1104.54 977.533 1104.27 978.167 1103.74 978.7C1103.21 979.233 1102.57 979.5 1101.84 979.5H1062.94V985.8H1096.34C1097.07 985.8 1097.71 986.067 1098.24 986.6C1098.77 987.133 1099.04 987.767 1099.04 988.5V1001.5C1099.04 1002.23 1098.77 1002.87 1098.24 1003.4C1097.71 1003.93 1097.07 1004.2 1096.34 1004.2H1062.94V1010.5ZM1160.9 985.4C1171.84 986.667 1179.6 989.033 1184.2 992.5C1188.87 995.9 1191.2 1001.03 1191.2 1007.9C1191.2 1014.77 1187.84 1020.33 1181.1 1024.6C1174.37 1028.87 1165.44 1031 1154.3 1031C1143.17 1031 1134.5 1028.97 1128.3 1024.9C1122.17 1020.77 1119.1 1015.7 1119.1 1009.7C1119.1 1008.23 1119.87 1007.5 1121.4 1007.5H1141.9C1143.3 1007.5 1144.44 1007.93 1145.3 1008.8C1147.17 1010.6 1150.4 1011.5 1155 1011.5C1161.34 1011.5 1164.5 1010.53 1164.5 1008.6C1164.5 1007.4 1163.5 1006.47 1161.5 1005.8C1159.5 1005.07 1155.54 1004.37 1149.6 1003.7C1130.74 1001.43 1121.3 994.2 1121.3 982C1121.3 975.133 1124.34 969.6 1130.4 965.4C1136.47 961.133 1144.57 959 1154.7 959C1164.9 959 1173.14 961.233 1179.4 965.7C1185.67 970.1 1188.8 974.767 1188.8 979.7C1188.8 980.367 1188.57 980.9 1188.1 981.3C1187.7 981.7 1187.14 981.9 1186.4 981.9H1164.9C1163.7 981.9 1162.67 981.5 1161.8 980.7C1160.2 979.233 1157.8 978.5 1154.6 978.5C1150.14 978.5 1147.9 979.433 1147.9 981.3C1147.9 982.3 1148.77 983.1 1150.5 983.7C1152.24 984.233 1155.7 984.8 1160.9 985.4ZM1272.06 980.5H1253.96V1009.5H1272.06C1272.8 1009.5 1273.43 1009.77 1273.96 1010.3C1274.5 1010.83 1274.76 1011.47 1274.76 1012.2V1027.3C1274.76 1028.03 1274.5 1028.67 1273.96 1029.2C1273.43 1029.73 1272.8 1030 1272.06 1030H1208.66C1207.93 1030 1207.3 1029.73 1206.76 1029.2C1206.23 1028.67 1205.96 1028.03 1205.96 1027.3V1012.2C1205.96 1011.47 1206.23 1010.83 1206.76 1010.3C1207.3 1009.77 1207.93 1009.5 1208.66 1009.5H1226.96V980.5H1208.66C1207.93 980.5 1207.3 980.233 1206.76 979.7C1206.23 979.167 1205.96 978.533 1205.96 977.8V962.7C1205.96 961.967 1206.23 961.333 1206.76 960.8C1207.3 960.267 1207.93 960 1208.66 960H1272.06C1272.8 960 1273.43 960.267 1273.96 960.8C1274.5 961.333 1274.76 961.967 1274.76 962.7V977.8C1274.76 978.533 1274.5 979.167 1273.96 979.7C1273.43 980.233 1272.8 980.5 1272.06 980.5ZM1332.32 987.8H1361.32C1362.06 987.8 1362.69 988.067 1363.22 988.6C1363.76 989.133 1364.02 989.767 1364.02 990.5V1001.1C1364.02 1011.23 1360.56 1018.77 1353.62 1023.7C1346.76 1028.57 1337.66 1031 1326.32 1031C1314.99 1031 1305.86 1028.57 1298.92 1023.7C1292.06 1018.77 1288.62 1011.17 1288.62 1000.9V989.1C1288.62 983.967 1289.59 979.433 1291.52 975.5C1293.52 971.567 1296.29 968.4 1299.82 966C1306.76 961.333 1315.59 959 1326.32 959C1331.66 959 1336.52 959.633 1340.92 960.9C1345.39 962.1 1348.92 963.633 1351.52 965.5C1354.19 967.3 1356.46 969.267 1358.32 971.4C1361.59 975.133 1363.22 978.433 1363.22 981.3C1363.22 981.9 1362.99 982.433 1362.52 982.9C1362.12 983.3 1361.62 983.5 1361.02 983.5H1338.42C1337.09 983.5 1336.12 983.133 1335.52 982.4C1333.46 979.8 1330.62 978.5 1327.02 978.5C1323.49 978.5 1320.69 979.2 1318.62 980.6C1316.62 982 1315.62 983.8 1315.62 986V1003C1315.62 1005.67 1316.62 1007.77 1318.62 1009.3C1320.62 1010.77 1323.42 1011.5 1327.02 1011.5C1330.69 1011.5 1333.49 1010.8 1335.42 1009.4C1337.42 1007.93 1338.46 1006.23 1338.52 1004.3H1332.32C1331.59 1004.3 1330.96 1004.03 1330.42 1003.5C1329.89 1002.97 1329.62 1002.33 1329.62 1001.6V990.5C1329.62 989.767 1329.89 989.133 1330.42 988.6C1330.96 988.067 1331.59 987.8 1332.32 987.8ZM1422.99 960H1441.59C1442.32 960 1442.95 960.267 1443.49 960.8C1444.02 961.333 1444.29 961.967 1444.29 962.7V1027.3C1444.29 1028.03 1444.02 1028.67 1443.49 1029.2C1442.95 1029.73 1442.32 1030 1441.59 1030H1425.49C1423.89 1030 1422.55 1029.3 1421.49 1027.9L1399.69 1000.1V1027.3C1399.69 1028.03 1399.42 1028.67 1398.89 1029.2C1398.35 1029.73 1397.72 1030 1396.99 1030H1378.39C1377.65 1030 1377.02 1029.73 1376.49 1029.2C1375.95 1028.67 1375.69 1028.03 1375.69 1027.3V962.7C1375.69 961.967 1375.95 961.333 1376.49 960.8C1377.02 960.267 1377.65 960 1378.39 960H1394.59C1396.19 960 1397.49 960.667 1398.49 962L1420.29 992.1V962.7C1420.29 961.967 1420.55 961.333 1421.09 960.8C1421.62 960.267 1422.25 960 1422.99 960ZM362.754 1096.9C362.754 1092.1 364.954 1087.9 369.354 1084.3C373.754 1080.7 379.887 1078.9 387.754 1078.9C395.687 1078.9 401.687 1080.67 405.754 1084.2C409.887 1087.73 411.954 1092 411.954 1097C411.954 1104.13 407.821 1110.1 399.554 1114.9L406.054 1121.6C407.321 1120.47 408.854 1118.07 410.654 1114.4C410.921 1113.73 411.587 1113.4 412.654 1113.4H428.854C429.387 1113.4 429.821 1113.57 430.154 1113.9C430.487 1114.23 430.654 1114.67 430.654 1115.2C430.654 1117.2 429.287 1120.4 426.554 1124.8C423.821 1129.2 421.254 1132.67 418.854 1135.2L430.854 1146.9C431.254 1147.3 431.454 1147.77 431.454 1148.3C431.454 1148.77 431.254 1149.17 430.854 1149.5C430.521 1149.83 430.121 1150 429.654 1150H408.554C407.687 1150 406.854 1149.67 406.054 1149L403.354 1146.6C397.621 1149.8 391.187 1151.4 384.054 1151.4C374.854 1151.4 367.754 1149.57 362.754 1145.9C357.821 1142.23 355.354 1136.9 355.354 1129.9C355.354 1122.1 359.687 1115.77 368.354 1110.9C364.621 1106.37 362.754 1101.7 362.754 1096.9ZM378.154 1128.5C378.154 1130.3 378.821 1131.77 380.154 1132.9C381.487 1133.97 383.187 1134.5 385.254 1134.5C387.321 1134.5 388.821 1134.17 389.754 1133.5L380.854 1124.5C379.054 1125.37 378.154 1126.7 378.154 1128.5ZM388.154 1094.2C387.221 1094.2 386.387 1094.57 385.654 1095.3C384.987 1095.97 384.654 1096.87 384.654 1098C384.654 1099.13 385.621 1100.6 387.554 1102.4C390.354 1101.13 391.754 1099.5 391.754 1097.5C391.754 1095.3 390.554 1094.2 388.154 1094.2ZM598.776 1128C598.776 1142.67 589.376 1150 570.576 1150H529.376C528.642 1150 528.009 1149.73 527.476 1149.2C526.942 1148.67 526.676 1148.03 526.676 1147.3V1082.7C526.676 1081.97 526.942 1081.33 527.476 1080.8C528.009 1080.27 528.642 1080 529.376 1080H569.576C579.042 1080 586.009 1081.73 590.476 1085.2C595.009 1088.6 597.276 1093.77 597.276 1100.7V1101C597.276 1104.2 596.409 1106.93 594.676 1109.2C592.942 1111.47 591.142 1112.9 589.276 1113.5C591.876 1114.3 594.109 1116.07 595.976 1118.8C597.842 1121.47 598.776 1124.53 598.776 1128ZM552.676 1123V1132.8H567.176C568.709 1132.8 569.842 1132.3 570.576 1131.3C571.376 1130.23 571.776 1129.07 571.776 1127.8V1127.7C571.776 1126.43 571.342 1125.33 570.476 1124.4C569.676 1123.47 568.576 1123 567.176 1123H552.676ZM569.076 1104.9C569.809 1103.9 570.176 1102.8 570.176 1101.6C570.176 1100.4 569.809 1099.37 569.076 1098.5C568.409 1097.63 567.409 1097.2 566.076 1097.2H552.676V1106.3H566.076C567.409 1106.3 568.409 1105.83 569.076 1104.9ZM685.337 1146.9C685.47 1147.17 685.537 1147.53 685.537 1148C685.537 1148.47 685.303 1148.93 684.837 1149.4C684.437 1149.8 683.937 1150 683.337 1150H660.637C658.637 1150 657.237 1149.17 656.437 1147.5L647.637 1127.7H639.237V1147.3C639.237 1148.03 638.97 1148.67 638.437 1149.2C637.903 1149.73 637.27 1150 636.537 1150H614.937C614.203 1150 613.57 1149.73 613.037 1149.2C612.503 1148.67 612.237 1148.03 612.237 1147.3V1082.7C612.237 1081.97 612.503 1081.33 613.037 1080.8C613.57 1080.27 614.203 1080 614.937 1080H653.837C662.97 1080 670.203 1082.17 675.537 1086.5C680.87 1090.83 683.537 1096.73 683.537 1104.2C683.537 1113.27 680.037 1119.83 673.037 1123.9L685.337 1146.9ZM639.237 1098.6V1109.2H651.737C653.203 1109.2 654.337 1108.73 655.137 1107.8C655.937 1106.8 656.337 1105.57 656.337 1104.1C656.337 1102.63 655.937 1101.37 655.137 1100.3C654.403 1099.17 653.27 1098.6 651.737 1098.6H639.237ZM711.698 1150H692.798C692.198 1150 691.664 1149.8 691.198 1149.4C690.798 1148.93 690.598 1148.5 690.598 1148.1C690.598 1147.7 690.631 1147.4 690.698 1147.2L712.498 1083.3C713.098 1081.1 714.598 1080 716.998 1080H744.798C747.198 1080 748.698 1081.1 749.298 1083.3L771.098 1147.2C771.164 1147.4 771.198 1147.7 771.198 1148.1C771.198 1148.5 770.964 1148.93 770.498 1149.4C770.098 1149.8 769.598 1150 768.998 1150H750.098C747.964 1150 746.464 1148.87 745.598 1146.6L743.098 1139.6H718.698L716.198 1146.6C715.331 1148.87 713.831 1150 711.698 1150ZM737.998 1120.1L730.898 1099.3L723.798 1120.1H737.998ZM828.259 1080H846.859C847.592 1080 848.225 1080.27 848.759 1080.8C849.292 1081.33 849.559 1081.97 849.559 1082.7V1147.3C849.559 1148.03 849.292 1148.67 848.759 1149.2C848.225 1149.73 847.592 1150 846.859 1150H830.759C829.159 1150 827.825 1149.3 826.759 1147.9L804.959 1120.1V1147.3C804.959 1148.03 804.692 1148.67 804.159 1149.2C803.625 1149.73 802.992 1150 802.259 1150H783.659C782.925 1150 782.292 1149.73 781.759 1149.2C781.225 1148.67 780.959 1148.03 780.959 1147.3V1082.7C780.959 1081.97 781.225 1081.33 781.759 1080.8C782.292 1080.27 782.925 1080 783.659 1080H799.859C801.459 1080 802.759 1080.67 803.759 1082L825.559 1112.1V1082.7C825.559 1081.97 825.825 1081.33 826.359 1080.8C826.892 1080.27 827.525 1080 828.259 1080ZM868.32 1080H900.22C907.553 1080 913.92 1080.97 919.32 1082.9C924.72 1084.83 929.086 1088.1 932.42 1092.7C935.753 1097.3 937.42 1103.03 937.42 1109.9V1120.1C937.42 1130.77 933.82 1138.53 926.62 1143.4C920.02 1147.8 911.22 1150 900.22 1150H868.32C867.586 1150 866.953 1149.73 866.42 1149.2C865.886 1148.67 865.62 1148.03 865.62 1147.3V1082.7C865.62 1081.97 865.886 1081.33 866.42 1080.8C866.953 1080.27 867.586 1080 868.32 1080ZM891.62 1099.5V1130.5H900.72C903.853 1130.5 906.32 1129.77 908.12 1128.3C909.986 1126.77 910.92 1124.63 910.92 1121.9V1108.1C910.92 1105.37 909.986 1103.27 908.12 1101.8C906.32 1100.27 903.853 1099.5 900.72 1099.5H891.62ZM1017.18 1100.5H999.08V1129.5H1017.18C1017.91 1129.5 1018.55 1129.77 1019.08 1130.3C1019.61 1130.83 1019.88 1131.47 1019.88 1132.2V1147.3C1019.88 1148.03 1019.61 1148.67 1019.08 1149.2C1018.55 1149.73 1017.91 1150 1017.18 1150H953.78C953.047 1150 952.414 1149.73 951.88 1149.2C951.347 1148.67 951.08 1148.03 951.08 1147.3V1132.2C951.08 1131.47 951.347 1130.83 951.88 1130.3C952.414 1129.77 953.047 1129.5 953.78 1129.5H972.08V1100.5H953.78C953.047 1100.5 952.414 1100.23 951.88 1099.7C951.347 1099.17 951.08 1098.53 951.08 1097.8V1082.7C951.08 1081.97 951.347 1081.33 951.88 1080.8C952.414 1080.27 953.047 1080 953.78 1080H1017.18C1017.91 1080 1018.55 1080.27 1019.08 1080.8C1019.61 1081.33 1019.88 1081.97 1019.88 1082.7V1097.8C1019.88 1098.53 1019.61 1099.17 1019.08 1099.7C1018.55 1100.23 1017.91 1100.5 1017.18 1100.5ZM1083.14 1080H1101.74C1102.47 1080 1103.11 1080.27 1103.64 1080.8C1104.17 1081.33 1104.44 1081.97 1104.44 1082.7V1147.3C1104.44 1148.03 1104.17 1148.67 1103.64 1149.2C1103.11 1149.73 1102.47 1150 1101.74 1150H1085.64C1084.04 1150 1082.71 1149.3 1081.64 1147.9L1059.84 1120.1V1147.3C1059.84 1148.03 1059.57 1148.67 1059.04 1149.2C1058.51 1149.73 1057.87 1150 1057.14 1150H1038.54C1037.81 1150 1037.17 1149.73 1036.64 1149.2C1036.11 1148.67 1035.84 1148.03 1035.84 1147.3V1082.7C1035.84 1081.97 1036.11 1081.33 1036.64 1080.8C1037.17 1080.27 1037.81 1080 1038.54 1080H1054.74C1056.34 1080 1057.64 1080.67 1058.64 1082L1080.44 1112.1V1082.7C1080.44 1081.97 1080.71 1081.33 1081.24 1080.8C1081.77 1080.27 1082.41 1080 1083.14 1080ZM1162.4 1107.8H1191.4C1192.14 1107.8 1192.77 1108.07 1193.3 1108.6C1193.84 1109.13 1194.1 1109.77 1194.1 1110.5V1121.1C1194.1 1131.23 1190.64 1138.77 1183.7 1143.7C1176.84 1148.57 1167.74 1151 1156.4 1151C1145.07 1151 1135.94 1148.57 1129 1143.7C1122.14 1138.77 1118.7 1131.17 1118.7 1120.9V1109.1C1118.7 1103.97 1119.67 1099.43 1121.6 1095.5C1123.6 1091.57 1126.37 1088.4 1129.9 1086C1136.84 1081.33 1145.67 1079 1156.4 1079C1161.74 1079 1166.6 1079.63 1171 1080.9C1175.47 1082.1 1179 1083.63 1181.6 1085.5C1184.27 1087.3 1186.54 1089.27 1188.4 1091.4C1191.67 1095.13 1193.3 1098.43 1193.3 1101.3C1193.3 1101.9 1193.07 1102.43 1192.6 1102.9C1192.2 1103.3 1191.7 1103.5 1191.1 1103.5H1168.5C1167.17 1103.5 1166.2 1103.13 1165.6 1102.4C1163.54 1099.8 1160.7 1098.5 1157.1 1098.5C1153.57 1098.5 1150.77 1099.2 1148.7 1100.6C1146.7 1102 1145.7 1103.8 1145.7 1106V1123C1145.7 1125.67 1146.7 1127.77 1148.7 1129.3C1150.7 1130.77 1153.5 1131.5 1157.1 1131.5C1160.77 1131.5 1163.57 1130.8 1165.5 1129.4C1167.5 1127.93 1168.54 1126.23 1168.6 1124.3H1162.4C1161.67 1124.3 1161.04 1124.03 1160.5 1123.5C1159.97 1122.97 1159.7 1122.33 1159.7 1121.6V1110.5C1159.7 1109.77 1159.97 1109.13 1160.5 1108.6C1161.04 1108.07 1161.67 1107.8 1162.4 1107.8ZM1341.32 1080H1362.42C1363.02 1080 1363.52 1080.23 1363.92 1080.7C1364.39 1081.1 1364.62 1081.5 1364.62 1081.9C1364.62 1082.3 1364.59 1082.63 1364.52 1082.9L1341.52 1146.7C1340.79 1148.9 1339.29 1150 1337.02 1150H1313.72C1311.52 1150 1310.06 1149 1309.32 1147L1286.12 1082.9C1286.06 1082.63 1286.02 1082.3 1286.02 1081.9C1286.02 1081.5 1286.22 1081.1 1286.62 1080.7C1287.09 1080.23 1287.62 1080 1288.22 1080H1309.32C1310.52 1080 1311.49 1080.37 1312.22 1081.1C1313.02 1081.77 1313.56 1082.5 1313.82 1083.3L1325.32 1121.6L1336.82 1083.3C1337.42 1081.1 1338.92 1080 1341.32 1080ZM1441.09 1129.5C1441.82 1129.5 1442.45 1129.77 1442.99 1130.3C1443.52 1130.83 1443.79 1131.47 1443.79 1132.2V1147.3C1443.79 1148.03 1443.52 1148.67 1442.99 1149.2C1442.45 1149.73 1441.82 1150 1441.09 1150H1380.79C1380.05 1150 1379.42 1149.73 1378.89 1149.2C1378.35 1148.67 1378.09 1148.03 1378.09 1147.3V1135C1378.09 1132.47 1378.95 1130.67 1380.69 1129.6C1392.02 1122.47 1400.49 1116.77 1406.09 1112.5C1411.75 1108.23 1414.59 1104.93 1414.59 1102.6C1414.59 1101.8 1414.52 1101.17 1414.39 1100.7C1414.32 1100.17 1413.99 1099.7 1413.39 1099.3C1412.79 1098.83 1411.89 1098.6 1410.69 1098.6C1409.55 1098.6 1408.59 1098.87 1407.79 1099.4C1406.99 1099.93 1406.45 1100.47 1406.19 1101C1405.92 1101.53 1405.65 1102.3 1405.39 1103.3C1405.12 1104.23 1404.95 1104.77 1404.89 1104.9C1404.62 1105.63 1403.69 1106 1402.09 1106H1381.79C1381.12 1106 1380.52 1105.77 1379.99 1105.3C1379.52 1104.83 1379.29 1104.23 1379.29 1103.5C1379.29 1096.03 1382.19 1090.1 1387.99 1085.7C1393.85 1081.23 1401.69 1079 1411.49 1079C1421.29 1079 1428.69 1080.93 1433.69 1084.8C1438.69 1088.67 1441.19 1094.17 1441.19 1101.3C1441.19 1104.9 1440.02 1108.17 1437.69 1111.1C1436.42 1112.7 1435.19 1114.13 1433.99 1115.4C1432.85 1116.6 1431.19 1118.03 1428.99 1119.7C1423.72 1123.63 1418.99 1126.9 1414.79 1129.5H1441.09Z" fill="black"/>
</svg>
