<svg width="300" height="300" viewBox="0 0 300 300" fill="none" xmlns="http://www.w3.org/2000/svg">
<rect width="300" height="300" rx="20" fill="#5C683A"/>
<path fill-rule="evenodd" clip-rule="evenodd" d="M232.521 82.5228C231.975 84.0875 231.198 85.37 230.792 85.3737C230.387 85.3764 224.47 86.2296 217.644 87.2675C208.608 88.6429 203.196 88.9959 197.746 88.5666C189.971 87.9543 186.448 88.8644 183.678 92.2017C182.13 94.067 172.432 94.1176 164.729 92.301C146.592 88.0232 136.395 86.8354 117.435 86.7904C102.206 86.7545 97.1768 87.0745 91.2332 88.4544C77.1 91.7365 72.1107 95.2723 67.6271 105.184C65.7755 109.279 65.5208 111.647 65.0685 129.036L64.5666 148.343L61.4932 153.666C59.8025 156.594 57.4683 159.612 56.3062 160.373C53.0453 162.51 48.3134 162.947 46.1851 161.308C44.4089 159.941 44.4411 159.892 47.1504 159.864C50.4831 159.829 52.1609 158.39 52.1609 155.566C52.1609 152.605 48.7859 150.641 43.6964 150.641C31.4774 150.641 28.9298 166.338 40.2277 172.014C43.758 173.788 49.8312 174.116 53.4801 172.728C54.7773 172.235 55.8383 171.983 55.8383 172.167C55.8383 172.351 55.191 175.914 54.3995 180.085C53.2549 186.121 53.1841 188.204 54.052 190.299C54.6514 191.747 55.4025 192.931 55.7197 192.93C56.0378 192.93 56.2979 198.825 56.2979 206.031C56.2979 218.917 56.332 219.137 58.3665 219.427C60.424 219.718 60.435 219.657 60.435 207.245V194.77H65.5107C70.0109 194.77 70.7041 194.513 71.617 192.509C72.9621 189.558 70.5763 185.576 67.4625 185.576C64.3726 185.576 64.0094 184.772 65.6422 181.552C67.7089 177.48 72.6265 171.552 80.9898 163.052L88.2269 155.697L87.7746 165.983C87.2542 177.816 87.2423 177.784 96.5185 188.998L102.012 195.639L99.6471 198.449C93.8635 205.322 96.3108 214.803 104.738 218.175C107.192 219.157 109.727 219.518 111.646 219.158C114.227 218.674 114.677 218.203 114.677 215.987C114.677 213.451 114.57 213.395 110.609 213.841C107.128 214.233 106.201 213.958 104.174 211.931C100.695 208.452 100.923 203.949 104.74 200.738C107.194 198.673 108.249 198.361 111.176 198.829C113.293 199.167 114.677 199.021 114.677 198.458C114.677 197.946 115.888 197.528 117.369 197.528C122.902 197.528 124.877 191.821 120.528 188.401C119.124 187.296 116.752 186.496 114.883 186.496C111.713 186.496 110.974 185.953 107.607 181.151C105.802 178.578 105.871 172.462 107.804 163.718C109.399 156.507 113.183 143.555 113.905 142.832C114.472 142.266 128.807 147.652 137.4 151.661C144.605 155.021 152.426 157.076 158.004 157.076C165.333 157.076 165.241 156.937 165.241 168.07C165.241 173.502 164.799 179.215 164.259 180.764C163.5 182.943 163.603 184.545 164.719 187.829C166.506 193.096 166.514 193.85 164.781 193.85C163.621 193.85 163.402 195.893 163.402 206.721V219.592H165.7C167.769 219.592 167.999 219.224 167.999 215.915C167.999 211.376 169.017 211.232 171.045 215.484C172.709 218.972 174.484 220.123 176.818 219.227C178.091 218.738 177.984 218.157 175.988 214.751C173.718 210.879 173.713 210.814 175.444 208.678C177.352 206.32 177.749 201.204 176.241 198.386C175.398 196.812 175.606 196.608 178.051 196.608H180.813L181.071 207.87L181.329 219.133H187.305C193.067 219.133 193.281 219.05 193.281 216.834C193.281 214.788 192.853 214.505 189.374 214.254C185.921 214.003 185.466 213.709 185.466 211.725C185.466 209.808 185.903 209.478 188.454 209.466C192.279 209.447 194.007 208.333 193.593 206.151C193.344 204.841 192.322 204.355 189.365 204.141C185.727 203.877 185.466 203.676 185.466 201.153C185.466 198.559 185.637 198.447 189.604 198.447C193.403 198.447 193.741 198.26 193.741 196.149C193.741 194.135 193.343 193.85 190.523 193.85C187.757 193.85 187.305 193.547 187.305 191.686C187.305 190.496 186.247 188.38 184.954 186.986C183.068 184.95 182.068 184.555 179.898 184.989C177.557 185.458 177.192 185.256 177.192 183.503C177.192 182.388 178.575 179.192 180.266 176.401C181.956 173.61 185.262 167.752 187.613 163.383C189.965 159.014 192.46 155.22 193.158 154.953C193.879 154.676 194.909 155.365 195.543 156.548C196.565 158.457 213.508 175.465 219.96 181.057C221.466 182.364 224.036 184.846 225.668 186.573C227.301 188.3 229.886 190.825 231.414 192.183C234.141 194.607 234.192 194.814 234.192 203.491C234.192 213.522 235.377 216.879 239.523 218.597C242.961 220.021 246.62 219.066 248.916 216.147C250.455 214.19 250.74 212.412 250.74 204.759C250.74 197.31 250.987 195.689 252.119 195.689C253.274 195.689 253.498 197.63 253.498 207.641V219.592H259.474H265.45V216.834C265.45 214.23 265.246 214.076 261.772 214.076C258.487 214.076 258.095 213.837 258.095 211.833C258.095 209.905 258.579 209.55 261.543 209.305C264.536 209.057 265.029 208.687 265.281 206.491C265.556 204.1 265.37 203.963 261.833 203.963C258.293 203.963 258.095 203.818 258.095 201.205C258.095 198.601 258.299 198.447 261.772 198.447C265.082 198.447 265.45 198.217 265.45 196.149C265.45 194.004 265.144 193.85 260.853 193.85C256.333 193.85 256.256 193.804 256.256 191.022C256.256 187.424 251.888 182.818 248.475 182.818C245.045 182.818 240.927 179.473 237.161 173.625C231.476 164.797 222.281 145.591 221.325 140.546C220.275 135.01 220.092 127.961 221.023 128.891C221.365 129.233 222.541 128.67 223.637 127.641C227.612 123.906 241.442 122.95 249.614 125.844L254.877 127.708L257.004 125.155C258.173 123.75 260.754 120.739 262.738 118.464C264.723 116.188 266.341 113.499 266.333 112.488C266.326 111.477 264.47 108.198 262.207 105.203C259.946 102.207 258.095 99.3 258.095 98.7429C258.095 97.6001 254.351 93.4823 249.979 89.8169C248.375 88.4719 247.063 86.5716 247.063 85.5925C247.063 83.3759 244.386 80.8643 241.98 80.8229C240.983 80.8064 238.67 80.5416 236.841 80.2354C233.749 79.7178 233.443 79.8797 232.521 82.5228ZM242.466 87.0634C242.466 87.9966 241.693 89.4593 240.747 90.3152C239.456 91.4837 239.097 92.8912 239.303 95.9738C239.586 100.217 239.071 100.9 237.072 98.9276C236.138 98.0065 235.638 98.1425 234.553 99.6126C233.393 101.186 233.076 101.251 232.331 100.072C231.853 99.3165 231.456 97.3877 231.448 95.7862C231.44 94.1856 230.96 92.7174 230.383 92.5253C229.594 92.2624 229.594 91.6832 230.384 90.2076C231.388 88.3312 231.283 88.265 228.11 88.7808C224.548 89.3581 218.158 95.333 216.151 99.9628C215.575 101.289 214.228 102.896 213.156 103.532C212.085 104.169 211.208 105.489 211.208 106.465C211.208 107.443 210.831 108.476 210.37 108.761C209.564 109.258 211.052 113.753 215.233 123.445L217.183 127.965L217.858 123.445C218.264 120.717 218.14 117.947 217.544 116.463C216.304 113.372 217.102 110.796 220.243 107.746C221.594 106.434 222.183 105.643 221.551 105.99C219.932 106.878 220.119 105.618 222.214 101.508C224.332 97.3528 227.722 93.5118 228.723 94.1305C230.003 94.9211 228.465 98.661 225.614 101.686C222.228 105.28 223.367 105.7 227.016 102.203C228.871 100.427 229.595 100.128 229.595 101.141C229.595 101.916 228.805 103.265 227.839 104.139C226.873 105.013 225.822 106.77 225.502 108.043C225.117 109.576 224.47 110.183 223.581 109.842C222.519 109.435 222.24 110.265 222.24 113.841C222.24 116.324 221.827 118.611 221.321 118.923C220.815 119.236 220.402 119.963 220.402 120.541C220.402 121.296 220.711 121.281 221.505 120.486C223.289 118.702 225.203 119.131 224.554 121.171C224.042 122.786 224.327 122.907 227.481 122.421C231.849 121.746 231.803 121.792 230.499 119.355C229.627 117.726 229.685 117.06 230.796 115.949C232.624 114.121 234.333 115.284 233.674 117.908C233.334 119.264 233.575 120.036 234.36 120.109C235.027 120.17 238.138 120.575 241.276 121.008C246.635 121.747 246.997 121.68 247.251 119.899C247.465 118.408 248.403 117.886 251.66 117.453C253.935 117.149 255.255 116.839 254.593 116.763C253.931 116.688 253.668 116.175 254.009 115.623C254.382 115.02 255.866 114.854 257.741 115.206C260.998 115.816 261.714 114.814 259.981 112.072C258.593 109.88 259.973 109.024 262 110.819C263.036 111.737 262.064 109.941 259.84 106.827C257.616 103.713 255.634 101.324 255.435 101.518C255.238 101.712 255.568 102.464 256.17 103.191C257.493 104.784 256.177 105.858 253.95 105.003C252.573 104.475 252.537 104.63 253.629 106.379C254.305 107.464 255.174 108.351 255.559 108.351C255.942 108.351 256.256 109.169 256.256 110.169C256.256 112.369 252.221 115.242 250.567 114.22C247.324 112.216 243.38 114.136 242.035 118.373C241.246 120.861 240.372 120.817 239.228 118.234C238.711 117.065 237.647 116.276 236.781 116.42C234.695 116.766 233.61 114.747 235.2 113.479C237.219 111.87 238.789 108.6 238.789 106.005C238.789 103.157 240.416 99.8378 241.488 100.501C241.911 100.762 242.482 100.115 242.757 99.0646C243.145 97.5762 243.728 97.2848 245.39 97.7435C247.472 98.319 247.479 98.2988 245.707 96.8839C244.243 95.7154 244.092 95.1123 244.928 93.7729C245.7 92.5372 245.696 91.2483 244.911 88.7394C243.788 85.153 242.466 84.2466 242.466 87.0634ZM113.757 90.0633C111.017 91.138 108.29 94.3925 108.261 96.6219C108.25 97.5017 107.414 98.7392 106.402 99.3708C104.257 100.711 103.93 102.101 105.943 101.329C106.967 100.935 107.33 101.476 107.355 103.426C107.382 105.578 107.701 105.183 109.119 101.243C111.03 95.9342 113.937 91.4083 116.335 90.01C118.32 88.8525 116.761 88.8847 113.757 90.0633ZM130.427 101.501C127.36 107.847 124.067 114.156 123.109 115.521C121.681 117.557 121.434 119.22 121.734 124.763C121.936 128.481 121.727 131.998 121.271 132.578C120.814 133.158 120.228 135.319 119.967 137.38C119.529 140.832 119.695 141.204 122.086 142.106C124.491 143.014 124.748 142.888 125.622 140.38C126.326 138.363 126.199 136.241 125.122 132.04C123.465 125.571 124.252 121.275 127.897 116.896C129.073 115.483 130.773 112.051 131.675 109.27C132.577 106.489 134.361 102.406 135.64 100.196C137.523 96.94 137.764 95.8579 136.908 94.4863C136.327 93.5559 136.096 92.1576 136.394 91.3798C136.693 90.6011 136.728 89.964 136.471 89.964C136.214 89.964 133.495 95.1556 130.427 101.501ZM101.523 95.4396C99.8043 99.3257 99.568 101.186 99.9183 108.081L100.328 116.165L101.119 106.512C101.554 101.203 102.5 95.515 103.222 93.8712C103.943 92.2274 104.31 90.8833 104.037 90.8833C103.764 90.8833 102.633 92.9335 101.523 95.4396ZM117.355 92.0619C116.553 92.6779 115.369 94.1709 114.724 95.3808C112.863 98.8752 110.123 109.27 111.064 109.27C111.534 109.27 111.946 110.202 111.98 111.339C112.075 114.518 114.646 105.646 114.663 102.085C114.678 98.6785 115.831 96.0234 118.629 92.9519C120.628 90.7574 119.804 90.1819 117.355 92.0619ZM124.572 96.1953C123.231 99.117 121.13 102.987 119.904 104.794C117.783 107.919 116.251 112.947 115.116 120.508C114.834 122.389 113.944 124.299 113.138 124.749C112.041 125.364 111.821 126.351 112.262 128.681C112.587 130.393 113.107 133.531 113.419 135.653C114.227 141.158 115.969 138.971 117.471 130.566C118.376 125.502 118.404 123.662 117.587 122.845C115.749 121.008 116.397 117.596 119.632 112.076C121.346 109.152 123.05 105.772 123.418 104.567C123.786 103.362 124.593 101.755 125.21 100.996C125.827 100.238 127.404 97.6516 128.714 95.2502L131.095 90.8833H129.053C127.46 90.8833 126.475 92.0518 124.572 96.1953ZM212.357 91.8312C211.219 92.289 210.289 93.2359 210.289 93.9374C210.289 94.638 209.279 96.302 208.043 97.6341C206.59 99.2025 205.374 102.186 204.595 106.089C203.162 113.284 201.465 113.93 201.773 107.163C202.036 101.367 203.381 97.692 206.471 94.3309L208.794 91.8027L204.255 91.8036L199.716 91.8045L199.459 96.1705C199.316 98.5719 198.551 102.812 197.757 105.593C195.803 112.436 196.652 117.518 200.98 124.861C204.856 131.436 206.887 136.806 206.464 139.352C206.315 140.251 207.528 142.924 209.16 145.29C212.444 150.052 212.658 150.674 210.978 150.568C208.886 150.438 199.745 139.088 196.157 132.168C192.663 125.43 192.634 125.401 193.297 129.463C193.667 131.721 195.158 135.908 196.613 138.77C199.329 144.115 199.937 146.964 198.361 146.964C197.868 146.964 196.804 145.684 195.995 144.12C193.954 140.172 193.438 141.277 195.109 146.017C195.873 148.182 196.499 150.738 196.499 151.696C196.499 153.968 203.694 161.767 205.502 161.454C206.365 161.305 207.74 162.889 209.113 165.615C210.815 168.995 211.957 170.143 214.027 170.557C216.687 171.089 217.811 172.674 215.575 172.738C213.338 172.803 219.979 177.293 222.317 177.298C225.197 177.303 226.204 178.148 225.023 179.57C224.432 180.283 224.81 181.264 226.181 182.571C227.301 183.64 230.179 186.407 232.578 188.722L236.94 192.931H243.764C251.324 192.931 253.498 192.411 253.498 190.601C253.498 188.845 249.005 185.576 246.592 185.576C245.458 185.576 244.015 184.956 243.385 184.197C242.756 183.439 241.663 182.818 240.956 182.818C239.203 182.818 232.291 171.919 225.667 158.713C222.117 151.635 219.215 147.065 217.441 145.76C214.559 143.641 210.659 137.093 211.674 136.078C212.002 135.751 213.375 136.829 214.727 138.473C216.078 140.118 217.402 141.46 217.668 141.456C219.041 141.432 217.177 133.273 215.196 130.64C213.958 128.993 213.172 127.279 213.45 126.83C213.907 126.089 212.924 123.558 207.389 111.24C205.116 106.178 205.475 103.635 208.683 102.102C210.076 101.437 211.882 99.5712 212.698 97.9568C213.514 96.3415 215.033 94.0891 216.072 92.9519C217.898 90.956 217.902 90.8852 216.195 90.9413C215.222 90.9734 213.496 91.3743 212.357 91.8312ZM142.956 93.8712C138.736 100.328 133.983 112.98 133.983 117.757C133.983 120.941 132.729 123.572 129.619 126.908C127.889 128.763 127.465 129.962 127.91 131.735C128.71 134.925 129.999 134.722 129.999 131.407C129.999 128.785 132.442 123.98 133.774 123.98C134.142 123.981 134.46 127.14 134.482 131.002C134.521 137.955 134.554 138.051 137.93 140.884C140.716 143.225 141.338 144.358 141.338 147.103C141.338 150.043 141.698 150.587 144.233 151.47C147.985 152.778 147.773 152.87 147.773 149.946C147.773 148.015 147.117 147.122 145.015 146.191C141.944 144.833 141.608 143.577 143.607 140.934C144.349 139.953 144.97 138.171 144.986 136.976C145.024 134.146 148.683 127.657 150.241 127.657C151.788 127.657 151.762 128.832 150.072 135.324C148.082 142.962 148.258 145.005 150.991 146.044C152.255 146.525 153.289 147.563 153.289 148.352C153.289 150.52 156.072 154.318 157.661 154.318C158.431 154.318 159.6 153.595 160.256 152.71C161.383 151.19 161.532 151.203 162.936 152.939C164.4 154.75 164.408 154.747 163.458 152.78C162.928 151.682 161.212 149.78 159.645 148.553L156.796 146.324L159.18 143.751C161.181 141.592 161.563 140.315 161.563 135.797C161.563 132.736 161.97 130.415 162.506 130.415C164.236 130.415 165.42 135.415 164.956 140.758C164.688 143.832 164.883 146.283 165.422 146.616C165.931 146.931 166.931 148.585 167.645 150.294C168.359 152.002 169.558 153.399 170.309 153.399C171.061 153.399 171.676 153.813 171.676 154.318C171.676 154.824 173.021 155.223 174.664 155.206C177.95 155.171 191.855 152.833 192.477 152.211C192.692 151.997 191.613 149.177 190.082 145.945C187.883 141.306 187.545 139.875 188.474 139.149C189.571 138.291 189.764 134.91 189.3 124.669C189.2 122.463 188.73 121.305 187.995 121.452C187.148 121.621 186.777 119.198 186.583 112.258C186.437 106.998 185.93 102.835 185.434 102.835C184.166 102.835 184.336 97.898 185.65 96.5833C186.257 95.9765 187.808 95.4534 189.098 95.4222L191.442 95.3633L189.336 94.5184C186.357 93.3224 183.905 95.105 181.688 100.077C179.939 103.998 179.918 104.481 181.276 109.331C182.776 114.685 183.217 123.061 182.001 123.061C181.611 123.061 180.331 119.964 179.156 116.18C177.038 109.356 176.767 101.846 178.5 98.012C179.135 96.6054 178.843 96.4794 176.14 96.9952C174.443 97.3179 172.939 97.6746 172.797 97.7858C172.655 97.897 172.487 104.56 172.424 112.593C172.34 123.133 171.974 127.591 171.108 128.611C169.834 130.11 170.371 134.093 171.847 134.093C173.127 134.093 172.343 138.017 170.974 138.469C169.197 139.054 167.079 132.941 167.079 127.227C167.079 124.429 167.39 122.138 167.769 122.135C168.148 122.131 168.6 116.857 168.774 110.413C168.947 103.969 169.515 98.1811 170.035 97.5486C170.651 96.8003 170.661 96.3994 170.063 96.3994C167.814 96.3994 166.8 99.8819 165.912 110.646C165.39 116.968 164.657 122.141 164.282 122.141C162.955 122.141 162.378 117.153 163.017 111.192C163.592 105.817 163.508 105.28 162.25 106.324C161.293 107.118 160.684 109.79 160.365 114.59C159.865 122.134 157.636 136.242 156.521 138.919C156.152 139.805 155.3 140.528 154.626 140.528C152.655 140.528 152.966 126.71 155.058 121.384C155.987 119.019 157.048 113.227 157.419 108.513C157.888 102.536 158.478 99.7918 159.368 99.4507C160.069 99.1814 160.644 97.8787 160.644 96.5566V94.1525L158.678 96.1181C157.306 97.4898 156.595 99.5675 156.329 102.988C155.805 109.698 155.254 112.028 154.191 112.028C153.673 112.028 153.289 108.732 153.289 104.279C153.289 98.4606 153.649 96.1705 154.734 95.0857C156.047 93.7729 156.006 93.6414 154.274 93.6414C153.053 93.6414 152.37 94.2353 152.37 95.2962C152.37 96.2064 151.959 97.362 151.456 97.8649C150.154 99.1667 149.168 109.807 150.286 110.498C150.87 110.859 150.748 112.779 149.944 115.881C149.255 118.534 148.693 122.047 148.693 123.688C148.693 125.694 147.788 127.704 145.934 129.815C144.418 131.542 143.176 133.768 143.176 134.761C143.176 136.535 139.892 140.308 139.066 139.482C138.333 138.749 140.565 126.389 141.899 123.796C142.602 122.43 143.176 120.035 143.176 118.473C143.176 116.911 144.004 114.01 145.015 112.028C146.026 110.046 146.854 106.943 146.854 105.133C146.854 103.323 147.689 100.204 148.711 98.2014C149.733 96.199 150.17 94.5607 149.683 94.5607C148.194 94.5607 145.947 98.4395 144.426 103.638C142.838 109.061 139.79 114.786 138.489 114.786C137.421 114.786 137.366 115.101 139.499 109.031C140.51 106.155 141.347 102.859 141.358 101.709C141.369 100.559 142.176 97.8584 143.152 95.7099C145.108 91.4009 145.033 90.693 142.956 93.8712ZM195.117 93.8712C192.932 100.549 191.978 104.557 191.942 107.202C191.88 111.81 190.205 110.735 189.795 105.823C189.534 102.69 189.497 102.884 189.666 106.512C189.885 111.222 192.368 125.922 192.771 124.899C192.871 124.646 193.283 119.031 193.686 112.421C194.091 105.811 194.831 99.6052 195.333 98.6307C196.773 95.8331 197.534 91.8027 196.624 91.8027C196.167 91.8027 195.489 92.734 195.117 93.8712ZM75.4572 101.508C75.1547 102.296 74.3448 102.725 73.6562 102.461C72.0675 101.851 71.219 105.057 71.7081 109.817C72.0648 113.283 72.0832 113.256 72.2321 109.04C72.3599 105.431 72.6872 104.674 74.1177 104.674C75.2347 104.674 76.0051 103.858 76.2892 102.375C76.7792 99.8084 76.3002 99.3101 75.4572 101.508ZM244.075 105.822C241.84 111.276 241.945 112.958 244.368 110.534C245.754 109.149 246.191 107.716 245.977 105.263L245.684 101.894L244.075 105.822ZM227.386 110.157C225.854 113.474 225.083 116.362 225.433 117.465C226.289 120.163 228.676 118.774 228.676 115.578C228.676 114.099 229.296 111.403 230.055 109.588C231.619 105.846 231.767 104.674 230.676 104.674C230.259 104.674 228.779 107.141 227.386 110.157ZM76.1991 108.052C74.6481 109.727 75.413 115.55 77.8695 120.762L79.6025 124.44L79.1033 118.464C78.8284 115.177 78.3421 111.188 78.0231 109.599C77.5239 107.111 77.2701 106.896 76.1991 108.052ZM103.703 108.811C103.541 110.328 103.337 112.734 103.253 114.158C103.167 115.581 102.695 117.029 102.203 117.375C101.628 117.779 101.683 119.485 102.355 122.141L103.403 126.278L104.042 122.141C104.396 119.866 104.529 115.315 104.341 112.028C104.153 108.742 103.866 107.294 103.703 108.811ZM95.1864 112.718C94.9878 116.518 94.5677 117.933 93.6925 117.751C92.8283 117.572 92.6545 118.107 93.094 119.59C93.8589 122.167 102.48 138.632 104.056 140.528C104.687 141.287 105.483 142.69 105.825 143.648C106.166 144.605 106.646 145.187 106.892 144.942C107.137 144.697 106.136 141.845 104.667 138.605C100.141 128.621 97.209 118.456 97.209 112.744C97.209 105.848 95.5459 105.827 95.1864 112.718ZM87.234 111.155C87.1577 112.95 86.5822 114.933 85.9543 115.56C85.046 116.469 85.0919 116.876 86.1841 117.558C87.2699 118.235 87.6165 117.84 87.8454 115.664C88.0044 114.152 87.9631 111.785 87.7535 110.403C87.4317 108.284 87.3499 108.402 87.234 111.155ZM107.322 118.77C107.322 122.647 107.712 125.819 108.188 125.819C108.976 125.819 108.479 113.055 107.655 112.105C107.472 111.894 107.322 114.894 107.322 118.77ZM70.5341 119.257C71.0094 120.957 71.31 122.767 71.2024 123.279C71.0958 123.791 71.5251 124.399 72.1567 124.631C73.9706 125.296 73.4971 121.058 71.4672 118.464L69.6689 116.165L70.5341 119.257ZM250.217 121.325C249.555 122.395 251.323 123.941 253.236 123.966C253.85 123.973 254.795 123.152 255.337 122.141C256.219 120.494 256.036 120.303 253.585 120.303C252.08 120.303 250.565 120.762 250.217 121.325ZM88.6719 124.887C88.2711 126.417 88.5174 127.405 89.4258 127.914C90.1667 128.328 90.7735 129.293 90.7735 130.056C90.7735 130.819 91.2075 131.175 91.7379 130.847C92.4017 130.436 92.3824 129.866 91.6736 129.013C91.1082 128.332 90.335 126.614 89.9562 125.194L89.2658 122.615L88.6719 124.887ZM83.9317 125.819C83.5134 127.083 82.7357 128.396 82.2043 128.737C81.5322 129.168 81.5515 130.01 82.2659 131.495L83.2946 133.633L83.3562 131.289C83.3912 129.999 83.8711 128.492 84.4245 127.939C84.977 127.386 85.2639 126.165 85.0616 125.227C84.7509 123.791 84.5725 123.884 83.9317 125.819ZM76.0639 130.662C76.0639 133.494 76.4593 136.852 76.9419 138.122C77.7923 140.357 82.1326 143.96 82.9683 143.124C83.3746 142.718 77.4218 126.87 76.5273 125.975C76.2726 125.72 76.0639 127.829 76.0639 130.662ZM69.6175 130.863C72.051 133.454 73.3059 133.801 73.3059 131.884C73.3059 131.176 71.9875 130.136 70.3759 129.574L67.4469 128.553L69.6175 130.863ZM198.522 130.964C199.179 132.53 200.885 135.219 202.314 136.94L204.912 140.068L202.427 135.472C199.265 129.622 196.733 126.699 198.522 130.964ZM106.402 135.134C106.402 136.769 110.039 141.794 110.726 141.107C110.966 140.867 110.092 139.095 108.783 137.169C107.451 135.21 106.402 134.313 106.402 135.134ZM69.3987 139.685C67.1141 142.188 67.3917 143.574 70.5478 145.438L73.3059 147.068V142.419C73.3059 137.37 72.2119 136.604 69.3987 139.685ZM128.039 141.068C127.183 142.375 126.618 143.582 126.784 143.749C126.952 143.915 129.259 144.908 131.914 145.954C137.267 148.063 138.218 147.192 133.983 144.06C132.466 142.939 131.225 141.272 131.225 140.355C131.225 137.988 129.857 138.294 128.039 141.068ZM85.8936 141.384C86.1575 142.391 86.8893 142.955 87.5852 142.688C88.26 142.429 90.6329 143.284 92.8586 144.589C95.0843 145.893 97.1418 146.724 97.4314 146.435C97.721 146.145 99.1332 146.502 100.571 147.227C102.009 147.951 104.426 148.824 105.943 149.166C108.329 149.704 108.144 149.457 104.564 147.328C102.288 145.974 99.0201 143.58 97.3009 142.008C95.4714 140.336 94.3967 139.78 94.7092 140.668C95.5615 143.089 94.4004 143.375 91.6552 141.42C88.2683 139.008 85.2675 138.99 85.8936 141.384ZM173.525 143.734C172.901 144.486 172.659 145.803 172.988 146.661C173.531 148.076 173.763 148.043 175.501 146.305C176.554 145.253 177.134 143.935 176.79 143.379C175.934 141.995 174.873 142.109 173.525 143.734ZM76.0639 146.904C76.0639 148.388 75.6594 150.665 75.1657 151.964C74.5461 153.593 74.6031 155.061 75.3496 156.699C76.2607 158.699 76.8573 158.986 79.1474 158.528C83.2588 157.706 86.4406 154.318 83.1016 154.318C81.5865 154.318 78.822 151.388 78.822 149.781C78.822 149.017 79.3846 148.842 80.4308 149.282C83.5548 150.595 86.1768 150.85 86.1768 149.841C86.1768 149.283 84.7794 148.243 83.0712 147.529C81.3631 146.816 79.6843 145.776 79.3396 145.219C78.0589 143.146 76.0639 144.172 76.0639 146.904ZM100.138 152.512C102.51 153.765 104.145 154.074 105.586 153.541C107.398 152.87 107.136 152.652 103.399 151.71C97.3312 150.182 96.2363 150.452 100.138 152.512ZM65.0318 153.399C64.2623 154.836 64.333 155.238 65.3517 155.238C66.0688 155.238 66.9137 156.169 67.229 157.306L67.8018 159.375L69.5853 157.076C72.7478 153.001 72.6247 151.56 69.1155 151.56C66.9569 151.56 65.7167 152.118 65.0318 153.399ZM89.8542 152.626C89.8542 156.43 96.183 160.754 101.751 160.754C104.937 160.754 105.564 160.471 105.313 159.145C105.121 158.132 103.99 157.423 102.257 157.23C100.745 157.061 98.2662 155.992 96.7493 154.853C93.6207 152.505 89.8542 151.288 89.8542 152.626ZM182.708 157.123C180.433 157.528 176.192 157.89 173.285 157.928C170.271 157.966 167.999 158.408 167.999 158.955C167.999 159.482 169.344 159.822 170.987 159.709C176.483 159.332 182.708 159.826 182.708 160.639C182.708 161.081 180.744 162.289 178.342 163.323C174.519 164.967 174.29 165.211 176.503 165.276C177.893 165.317 179.031 165.716 179.031 166.162C179.031 167.347 175.049 167.917 172.741 167.063C168.887 165.637 168.29 166.761 167.757 176.432C167.262 185.43 168.199 191.691 170.26 193.147C172.126 194.465 182.416 193.932 183.642 192.454C185.471 190.25 182.585 187.616 178.931 188.153C173.093 189.01 172.904 183.342 178.448 173.706C186.321 160.02 188.349 156.159 187.602 156.272C187.187 156.335 184.984 156.719 182.708 157.123ZM58.9732 161.807C58.4078 162.722 60.2134 166.27 61.244 166.27C62.0558 166.27 65.0318 163.225 65.0318 162.395C65.0318 161.543 59.4697 161.004 58.9732 161.807ZM67.8909 164.303C66.1662 166.481 65.3682 168.208 65.9281 168.555C66.4466 168.874 66.8705 169.78 66.8705 170.567C66.8705 171.838 66.6397 171.847 64.8019 170.646C63.3769 169.716 62.156 169.554 60.8781 170.126C59.3778 170.799 58.7508 172.624 57.5988 179.681C55.7895 190.77 56.389 192.012 63.5516 192.012C66.2196 192.012 68.6503 191.764 68.9519 191.462C70.0817 190.333 68.437 188.334 66.3777 188.334C64.2089 188.334 61.3544 186.181 61.3544 184.546C61.3544 183.095 64.1152 178.084 67.4165 173.546C69.7232 170.374 70.2215 169.069 69.4272 168.275C68.0012 166.849 69.2608 165.739 70.8292 167.041C71.7936 167.842 72.6375 167.488 74.5645 165.476C76.8904 163.049 76.9502 162.792 75.4636 161.586C74.4275 160.745 74.1131 160.695 74.5626 161.443C75.4158 162.864 73.1625 163.001 71.7752 161.613C71.0829 160.921 69.9457 161.709 67.8909 164.303ZM93.4332 165.66C92.6232 166.252 91.646 167.729 91.2608 168.941C90.7027 170.698 90.8443 171.036 91.9586 170.608C92.7271 170.313 95.6709 170.61 98.5006 171.268C103.596 172.453 103.644 172.444 103.644 170.362C103.644 169.205 103.9 167.592 104.213 166.777C104.701 165.506 104.241 165.38 101 165.899C98.7921 166.252 96.7373 166.104 96.0625 165.544C95.2517 164.871 94.4647 164.906 93.4332 165.66ZM170.527 172.419C168.876 172.852 168.472 173.792 169.498 174.818C170.252 175.572 173.515 173.829 173.515 172.673C173.515 171.749 173.196 171.723 170.527 172.419ZM93.743 175.858C91.7701 177.939 91.7572 178.032 93.5132 177.573C95.4153 177.076 96.1067 178.577 94.4472 179.602C93.4856 180.197 96.1407 184.23 101.6 190.466C104.661 193.963 104.706 193.978 112.204 194.144C119.176 194.298 119.733 194.174 119.733 192.471C119.733 190.963 118.953 190.544 115.384 190.133C110.183 189.535 106.343 186.294 103.934 180.47C102.399 176.76 102.161 176.59 99.1984 177.07C96.3347 177.536 96.1297 177.415 96.7061 175.6C97.5271 173.014 96.3411 173.117 93.743 175.858ZM37.4513 206.832V219.813L43.1062 219.404C47.8519 219.061 49.1077 218.591 50.9207 216.485C53.8129 213.122 53.7909 208.518 50.871 205.707C49.1555 204.056 48.7675 202.927 49.1353 200.657C49.8248 196.409 46.9877 193.85 41.5884 193.85H37.4513V206.832ZM70.0882 195.544C64.6953 198.841 62.5863 203.813 64.1381 209.575C65.804 215.761 74.1434 220.91 79.6614 219.158C81.3943 218.608 81.58 217.843 81.58 211.256V203.963H78.3623C75.5326 203.963 75.1446 204.244 75.1446 206.29C75.1446 207.571 75.7651 208.856 76.5236 209.147C77.2821 209.438 77.9026 210.666 77.9026 211.876C77.9026 215.845 72.2312 214.374 69.7784 209.77C68.152 206.717 68.4839 204.327 70.9285 201.487C72.7911 199.321 73.8262 198.921 77.3639 198.995C81.4054 199.08 81.58 198.975 81.58 196.467C81.58 193.958 81.4008 193.85 77.2131 193.854C74.5985 193.856 71.7393 194.533 70.0882 195.544ZM121.144 205.529C117.396 220.05 117.478 219.026 120.03 219.413C121.575 219.648 122.304 219.209 122.666 217.826C123.36 215.171 128.429 215.114 129.12 217.753C129.745 220.144 133.999 220.346 133.947 217.983C133.927 217.098 132.557 211.41 130.902 205.342C128.408 196.197 127.576 194.263 126.038 194.037C124.386 193.793 123.848 195.055 121.144 205.529ZM132.144 196.149C132.144 198.084 132.575 198.447 134.872 198.447H137.6L137.86 208.79L138.12 219.133H140.418H142.717L142.977 208.79L143.237 198.447H145.965C148.261 198.447 148.693 198.084 148.693 196.149C148.693 193.868 148.631 193.85 140.418 193.85C132.206 193.85 132.144 193.868 132.144 196.149ZM198.921 195.756C197.165 197.137 196.499 198.509 196.499 200.743C196.499 203.823 196.817 204.202 203.68 209.297C205.064 210.325 205.6 211.407 205.218 212.404C204.357 214.647 202.571 215.019 199.735 213.548C196.887 212.071 195.579 212.508 195.579 214.938C195.579 219.393 203.876 220.699 207.939 216.883C212.242 212.84 210.809 207.043 204.742 203.948C202.736 202.924 201.095 201.503 201.095 200.789C201.095 199.104 203.98 198.214 206.993 198.969C208.927 199.455 209.37 199.239 209.37 197.811C209.37 193.619 203.185 192.402 198.921 195.756ZM219.762 195.625C213.671 199.388 211.868 205.171 214.753 211.693C216.253 215.081 217.464 216.341 220.592 217.761C227.181 220.751 231.434 220.033 231.434 215.93C231.434 213.461 231.308 213.397 227.367 213.841C223.885 214.233 222.958 213.958 220.931 211.931C217.895 208.895 217.838 204.908 220.782 201.487C222.651 199.314 223.675 198.921 227.266 198.996C231.333 199.082 231.516 198.976 231.252 196.698C231.004 194.567 230.53 194.283 226.837 194.06C223.979 193.887 221.792 194.371 219.762 195.625ZM239.905 204.653C240.165 213.531 240.19 213.616 242.466 213.616C244.742 213.616 244.767 213.531 245.027 204.653L245.29 195.689H242.466H239.642L239.905 204.653ZM167.999 203.044C167.999 207.981 169.775 209.354 171.644 205.863C172.979 203.368 172.83 201.571 171.151 199.891C168.744 197.485 167.999 198.229 167.999 203.044ZM42.048 210.919C42.048 213.926 42.2503 214.174 44.4834 213.907C49.5821 213.298 49.3569 207.641 44.2342 207.641C42.3413 207.641 42.048 208.08 42.048 210.919Z" fill="#E5D4A9"/>
</svg>
