<svg width="140" height="79" viewBox="0 0 140 79" fill="none" xmlns="http://www.w3.org/2000/svg">
<rect width="140" height="79" rx="12" fill="#63988E"/>
<rect x="52" y="26.5" width="36" height="27" fill="#CFACC3"/>
<path d="M52 26.5404V53.4596C52 56.0005 53.9995 58 56.5404 58H83.4596C84.7032 58 85.8915 57.405 86.6491 56.6491C87.4603 55.8379 88 54.8105 88 53.4596V26.5404C88 23.9995 86.0005 22 83.4596 22H56.5404C55.1895 22 54.1621 22.5414 53.3509 23.3509C52.5933 24.1085 52 25.2968 52 26.5404ZM56.8656 30.107C56.8656 28.3774 58.2718 26.8639 60.0015 26.8639C61.7848 26.8639 63.2447 28.3774 63.2447 30.107C63.2447 31.8904 61.7848 33.2966 60.0015 33.2966C58.2718 33.2966 56.8656 31.8904 56.8656 30.107ZM65.5677 52.3232V35.8375C65.5677 35.4587 65.9465 35.1353 66.2163 35.1353H70.8104C71.459 35.1353 71.459 35.8929 71.459 36.3789C72.7563 35.0816 74.4323 34.7565 76.162 34.7565C80.379 34.7565 83.0808 36.756 83.0808 41.1892V52.3249C83.0808 52.7037 82.7556 53.0271 82.4321 53.0271H77.6755C77.2967 53.0271 77.0269 52.6483 77.0269 52.3249V42.2702C77.0269 40.5941 76.5408 39.6757 74.6485 39.6757C72.2702 39.6757 71.6752 41.2428 71.6752 43.3513V52.3249C71.6752 52.7037 71.2964 53.0271 70.9176 53.0271H66.2146C65.9447 53.0271 65.5659 52.6483 65.5659 52.3249L65.5677 52.3232ZM56.9729 52.3232V35.8375C56.9729 35.4587 57.3517 35.1353 57.6215 35.1353H62.3245C62.7569 35.1353 63.0268 35.4051 63.0268 35.8375V52.3232C63.0268 52.702 62.7016 53.0254 62.3245 53.0254H57.6215C57.2963 53.0254 56.9729 52.6466 56.9729 52.3232Z" fill="black"/>
</svg>
