<svg width="300" height="300" viewBox="0 0 300 300" fill="none" xmlns="http://www.w3.org/2000/svg">
<rect width="300" height="300" rx="20" fill="#00539F"/>
<circle cx="150.167" cy="150.167" r="102.124" fill="#00539F"/>
<circle cx="151.188" cy="149.145" r="74.5507" fill="#AAB5DA"/>
<path d="M179.439 210.567C179.439 195.696 166.47 183.493 150.451 183.588C132.954 183.684 120.748 195.6 121.034 212.283L179.439 210.567Z" fill="#FFD520"/>
<path d="M142.298 169.479L144.872 183.874L146.541 183.683L144.443 170.528" fill="#FFD520"/>
<path d="M173.669 195.314L223.206 161.233L221.966 166.095L174.098 196.553L173.669 195.314Z" fill="#FFD520"/>
<path d="M170.046 191.167L172.62 188.117L173.669 189.356L170.713 191.93L170.046 191.167Z" fill="#FFD520"/>
<path d="M165.612 187.449L170.713 180.919L170.809 182.778L166.661 188.117L165.612 187.449Z" fill="#FFD520"/>
<path d="M214.577 145.027L223.016 136.447L223.635 140.689L216.437 147.505" fill="#FFD520"/>
<path d="M207.758 127.962L216.006 116.523L213.669 112.09L205.661 124.817" fill="#FFD520"/>
<path d="M139.866 185.161L137.292 179.918L138.34 178.25L140.819 184.923L139.866 185.209" fill="#FFD520"/>
<path d="M134.574 184.923L135.766 187.211L134.765 187.783L133.478 186.162L134.574 184.923Z" fill="#FFD520"/>
<path d="M129.377 187.878L131.141 190.5L130.235 191.072L127.47 188.546L129.377 187.878Z" fill="#FFD520"/>
<path d="M116.695 187.068L127.232 194.408L126.373 195.743L115.646 188.307L116.695 187.068Z" fill="#FFD520"/>
<path d="M102.059 177.106L77.5049 160.137L78.1248 164.379L103.155 180.919L102.059 177.106Z" fill="#FFD520"/>
<path d="M78.1252 136.018L90.4258 148.077L88.7571 150.842L77.0762 140.26L78.1252 136.018Z" fill="#FFD520"/>
<path d="M84.2744 116.331L91.7119 125.865L94.0481 122.909L87.2303 111.898L84.2744 116.331Z" fill="#FFD520"/>
<path d="M192.359 106.846L196.316 106.179L200.988 95.7878L197.365 92.8325L191.644 105.941" fill="#FFD520"/>
<path d="M178.532 81.5832L174.098 80.1055L171.953 93.4519L175.767 93.881L178.532 81.5832Z" fill="#FFD520"/>
<path d="M100.152 95.9784L106.35 107.132L110.069 106.131L105.253 91.7839L100.152 95.9784Z" fill="#FFD520"/>
<path d="M127.279 95.1681L124.323 81.1545L129.806 79.2478L131.093 94.0719L127.279 95.1681Z" fill="#FFD520"/>
<path d="M152.691 75.8633L152.501 88.3994L148.687 89.448V76.1016L152.691 75.8633Z" fill="#FFD520"/>
<path d="M165.421 173.293L166.232 176.248L170.761 168.049H169.378L166.089 174.293" fill="#FFD520"/>
<path d="M95.8127 120.86C95.8127 120.383 95.7173 119.907 95.6697 119.43C95.5265 118.381 97.4336 117.38 98.9118 118C99.5314 118.238 99.8176 116.761 100.866 116.332C101.725 115.95 100.485 114.187 101.82 113.567C102.344 113.329 103.298 113.853 103.393 113.091C103.441 112.852 102.773 112.566 102.726 112.28C102.726 110.85 102.011 109.754 101.963 108.467C101.915 107.085 103.489 107.228 104.776 107.132C105.062 107.132 105.3 106.751 105.205 106.37C106.206 106.322 107.684 105.75 108.209 106.751C108.59 105.702 109.305 106.465 109.067 105.559C108.733 104.129 108.876 104.892 108.685 104.606C107.446 102.938 108.733 99.1721 110.688 99.4104C112.547 99.6488 114.216 100.078 114.55 102.27C115.456 100.65 117.267 101.889 118.269 102.699C119.222 103.51 119.079 104.701 119.079 105.988C119.079 107.037 119.604 105.512 120.08 105.559C120.128 104.082 120.033 103.128 121.272 102.652C122.369 102.223 121.511 100.411 121.797 99.5534C122.273 98.1711 122.703 97.4562 124.181 96.6935C125.325 96.1214 126.183 97.0271 124.371 96.5028C126.421 97.1225 125.086 96.3122 125.945 94.9299C126.85 93.4521 128.853 93.7859 130.617 93.6905C130.522 94.1196 130.855 93.9288 131.189 94.0242C131.427 94.1196 131.904 96.1214 132.19 96.1214C132.047 99.3629 131.284 98.5524 133.62 98.3618C134.24 98.314 135.003 97.7897 134.765 97.5516C133.907 96.6457 133.859 95.6449 134.05 94.5009C134.24 93.4523 135.051 93.3091 136.052 93.0232C137.244 92.6897 135.48 91.4025 136.147 90.7352C137.196 89.6866 137.673 88.3042 138.722 87.3986C139.199 86.9697 140.057 86.493 140.724 86.9697C142.345 88.1137 142.679 90.2109 143.966 91.3073C145.54 92.6897 146.255 89.639 148.019 89.0669C148.829 88.7809 149.64 88.4472 150.117 89.2099C151.69 87.494 153.883 88.0659 155.981 88.4472C158.127 88.8285 156.315 91.1643 156.696 92.7372C156.982 93.9288 158.317 92.07 159.08 93.5953C160.177 92.9278 160.51 91.7362 161.607 91.2119C162.37 90.8306 163.228 91.927 163.609 91.7362C165.183 91.0689 165.517 88.3996 167.137 87.9707C169.807 87.2556 171.238 90.3539 171.714 92.7848C171.905 92.4989 172.287 92.1176 172.477 92.4035C173.717 94.2148 174.527 93.5475 176.339 93.7383C176.816 93.7859 177.197 94.4531 177.626 94.8823C178.771 92.4989 182.251 93.4523 183.252 94.7393C184.778 96.7411 184.158 99.3629 182.394 99.5058C182.919 100.078 182.728 100.507 183.157 101.222C183.348 100.936 183.586 100.697 184.015 100.793C185.159 100.983 185.541 102.175 186.542 102.509C186.828 100.078 190.165 99.1245 191.214 100.65C191.977 101.746 192.979 104.368 191.31 105.941C191.262 105.988 191.691 106.465 192.025 106.227C192.311 106.036 192.692 105.655 192.788 105.893C192.979 106.513 193.837 105.702 194.075 106.179C195.553 104.987 196.888 104.844 198.223 106.084C199.415 107.228 200.654 110.231 198.414 111.374C198.7 111.661 199.129 111.899 199.176 112.233C199.415 113.567 198.318 114.902 200.13 115.092C200.368 115.14 200.654 114.473 200.988 114.425C202.752 114.235 204.707 114.616 205.088 116.475C205.375 117.81 203.896 118.429 204.373 119.859C203.515 119.764 202.895 120.241 202.276 120.717C202.323 120.765 202.371 120.765 202.418 120.812H95.8127V120.86Z" fill="black"/>
<path d="M202.323 120.86C203.133 121.575 204.135 122.671 203.038 123.72C204.85 124.483 208.044 124.197 207.186 126.914C206.995 127.486 208.282 128.153 208.282 128.82C208.378 131.299 210.285 130.584 211.429 132.205C212.049 133.062 211.62 133.921 211.381 134.779C210.857 136.685 213.002 139.355 211.095 141.07C212.764 141.929 211.238 144.55 212.382 144.55C213.526 144.55 215.338 145.17 216.006 145.932C216.817 146.838 216.102 149.031 215.481 149.698C214.147 151.223 215.242 152.653 213.955 154.083C213.669 154.369 213.384 154.608 213.098 154.798H86.6106C86.6582 154.321 87.4211 152.415 88.4223 151.414C89.1374 150.699 87.7071 148.745 91.2352 147.696C92.0457 147.458 92.1889 147.124 91.9503 146.647C91.426 145.694 89.6141 145.694 89.6141 143.93C89.6141 144.645 89.8049 143.883 89.9479 143.74C90.1386 143.549 88.6131 143.263 87.8978 142.786C85.514 141.261 85.2757 139.783 85.8954 138.211C86.3721 137.067 87.4211 136.256 88.7083 135.97C89.8527 135.732 90.3294 136.304 91.2352 136.447C91.6644 136.542 91.569 135.875 91.8073 135.208C92.2365 134.064 93.7144 135.589 94.6202 134.731C93.7622 133.873 92.7132 133.158 92.1889 132.157C91.6166 131.013 92.0457 130.632 93.0469 129.869C91.8551 129.059 91.0445 127.2 91.8073 125.913C92.4272 124.864 92.761 123.577 93.5236 123.1C94.3343 122.576 95.5739 122.767 95.8122 121.527C95.8598 121.289 95.8598 121.051 95.8598 120.812H202.323V120.86Z" fill="black"/>
<path d="M213.051 154.75C211.907 155.513 211.239 155.322 210.429 156.848C212.765 157.849 213.003 161.996 211.859 163.664C210.953 165.046 212.05 163.902 211.764 166.429C211.573 168.287 209.761 169.67 207.854 167.858C207.187 169.765 206.805 172.434 204.612 173.102C203.659 173.388 202.324 173.769 201.275 172.863C200.75 173.626 199.177 174.055 199.415 174.436C200.369 176.2 199.32 177.344 198.223 178.25C197.413 178.917 196.03 177.63 195.506 178.107C194.123 179.489 192.55 179.441 193.122 181.634C193.313 182.492 193.694 183.636 193.122 184.637C192.645 185.495 193.122 187.068 192.312 186.734C191.31 186.305 189.642 187.306 189.022 186.782C188.402 186.257 187.735 186.448 187.306 185.733C186.352 186.114 186.781 185.543 186.876 185.924C186.018 185.924 184.922 185.638 184.207 185.352C183.253 184.97 182.919 184.541 182.967 183.397C182.967 183.112 182.585 182.778 182.204 183.016C181.87 183.207 181.394 183.588 181.441 183.826C181.68 185.924 179.82 186.353 179.2 187.449C178.342 188.975 176.817 190.547 175.005 190.5C173.241 190.452 173.241 189.022 172.383 187.688C172.24 187.497 171.381 186.448 171.334 186.305C170.189 182.73 169.379 180.585 171.524 177.725C171.81 177.773 172.955 176.391 172.478 175.771C171.286 174.198 173.288 172.482 174.48 171.052C174.766 170.718 174.766 169.813 174.48 169.527C171.668 166.953 166.9 167.62 165.946 171.195C165.088 174.341 167.52 178.202 166.423 181.252C164.659 186.114 161.083 189.689 159.033 194.456C158.27 196.22 159.462 198.079 161.083 198.984C162.37 199.699 164.23 199.413 165.088 200.51C167.567 203.608 171.429 203.751 174.004 206.468C174.623 207.135 175.005 208.374 175.911 208.708C180.345 210.281 184.54 213.236 189.403 212.664C188.211 214.856 185.78 215.428 183.825 216.286C179.153 218.29 174.719 220.434 169.522 221.674C157.984 224.438 147.257 224.962 135.671 222.626C127.137 220.91 119.604 217.669 112.309 213.522C112.453 213.379 112.596 213.141 112.739 213.141C114.312 213.236 115.981 213.236 117.316 212.855C121.559 211.568 125.564 209.471 129.473 207.898C132.572 206.659 133.86 202.273 135.338 198.746C135.814 197.602 136.863 196.696 137.912 195.838C142.298 192.263 145.111 187.401 147.591 182.444C148.64 180.347 149.021 177.439 147.829 175.056C145.54 170.385 140.439 168.43 135.624 166.953C135.242 169.288 136.72 171.338 136.625 173.721C136.625 174.198 137.96 174.246 138.055 175.008C138.341 176.867 138.532 179.251 136.434 180.061C137.149 180.49 136.959 181.252 136.768 181.729C135.385 185.018 132.429 187.449 128.949 188.307C127.948 188.545 126.66 191.405 124.563 191.358C123.561 191.358 122.036 190.023 121.797 189.022C121.368 187.497 122.608 186.21 120.748 186.21C119.413 186.257 117.602 185.828 116.553 187.306C116.553 187.354 116.791 187.544 116.934 187.688C115.695 188.259 115.313 190.023 113.978 190.071C112.596 190.166 111.451 189.022 110.307 188.307C109.783 188.021 110.736 186.496 109.735 186.067C108.4 185.543 107.447 185.114 106.016 184.875C105.11 184.732 103.68 183.97 103.632 182.969C103.489 181.252 102.583 180.538 101.821 179.108C101.535 178.536 101.964 177.535 101.582 177.153C100.152 175.723 99.6751 174.246 100.057 172.387C100.152 172.053 100.533 171.815 100.819 171.529C100.009 170.766 99.9612 169.86 99.0076 169.241C97.6726 171.29 93.8585 171.767 92.7143 170.004C91.7131 168.383 90.9502 165.475 94.0017 164.76C92.6667 163.998 93.4294 162.997 92.5235 161.853C90.1397 158.849 92.4281 158.087 91.3317 156.371C91.141 156.037 89.9968 156.943 89.7584 157.134C88.9955 157.753 87.1839 157.563 86.8501 157.086C86.3732 156.371 86.2302 155.799 86.3732 154.75H213.051Z" fill="black"/>
<path d="M234.172 173.578H237.889V173.626L234.887 175.866L236.031 179.441L235.984 179.489L233.026 177.296L230.071 179.489L230.024 179.441L231.214 175.866L228.165 173.626V173.578H231.882L232.979 170.099H233.026L234.172 173.578Z" fill="white"/>
<path d="M68.6363 173.578H72.355V173.626L69.3513 175.866L70.4955 179.441L70.4479 179.489L67.4921 177.296L64.536 179.489L64.4884 179.441L65.6802 175.866L62.6289 173.626V173.578H66.3477L67.4443 170.099H67.4921L68.6363 173.578Z" fill="white"/>
<path d="M220.612 220.563C259.525 181.658 259.525 118.582 220.612 79.6775C181.698 40.7733 118.607 40.7733 79.6938 79.6775C40.7804 118.582 40.7804 181.658 79.6938 220.563C118.607 259.468 181.698 259.468 220.612 220.563Z" stroke="#FFD520" stroke-width="3.00954"/>
<path d="M176.387 200.367L217.103 181.11L215.577 184.732L176.625 201.225L176.387 200.367Z" fill="#FFD520"/>
<path d="M177.674 205.038L205.422 199.127L202.895 201.892L177.913 206.087L177.674 205.038Z" fill="#FFD520"/>
<path d="M84.7036 183.445L86.6107 186.639L123.99 200.7L124.466 199.175L84.7036 183.445Z" fill="#FFD520"/>
<path d="M95.2412 199.509L122.799 205.086L122.417 206.516L97.1959 201.892L95.2412 199.509Z" fill="#FFD520"/>
<path d="M134.908 148.935C135.051 149.078 135.194 149.316 135.337 149.316C135.48 149.316 135.623 149.078 135.766 148.935C135.48 148.935 135.194 148.935 134.908 148.935Z" fill="white"/>
<path d="M113.739 142.596C113.596 142.739 113.358 142.882 113.358 143.025C113.358 143.168 113.596 143.311 113.739 143.454C113.739 143.168 113.739 142.882 113.739 142.596Z" fill="white"/>
<path d="M178.103 154.321C178.628 154.226 179.534 153.797 179.772 153.32C179.915 153.034 179.057 151.89 177.722 150.842C176.625 151.7 174.718 156.228 175.767 155.942C177.341 155.465 177.341 154.464 178.103 154.321Z" fill="#009D57"/>
<path d="M97.6241 119.716C98.0533 119.62 98.1962 119.906 98.4824 120.097C98.8161 120.335 99.0545 120.002 98.9113 119.906C98.2438 119.477 97.8149 119.191 97.052 119.62C94.6205 121.05 105.062 126.246 103.536 125.007C103.727 124.339 102.249 123.72 101.82 123.434C99.1499 121.861 98.6254 120.288 97.6241 119.716Z" fill="#009D57"/>
<path d="M128.376 163.473C129.091 163.139 129.806 163.044 130.569 163.187C133.001 163.711 134.908 165.046 137.196 165.665C140.534 166.524 143.537 168.192 146.35 170.337C149.974 173.101 151.547 178.249 149.64 182.444C147.59 186.972 145.397 190.499 141.678 193.931C140.486 195.028 138.674 196.887 137.673 198.031C136.434 199.413 135.957 201.319 135.003 203.083C134.86 203.369 134.622 203.798 134.527 204.18C133.811 207.516 130.855 209.375 128.042 210.185" stroke="#FFD520" stroke-width="0.551867"/>
<path d="M136.005 165.38C138.437 164.522 140.391 165.618 141.631 166.095C147.495 168.192 150.308 170.385 152.168 176.677C152.835 178.917 151.786 182.015 151.071 183.827C150.308 185.781 148.735 188.212 147.257 189.975C145.064 192.692 142.68 194.933 140.487 197.411C138.389 199.747 137.102 202.512 136.768 203.179C136.1 204.514 134.718 205.658 134.05 206.992" stroke="#FFD520" stroke-width="0.551867"/>
<path d="M134.717 207.326C135.671 206.039 136.148 206.039 136.958 206.516C136.958 206.516 138.388 203.513 140.439 206.039C140.439 206.039 143.156 203.322 144.253 206.849C144.253 206.849 146.97 204.466 148.21 210.043C148.21 210.043 141.058 203.846 135.48 207.803L134.717 207.326Z" fill="#FFD520"/>
<path d="M136.624 208.327C136.624 208.327 140.104 205.276 148.829 211.044C148.829 211.044 147.495 212.283 146.827 210.853C146.827 210.853 143.966 212.855 143.394 210.281C143.394 210.281 140.391 211.616 139.437 208.994C139.437 208.994 138.531 211.187 136.624 208.327Z" fill="#FFD520"/>
<path d="M146.97 197.412C147.637 195.028 148.162 194.456 150.212 194.409C152.929 194.313 153.168 197.888 153.168 197.888C153.263 198.842 146.588 198.699 146.97 197.412Z" fill="#FFD520"/>
<path d="M146.732 198.412C146.732 198.412 145.206 199.032 145.063 200.796C144.825 203.37 146.398 205.086 150.164 205.086C153.883 205.086 154.837 203.036 154.837 201.177C154.837 199.366 153.407 198.698 153.407 198.698C153.407 198.698 152.31 199.08 150.212 199.08C148.162 199.127 146.732 198.412 146.732 198.412Z" fill="#FFD520"/>
<path d="M147.447 198.603C147.447 198.603 146.541 199.413 144.968 200.033" stroke="black" stroke-width="0.553195"/>
<path d="M149.021 199.08C149.021 199.08 147.018 201.367 144.587 201.701" stroke="black" stroke-width="0.553195"/>
<path d="M151.166 199.127C151.166 199.127 148.878 203.56 145.35 203.656" stroke="black" stroke-width="0.553195"/>
<path d="M152.93 198.889C152.93 198.889 152.548 204.132 147.924 204.847" stroke="black" stroke-width="0.553195"/>
<path d="M154.264 199.08C154.264 199.08 155.313 202.654 151.261 205.038" stroke="black" stroke-width="0.553195"/>
<path d="M152.787 198.889C152.787 198.889 153.502 199.699 155.075 200.319" stroke="black" stroke-width="0.553195"/>
<path d="M151.261 199.08C151.261 199.08 152.786 201.463 155.218 201.797" stroke="black" stroke-width="0.553195"/>
<path d="M149.116 199.127C149.116 199.127 151.023 203.417 154.503 203.513" stroke="black" stroke-width="0.553195"/>
<path d="M147.686 198.841C147.686 198.841 148.067 204.323 152.691 205.038" stroke="black" stroke-width="0.553195"/>
<path d="M161.273 167.286C161.75 170.861 162.132 173.102 163.371 176.486C163.896 177.868 163.991 179.203 163.657 180.633C163.657 180.538 163.657 180.442 163.657 180.299" stroke="#FFD520" stroke-width="0.551867"/>
<path d="M161.369 185.256C160.367 187.544 159.938 187.449 159.271 188.641C156.458 193.598 154.122 198.222 158.174 200.319C161.845 202.178 164.897 203.37 169.521 206.897C172.001 208.184 172.859 210.901 175.433 212.045C176.005 212.331 178.58 212.569 179.152 212.617" stroke="#FFD520" stroke-width="0.551867"/>
<path d="M162.751 166.381C162.322 168.335 163.085 169.479 163.276 170.814C163.323 171.195 163.514 171.862 163.609 172.244C163.943 173.578 164.229 174.436 164.754 175.676C165.278 176.82 165.564 177.964 165.374 179.203C165.183 180.395 164.897 181.539 164.42 182.587C164.039 183.445 163.323 184.16 162.56 184.732C161.75 185.352 160.51 184.875 159.748 184.208" stroke="#FFD520" stroke-width="0.551867"/>
<path d="M162.608 180.109C162.894 180.204 163.133 180.585 163.228 180.919C163.419 181.586 163.085 182.159 162.656 182.635C162.417 182.873 162.179 183.16 161.798 183.112C161.559 183.112 161.369 182.873 161.178 182.778" stroke="#FFD520" stroke-width="0.551867"/>
<path d="M163.61 184.351C163.371 184.589 163.038 184.923 162.942 185.256C162.847 185.59 162.37 186.162 162.227 186.4C162.275 186.305 162.322 186.353 162.322 186.305C161.703 187.592 161.846 186.829 161.13 188.212C160.272 189.975 158.651 191.834 158.365 193.026C157.936 194.694 157.221 196.982 158.461 198.365C159.796 199.842 161.75 200.271 163.514 201.177C163.991 201.415 164.373 201.844 164.802 202.178C166.041 203.226 167.71 203.942 170.284 205.705C171.858 206.801 173.288 207.802 174.575 209.185C175.004 209.661 175.386 210.138 175.91 210.472C176.435 210.805 177.007 211.044 177.627 211.139C177.722 211.139 177.674 211.234 177.627 211.234C178.437 211.33 179.2 211.616 179.963 211.902C180.344 212.045 180.869 211.949 181.298 211.949" stroke="#FFD520" stroke-width="0.551867"/>
<path d="M165.898 207.421C165.898 207.421 165.755 203.989 163.371 206.23C163.371 206.23 161.94 202.083 160.033 205.61C160.033 205.61 155.599 202.607 154.789 206.706C154.789 206.706 151.213 205.753 151.547 210.377C151.499 210.329 157.363 203.846 165.898 207.421Z" fill="#FFD520"/>
<path d="M166.66 208.279C166.66 208.279 158.317 204.561 151.547 211.282C151.547 211.282 156.791 212.569 156.458 209.709C156.458 209.709 159.938 212.092 160.129 209.566C160.129 209.566 162.274 211.33 163.561 209.089C163.561 209.089 169.044 209.852 166.66 208.279Z" fill="#FFD520"/>
<path d="M150.165 214.809C153.407 220.863 161.607 216.715 161.607 216.715L160.987 215.763C147.495 221.578 150.498 205.61 150.498 205.61H149.116C149.116 205.562 148.305 211.377 150.165 214.809Z" fill="#FFD520"/>
<path d="M145.921 198.174C145.921 198.174 145.682 203.322 149.02 205.419" stroke="black" stroke-width="0.553195"/>
<path d="M95.4795 124.244C95.4795 124.244 101.201 134.731 106.302 138.878C106.302 138.878 106.159 131.776 104.061 134.731C104.061 134.731 105.349 126.485 102.154 129.011C102.154 129.011 102.297 121.766 99.2936 126.151C99.2936 126.151 98.3402 120.765 95.4795 124.244Z" fill="#009D57"/>
<path d="M93.9051 124.244C93.9051 124.244 99.6263 133.777 103.44 137.924C103.44 137.924 100.246 133.777 97.0996 136.018C97.0996 136.018 91.7119 129.964 95.1925 129.344C95.1925 129.344 90.9493 127.819 93.9051 124.244Z" fill="#009D57"/>
<path d="M108.828 140.689C108.828 140.689 105.3 126.58 111.355 121.384C111.355 121.384 109.782 119.144 108.495 121.718C108.495 121.718 103.727 123.005 106.588 128.391C106.588 128.391 103.727 131.251 106.921 135.064C106.921 135.064 108.209 137.829 108.828 140.689Z" fill="#009D57"/>
<path d="M109.782 139.831C109.782 139.831 107.255 126.484 112.309 122.052C112.309 122.052 114.836 122.385 112.643 127.152C112.643 127.152 116.123 130.345 112.023 132.538C112.023 132.49 115.17 133.158 109.782 139.831Z" fill="#009D57"/>
<path d="M87.1351 138.544C87.1351 138.544 99.6265 143.93 104.68 144.264C104.68 144.264 105.014 140.451 102.439 140.451C102.439 140.451 100.199 135.684 96.3845 137.257C96.3845 137.257 93.19 133.778 91.9505 137.257C91.9983 137.257 87.0875 135.78 87.1351 138.544Z" fill="#009D57"/>
<path d="M87.0883 139.164C87.0883 139.164 90.3304 142.262 102.822 145.218C102.822 145.218 94.5736 149.65 95.5271 145.551C95.5271 145.551 88.8522 145.885 91.093 143.025C91.0454 142.977 85.4672 141.69 87.0883 139.164Z" fill="#009D57"/>
<path d="M95.5749 148.077C95.5749 148.077 91.2841 149.126 88.328 155.608C88.328 155.608 94.0494 149.078 98.1973 148.554L100.247 148.316C100.247 148.316 97.2436 150.365 100.962 149.031C100.962 149.031 101.201 148.697 101.678 148.697C102.154 148.697 97.1482 150.604 97.0053 152.653C97.0053 152.653 97.0053 154.322 95.0028 154.322C95.0028 154.322 93.1911 156.467 90.4736 154.941C90.4736 154.941 88.9001 157.182 87.7559 156.276C87.7559 156.276 86.0872 154.941 89.0433 151.986C89.0433 151.986 89.0433 148.077 93.6679 147.696C93.6679 147.744 95.1936 146.981 95.5749 148.077Z" fill="#009D57"/>
<path d="M96.2899 156.323L94.0013 159.517C94.0013 159.517 93.4292 160.47 94.2397 160.232C94.2397 160.232 101.725 150.127 106.779 148.935C106.779 148.935 108.447 147.839 108.304 149.078C108.304 149.078 108.686 151.223 106.779 150.651C106.779 150.651 108.114 154.703 103.06 155.036C103.06 155.036 104.729 159.326 99.1028 159.088C99.1028 159.088 97.7679 161.614 96.1468 160.137C96.1468 160.137 93.62 162.901 92.9047 160.232C92.9047 160.232 92.3326 156.895 94.5734 156.276C94.5734 156.276 96.0992 155.132 96.3851 155.656C96.5759 156.037 96.2899 156.323 96.2899 156.323Z" fill="#009D57"/>
<path d="M94.5249 162.615C94.5249 162.615 95.1448 163.33 95.8123 163.807C95.8123 163.807 97.1473 163.473 95.4785 165.38C95.4785 165.38 93.9528 167.191 94.1912 168.001L94.6681 168.335C94.6681 168.335 96.4798 165.094 97.7669 164.522C97.7669 164.522 97.2902 165.618 100.151 165.809C100.151 165.809 100.151 167.477 99.4357 168.097C99.4357 168.097 98.6252 167.286 98.3868 167.954C98.3868 167.954 97.2902 170.575 93.9528 170.003C93.9528 170.003 91.712 167.143 94.1912 165.713C94.1912 165.713 95.3832 164.379 94.5249 164.188C93.6669 164.045 93.8098 163.235 93.8098 163.235L94.5249 162.615Z" fill="#009D57"/>
<path d="M100.819 160.708C100.819 160.708 97.8625 160.613 98.2916 162.138L99.0067 162.281C99.0067 162.281 97.7195 163.33 98.7683 164.331C98.7683 164.331 101.534 165.856 103.87 163.997C103.87 163.997 104.919 162.472 103.774 162.186C103.774 162.186 107.589 164.093 107.827 162.424C107.827 162.424 108.065 161.566 107.446 160.422C107.446 160.422 110.211 158.992 109.973 156.371C109.973 156.371 112.261 152.796 111.736 152.558C111.736 152.558 101.963 161.519 101.247 163.425H100.675C100.675 163.425 101.534 161.28 103.059 160.327C103.059 160.375 101.057 160.708 100.819 160.708Z" fill="#009D57"/>
<path d="M104.299 170.623C106.301 170.289 104.442 175.39 104.442 175.39C105.014 174.818 105.729 175.866 105.729 175.866C105.348 177.773 103.679 177.868 103.679 177.868C101.629 177.153 102.63 175.151 102.63 175.151C101.438 174.818 101.343 173.817 101.343 172.863C101.343 172.863 101.915 171.338 102.392 171.29C102.392 171.29 100.341 169.765 100.58 169.241C100.58 169.241 100.437 166.285 102.344 166.238C102.344 166.238 105.3 166.953 104.108 170.766" fill="#009D57"/>
<path d="M123.609 183.112C123.609 183.112 120.605 184.542 122.894 186.067C122.894 186.067 121.702 189.785 123.847 189.403C123.847 189.403 124.085 190.833 124.944 190.595C124.944 190.595 125.182 189.737 124.085 189.26C124.085 189.26 124.658 187.831 123.275 186.162C123.275 186.114 124.658 183.97 123.609 183.112Z" fill="#009D57"/>
<path d="M129.235 165.571C129.235 165.571 124.562 173.912 127.185 175.581C127.185 175.581 127.089 180.919 123.847 179.298C123.847 179.298 122.893 183.112 120.51 183.016C120.51 183.016 120.176 185.495 118.746 185.257C118.746 185.257 118.841 177.296 128.281 165.094C128.281 165.094 129.235 164.188 129.235 165.571Z" fill="#009D57"/>
<path d="M123.99 164.618C123.99 164.618 126.612 162.234 126.612 165.809C126.612 165.809 123.513 168.526 122.321 172.149C122.321 172.149 118.889 169.861 120.748 168.24C120.748 168.24 121.94 167.144 123.465 167.764C123.465 167.764 123.084 166.667 123.561 165.523C123.99 164.427 123.99 164.618 123.99 164.618Z" fill="#009D57"/>
<path d="M114.216 167.715C114.216 167.715 111.975 176.629 113.167 186.686L112.786 186.448C112.786 186.448 111.737 184.303 111.832 182.73C111.832 182.73 112.452 174.865 109.21 177.582C109.21 177.582 110.878 177.821 110.497 179.584C110.497 179.584 110.163 181.872 109.21 182.825C109.21 182.825 107.922 184.732 110.783 184.732C110.783 184.732 111.403 188.784 113.501 188.879C113.501 188.879 114.931 188.164 114.931 186.591C114.931 186.591 118.745 185.256 116.361 180.061C116.361 180.061 119.937 180.061 118.411 178.154C118.411 178.154 114.979 173.006 115.551 170.671C115.598 170.623 116.552 169.765 114.216 167.715Z" fill="#009D57"/>
<path d="M131.38 159.184C131.38 159.184 113.883 150.604 119.318 156.324C119.318 156.324 118.698 158.564 122.179 157.896C122.179 157.944 118.984 161.09 131.38 159.184Z" fill="#009D57"/>
<path d="M115.837 154.417C115.837 154.417 112.023 160.47 114.264 166.81C114.264 166.81 116.505 166.19 115.551 164.284C115.551 164.284 120.319 164.284 116.171 160.137C116.171 160.137 118.078 158.85 116.505 156.657L115.837 154.417Z" fill="#009D57"/>
<path d="M112.642 158.897C112.642 158.897 111.689 164.283 112.976 167.477C112.976 167.477 110.115 169.383 110.735 166.19C110.735 166.19 107.255 166.524 110.401 162.377L112.642 158.897Z" fill="#009D57"/>
<path d="M107.589 164.283C107.589 164.283 103.775 167.144 106.635 171.91C106.635 171.91 110.116 170.337 108.542 168.431C108.542 168.431 109.782 167.763 107.589 164.283Z" fill="#009D57"/>
<path d="M105.968 178.869C105.968 178.869 103.107 179.823 105.634 181.729C105.634 181.729 105.968 184.923 108.161 183.302C108.161 183.302 106.254 177.582 109.115 173.769H107.542C107.542 173.769 105.968 178.536 107.208 180.776L105.968 178.869Z" fill="#009D57"/>
<path d="M117.268 149.507C120.557 150.317 125.659 152.128 128.615 153.797C133.335 156.466 136.148 160.47 137.626 162.52" stroke="#FFD520" stroke-width="0.551867"/>
<path d="M117.268 147.601C121.797 149.555 126.66 150.079 130.855 153.13C133.478 155.036 135.766 157.038 137.816 159.469C138.722 160.518 139.008 161.519 140.153 163.473" stroke="#FFD520" stroke-width="0.551867"/>
<path d="M110.402 142.024C110.402 142.024 111.975 147.41 114.55 141.07C114.55 141.07 119.317 142.358 117.744 135.97C117.744 135.97 119.985 133.444 121.892 133.444C121.844 133.444 116.123 132.205 110.402 142.024Z" fill="#009D57"/>
<path d="M130.14 144.264C130.14 144.264 129.806 132.205 139.342 134.111C139.342 134.111 128.853 129.344 128.233 143.644C128.233 143.644 124.419 137.924 127.613 137.305C127.613 137.305 128.233 129.344 131.761 133.158C131.761 133.158 134.955 127.772 137.816 132.205C137.816 132.205 143.537 131.871 142.917 135.398C142.917 135.398 142.297 137.638 136.576 136.971C136.576 136.971 140.39 139.831 133.096 140.451C133.001 140.451 135.194 142.357 130.14 144.264Z" fill="#009D57"/>
<path d="M138.722 139.497C138.722 139.497 143.824 139.497 146.017 144.597C148.258 149.698 142.823 138.544 135.194 142.071C135.194 142.071 137.101 143.024 133.287 145.265C133.287 145.265 140.916 147.171 139.628 144.645C139.628 144.645 142.155 151.318 145.016 147.505C145.016 147.505 152.024 149.412 149.45 144.645C149.45 144.645 153.264 140.498 143.728 139.545C143.728 139.545 145.302 137.018 142.775 137.638C142.823 137.591 141.869 139.831 138.722 139.497Z" fill="#009D57"/>
<path d="M121.368 116.761C125.373 117.619 127.232 121.861 130.045 124.626C131.809 126.342 134.145 127.295 135.814 129.011C136.291 129.488 135.957 128.773 136.291 129.488" stroke="#FFD520" stroke-width="0.551867"/>
<path d="M132.524 124.387C135.671 126.628 137.531 127.581 138.579 130.727" stroke="#FFD520" stroke-width="0.551867"/>
<path d="M114.646 127.2C115.075 127.295 115.504 127.247 115.933 127.533C120.224 130.25 124.944 130.346 129.759 129.631C130.856 129.488 131.904 129.678 132.954 130.06" stroke="#FFD520" stroke-width="0.551867"/>
<path d="M118.459 130.679C120.605 131.585 122.131 131.966 124.514 131.919C126.803 131.871 128.805 131.299 130.712 131.489" stroke="#FFD520" stroke-width="0.551867"/>
<path d="M161.178 119.096C161.559 120.193 162.465 121.051 162.846 122.147C162.989 122.576 163.228 123.052 163.276 123.529C163.371 124.101 163.8 124.578 164.038 125.102C164.563 126.294 164.849 127.533 164.896 128.772C164.992 132.586 164.896 137.066 161.559 139.64C158.937 141.69 156.553 143.692 154.789 146.409C155.123 145.646 154.741 144.788 155.027 144.026C155.218 143.501 155.361 142.929 155.647 142.453C156.601 141.07 157.793 140.117 159.175 139.164C160.51 138.21 162.036 137.257 162.274 135.589" stroke="#FFD520" stroke-width="0.551867"/>
<path d="M150.546 104.606C150.069 106.512 150.927 108.181 151.404 109.992C151.833 111.708 153.12 112.756 154.122 114.234C154.503 114.806 154.98 115.33 155.552 115.807C156.363 116.522 157.078 117.285 157.793 118.143C158.889 119.43 159.891 120.669 160.606 122.099C160.987 122.862 161.512 123.672 161.512 124.578" stroke="#FFD520" stroke-width="0.551867"/>
<path d="M156.935 121.527C156.076 121.718 153.168 122.766 152.405 123.291C152.024 123.529 151.595 123.815 151.07 123.91C150.117 124.053 149.449 124.816 148.782 125.436C146.922 127.104 145.444 129.44 145.444 131.966C145.444 133.348 145.778 134.826 146.541 136.017C147.161 136.971 147.542 137.972 148.353 138.782" stroke="#FFD520" stroke-width="0.553112"/>
<path d="M144.825 126.723C144.825 127.009 144.73 127.152 144.539 127.39C144.396 127.533 144.587 127.914 144.443 128.153C144.253 128.582 144.014 129.011 143.919 129.44C143.347 131.442 143.585 133.491 144.634 135.207C145.349 136.351 146.78 136.78 147.685 137.829" stroke="#FFD520" stroke-width="0.553112"/>
<path d="M185.017 132.252C183.92 132.633 182.633 133.062 182.251 134.206C181.965 134.969 181.632 135.684 181.203 136.399C180.726 137.209 180.201 137.924 179.724 138.687C179.343 139.354 179.009 140.022 178.58 140.641C177.96 141.452 177.007 142.357 176.244 143.024C176.244 143.024 175.243 145.217 175.243 145.169C174.385 149.459 174.862 153.559 172.621 157.276C172.43 157.563 171.572 157.801 170.761 157.706C171.19 157.324 171.143 157.276 171.19 157.229C171.381 156.848 171.333 156.514 171.476 156.18C172.907 153.559 173.24 150.889 173.145 148.029" stroke="#FFD520" stroke-width="0.551867"/>
<path d="M192.359 152.605C191.214 152.558 191.024 153.463 190.022 154.131C187.829 155.513 184.492 159.851 182.299 161.328C178.866 163.712 176.577 162.329 172.859 162.615C170.189 162.806 169.044 163.235 165.755 165.904C165.516 166.095 164.563 167.191 164.754 167.525C165.087 168.001 165.04 168.001 165.326 168.383C165.707 168.049 165.755 168.192 166.089 167.858C167.9 166.095 169.331 165.523 171.619 164.808C174.194 163.997 177.34 165.332 181.345 163.95C184.444 162.853 187.495 158.659 189.832 156.323C192.263 153.892 196.506 152.748 199.176 155.036" stroke="#FFD520" stroke-width="0.551867"/>
<path d="M175.243 171.91C175.243 171.91 172.716 174.627 173.812 175.389L174.432 176.2C174.432 176.2 169.522 180.633 172.048 181.586C172.048 181.586 170.618 186.353 173.145 185.542C173.145 185.542 172.334 189.022 174.718 188.736C174.766 188.736 173.812 178.25 175.243 171.91Z" fill="#009D57"/>
<path d="M176.53 169.861C176.53 169.861 175.577 182.111 176.053 189.404C176.053 189.404 178.771 187.02 177.817 185.733C177.817 185.733 181.965 185.114 178.628 180.347C178.628 180.347 182.585 178.583 177.675 174.77C177.627 174.77 180.487 173.817 176.53 169.861Z" fill="#009D57"/>
<path d="M179.057 170.146C179.057 170.146 189.403 181.586 191.31 185.256C191.31 185.256 190.356 187.02 188.592 184.637C188.592 184.637 183.491 185.733 184.921 181.634C184.921 181.634 181.25 183.683 180.773 181.014C180.773 181.014 183.157 178.964 179.962 175.151C180.01 175.104 181.441 173.96 179.057 170.146Z" fill="#009D57"/>
<path d="M177.484 167.001C177.484 167.001 187.019 173.674 191.787 184.16C191.787 184.16 192.788 183.636 191.31 181.157C191.31 181.157 193.837 177.964 189.88 176.534C189.88 176.534 190.977 170.48 184.492 170.671C184.492 170.623 185.923 166.81 177.484 167.001Z" fill="#009D57"/>
<path d="M193.218 161.09C193.218 161.09 193.694 171.433 195.744 174.579C197.079 176.676 196.364 174.722 196.364 174.722C196.364 174.722 194.934 164.712 194.934 160.089C194.934 160.089 194.314 157.372 193.98 156.276C193.742 155.513 196.841 158.325 196.984 159.612C197.127 160.899 196.507 160.899 196.507 160.899C196.507 160.899 201.275 166.762 197.938 167.096C197.938 167.096 201.275 171.719 198.271 172.959C198.271 172.959 198.414 179.155 196.221 176.915C195.268 175.962 194.791 174.865 194.791 174.865C194.791 174.865 194.934 178.202 193.218 177.249C193.218 177.249 190.357 173.912 191.93 170.099C191.93 170.099 187.21 171.338 190.977 163.092C190.977 163.092 187.973 162.138 190.023 158.659C190.023 158.659 191.12 158.039 191.787 156.752C192.407 155.561 193.218 161.09 193.218 161.09Z" fill="#009D57"/>
<path d="M198.461 158.23C198.461 158.23 204.04 163.33 204.66 170.766L205.136 170.147C205.136 170.147 206.09 164.284 199.749 158.087C199.749 158.087 200.702 155.227 202.752 157.611C202.752 157.611 203.706 158.564 203.372 160.137C203.372 160.137 207.043 160.613 206.09 164.093C206.09 164.093 206.71 171.386 204.516 171.72C204.516 171.72 202.466 171.72 202.752 169.336C202.752 169.336 200.226 171.243 201.179 166.619C201.179 166.667 200.702 169.861 198.461 158.23Z" fill="#009D57"/>
<path d="M202.418 155.847C202.418 155.847 208.473 158.087 210.38 164.761C210.38 164.761 211.191 167.477 209.57 167.144C209.57 167.144 207.043 167.763 207.997 161.757C207.997 161.757 205.756 161.9 205.279 158.564C205.279 158.564 204.993 159.851 202.418 155.847Z" fill="#009D57"/>
<path d="M207.043 156.991C207.043 156.991 210.38 156.657 210.857 159.517L210.38 160.804C210.38 160.804 211.668 160.184 211.334 162.091L211 162.568L207.043 156.991Z" fill="#009D57"/>
<path d="M214.67 149.364C214.337 150.794 212.621 152.367 212.621 152.367C214.194 154.75 207.233 155.084 207.233 155.084C207.377 158.563 199.128 153.034 199.128 153.034C199.128 153.034 207.377 154.607 213.576 148.887L210.714 149.507C210.714 149.507 207.996 151.89 201.798 151.557C201.798 151.557 202.895 147.6 206.423 149.316C206.423 149.316 209.76 143.12 211.81 146.456C211.81 146.456 215.148 145.169 215.481 147.267L215.338 148.554L214.67 149.364Z" fill="#009D57"/>
<path d="M200.226 151.414C200.226 151.414 196.555 151.557 196.078 151.557C195.601 151.557 205.136 148.22 207.997 138.83L207.377 138.496C207.377 138.496 203.706 144.073 201.656 145.789C199.606 147.505 199.272 142.929 200.845 142.453C200.845 142.453 200.512 137.352 202.896 138.163C202.896 138.163 207.329 129.916 209.57 134.016C209.57 134.016 210.858 137.686 210.381 139.259C209.904 140.832 207.52 142.929 207.52 142.929C207.52 142.929 209.284 143.406 207.377 145.455C207.377 145.455 205.947 146.886 205.947 147.696C205.947 147.743 202.276 146.313 200.226 151.414Z" fill="#009D57"/>
<path d="M202.132 132.49C202.132 132.49 201.989 131.537 201.989 134.54C201.989 134.54 204.23 135.35 201.369 137.734L198.842 139.783C198.842 139.783 201.369 140.594 198.222 143.263C198.222 143.263 199.51 144.073 195.362 147.41C195.362 147.41 194.265 150.127 194.265 150.746L193.788 148.84C193.788 148.84 200.129 137.543 199.986 133.73H199.033C199.033 133.73 196.315 141.213 195.219 142.929C195.219 142.929 192.024 141.642 193.931 138.973C193.931 138.973 189.498 134.683 194.074 132.919C194.074 132.919 195.171 132.586 195.838 133.873C195.743 133.92 199.748 130.107 202.132 132.49Z" fill="#009D57"/>
<path d="M189.068 129.964C189.068 129.964 199.224 125.198 204.468 128.677L204.611 127.867C204.611 127.867 200.94 125.484 193.169 127.39C193.169 127.39 195.695 121.67 197.126 124.673C197.126 124.673 202.37 121.67 201.56 125.007C201.56 125.007 206.947 124.673 205.04 127.057C205.04 127.057 208.997 131.49 207.424 131.68C207.424 131.68 202.323 133.11 203.276 130.584C203.276 130.584 199.939 131.68 196.458 130.25C196.554 130.298 196.554 133.778 189.068 129.964Z" fill="#009D57"/>
<path d="M186.066 131.394C186.066 131.394 192.121 140.593 190.214 149.84C190.214 149.84 194.648 144.454 192.741 143.024C190.833 141.594 192.264 143.024 192.264 143.024C192.264 143.024 193.551 137.781 190.5 137.781C190.5 137.781 191.787 131.442 189.213 133.157C189.26 133.157 186.066 131.871 186.066 131.394Z" fill="#009D57"/>
<path d="M185.445 131.728C185.445 131.728 190.07 142.357 188.926 145.218C188.926 145.218 182.871 140.785 187.162 140.594C187.162 140.594 179.39 136.161 184.921 134.397C184.968 134.397 183.348 129.821 185.445 131.728Z" fill="#009D57"/>
<path d="M179.248 142.834C179.248 142.834 184.158 146.504 183.395 154.893C183.395 154.893 179.915 151.891 181.822 151.223C181.822 151.223 176.244 148.84 179.104 147.076C179.104 147.076 175.29 145.17 177.531 143.406L179.248 142.834Z" fill="#009D57"/>
<path d="M181.298 139.021C181.298 139.021 179.725 142.5 182.252 143.644L183.539 143.978C183.539 143.978 181.155 146.6 185.923 148.888C185.923 148.888 183.539 150.794 187.21 152.367C187.21 152.367 188.021 146.027 181.822 137.924L181.298 139.021Z" fill="#009D57"/>
<path d="M180.964 155.37C180.964 155.37 177.007 159.04 173.669 158.23C170.332 157.42 181.631 164.093 180.678 157.753C180.678 157.753 184.158 157.611 180.964 155.37Z" fill="#009D57"/>
<path d="M169.855 150.46C169.855 150.46 160.177 144.741 152.691 155.37L152.548 154.56C152.548 154.56 157.459 144.55 167.328 148.029C167.328 148.029 164.992 142.5 163.657 145.646C163.657 145.646 157.459 142.167 157.793 146.456C157.793 146.456 151.595 145.98 153.168 150.127C153.168 150.127 148.067 152.51 151.404 155.227C151.404 155.227 150.45 158.42 153.931 156.657C153.931 156.657 157.888 158.42 158.699 154.131C158.699 154.131 162.37 155.227 163.323 151.89C163.323 151.89 163.514 154.131 169.855 150.46Z" fill="#009D57"/>
<path d="M141.821 152.129C142.107 152.415 142.632 153.893 142.965 154.417C144.348 156.562 144.491 157.039 144.586 157.706C144.586 157.801 144.873 157.944 144.968 158.039C146.303 160.327 147.828 162.186 149.02 163.188C149.163 163.33 149.783 164.57 149.831 164.713C150.355 166 150.022 166.333 150.451 167.668C150.737 168.669 151.881 169.146 152.501 170.004C153.55 171.338 154.36 172.53 154.789 174.246C155.362 173.865 155.219 173.007 155.886 172.673C155.409 172.292 155.123 171.052 154.885 170.671C153.645 168.86 151.977 168.574 151.547 166.429C151.07 164.284 151.357 163.616 150.594 162.234C149.926 161.09 148.21 160.184 147.352 159.136C146.97 158.659 146.637 158.135 146.398 157.563C145.874 156.085 145.111 154.703 144.253 153.368C143.49 152.224 142.679 151.223 142.25 149.936" stroke="#FFD520" stroke-width="0.551867"/>
<path d="M161.273 155.703C161.273 155.703 154.598 159.04 155.695 160.947C155.695 160.947 158.698 159.993 159.032 163.807C159.032 163.807 160.796 161.423 160.796 159.517C160.796 159.517 162.847 161.566 164.134 157.944C164.134 157.944 170.189 158.277 168.282 154.941C168.282 154.941 170.666 153.368 170.666 151.461C170.666 151.414 166.994 154.702 161.273 155.703Z" fill="#009D57"/>
<path d="M167.948 132.204C167.948 132.204 173.812 123.624 188.592 127.438C188.592 127.438 190.642 129.678 185.588 129.344C185.588 129.344 186.542 131.727 180.821 130.155C180.821 130.155 181.297 133.157 174.003 130.298C174.003 130.298 176.863 131.728 167.948 132.204Z" fill="#009D57"/>
<path d="M172.096 127.724C172.096 127.724 177.484 123.434 187.019 125.96C187.019 125.96 185.923 122.957 183.205 124.53C183.205 124.53 181.822 118.953 177.961 124.864C177.865 125.007 177.484 125.007 177.484 125.007C177.484 125.007 174.766 120.908 172.096 127.724Z" fill="#009D57"/>
<path d="M170.666 134.397C170.666 134.397 167.185 141.261 171 148.84C171.143 149.173 171.476 149.173 171.476 149.173C171.476 149.173 176.864 138.544 172.907 139.497C172.907 139.497 180.058 133.777 174.194 132.824L170.666 134.397Z" fill="#009D57"/>
<path d="M168.282 135.351C168.282 135.351 166.708 141.881 168.615 145.503C168.615 145.503 161.797 142.167 165.612 140.403C165.564 140.451 164.753 131.06 168.282 135.351Z" fill="#009D57"/>
<path d="M151.261 140.307C151.261 140.307 144.92 134.254 149.688 133.777C149.688 133.777 145.254 127.104 151.261 127.104C151.261 127.104 155.409 121.241 157.125 125.34C157.125 125.34 159.986 121.527 160.796 124.864C160.796 124.864 152.072 127.39 151.404 133.444C151.404 133.444 149.02 136.637 151.404 139.306L151.261 140.307Z" fill="#009D57"/>
<path d="M153.788 130.441C153.788 130.441 157.459 126.485 161.083 125.674L161.703 128.868C161.703 128.868 159.462 130.298 158.508 129.011C158.508 129.011 155.648 127.915 155.648 131.061C155.648 131.061 154.551 133.11 152.644 132.967L153.788 130.441Z" fill="#009D57"/>
<path d="M152.358 139.021C152.358 139.021 154.742 133.634 160.797 133.301V132.347C160.797 132.347 154.742 133.301 153.025 136.304C153.025 136.304 152.882 133.11 155.743 132.967C155.743 132.967 156.696 128.534 160.368 130.727C160.368 130.727 161.178 129.773 161.798 130.107C161.798 130.107 162.275 133.301 160.987 135.493C160.94 135.541 159.843 140.593 152.358 139.021Z" fill="#009D57"/>
<path d="M138.388 150.46C138.388 150.46 141.725 150.318 141.249 154.75C141.249 154.75 144.729 157.944 145.396 163.473C145.396 163.473 140.295 158.707 140.152 154.75L139.342 154.893C139.342 154.893 138.865 158.087 141.582 161.09C141.582 161.09 135.861 156.8 137.625 154.75C137.625 154.75 130.95 153.94 132.238 150.127C133.525 146.313 131.904 149.507 131.904 149.507L135.098 148.411C135.05 148.411 136.624 150.603 138.388 150.46Z" fill="#009D57"/>
<path d="M127.089 133.301C127.089 133.301 124.848 133.921 126.135 136.304C126.135 136.304 122.321 139.974 128.042 146.171C128.042 146.171 119.461 143.644 122.178 138.401C122.178 138.401 123.132 136.971 123.609 137.114C123.609 137.114 121.702 132.967 127.089 133.301Z" fill="#009D57"/>
<path d="M122.035 134.588C122.035 134.588 121.082 136.018 122.369 136.828C122.369 136.828 117.124 139.545 122.702 145.074C122.702 145.074 118.412 143.882 117.458 142.214L118.555 141.737C118.555 141.737 120.795 138.067 119.508 136.494C119.46 136.494 120.605 134.588 122.035 134.588Z" fill="#009D57"/>
<path d="M123.942 128.2C124.514 128.2 130.283 128.534 131.237 128.057C131.237 128.057 129.33 124.721 126.135 125.197C126.135 125.197 127.518 119.763 122.178 122.671C122.178 122.671 120.748 114.902 117.411 119.477C117.411 119.477 115.503 122.337 116.934 124.101C118.364 125.865 120.748 128.057 121.702 128.534C122.655 129.011 122.798 128.2 123.942 128.2Z" fill="#009D57"/>
<path d="M117.553 117.428C117.553 117.428 108.352 117.285 101.486 119.954V118.858C101.486 118.858 109.114 116.141 112.786 116.475C112.786 116.475 112.642 112.328 110.545 112.185C110.545 112.185 108.781 111.565 108.781 114.425C108.781 114.425 105.11 111.565 104.633 115.855C104.633 115.855 101.295 114.759 101.772 117.905C101.772 117.905 97.2905 119.621 100.962 121.861C100.962 121.861 103.203 122.338 104.299 120.908C104.299 120.908 106.683 123.767 109.687 119.144C109.687 119.144 112.69 121.384 114.931 119.477C115.026 119.477 115.98 118.524 117.553 117.428Z" fill="#009D57"/>
<path d="M123.275 109.945C123.275 109.945 124.086 99.3151 128.519 95.9785L129.616 95.6448C129.616 95.6448 120.891 109.134 128.043 117.905C128.043 117.905 128.853 114.711 127.709 112.519C127.709 112.519 130.093 110.612 128.663 106.656C128.663 106.656 132.143 104.797 129.759 101.269C129.426 100.793 129.426 100.793 129.426 100.793C129.426 100.793 132.429 97.9328 129.902 94.9299C129.902 94.9299 126.899 94.1195 126.422 96.0261C126.422 96.0261 125.468 97.3131 125.945 98.4095C125.945 98.4095 121.797 96.0261 122.941 103.176C122.989 103.128 119.652 104.844 123.275 109.945Z" fill="#009D57"/>
<path d="M121.701 115.664C121.701 115.664 117.887 114.663 111.069 101.984C110.974 101.841 110.736 102.795 110.736 102.795C110.736 102.795 113.596 110.421 117.077 113.615C117.077 113.615 113.739 110.278 113.119 110.278C112.5 110.278 110.259 110.278 112.5 108.705C112.5 108.705 107.875 108.562 111.069 105.988C111.069 105.988 108.829 101.555 110.259 100.602C110.259 100.602 113.739 100.745 114.073 103.605C114.073 103.605 116.457 101.555 117.077 103.128C117.077 103.128 118.364 105.369 116.123 106.465C116.123 106.465 118.364 106.322 117.411 108.705C117.411 108.657 118.03 105.655 121.701 115.664Z" fill="#009D57"/>
<path d="M104.872 109.467C104.872 109.467 106.636 111.231 109.782 111.374C109.782 111.374 109.305 108.038 108.018 108.848C108.018 108.848 106.254 106.321 105.301 107.895C105.301 107.895 101.82 107.895 104.013 110.897C104.013 110.897 102.917 113.138 106.731 111.994C106.731 111.994 107.065 112.137 107.065 111.994L104.347 110.087L104.872 109.467Z" fill="#009D57"/>
<path d="M135.194 113.138C135.194 113.138 132.667 117.094 133.287 121.098L133.763 120.764C133.763 120.764 136.624 109.182 142.202 108.371C142.202 108.371 144.586 107.752 145.063 108.038C145.54 108.371 144.252 117.237 142.536 111.994C142.536 111.994 140.772 119.954 138.865 115.33C138.865 115.33 136.815 122.623 135.194 119.763C135.194 119.763 134.574 125.15 132.953 122.766C132.953 122.766 130.569 119.763 132.619 117.857C132.667 117.904 129.663 116.617 135.194 113.138Z" fill="#009D57"/>
<path d="M142.203 97.8848C142.203 97.8848 131.094 104.701 130.76 113.948C130.76 113.948 140.915 107.895 135.528 106.465C135.528 106.465 144.11 104.224 139.962 101.841C139.962 101.841 148.067 93.4042 139.628 96.7408C139.628 96.7408 137.244 95.3108 135.48 99.4579C135.48 99.4579 131.523 99.6009 132.143 104.224C132.143 104.224 138.484 98.3615 141.202 97.4082C143.967 96.4548 142.203 97.8848 142.203 97.8848Z" fill="#009D57"/>
<path d="M139.484 128.677C139.484 128.677 139.58 113.901 151.547 117.38C151.833 117.476 150.927 117.38 150.927 117.38L151.737 116.761C151.737 116.761 148.066 115.188 144.586 116.141C144.586 116.141 149.02 109.468 151.118 113.758C151.118 113.758 151.261 114.377 150.641 115.188C150.641 115.188 155.265 114.377 154.789 117.571C154.789 117.571 157.983 119.478 154.169 119.621C154.169 119.621 154.312 122.147 150.832 119.287C150.832 119.287 150.975 122.147 146.207 119.764C146.207 119.764 148.925 121.051 141.105 125.483C141.105 125.531 140.152 125.817 139.484 128.677Z" fill="#009D57"/>
<path d="M136.338 96.455C136.338 96.455 134.574 93.452 137.435 93.7379C137.435 93.7379 136.005 89.7816 138.388 90.4013C138.388 90.4013 139.676 85.4918 141.392 89.7816L141.726 92.022C141.726 92.022 143.299 92.165 144.586 92.8323C144.586 92.8323 142.536 92.9753 142.346 95.2157C142.346 95.2157 140.915 94.596 140.295 95.3586C140.295 95.3586 139.819 90.9256 140.439 90.5921H139.628C139.628 90.5921 138.674 94.739 139.008 95.6924C139.008 95.6446 137.292 95.0249 136.338 96.455Z" fill="#009D57"/>
<path d="M143.776 95.311C143.776 95.311 145.349 95.6447 144.729 97.8373C144.729 97.8373 147.924 91.7836 152.501 91.1641L153.311 91.6406C153.311 91.6406 142.822 96.0736 146.493 106.751L147.447 108.991C147.447 108.991 149.497 105.988 148.4 105.178C147.304 104.368 151.738 100.078 148.4 99.7916C148.4 99.7916 154.456 98.5046 151.738 95.025C151.738 95.025 156.172 93.1184 155.695 90.1153C155.695 90.1153 153.788 88.5424 152.501 89.4958C152.501 89.4958 150.451 89.8293 149.64 90.9258C149.64 90.9258 147.733 89.4958 146.16 93.3089C146.16 93.2613 144.253 93.738 143.776 95.311Z" fill="#009D57"/>
<path d="M154.122 110.088C154.122 110.088 152.358 107.704 151.404 103.557C151.404 103.557 153.168 101.031 151.881 100.221C151.881 100.221 156.172 97.8375 154.408 95.4541C154.408 95.4541 158.222 93.0709 159.033 95.9308C159.033 95.9308 161.416 90.5446 162.99 92.4512C162.99 92.4512 165.374 92.3083 164.086 95.4541C164.086 95.4541 165.993 97.8375 161.845 99.8871C161.845 99.8871 166.136 102.127 158.365 106.227C158.365 106.227 160.606 108.61 155.648 113.71C155.648 113.71 154.074 103.557 162.179 94.5009H161.369C161.416 94.5485 154.456 98.8385 154.122 110.088Z" fill="#009D57"/>
<path d="M167.138 123.767C167.138 123.767 167.615 113.424 165.231 107.418H165.851C165.851 107.418 171 115.473 167.901 128.725C167.901 128.725 174.433 118.095 170.285 119.048C170.285 119.048 175.386 109.849 169.665 113.328C169.665 113.328 171.715 105.845 168.568 108.419C168.568 108.419 165.708 101.412 164.278 104.272C164.278 104.272 163.324 105.225 164.278 107.466C164.278 107.466 162.704 107.132 163.467 109.849C163.467 109.849 158.842 109.229 162.18 114.282C162.18 114.282 162.8 115.378 163.753 116.331C163.801 116.284 159.701 117.904 167.138 123.767Z" fill="#009D57"/>
<path d="M165.565 96.1216C165.565 96.1216 166.661 93.7382 165.421 92.3082C165.421 92.3082 165.421 90.5446 166.518 90.5446C166.518 90.5446 168.759 86.5885 170.475 93.2617C170.475 93.2617 172.525 95.3113 170.952 96.4553C170.952 96.4553 172.239 99.9349 169.855 102.986C169.855 102.986 172.096 103.796 170.332 105.988C170.332 105.988 168.568 104.225 167.948 103.748C167.948 103.748 170.332 95.3113 168.425 91.212H167.805C167.805 91.212 168.902 97.2656 166.852 103.129C166.852 103.129 165.565 101.079 163.991 102.795C163.991 102.795 165.565 101.031 163.991 99.9349C163.991 99.9349 167.138 97.4085 165.565 96.1216Z" fill="#009D57"/>
<path d="M173.049 102.651C173.049 102.651 171.762 97.4082 172.573 97.2652C172.573 97.2652 174.623 92.8322 177.483 96.4548C177.483 96.4548 177.96 94.5481 179.247 94.6913C180.535 94.8342 181.774 94.2146 182.442 95.3108C183.061 96.4072 183.062 98.7905 181.154 99.2671C181.154 99.2671 183.586 101.317 178.151 102.747C178.151 102.747 182.918 105.607 173.383 109.897C173.383 109.897 172.429 108.943 171.953 107.37C171.953 107.37 178.484 97.5036 181.011 96.4072L180.201 95.9304C180.201 95.9782 176.863 97.8847 173.049 102.651Z" fill="#009D57"/>
<path d="M186.066 105.655C186.066 105.655 184.492 100.554 182.251 104.844C182.251 104.844 181.441 105.655 182.251 107.561C182.251 107.561 177.627 105.655 178.771 111.375C178.771 111.375 181.965 113.758 182.442 114.234C182.442 114.234 183.729 108.514 183.539 106.465H184.159C184.159 106.465 184.778 113.758 182.394 119.954C182.394 119.954 188.449 114.377 185.398 112.185C185.398 112.185 189.689 107.418 185.875 107.418L186.066 105.655Z" fill="#009D57"/>
<path d="M187.496 104.225C187.496 104.225 188.306 101.365 189.546 101.508C190.833 101.651 191.119 103.272 190.499 105.655L190.022 107.228H191.119L188.735 109.468C188.735 109.468 189.212 106.751 188.258 106.465L189.355 104.559L188.878 104.082L187.448 105.655V104.225H187.496Z" fill="#009D57"/>
<path d="M185.589 121.384C185.589 121.384 184.016 115.998 186.876 117.571C186.876 117.571 186.256 107.895 190.071 111.851C190.071 111.851 190.881 105.655 193.885 108.038C193.885 108.038 198.795 105.655 197.079 110.898C197.079 110.898 199.94 115.331 194.552 115.665C194.552 115.665 197.747 119.335 191.692 120.765C191.692 120.765 193.742 123.482 189.165 125.531C189.165 125.531 187.877 122.338 188.354 121.384C188.831 120.431 192.264 110.946 196.316 109.134L195.696 108.515C195.696 108.515 189.498 113.424 186.781 122.671L185.589 121.384Z" fill="#009D57"/>
<path d="M196.554 119.144C196.554 119.144 195.458 117.237 196.697 116.618C197.984 115.998 200.654 116.761 201.131 116.284C201.131 116.284 205.422 114.234 202.228 119.287C202.228 119.287 201.131 120.097 200.94 122.004C200.94 122.004 198.557 122.338 195.076 123.1C195.076 123.1 198.747 117.857 200.94 117.714L200.321 117.237C200.368 117.237 196.697 118.191 196.554 119.144Z" fill="#009D57"/>
<path d="M176.196 112.662C176.196 112.662 178.58 118.525 176.673 122.195C176.673 122.195 181.583 119.335 179.533 117.428C179.533 117.428 182.06 114.425 175.386 110.898C175.386 110.898 173.621 110.278 173.478 111.851C173.478 111.851 172.859 114.092 174.289 114.092C174.289 114.092 170.952 117.571 174.289 119.478C174.289 119.478 172.239 121.051 174.909 122.481C174.909 122.481 177.293 120.431 175.529 112.471L176.196 112.662Z" fill="#009D57"/>
<path d="M134.24 168.097C134.24 168.097 136.624 172.863 134.574 172.72C134.574 172.72 139.962 178.917 135.194 178.774C135.194 178.774 135.528 186.067 131.713 183.54C131.713 183.54 132.524 186.877 129.187 186.877C129.187 186.877 132.047 183.683 130.951 180.204C130.951 180.204 134.288 177.344 132.858 172.101C132.81 172.053 134.431 171.433 134.24 168.097Z" fill="#009D57"/>
<path d="M131.57 167.62C131.57 167.62 133.144 170.623 130.617 171.577C130.617 171.577 133.954 177.63 129.329 179.537C129.329 179.537 130.283 184.923 128.233 185.733C128.233 185.733 128.376 189.213 125.706 189.213C125.706 189.213 123.179 183.016 125.372 181.11C125.372 181.11 129.806 180.776 127.899 173.007C127.899 173.007 128.042 168.097 130.426 165.714L131.57 167.62Z" fill="#009D57"/>
<path d="M57.3374 159.85L57.1944 161.042L56.5269 161.09L56.2884 155.275C56.05 150.317 60.1027 148.315 63.5353 148.125C66.9681 147.982 71.1638 149.65 71.4021 154.607L71.6405 160.422L70.973 160.47L70.7346 159.278L57.3374 159.85ZM70.5915 156.657C70.6868 156.371 70.7346 155.799 70.6868 155.036C70.5915 152.558 69.1613 150.746 63.6307 150.984C58.1002 151.223 56.8607 153.129 56.9558 155.608C57.0036 156.323 57.099 156.895 57.1944 157.181L70.5915 156.657Z" fill="white"/>
<path d="M72.6416 136.78C72.4033 137.162 72.1649 137.876 72.0695 138.735L71.1161 146.981L70.4486 146.885L70.4008 145.694L57.0989 144.168L56.813 145.312L56.1455 145.217L57.0989 137.114C57.1943 136.256 57.1943 135.493 57.0038 135.064L61.4854 134.588L61.5806 135.398C58.9584 136.256 57.8142 137.257 57.4327 140.403C57.3851 140.784 57.3851 141.118 57.4805 141.499L63.2493 142.166L63.3446 141.308C63.5354 139.831 62.9155 139.211 61.1992 138.687L61.2946 138.019L66.7775 138.639L66.6821 139.306C64.918 139.45 64.1553 139.926 64.0121 141.404L63.9167 142.262L70.7824 143.072C70.9731 142.738 71.0207 142.357 71.0683 141.976C71.4498 138.877 70.2103 137.352 67.7311 135.875L68.017 135.112L72.6416 136.78Z" fill="white"/>
<path d="M59.2443 129.726L58.7676 130.822L58.1001 130.631L59.578 125.197C60.3887 122.337 62.105 119.716 64.8703 120.479C68.3029 121.432 68.1124 124.959 67.2541 128.105L66.9682 129.106L72.8323 130.727L73.309 129.63L73.9765 129.821L72.6416 134.635L71.9741 134.445L72.1173 133.253L59.2443 129.726ZM66.1575 128.915C66.3007 128.677 66.4912 128.296 66.6344 127.914C67.2065 125.865 66.6344 123.958 64.2982 123.338C62.3434 122.814 60.8176 123.529 60.1979 125.769C60.055 126.246 60.0072 126.77 60.0072 127.247L66.1575 128.915Z" fill="white"/>
<path d="M74.8828 125.817L74.2631 125.531C74.406 124.292 74.1677 123.672 73.214 122.862L64.394 115.14H63.0112L64.0125 112.423L79.0784 113.758L79.7935 112.757L80.4134 113.043L78.3634 117.762L77.7435 117.476L77.9818 116.284L73.9293 115.903L71.8793 120.622L73.5002 122.052C73.7864 122.29 73.9769 122.433 74.3107 122.576C75.0259 122.862 75.4551 122.195 75.9318 121.622L76.5515 121.909L74.8828 125.817ZM72.9757 115.76L65.5858 115.045V115.092L71.164 119.954L72.9757 115.76Z" fill="white"/>
<path d="M69.1142 104.272L68.3037 105.178L67.7314 104.797L70.6875 100.173C72.2133 97.7898 74.4541 95.4064 77.3146 97.2655C78.8879 98.2663 79.0787 100.459 78.3636 102.032L85.9919 102.699L86.8023 101.794L87.3744 102.175L85.372 105.273L76.9808 104.511L76.1704 105.75L81.7486 109.325L82.5591 108.419L83.1312 108.801L80.4136 112.995L79.8415 112.614L80.3183 111.518L69.1142 104.272ZM75.6459 105.369L76.1704 104.558C77.6961 102.175 77.3624 100.697 75.5983 99.6011C73.6912 98.3617 72.1179 99.2673 71.1167 100.793C70.8783 101.126 70.6875 101.603 70.4492 102.032L75.6459 105.369Z" fill="white"/>
<path d="M81.9861 85.6351C82.5582 84.9678 82.9873 84.3481 83.0827 83.9192L87.1352 86.2548L86.8014 86.8745C84.7514 86.1594 82.749 85.8259 81.1278 87.6371L91.2831 96.5983L92.1889 95.8357L92.7134 96.3124L89.376 100.078L88.8517 99.6012L89.5192 98.6004L79.364 89.6392C77.7428 91.4504 78.3627 93.4047 79.3162 95.3589L78.7441 95.7403L75.9312 91.9747C76.3603 91.8318 76.9324 91.3551 77.5045 90.6878L81.9861 85.6351Z" fill="white"/>
<path d="M94.9074 93.595L94.4783 93.0707C95.0504 92.165 95.4317 91.5931 94.4783 90.3538L87.6127 81.1542L86.5639 81.7739L86.1348 81.2496L89.2338 78.8186L96.9097 83.3468L94.24 74.8148L97.2912 72.3838L97.7203 72.9081L96.9097 73.7661L105.587 83.9665L106.636 83.3468L107.065 83.8713L103.108 87.0172L102.679 86.4929L103.489 85.6348L95.7179 76.4831L95.6701 76.5306L98.817 86.7788L98.3878 87.1125L89.2338 81.6785L89.186 81.7263L95.3364 89.8295C96.147 90.8781 96.9575 90.9259 97.9109 90.2584L98.34 90.7827L94.9074 93.595Z" fill="white"/>
<path d="M117.267 78.9138C116.838 78.9138 116.123 79.1522 115.36 79.5811L108.018 83.4898L107.684 82.8701L108.638 82.155L102.297 70.3339L101.153 70.7631L100.819 70.1434L108.018 66.2825C108.781 65.8533 109.401 65.4244 109.639 65.0431L112.595 68.4273L111.975 68.9516C109.782 67.2833 108.304 66.902 105.491 68.3797C105.157 68.5703 104.871 68.761 104.585 69.047L107.303 74.1473L108.066 73.7183C109.401 73.0033 109.544 72.1452 109.019 70.4769L109.639 70.1434L112.261 75.0053L111.641 75.3388C110.497 73.9565 109.734 73.623 108.399 74.3378L107.637 74.7669L110.926 80.868C111.308 80.8205 111.641 80.6775 111.975 80.4867C114.74 79.0092 115.265 77.1025 115.074 74.2426L115.837 74.0043L117.267 78.9138Z" fill="white"/>
<path d="M127.613 70.1432L124.943 62.0877C124.562 60.9437 123.942 60.8961 122.845 61.0869L122.607 60.4194L126.66 59.0372L126.898 59.7045C125.944 60.181 125.563 60.9915 125.897 61.9925L129.997 74.1949L129.043 74.5287L117.363 65.4243H117.315L120.366 74.4333C120.748 75.5295 121.701 75.8156 122.702 75.5773L122.941 76.2445L118.555 77.7221L118.316 77.0548C119.222 76.6259 119.794 75.6724 119.413 74.4809L116.361 65.4243C115.932 64.1851 114.931 63.8038 113.93 63.9943L113.691 63.3271L117.458 62.0401L127.613 70.1432Z" fill="white"/>
<path d="M138.293 57.0353C139.151 56.8923 139.866 56.654 140.2 56.368L141.869 60.7533L141.201 61.0392C140.057 59.1803 138.722 57.655 136.338 58.0363L138.531 71.4303H139.723L139.818 72.0978L134.955 72.9081L134.86 72.2408L136.004 71.8595L133.811 58.4653C131.38 58.8466 130.664 60.7533 130.14 62.8505L129.425 62.8029L129.568 58.1315C129.997 58.2747 130.76 58.2747 131.618 58.1315L138.293 57.0353Z" fill="white"/>
<path d="M148.926 63.6608C149.116 60.0383 152.024 55.939 155.743 56.1296C159.796 56.3679 161.894 60.1337 161.655 64.3759C161.465 67.9984 158.556 72.0977 154.837 71.9071C150.785 71.6688 148.687 67.8555 148.926 63.6608ZM158.795 64.1851C159.081 58.8943 157.841 57.083 155.648 56.9876C153.788 56.8922 152.024 58.8467 151.738 63.8038C151.452 69.0948 152.692 70.9061 154.885 71.0015C156.745 71.1445 158.508 69.1424 158.795 64.1851Z" fill="white"/>
<path d="M161.75 72.0978L161.893 71.4305L163.085 71.5259L165.851 58.4176L164.706 57.9887L164.85 57.3214L172.525 58.9419C173.384 59.1327 174.147 59.1803 174.576 59.0373L174.766 63.8038H173.908C173.098 61.1823 172.382 59.6094 169.522 58.9897C169.14 58.8943 168.807 58.8943 168.425 58.9419L167.186 64.8049L168.425 65.0432C169.808 65.3292 170.475 64.4235 170.904 63.232L171.572 63.3749L170.428 68.7136L169.76 68.5706C169.855 67.0929 169.665 65.9965 168.235 65.7105L166.995 65.4721L165.612 72.0502L166.757 72.4791L166.613 73.1464L161.75 72.0978Z" fill="white"/>
<path d="M186.352 80.2963C186.066 79.9628 185.446 79.5337 184.636 79.2001L177.007 75.8635L177.293 75.2439L178.438 75.5774L183.825 63.3274L182.824 62.7077L183.11 62.088L190.595 65.377C191.406 65.7106 192.121 65.9489 192.55 65.9013L191.692 70.3341L190.881 70.1912C190.834 67.4742 190.214 66.0443 187.306 64.7573C186.972 64.6144 186.638 64.519 186.209 64.4714L183.873 69.7622L184.683 70.096C186.066 70.7155 186.829 70.2865 187.83 68.8566L188.45 69.1425L186.304 74.0523L185.685 73.7661C186.066 72.0502 185.828 71.1922 184.493 70.5725L183.682 70.239L180.869 76.5784C181.155 76.8644 181.489 77.0551 181.823 77.1981C184.683 78.4851 186.495 77.7224 188.64 75.8158L189.308 76.2925L186.352 80.2963Z" fill="white"/>
<path d="M196.888 69.3809L195.982 68.5706L196.363 67.9985L201.226 71.1446C205.374 73.8615 204.659 78.2943 202.8 81.202C200.94 84.0621 197.126 86.5406 192.978 83.8237L188.115 80.6777L188.497 80.1058L189.593 80.6301L196.888 69.3809ZM191.786 82.06C191.977 82.2984 192.406 82.6797 193.026 83.061C195.124 84.3956 197.412 84.3002 200.416 79.6766C203.42 75.0531 202.609 72.9081 200.511 71.5259C199.891 71.1446 199.367 70.8584 199.081 70.8108L191.786 82.06Z" fill="white"/>
<path d="M212.955 80.058L212.479 80.5823L211.477 79.915L204.612 87.3985C203.277 88.8762 203.515 91.1164 204.755 92.2604C206.233 93.6427 208.283 93.7857 209.856 92.0696L215.53 85.8731C216.341 85.0151 216.102 84.0619 215.434 83.2992L215.912 82.7749L219.344 85.9207L218.868 86.4452C218.057 85.8255 217.056 85.6826 216.292 86.5404L211.001 92.308C209.236 94.2624 206.757 95.311 203.754 92.5941C201.37 90.4013 200.464 88.0657 202.705 85.6348L209.57 78.1513L208.808 77.1979L209.284 76.6736L212.955 80.058Z" fill="white"/>
<path d="M219.105 103.224C216.578 104.129 213.813 103.748 212.192 101.698C209.761 98.6952 211.048 94.7867 214.242 92.2603C217.15 89.9248 222.013 88.7332 224.542 91.9268C224.922 92.4033 225.161 92.8324 225.351 93.309C225.543 93.7857 225.733 94.167 225.923 94.4054C226.162 94.6913 226.687 95.0726 227.258 95.3586L224.254 99.1243L223.588 98.6C224.446 96.6933 225.257 94.2624 223.968 92.6417C222.299 90.592 219.248 91.6406 217.246 93.2614C214.624 95.3586 212.193 98.9335 214.242 101.507C215.338 102.842 217.246 103.128 218.868 102.556L219.105 103.224Z" fill="white"/>
<path d="M215.53 105.083L216.149 104.749C217.056 105.607 217.724 105.75 218.915 105.512L230.406 103.081L231.264 101.984L232.836 104.463L222.73 115.712L223.11 116.856L222.491 117.19L219.915 112.709L220.536 112.376L221.347 113.281L224.064 110.278L221.49 105.798L219.393 106.274C219.011 106.37 218.772 106.465 218.486 106.608C217.818 106.989 218.104 107.704 218.247 108.467L217.628 108.801L215.53 105.083ZM224.685 109.611L229.691 104.129V104.082L222.444 105.655L224.685 109.611Z" fill="white"/>
<path d="M239.607 119.954C239.893 120.764 240.275 121.432 240.608 121.718L236.652 124.244L236.223 123.672C237.796 122.147 239.035 120.574 238.178 118.286L225.494 123.148L225.78 124.339L225.114 124.578L223.302 119.906L223.968 119.668L224.542 120.717L237.224 115.855C236.366 113.567 234.362 113.233 232.169 113.138L232.075 112.423L236.699 111.66C236.652 112.089 236.795 112.852 237.128 113.662L239.607 119.954Z" fill="white"/>
<path d="M226.448 128.63L227.116 128.439L227.592 129.535L240.561 126.246L240.418 125.055L241.084 124.864L242.324 129.726L241.656 129.917L241.18 128.82L228.212 132.109L228.355 133.301L227.688 133.492L226.448 128.63Z" fill="white"/>
<path d="M235.648 133.539C239.225 133.11 243.802 135.255 244.278 138.925C244.756 142.929 241.418 145.694 237.221 146.218C233.647 146.647 229.069 144.502 228.592 140.832C228.069 136.828 231.453 134.063 235.648 133.539ZM236.841 143.358C242.133 142.691 243.659 141.165 243.373 139.021C243.134 137.161 240.893 135.779 235.983 136.399C230.689 137.066 229.165 138.591 229.451 140.736C229.641 142.548 231.929 143.978 236.841 143.358Z" fill="white"/>
<path d="M233.551 158.469L242.038 158.898C243.23 158.945 243.516 158.373 243.706 157.325L244.374 157.372L244.184 161.662L243.516 161.567C243.42 160.471 242.752 159.851 241.752 159.803L228.88 159.231L228.927 158.23L241.656 150.651V150.604L232.168 150.175C231.024 150.127 230.406 150.937 230.263 151.938L229.546 151.891L229.738 147.267L230.406 147.315C230.453 148.316 231.12 149.174 232.407 149.221L241.942 149.65C243.23 149.698 243.992 148.935 244.135 147.887L244.85 147.934L244.66 151.891L233.551 158.469Z" fill="white"/>
<path d="M80.3174 192.12L79.9361 192.359L79.4116 191.739L73.5472 195.314C72.403 196.029 72.1647 197.554 72.7368 198.508C73.452 199.699 74.7392 200.128 76.0742 199.366L80.9373 196.41C81.6046 195.981 81.6524 195.314 81.3662 194.694L81.7478 194.456L83.3687 197.125L82.9874 197.364C82.5582 196.839 81.9383 196.553 81.2709 196.935L76.7416 199.699C75.2159 200.653 73.452 200.891 72.0217 198.508C70.8773 196.649 70.7343 194.933 72.6414 193.789L78.5057 190.214L78.172 189.451L78.5533 189.213L80.3174 192.12Z" fill="white"/>
<path d="M82.0815 207.278L86.6109 203.751C87.2783 203.226 87.1354 202.845 86.7538 202.178L87.1354 201.892L88.8995 204.18L88.5179 204.466C87.9934 203.941 87.3737 203.941 86.8492 204.37L79.9838 209.757L79.5547 209.232L82.7489 199.747L77.6952 203.703C77.0755 204.18 77.1231 204.847 77.4569 205.467L77.0755 205.753L75.1685 203.274L75.5498 202.988C76.0265 203.465 76.7418 203.608 77.4093 203.083L82.5106 199.127C83.1781 198.603 83.2259 197.84 82.8921 197.268L83.2734 196.982L84.9422 199.079L82.0815 207.278Z" fill="white"/>
<path d="M81.8911 211.473L82.2249 211.139L82.8445 211.663L89.5194 205.562L89.0427 204.895L89.3764 204.561L91.6648 207.04L91.3311 207.374L90.7114 206.849L84.0841 212.998L84.5611 213.665L84.2273 213.998L81.8911 211.473Z" fill="white"/>
<path d="M96.6708 211.854C97.1 212.235 97.5291 212.569 97.815 212.617L96.1941 215.334L95.765 215.095C96.2895 213.712 96.5279 212.378 95.3359 211.234L89.0902 217.955L89.6147 218.576L89.2809 218.908L86.8018 216.621L87.1355 216.288L87.803 216.764L94.0485 210.043C92.8567 208.899 91.5217 209.28 90.1868 209.9L89.9006 209.519L92.4752 207.707C92.5705 207.993 92.9043 208.375 93.3334 208.803L96.6708 211.854Z" fill="white"/>
<path d="M97.5288 225.82C97.3858 225.534 97.0521 225.201 96.5754 224.819L92.0938 221.435L92.3797 221.053L93.095 221.435L98.53 214.19L97.9579 213.618L98.2441 213.236L102.63 216.574C103.107 216.907 103.536 217.193 103.87 217.193L102.63 219.956L102.106 219.719C102.487 217.908 102.344 216.907 100.628 215.571C100.437 215.428 100.199 215.285 99.9604 215.238L97.6242 218.384L98.1011 218.719C98.9116 219.337 99.4837 219.194 100.39 218.384L100.771 218.67L98.53 221.674L98.1487 221.388C98.6732 220.338 98.6732 219.719 97.8625 219.098L97.3858 218.766L94.5729 222.483C94.7159 222.722 94.9067 222.865 95.0974 223.008C96.7661 224.295 98.1011 224.056 99.8174 223.151L100.199 223.58L97.5288 225.82Z" fill="white"/>
<path d="M105.205 219.148L104.585 218.623L104.824 218.241L108.209 220.244C111.069 221.96 110.736 225.01 109.544 227.011C108.352 229.015 105.825 230.73 102.964 229.015L99.5791 227.011L99.8175 226.631L100.58 226.964L105.205 219.148ZM102.106 227.822C102.249 228.012 102.535 228.204 102.964 228.49C104.394 229.348 105.968 229.205 107.875 226.01C109.782 222.818 109.21 221.388 107.732 220.53C107.303 220.291 106.969 220.101 106.731 220.052L102.106 227.822Z" fill="white"/>
<path d="M120.461 229.395L119.937 229.301C119.889 228.108 119.699 226.392 118.364 225.82C117.41 225.391 116.552 225.724 116.218 226.535C115.122 229.205 120.652 230.062 119.126 233.733C118.411 235.352 116.599 235.973 114.979 235.305C113.977 234.877 113.405 234.162 112.976 233.972C112.69 233.876 112.356 233.829 112.022 233.829L112.738 230.73L113.262 230.873C113.31 232.446 113.787 234.162 115.312 234.781C116.218 235.162 117.315 234.781 117.696 233.876C118.745 231.349 113.357 230.348 114.931 226.582C115.455 225.344 116.981 224.533 118.554 225.201C118.936 225.391 119.222 225.534 119.46 225.724C119.699 225.916 119.889 226.059 120.128 226.202C120.414 226.296 120.795 226.392 121.176 226.296L120.461 229.395Z" fill="white"/>
<path d="M128.376 229.013C128.949 229.205 129.425 229.252 129.759 229.205L129.473 232.35L128.996 232.303C128.853 230.825 128.519 229.491 126.946 229.013L124.229 237.785L124.944 238.118L124.801 238.547L121.559 237.546L121.702 237.117L122.512 237.26L125.23 228.49C123.656 228.012 122.655 228.919 121.702 230.016L121.272 229.777L122.798 227.011C122.989 227.25 123.466 227.44 124.038 227.632L128.376 229.013Z" fill="white"/>
<path d="M126.851 239.311L126.946 238.833C127.804 238.737 128.186 238.5 128.567 237.785L132.476 230.92L132.286 230.016L134.24 230.302L135.385 240.455L136.148 240.788L136.052 241.264L132.619 240.549L132.715 240.073H133.525L133.239 237.356L129.854 236.641L129.139 237.928C128.996 238.165 128.948 238.308 128.901 238.547C128.805 239.023 129.282 239.262 129.711 239.501L129.616 239.977L126.851 239.311ZM133.239 236.688L132.715 231.731H132.667L130.188 236.07L133.239 236.688Z" fill="white"/>
<path d="M143.537 231.731C144.109 231.778 144.634 231.778 144.92 231.684L145.206 234.83L144.729 234.877C144.3 233.447 143.728 232.207 142.107 232.064L141.106 241.169L141.869 241.359L141.821 241.835L138.436 241.455L138.484 240.977L139.294 240.93L140.295 231.827C138.674 231.635 137.816 232.732 137.101 234.019L136.672 233.829L137.673 230.824C137.911 231.016 138.436 231.112 139.008 231.206L143.537 231.731Z" fill="white"/>
<path d="M152.787 242.456C152.549 242.313 152.024 242.217 151.452 242.217L145.826 242.17V241.693L146.637 241.599L146.684 232.54L145.874 232.397V231.921L151.404 231.968C151.977 231.968 152.501 231.921 152.787 231.778L153.454 234.734L152.93 234.83C152.167 233.161 151.404 232.446 149.259 232.397C149.021 232.397 148.782 232.446 148.496 232.493L148.448 236.403H149.021C150.022 236.403 150.403 235.925 150.642 234.781H151.118L151.071 238.5H150.594C150.356 237.307 150.022 236.878 149.021 236.831H148.448L148.401 241.503C148.639 241.599 148.877 241.646 149.164 241.646C151.261 241.646 152.215 240.739 153.025 238.929L153.55 239.072L152.787 242.456Z" fill="white"/>
<path d="M160.892 234.209L160.415 234.401C159.796 233.351 158.842 231.921 157.412 232.064C156.363 232.16 155.743 232.828 155.838 233.733C156.077 236.593 161.417 234.734 161.75 238.786C161.893 240.549 160.558 241.932 158.794 242.075C157.698 242.171 156.887 241.789 156.363 241.836C156.077 241.885 155.743 242.028 155.457 242.171L154.646 239.119L155.171 238.976C155.934 240.312 157.173 241.646 158.842 241.503C159.796 241.407 160.606 240.549 160.511 239.597C160.272 236.832 155.028 238.5 154.694 234.448C154.599 233.114 155.552 231.684 157.269 231.541C157.698 231.492 158.031 231.541 158.317 231.588C158.604 231.635 158.842 231.684 159.128 231.684C159.414 231.635 159.796 231.541 160.082 231.302L160.892 234.209Z" fill="white"/>
<path d="M165.945 235.831C165.373 233.447 166.517 230.206 168.949 229.681C171.619 229.062 173.717 231.112 174.337 233.876C174.909 236.26 173.764 239.501 171.333 240.026C168.663 240.645 166.565 238.594 165.945 235.831ZM172.429 234.305C171.619 230.824 170.475 229.873 169.044 230.206C167.805 230.492 167.042 232.113 167.805 235.355C168.615 238.833 169.759 239.787 171.19 239.454C172.429 239.168 173.192 237.546 172.429 234.305Z" fill="white"/>
<path d="M177.006 238.357L176.863 237.928L177.578 237.546L174.623 228.966L173.812 229.109L173.669 228.68L178.675 226.964C179.247 226.774 179.676 226.535 179.867 226.296L181.631 228.966L181.154 229.252C179.772 228.014 178.818 227.346 176.911 227.965C176.673 228.061 176.434 228.157 176.244 228.3L177.578 232.16L178.389 231.874C179.295 231.541 179.39 230.824 179.2 229.966L179.629 229.824L180.821 233.304L180.392 233.447C179.962 232.542 179.438 231.97 178.532 232.303L177.722 232.589L179.2 236.878L180.01 236.735L180.153 237.164L177.006 238.357Z" fill="white"/>
<path d="M187.447 234.544L187.257 234.115C187.877 233.543 188.02 233.114 187.877 232.256L186.637 224.438L185.922 223.819L187.638 222.818L194.885 230.016L195.696 229.824L195.886 230.253L192.787 231.827L192.597 231.398L193.216 230.873L191.309 228.919L188.21 230.491L188.449 231.921C188.496 232.16 188.544 232.35 188.639 232.542C188.878 233.018 189.402 232.828 189.879 232.732L190.07 233.161L187.447 234.544ZM190.833 228.49L187.304 224.916H187.257L188.067 229.824L190.833 228.49Z" fill="white"/>
<path d="M196.507 229.966L196.268 229.586C196.698 229.014 196.984 228.633 196.411 227.775L192.359 221.196L191.644 221.531L191.405 221.149L193.598 219.67L198.509 223.151L197.222 217.24L199.415 215.81L199.653 216.192L199.034 216.717L204.278 224.104L204.993 223.769L205.232 224.151L202.371 226.059L202.133 225.677L202.753 225.152L198.08 218.526H198.033L199.558 225.63L199.224 225.82L193.36 221.625H193.312L196.984 227.44C197.46 228.204 198.033 228.3 198.7 227.918L198.938 228.3L196.507 229.966Z" fill="white"/>
<path d="M212.144 218.67C211.858 218.719 211.429 219.004 210.952 219.386L206.661 223.008L206.375 222.675L206.9 222.054L201.035 215.142L200.368 215.573L200.082 215.238L204.277 211.664C204.707 211.282 205.088 210.901 205.183 210.615L207.615 212.426L207.281 212.855C205.612 212.093 204.564 211.997 202.943 213.427C202.752 213.569 202.561 213.761 202.466 213.998L204.993 217.003L205.422 216.621C206.185 215.953 206.185 215.381 205.612 214.333L205.946 214.047L208.378 216.907L208.044 217.193C207.091 216.431 206.518 216.335 205.756 217.003L205.327 217.383L208.33 220.959C208.569 220.863 208.807 220.72 208.998 220.577C210.619 219.194 210.714 217.908 210.142 216.002L210.619 215.763L212.144 218.67Z" fill="white"/>
<path d="M207.424 209.614L206.804 210.09L206.471 209.757L209.045 207.087C210.38 205.705 212.144 204.418 213.813 206.039C214.719 206.897 214.577 208.374 213.909 209.328L218.868 210.758L219.487 210.281L219.82 210.615L218.104 212.426L212.621 210.805L211.906 211.52L215.148 214.619L215.767 214.141L216.102 214.476L213.766 216.907L213.431 216.574L213.909 215.906L207.424 209.614ZM211.62 211.139L212.097 210.662C213.431 209.28 213.384 208.279 212.383 207.278C211.286 206.229 210.094 206.611 209.236 207.516C209.045 207.707 208.854 207.993 208.616 208.279L211.62 211.139Z" fill="white"/>
<path d="M220.394 209.757L220.012 209.471L220.44 208.756L213.432 203.036L212.812 203.608L212.431 203.322L214.577 200.7L214.958 200.986L214.527 201.701L221.537 207.421L222.156 206.849L222.538 207.135L220.394 209.757Z" fill="white"/>
<path d="M225.732 197.888C226.829 199.366 227.068 201.225 226.065 202.655C224.589 204.8 221.823 204.752 219.533 203.179C217.436 201.749 215.767 198.841 217.293 196.554C217.532 196.22 217.771 195.981 218.008 195.743C218.296 195.505 218.486 195.314 218.629 195.171C218.772 194.98 218.915 194.551 218.962 194.123L221.966 195.362L221.776 195.886C220.393 195.695 218.629 195.648 217.865 196.792C216.864 198.269 218.153 200.033 219.533 201.034C221.394 202.321 224.16 203.227 225.446 201.368C226.114 200.414 225.875 199.127 225.256 198.174L225.732 197.888Z" fill="white"/>
<path d="M228.355 199.032L227.926 198.793C228.116 197.935 227.973 197.554 227.401 196.934L221.966 191.167L221.012 191.071L221.87 189.308L231.882 191.215L232.407 190.595L232.836 190.833L231.167 193.884L230.739 193.645L230.977 192.835L228.306 192.311L226.637 195.361L227.64 196.41C227.83 196.601 227.926 196.696 228.163 196.791C228.594 197.03 228.927 196.601 229.309 196.267L229.738 196.505L228.355 199.032ZM227.734 192.168L222.824 191.215V191.262L226.257 194.885L227.734 192.168Z" fill="white"/>
</svg>
