<svg width="140" height="79" viewBox="0 0 140 79" fill="none" xmlns="http://www.w3.org/2000/svg">
<rect width="140" height="79" rx="12" fill="#63988E"/>
<rect x="50" y="25" width="40" height="30" fill="white"/>
<path d="M50 25.0449V54.9551C50 57.7783 52.2217 60 55.0449 60H84.9551C86.3369 60 87.6572 59.3389 88.499 58.499C89.4004 57.5977 90 56.4561 90 54.9551V25.0449C90 22.2217 87.7783 20 84.9551 20H55.0449C53.5439 20 52.4023 20.6015 51.501 21.501C50.6592 22.3428 50 23.6631 50 25.0449ZM55.4062 29.0078C55.4062 27.086 56.9687 25.4043 58.8906 25.4043C60.8721 25.4043 62.4941 27.086 62.4941 29.0078C62.4941 30.9893 60.8721 32.5518 58.8906 32.5518C56.9687 32.5518 55.4062 30.9893 55.4062 29.0078ZM65.0752 53.6924V35.375C65.0752 34.9541 65.4961 34.5947 65.7959 34.5947H70.9004C71.6211 34.5947 71.6211 35.4365 71.6211 35.9766C73.0625 34.5351 74.9248 34.1738 76.8467 34.1738C81.5322 34.1738 84.5342 36.3955 84.5342 41.3213V53.6943C84.5342 54.1152 84.1729 54.4746 83.8135 54.4746H78.5283C78.1074 54.4746 77.8076 54.0537 77.8076 53.6943V42.5225C77.8076 40.6602 77.2676 39.6396 75.165 39.6396C72.5225 39.6396 71.8613 41.3809 71.8613 43.7236V53.6943C71.8613 54.1152 71.4404 54.4746 71.0196 54.4746H65.794C65.4942 54.4746 65.0733 54.0537 65.0733 53.6943L65.0752 53.6924ZM55.5254 53.6924V35.375C55.5254 34.9541 55.9463 34.5947 56.2461 34.5947H61.4717C61.9521 34.5947 62.252 34.8945 62.252 35.375V53.6924C62.252 54.1133 61.8906 54.4727 61.4717 54.4727H56.2461C55.8848 54.4727 55.5254 54.0518 55.5254 53.6924Z" fill="black"/>
</svg>
