<svg width="140" height="79" viewBox="0 0 140 79" fill="none" xmlns="http://www.w3.org/2000/svg">
<rect width="140" height="79" rx="12" fill="#63988E"/>
<path d="M50 25.0449V54.9551C50 57.7783 52.2217 60 55.0449 60H84.9551C86.3369 60 87.6572 59.3389 88.499 58.499C89.4004 57.5977 90 56.4561 90 54.9551V25.0449C90 22.2217 87.7783 20 84.9551 20H55.0449C53.5439 20 52.4023 20.6015 51.501 21.501C50.6592 22.3428 50 23.6631 50 25.0449Z" fill="black"/>
<path d="M66.5413 28.816C66.76 34.0493 68.7287 35.5585 71.6454 39.2338C75.3157 43.8828 78.0865 46.4995 80.3347 47.108C83.7011 48.0085 85.5604 45.1607 82.2793 43.7369C78.9978 42.313 73.1644 42.7632 69.762 43.2865C64.2324 44.1749 60.2583 45.757 57.1836 49.2134C54.4858 52.2074 56.8798 54.4467 59.5778 51.8422C62.0448 49.5298 65.3382 43.1405 66.6871 40.1588C68.4858 36.1912 70.5031 32.6619 70.2419 28.0128C69.9807 23.3637 66.3956 24.4589 66.5413 28.816Z" stroke="white" stroke-width="2.26831" stroke-linecap="round" stroke-linejoin="round"/>
</svg>
