<svg width="140" height="79" viewBox="0 0 140 79" fill="none" xmlns="http://www.w3.org/2000/svg">
<rect width="140" height="79" rx="12" fill="#63988E"/>
<path d="M52 26.5404V53.4596C52 56.0005 53.9995 58 56.5404 58H83.4596C84.7032 58 85.8915 57.405 86.6491 56.6491C87.4603 55.8379 88 54.8105 88 53.4596V26.5404C88 23.9995 86.0005 22 83.4596 22H56.5404C55.1895 22 54.1621 22.5414 53.3509 23.3509C52.5933 24.1085 52 25.2968 52 26.5404Z" fill="black"/>
<path d="M66.8872 29.9344C67.084 34.6444 68.8559 36.0027 71.4809 39.3104C74.7841 43.4946 77.2778 45.8496 79.3013 46.3972C82.331 47.2077 84.0043 44.6446 81.0513 43.3632C78.098 42.0817 72.848 42.4869 69.7858 42.9578C64.8091 43.7574 61.2325 45.1813 58.4652 48.292C56.0372 50.9866 58.1919 53.0021 60.62 50.6579C62.8403 48.5768 65.8044 42.8265 67.0184 40.143C68.6373 36.5721 70.4528 33.3957 70.2177 29.2115C69.9826 25.0273 66.756 26.013 66.8872 29.9344Z" stroke="#CFACC3" stroke-width="2.04148" stroke-linecap="round" stroke-linejoin="round"/>
</svg>
