<svg width="32" height="30" viewBox="0 0 32 30" fill="none" xmlns="http://www.w3.org/2000/svg">
<path d="M8.91648 8.34553e-05C1.38452 -0.0359585 -0.292677 11.6133 10.2694 13.3195C8.32849 13.3531 6.62564 13.8288 4.23289 14.9502C-2.23212 17.9798 -0.925144 27.8162 5.66789 26.7509C7.93643 26.3843 9.03715 23.5909 5.72546 22.6459C6.81203 24.5052 3.88537 25.6034 2.96835 22.7676C2.22739 20.4764 4.35954 18.0637 6.42037 17.4304C8.42705 16.8138 10.055 16.7485 11.8463 17.0634C9.43927 19.2138 8.12592 22.1159 9.05827 24.8259C11.9875 33.34 21.7001 30.0074 19.7722 24.404C19.0915 22.4257 17.0479 21.4839 15.2983 23.7663C17.6119 23.2104 18.6176 26.1995 16.495 26.8645C14.761 27.408 12.5334 26.0152 12.1505 24.2686C11.636 21.9208 13.4513 19.4214 15.7547 18.2877C17.2137 20.5087 18.3082 21.3444 21.2299 22.8204C26.8778 25.6733 35.241 20.526 30.6979 15.8801C29.2093 14.3578 27.1074 13.9951 26.2569 16.7042C28.2431 15.4427 30.2537 18.387 28.4857 19.6907C27.0415 20.7556 24.4392 20.8922 22.7987 20.036C20.7725 18.9785 19.2597 17.6627 18.1808 15.8584C21.9356 16.718 26.0486 15.7916 27.5892 13.0114C30.5973 7.58309 27.1256 3.43782 23.6992 3.38081C22.3585 3.35845 21.0245 3.96081 20.0888 5.35872C18.9144 7.11347 19.4431 9.22243 22.4019 9.07117C20.4867 7.71313 22.2769 5.07622 24.1597 6.22404C25.6978 7.16164 25.6397 9.48163 24.8012 11.0765C23.8034 12.9747 20.8159 14.2624 18.5468 12.6248C18.3489 12.2662 18.1808 11.8912 18.0349 11.5044C18.6264 11.0969 19.0135 10.4352 19.0135 9.69129C19.0135 8.57537 18.1416 7.6418 17.017 7.47992C16.3747 4.52034 15.4814 1.66247 11.4349 0.410045C10.5375 0.132258 9.69554 0.00366257 8.91635 2.06989e-05L8.91648 8.34553e-05ZM16.6698 8.62787C17.2924 8.62787 17.7841 9.09717 17.7841 9.69142C17.7841 10.2856 17.2924 10.7549 16.6698 10.7549C16.0472 10.7549 15.5575 10.2856 15.5575 9.69136C15.5575 9.09716 16.0472 8.62787 16.6698 8.62787H16.6698ZM12.3665 9.28717C12.9891 9.28717 13.4809 9.75647 13.4809 10.3507C13.4809 10.9449 12.9891 11.4142 12.3665 11.4142C11.7439 11.4142 11.2521 10.9449 11.2521 10.3507C11.2521 9.75647 11.7439 9.28717 12.3665 9.28717Z" fill="#CFACC3"/>
</svg>
