<svg width="34" height="30" viewBox="0 0 34 30" fill="none" xmlns="http://www.w3.org/2000/svg">
<path d="M33.9463 5.99974C34.6105 3.78492 28.9899 0.242344 23.9005 0.021287C14.0316 -0.376899 1.10969 4.80377 0.0476172 16.1839C-0.749649 25.3068 8.63345 30 15.537 30C22.4844 30 29.0792 24.6422 29.7872 21.7189C30.4953 18.7077 23.4586 19.5494 23.9458 14.7669C24.6538 7.99209 32.9734 9.23199 33.9477 5.99832L33.9463 5.99974ZM23.5025 4.45093C23.5025 5.60297 22.6175 6.48862 21.5115 6.48862C20.3602 6.48862 19.4751 5.60297 19.4751 4.45093C19.4751 3.34423 20.3602 2.45858 21.5115 2.45858C22.6175 2.45858 23.5025 3.34423 23.5025 4.45093ZM18.0151 5.5137C18.0151 6.7536 17.0409 7.72852 15.8471 7.72852C14.6533 7.72852 13.679 6.7536 13.679 5.5137C13.679 4.36165 14.6533 3.38815 15.8471 3.38815C17.0409 3.38815 18.0151 4.36307 18.0151 5.5137ZM12.7487 8.39169C12.7487 9.67552 11.7744 10.6944 10.4914 10.6944C9.25229 10.6944 8.23411 9.67552 8.23411 8.39169C8.23411 7.19572 9.25229 6.22222 10.4914 6.22222C11.7744 6.22222 12.7487 7.19713 12.7487 8.39169ZM8.32333 13.4392C8.32333 14.723 7.26125 15.7858 5.97826 15.7858C4.60605 15.7858 3.54398 14.723 3.54398 13.4392C3.54398 12.0661 4.60605 11.0033 5.97826 11.0033C7.26125 11.0033 8.32333 12.0661 8.32333 13.4392ZM20.4933 21.9413C20.4933 23.6248 19.0772 24.9965 17.351 24.9965C15.6687 24.9965 14.2979 23.6234 14.2979 21.9413C14.2979 20.214 15.6701 18.753 17.351 18.753C19.0772 18.753 20.4933 20.214 20.4933 21.9413Z" fill="#CFACC3"/>
</svg>
