<svg width="102" height="102" viewBox="0 0 102 102" fill="none" xmlns="http://www.w3.org/2000/svg">
<g clip-path="url(#clip0_327_617)">
<path d="M65.3316 80.5722C65.3316 73.291 58.9823 67.3166 51.1392 67.3633C42.5725 67.41 36.5967 73.2443 36.7368 81.4123L65.3316 80.5722Z" fill="#FFD520"/>
<path d="M47.1475 60.4553L48.408 67.5032L49.225 67.4098L48.1979 60.9687" fill="#FFD520"/>
<path d="M62.5068 73.1041L86.76 56.418L86.153 58.7984L62.7169 73.7108L62.5068 73.1041Z" fill="#FFD520"/>
<path d="M60.7329 71.0739L61.9934 69.5803L62.507 70.1871L61.0597 71.4473L60.7329 71.0739Z" fill="#FFD520"/>
<path d="M58.562 69.2536L61.0597 66.0564L61.1064 66.9665L59.0755 69.5803L58.562 69.2536Z" fill="#FFD520"/>
<path d="M82.5352 48.4834L86.6672 44.2827L86.9702 46.3597L83.4462 49.697" fill="#FFD520"/>
<path d="M79.197 40.1287L83.235 34.5278L82.091 32.3574L78.1699 38.5885" fill="#FFD520"/>
<path d="M45.9568 68.1334L44.6963 65.5663L45.2098 64.7495L46.4236 68.0167L45.9568 68.1567" fill="#FFD520"/>
<path d="M43.366 68.0166L43.9496 69.1368L43.4594 69.4168L42.8291 68.6234L43.366 68.0166Z" fill="#FFD520"/>
<path d="M40.8214 69.4636L41.6851 70.7472L41.2416 71.0272L39.8877 69.7903L40.8214 69.4636Z" fill="#FFD520"/>
<path d="M34.6122 69.0669L39.7709 72.6608L39.3507 73.3143L34.0986 69.6737L34.6122 69.0669Z" fill="#FFD520"/>
<path d="M27.4463 64.1894L15.4248 55.8813L15.7283 57.9584L27.9832 66.0564L27.4463 64.1894Z" fill="#FFD520"/>
<path d="M15.7284 44.0728L21.7508 49.9771L20.9338 51.3306L15.2148 46.1498L15.7284 44.0728Z" fill="#FFD520"/>
<path d="M18.7393 34.4343L22.3807 39.1017L23.5245 37.6548L20.1865 32.2639L18.7393 34.4343Z" fill="#FFD520"/>
<path d="M71.6573 29.7903L73.5947 29.4636L75.8823 24.3761L74.1082 22.9292L71.3071 29.3469" fill="#FFD520"/>
<path d="M64.8878 17.4215L62.7169 16.698L61.6665 23.2324L63.5339 23.4425L64.8878 17.4215Z" fill="#FFD520"/>
<path d="M26.5127 24.4694L29.5472 29.9304L31.368 29.4403L29.0104 22.4158L26.5127 24.4694Z" fill="#FFD520"/>
<path d="M39.7944 24.0727L38.3472 17.2116L41.0316 16.2781L41.6618 23.536L39.7944 24.0727Z" fill="#FFD520"/>
<path d="M52.2362 14.6211L52.1428 20.7588L50.2754 21.2722V14.7378L52.2362 14.6211Z" fill="#FFD520"/>
<path d="M58.4688 62.3225L58.8655 63.7694L61.083 59.7554H60.4061L58.7954 62.8125" fill="#FFD520"/>
<path d="M24.3882 36.6515C24.3882 36.4181 24.3415 36.1847 24.3182 35.9513C24.2481 35.4379 25.1818 34.9478 25.9055 35.2512C26.2089 35.3679 26.349 34.6445 26.8625 34.4344C27.2827 34.2477 26.6758 33.3842 27.3294 33.0809C27.5861 32.9642 28.053 33.2209 28.0997 32.8475C28.123 32.7308 27.7962 32.5908 27.7729 32.4508C27.7729 31.7506 27.4227 31.2139 27.3994 30.5838C27.3761 29.907 28.1464 29.977 28.7766 29.9303C28.9167 29.9303 29.0334 29.7436 28.9867 29.5569C29.4769 29.5336 30.2005 29.2536 30.4573 29.7436C30.644 29.2302 30.9942 29.6036 30.8775 29.1602C30.7141 28.4601 30.7841 28.8335 30.6907 28.6935C30.0838 27.8767 30.7141 26.033 31.6711 26.1497C32.5815 26.2664 33.3985 26.4764 33.5619 27.5499C34.0054 26.7565 34.8924 27.3632 35.3826 27.76C35.8495 28.1567 35.7794 28.7401 35.7794 29.3702C35.7794 29.8837 36.0362 29.1369 36.2696 29.1602C36.293 28.4368 36.2463 27.97 36.8532 27.7366C37.3901 27.5266 36.9699 26.6398 37.11 26.2197C37.3434 25.5429 37.5535 25.1929 38.2771 24.8195C38.8373 24.5394 39.2575 24.9828 38.3705 24.7261C39.3742 25.0295 38.7206 24.6328 39.1408 23.956C39.5843 23.2325 40.5647 23.3959 41.4283 23.3492C41.3817 23.5593 41.5451 23.4659 41.7085 23.5126C41.8252 23.5593 42.0586 24.5394 42.1987 24.5394C42.1286 26.1264 41.7551 25.7296 42.8989 25.6363C43.2024 25.6129 43.5759 25.3562 43.4592 25.2396C43.039 24.7961 43.0156 24.3061 43.109 23.746C43.2024 23.2326 43.5992 23.1625 44.0894 23.0225C44.673 22.8592 43.8093 22.229 44.1361 21.9023C44.6496 21.3889 44.8831 20.7121 45.3966 20.2687C45.63 20.0587 46.0502 19.8253 46.377 20.0587C47.1706 20.6188 47.334 21.6456 47.9643 22.1824C48.7346 22.8592 49.0847 21.3656 49.9484 21.0855C50.3452 20.9455 50.7421 20.7821 50.9755 21.1555C51.7458 20.3154 52.8196 20.5954 53.8466 20.7821C54.8971 20.9688 54.01 22.1124 54.1968 22.8825C54.3368 23.4659 54.9904 22.5558 55.3639 23.3026C55.9008 22.9758 56.0642 22.3924 56.6011 22.1357C56.9746 21.949 57.3947 22.4858 57.5815 22.3924C58.3518 22.0657 58.5152 20.7588 59.3088 20.5488C60.616 20.1987 61.3163 21.7156 61.5497 22.9058C61.6431 22.7658 61.8298 22.5791 61.9232 22.7191C62.5301 23.6059 62.9269 23.2792 63.814 23.3726C64.0474 23.3959 64.2341 23.7226 64.4442 23.9327C65.0044 22.7658 66.7085 23.2326 67.1987 23.8627C67.9456 24.8428 67.6422 26.1264 66.7785 26.1964C67.0353 26.4764 66.9419 26.6865 67.152 27.0365C67.2453 26.8965 67.3621 26.7798 67.5721 26.8265C68.1324 26.9198 68.3191 27.5033 68.8093 27.6666C68.9494 26.4764 70.5833 26.0097 71.0969 26.7565C71.4704 27.2932 71.9606 28.5768 71.1436 29.3469C71.1202 29.3702 71.3303 29.6036 71.4937 29.4869C71.6338 29.3936 71.8205 29.2069 71.8672 29.3236C71.9606 29.6269 72.3807 29.2302 72.4974 29.4636C73.2211 28.8802 73.8747 28.8101 74.5283 29.4169C75.1118 29.977 75.7187 31.4473 74.6216 32.0073C74.7617 32.1474 74.9718 32.2641 74.9951 32.4274C75.1118 33.0809 74.5749 33.7343 75.462 33.8276C75.5787 33.851 75.7187 33.5243 75.8821 33.5009C76.7458 33.4076 77.7029 33.5943 77.8896 34.5044C78.0297 35.1579 77.306 35.4613 77.5395 36.1614C77.1193 36.1147 76.8158 36.3481 76.5124 36.5814C76.5357 36.6048 76.5591 36.6048 76.5824 36.6281H24.3882V36.6515Z" fill="black"/>
<path d="M76.5356 36.6515C76.9325 37.0016 77.4227 37.5383 76.8858 38.0517C77.7728 38.4251 79.3367 38.2851 78.9166 39.6153C78.8232 39.8954 79.4535 40.2221 79.4535 40.5488C79.5001 41.7624 80.4339 41.4123 80.9941 42.2058C81.2975 42.6258 81.0874 43.0459 80.9707 43.466C80.714 44.3995 81.7644 45.7064 80.8307 46.5465C81.6477 46.9666 80.9007 48.2501 81.4609 48.2501C82.021 48.2501 82.908 48.5535 83.235 48.9269C83.632 49.3703 83.282 50.4438 82.978 50.7705C82.325 51.5173 82.861 52.2174 82.231 52.9176C82.091 53.0576 81.9511 53.1743 81.8111 53.2676H19.883C19.9063 53.0342 20.2798 52.1008 20.77 51.6107C21.1201 51.2606 20.4198 50.3038 22.1472 49.7904C22.544 49.6737 22.6141 49.5103 22.4973 49.2769C22.2406 48.8102 21.3535 48.8102 21.3535 47.9467C21.3535 48.2968 21.4469 47.9234 21.5169 47.8534C21.6103 47.76 20.8634 47.62 20.5132 47.3866C19.3461 46.6398 19.2294 45.9164 19.5328 45.1463C19.7662 44.5862 20.2798 44.1894 20.91 44.0494C21.4703 43.9327 21.7037 44.2128 22.1472 44.2828C22.3573 44.3295 22.3106 44.0027 22.4273 43.676C22.6374 43.1159 23.361 43.8627 23.8045 43.4426C23.3844 43.0226 22.8708 42.6725 22.6141 42.1824C22.3339 41.6223 22.544 41.4356 23.0342 41.0622C22.4507 40.6655 22.0538 39.7554 22.4273 39.1253C22.7308 38.6118 22.8942 37.9817 23.2676 37.7484C23.6645 37.4917 24.2714 37.585 24.3881 36.9782C24.4114 36.8615 24.4114 36.7449 24.4114 36.6282H76.5356V36.6515Z" fill="black"/>
<path d="M81.7881 53.2441C81.2279 53.6175 80.9011 53.5242 80.5043 54.271C81.648 54.7611 81.7648 56.7914 81.2045 57.6082C80.761 58.285 81.2979 57.7249 81.1578 58.9618C81.0645 59.8719 80.1775 60.5487 79.2438 59.6619C78.917 60.5954 78.7302 61.9023 77.6565 62.229C77.1896 62.369 76.536 62.5557 76.0225 62.1123C75.7657 62.4857 74.9954 62.6957 75.1121 62.8824C75.579 63.7459 75.0654 64.306 74.5285 64.7494C74.1317 65.0761 73.4548 64.446 73.198 64.6794C72.5211 65.3562 71.7508 65.3328 72.0309 66.4063C72.1242 66.8264 72.311 67.3865 72.0309 67.8766C71.7974 68.2966 72.0309 69.0668 71.634 68.9034C71.1438 68.6934 70.3269 69.1835 70.0234 68.9268C69.7199 68.67 69.3931 68.7634 69.1831 68.4133C68.7162 68.6 68.9263 68.32 68.973 68.5067C68.5528 68.5067 68.0159 68.3667 67.6658 68.2266C67.1989 68.0399 67.0355 67.8299 67.0589 67.2698C67.0589 67.1298 66.8721 66.9664 66.6854 67.0831C66.522 67.1765 66.2886 67.3632 66.3119 67.4798C66.4286 68.5067 65.5183 68.7167 65.2148 69.2535C64.7946 70.0003 64.0477 70.7704 63.1607 70.7471C62.297 70.7237 62.297 70.0236 61.8768 69.3702C61.8068 69.2768 61.3866 68.7634 61.3633 68.6934C60.803 66.9431 60.4062 65.8929 61.4566 64.4927C61.5967 64.516 62.1569 63.8392 61.9235 63.5359C61.3399 62.7657 62.3203 61.9256 62.9039 61.2255C63.0439 61.0621 63.0439 60.6187 62.9039 60.4787C61.5267 59.2185 59.1924 59.5452 58.7255 61.2955C58.3054 62.8357 59.4959 64.7261 58.959 66.2196C58.0953 68.6 56.3446 70.3503 55.3409 72.684C54.9674 73.5475 55.5509 74.4577 56.3446 74.9011C56.9748 75.2511 57.8852 75.1111 58.3054 75.6479C59.5192 77.1648 61.41 77.2348 62.6705 78.565C62.9739 78.8918 63.1607 79.4985 63.6042 79.6619C65.775 80.432 67.8292 81.8789 70.2101 81.5989C69.6266 82.672 68.4361 82.952 67.479 83.372C65.1915 84.353 63.0206 85.403 60.4762 86.01C54.8273 87.363 49.5752 87.62 43.903 86.476C39.7246 85.636 36.0365 84.049 32.465 82.019C32.5351 81.9489 32.6051 81.8322 32.6751 81.8322C33.4454 81.8789 34.2624 81.8789 34.916 81.6922C36.9935 81.0621 38.9543 80.0353 40.8684 79.2651C42.3857 78.6584 43.0159 76.5114 43.7396 74.7844C43.973 74.2243 44.4865 73.7809 45.0001 73.3608C47.1476 71.6105 48.5248 69.2301 49.7386 66.8031C50.2522 65.7762 50.4389 64.3527 49.8553 63.1858C48.7349 60.8987 46.2372 59.9419 43.8796 59.2185C43.6929 60.362 44.4165 61.3655 44.3698 62.5324C44.3698 62.7657 45.0234 62.7891 45.0701 63.1625C45.2101 64.0726 45.3035 65.2395 44.2764 65.6362C44.6266 65.8462 44.5332 66.2196 44.4398 66.453C43.7629 68.0633 42.3156 69.2535 40.6116 69.6735C40.1214 69.7902 39.4912 71.1905 38.4641 71.1671C37.9739 71.1671 37.2269 70.5137 37.1102 70.0236C36.9001 69.2768 37.5071 68.6467 36.5967 68.6467C35.9431 68.67 35.0561 68.46 34.5425 69.1835C34.5425 69.2068 34.6593 69.3001 34.7293 69.3702C34.1224 69.6502 33.9356 70.5137 33.282 70.537C32.6051 70.5837 32.0449 70.0236 31.4847 69.6735C31.2279 69.5335 31.6947 68.7867 31.2045 68.5767C30.5509 68.32 30.0841 68.11 29.3838 67.9933C28.9403 67.9233 28.24 67.5499 28.2167 67.0598C28.1466 66.2196 27.7031 65.8696 27.3297 65.1695C27.1896 64.8894 27.3997 64.3993 27.2129 64.2126C26.5127 63.5125 26.2792 62.7891 26.466 61.8789C26.5127 61.7156 26.6994 61.5989 26.8395 61.4588C26.4426 61.0854 26.4193 60.642 25.9524 60.3387C25.2988 61.3422 23.4314 61.5755 22.8712 60.7121C22.381 59.9186 22.0075 58.495 23.5015 58.145C22.8479 57.7716 23.2213 57.2815 22.7778 56.7214C21.6107 55.2511 22.7311 54.8777 22.1943 54.0376C22.1009 53.8742 21.5407 54.3177 21.424 54.411C21.0505 54.7144 20.1635 54.621 20.0001 54.3877C19.7666 54.0376 19.6966 53.7576 19.7666 53.2441H81.7881Z" fill="black"/>
<path d="M92.129 62.4624H93.949V62.4857L92.479 63.5826L93.039 65.3329L93.016 65.3562L91.568 64.2827L90.121 65.3562L90.098 65.3329L90.681 63.5826L89.188 62.4857V62.4624H91.008L91.545 60.7588H91.568L92.129 62.4624Z" fill="white"/>
<path d="M11.0828 62.4624H12.9035V62.4857L11.4329 63.5826L11.9931 65.3329L11.9698 65.3562L10.5226 64.2827L9.0753 65.3562L9.052 65.3329L9.6355 63.5826L8.1416 62.4857V62.4624H9.9623L10.4992 60.7588H10.5226L11.0828 62.4624Z" fill="white"/>
<path d="M85.4898 85.4659C104.542 66.4183 104.542 35.5361 85.4898 16.4885C66.4379 -2.55899 35.5485 -2.55899 16.4965 16.4885C-2.55548 35.5361 -2.55548 66.4183 16.4965 85.4659C35.5485 104.514 66.4379 104.514 85.4898 85.4659Z" stroke="#FFD520" stroke-width="3.00954"/>
<path d="M63.8374 75.5779L83.772 66.1497L83.025 67.9233L63.9541 75.998L63.8374 75.5779Z" fill="#FFD520"/>
<path d="M64.4678 77.865L78.0532 74.9712L76.816 76.3248L64.5845 78.3784L64.4678 77.865Z" fill="#FFD520"/>
<path d="M18.9492 67.2932L19.8829 68.8568L38.1836 75.7413L38.417 74.9945L18.9492 67.2932Z" fill="#FFD520"/>
<path d="M24.1084 75.158L37.6005 77.8884L37.4137 78.5885L25.0654 76.3248L24.1084 75.158Z" fill="#FFD520"/>
<path d="M43.5293 50.397C43.5993 50.467 43.6694 50.5837 43.7394 50.5837C43.8094 50.5837 43.8794 50.467 43.9495 50.397C43.8094 50.397 43.6694 50.397 43.5293 50.397Z" fill="white"/>
<path d="M33.1653 47.2932C33.0952 47.3632 32.9785 47.4332 32.9785 47.5033C32.9785 47.5733 33.0952 47.6433 33.1653 47.7133C33.1653 47.5733 33.1653 47.4332 33.1653 47.2932Z" fill="white"/>
<path d="M64.6778 53.0342C64.9346 52.9875 65.3781 52.7775 65.4948 52.5441C65.5648 52.4041 65.1447 51.844 64.4911 51.3306C63.9542 51.7506 63.0205 53.9677 63.534 53.8276C64.3043 53.5943 64.3043 53.1042 64.6778 53.0342Z" fill="#009D57"/>
<path d="M25.2752 36.0912C25.4853 36.0446 25.5553 36.1846 25.6954 36.2779C25.8588 36.3946 25.9755 36.2313 25.9054 36.1846C25.5786 35.9746 25.3686 35.8345 24.9951 36.0446C23.8046 36.7447 28.9166 39.2884 28.1697 38.6817C28.263 38.355 27.5394 38.0516 27.3293 37.9116C26.0222 37.1414 25.7654 36.3713 25.2752 36.0912Z" fill="#009D57"/>
<path d="M40.3314 57.5148C40.6815 57.3514 41.0316 57.3048 41.4051 57.3748C42.5956 57.6315 43.5293 58.2849 44.6498 58.5883C46.2837 59.0084 47.7543 59.8252 49.1316 60.8753C50.9056 62.2289 51.6759 64.7493 50.7422 66.803C49.7385 69.02 48.6647 70.747 46.844 72.4273C46.2604 72.964 45.3734 73.8742 44.8832 74.4343C44.2763 75.1111 44.0428 76.0445 43.576 76.908C43.506 77.048 43.3893 77.2581 43.3426 77.4448C42.9924 79.0784 41.5452 79.9885 40.168 80.3853" stroke="#FFD520" stroke-width="0.551867"/>
<path d="M44.0664 58.4483C45.2569 58.0282 46.214 58.565 46.8209 58.7984C49.692 59.8252 51.0692 60.8987 51.9796 63.9792C52.3064 65.0761 51.7929 66.593 51.4427 67.4798C51.0692 68.4366 50.2989 69.6268 49.5753 70.4903C48.5015 71.8205 47.3344 72.9174 46.2606 74.1309C45.2336 75.2745 44.6033 76.628 44.4399 76.9547C44.1131 77.6082 43.4362 78.1683 43.1094 78.8217" stroke="#FFD520" stroke-width="0.551867"/>
<path d="M43.436 78.9851C43.9029 78.355 44.1363 78.355 44.5331 78.5884C44.5331 78.5884 45.2334 77.1181 46.2372 78.355C46.2372 78.355 47.5677 77.0248 48.1046 78.7517C48.1046 78.7517 49.4351 77.5849 50.042 80.3153C50.042 80.3153 46.5406 77.2815 43.8095 79.2185L43.436 78.9851Z" fill="#FFD520"/>
<path d="M44.3696 79.4753C44.3696 79.4753 46.0736 77.9817 50.3454 80.8055C50.3454 80.8055 49.6918 81.4122 49.365 80.7121C49.365 80.7121 47.9644 81.6923 47.6843 80.4321C47.6843 80.4321 46.2137 81.0855 45.7468 79.802C45.7468 79.802 45.3033 80.8755 44.3696 79.4753Z" fill="#FFD520"/>
<path d="M49.435 74.1311C49.7618 72.9642 50.0185 72.6842 51.0223 72.6608C52.3528 72.6142 52.4695 74.3645 52.4695 74.3645C52.5162 74.8312 49.2482 74.7612 49.435 74.1311Z" fill="#FFD520"/>
<path d="M49.3182 74.6211C49.3182 74.6211 48.5712 74.9245 48.5012 75.788C48.3845 77.0482 49.1548 77.8883 50.9989 77.8883C52.8196 77.8883 53.2865 76.8848 53.2865 75.9747C53.2865 75.0878 52.5862 74.7611 52.5862 74.7611C52.5862 74.7611 52.0493 74.9478 51.0222 74.9478C50.0185 74.9712 49.3182 74.6211 49.3182 74.6211Z" fill="#FFD520"/>
<path d="M49.6684 74.7144C49.6684 74.7144 49.2249 75.1111 48.4546 75.4145" stroke="black" stroke-width="0.553195"/>
<path d="M50.4389 74.9478C50.4389 74.9478 49.4585 76.0679 48.2681 76.2313" stroke="black" stroke-width="0.553195"/>
<path d="M51.4894 74.9712C51.4894 74.9712 50.369 77.1416 48.6416 77.1882" stroke="black" stroke-width="0.553195"/>
<path d="M52.3528 74.8545C52.3528 74.8545 52.1661 77.4216 49.9019 77.7716" stroke="black" stroke-width="0.553195"/>
<path d="M53.0062 74.9478C53.0062 74.9478 53.5198 76.698 51.5356 77.8649" stroke="black" stroke-width="0.553195"/>
<path d="M52.2827 74.8545C52.2827 74.8545 52.6329 75.2512 53.4032 75.5546" stroke="black" stroke-width="0.553195"/>
<path d="M51.5356 74.9478C51.5356 74.9478 52.2826 76.1146 53.4731 76.278" stroke="black" stroke-width="0.553195"/>
<path d="M50.4854 74.9712C50.4854 74.9712 51.4191 77.0715 53.1231 77.1182" stroke="black" stroke-width="0.553195"/>
<path d="M49.7852 74.8311C49.7852 74.8311 49.9719 77.5148 52.2361 77.8649" stroke="black" stroke-width="0.553195"/>
<path d="M56.438 59.3818C56.6714 61.1321 56.8582 62.229 57.4651 63.8859C57.7218 64.5627 57.7685 65.2161 57.6051 65.9163C57.6051 65.8696 57.6051 65.8229 57.6051 65.7529" stroke="#FFD520" stroke-width="0.551867"/>
<path d="M56.4844 68.1799C55.9942 69.3001 55.7841 69.2534 55.4573 69.8369C54.0801 72.2639 52.9363 74.5277 54.9204 75.5545C56.7178 76.4646 58.2118 77.0481 60.476 78.775C61.6898 79.4051 62.11 80.7354 63.3705 81.2954C63.6506 81.4355 64.9111 81.5522 65.1912 81.5755" stroke="#FFD520" stroke-width="0.551867"/>
<path d="M57.1615 58.9385C56.9514 59.8953 57.3249 60.4554 57.4183 61.1088C57.4416 61.2955 57.535 61.6223 57.5817 61.809C57.7451 62.4624 57.8851 62.8825 58.1419 63.4892C58.3987 64.0493 58.5387 64.6094 58.4454 65.2162C58.352 65.7996 58.2119 66.3597 57.9785 66.8731C57.7918 67.2932 57.4416 67.6433 57.0681 67.9233C56.6713 68.2267 56.0644 67.9933 55.6909 67.6666" stroke="#FFD520" stroke-width="0.551867"/>
<path d="M57.0914 65.6597C57.2314 65.7063 57.3482 65.893 57.3948 66.0564C57.4882 66.3831 57.3248 66.6632 57.1147 66.8965C56.998 67.0132 56.8813 67.1533 56.6946 67.1299C56.5779 67.1299 56.4845 67.0132 56.3911 66.9666" stroke="#FFD520" stroke-width="0.551867"/>
<path d="M57.5817 67.7366C57.465 67.8533 57.3016 68.0166 57.2549 68.18C57.2083 68.3433 56.9748 68.6234 56.9048 68.7401C56.9281 68.6934 56.9515 68.7167 56.9515 68.6934C56.648 69.3235 56.7181 68.9501 56.3679 69.6269C55.9477 70.4904 55.1541 71.4005 55.014 71.9839C54.804 72.8008 54.4538 73.9209 55.0607 74.5977C55.7143 75.3212 56.6714 75.5312 57.535 75.9746C57.7685 76.0913 57.9552 76.3013 58.1653 76.4647C58.7722 76.9781 59.5892 77.3282 60.8497 78.1917C61.62 78.7284 62.3203 79.2185 62.9505 79.8953C63.1606 80.1286 63.3474 80.362 63.6041 80.5254C63.8609 80.6887 64.141 80.8054 64.4445 80.8521C64.4912 80.8521 64.4678 80.8988 64.4445 80.8988C64.8413 80.9454 65.2148 81.0855 65.5883 81.2255C65.775 81.2955 66.0318 81.2488 66.2419 81.2488" stroke="#FFD520" stroke-width="0.551867"/>
<path d="M58.7019 79.0319C58.7019 79.0319 58.6319 77.3516 57.4648 78.4484C57.4648 78.4484 56.7645 76.4181 55.8308 78.145C55.8308 78.145 53.6599 76.6748 53.2631 78.6818C53.2631 78.6818 51.5124 78.2151 51.6758 80.4788C51.6525 80.4554 54.5236 77.2816 58.7019 79.0319Z" fill="#FFD520"/>
<path d="M59.0754 79.4519C59.0754 79.4519 54.9904 77.6316 51.6758 80.9222C51.6758 80.9222 54.2435 81.5523 54.0801 80.152C54.0801 80.152 55.7841 81.3189 55.8775 80.082C55.8775 80.082 56.9279 80.9455 57.5581 79.8486C57.5581 79.8486 60.2425 80.222 59.0754 79.4519Z" fill="#FFD520"/>
<path d="M50.999 82.649C52.5863 85.613 56.6013 83.582 56.6013 83.582L56.2978 83.116C49.6918 85.963 51.1624 78.1449 51.1624 78.1449H50.4855C50.4855 78.1216 50.0887 80.9687 50.999 82.649Z" fill="#FFD520"/>
<path d="M48.9213 74.5044C48.9213 74.5044 48.8045 77.0248 50.4385 78.0517" stroke="black" stroke-width="0.553195"/>
<path d="M24.2251 38.3085C24.2251 38.3085 27.0262 43.4427 29.5239 45.473C29.5239 45.473 29.4539 41.9958 28.4268 43.4427C28.4268 43.4427 29.057 39.4053 27.4931 40.6422C27.4931 40.6422 27.5631 37.0949 26.0925 39.242C26.0925 39.242 25.6257 36.6049 24.2251 38.3085Z" fill="#009D57"/>
<path d="M23.4544 38.3083C23.4544 38.3083 26.2555 42.9758 28.1229 45.0061C28.1229 45.0061 26.559 42.9759 25.0184 44.0727C25.0184 44.0727 22.3806 41.1089 24.0847 40.8055C24.0847 40.8055 22.0072 40.0586 23.4544 38.3083Z" fill="#009D57"/>
<path d="M30.7608 46.3596C30.7608 46.3596 29.0334 39.4518 31.9979 36.908C31.9979 36.908 31.2276 35.8112 30.5974 37.0714C30.5974 37.0714 28.2631 37.7015 29.6637 40.3386C29.6637 40.3386 28.2631 41.7388 29.8271 43.6058C29.8271 43.6058 30.4573 44.9594 30.7608 46.3596Z" fill="#009D57"/>
<path d="M31.2277 45.9396C31.2277 45.9396 29.9906 39.4052 32.4649 37.2349C32.4649 37.2349 33.7021 37.3982 32.6283 39.7319C32.6283 39.7319 34.3323 41.2955 32.3249 42.3691C32.3249 42.3457 33.8655 42.6724 31.2277 45.9396Z" fill="#009D57"/>
<path d="M20.1398 45.3096C20.1398 45.3096 26.2556 47.9467 28.7299 48.1101C28.7299 48.1101 28.8933 46.2431 27.6328 46.2431C27.6328 46.2431 26.5357 43.9094 24.6683 44.6795C24.6683 44.6795 23.1043 42.9759 22.4974 44.6795C22.5208 44.6795 20.1165 43.9561 20.1398 45.3096Z" fill="#009D57"/>
<path d="M20.1168 45.613C20.1168 45.613 21.7041 47.13 27.8198 48.5769C27.8198 48.5769 23.7816 50.7472 24.2484 48.7402C24.2484 48.7402 20.9804 48.9036 22.0775 47.5034C22.0542 47.48 19.3231 46.8499 20.1168 45.613Z" fill="#009D57"/>
<path d="M24.2718 49.977C24.2718 49.977 22.171 50.4905 20.7237 53.6643C20.7237 53.6643 23.5249 50.4671 25.5557 50.2104L26.5594 50.0937C26.5594 50.0937 25.0888 51.0972 26.9095 50.4438C26.9095 50.4438 27.0263 50.2804 27.2597 50.2804C27.4931 50.2804 25.0421 51.2139 24.9721 52.2174C24.9721 52.2174 24.9721 53.0342 23.9917 53.0342C23.9917 53.0342 23.1047 54.0844 21.7742 53.3376C21.7742 53.3376 21.0038 54.4345 20.4436 53.991C20.4436 53.991 19.6266 53.3376 21.0739 51.8907C21.0739 51.8907 21.0739 49.977 23.3381 49.7903C23.3381 49.8137 24.0851 49.4403 24.2718 49.977Z" fill="#009D57"/>
<path d="M24.622 54.0143L23.5015 55.5779C23.5015 55.5779 23.2214 56.0447 23.6182 55.928C23.6182 55.928 27.283 50.9805 29.7573 50.3971C29.7573 50.3971 30.5743 49.8603 30.5043 50.4671C30.5043 50.4671 30.691 51.5173 29.7573 51.2372C29.7573 51.2372 30.4109 53.2209 27.9366 53.3842C27.9366 53.3842 28.7536 55.4846 25.9992 55.3679C25.9992 55.3679 25.3456 56.6048 24.5519 55.8813C24.5519 55.8813 23.3148 57.2349 22.9646 55.928C22.9646 55.928 22.6845 54.2944 23.7816 53.991C23.7816 53.991 24.5286 53.4309 24.6686 53.6876C24.762 53.8743 24.622 54.0143 24.622 54.0143Z" fill="#009D57"/>
<path d="M23.7578 57.0947C23.7578 57.0947 24.0613 57.4448 24.3881 57.6782C24.3881 57.6782 25.0417 57.5148 24.2247 58.4483C24.2247 58.4483 23.4777 59.3351 23.5944 59.7318L23.8279 59.8952C23.8279 59.8952 24.7149 58.3083 25.3451 58.0282C25.3451 58.0282 25.1117 58.565 26.5123 58.6583C26.5123 58.6583 26.5123 59.4751 26.1621 59.7785C26.1621 59.7785 25.7653 59.3818 25.6486 59.7085C25.6486 59.7085 25.1117 60.992 23.4777 60.712C23.4777 60.712 22.3806 59.3118 23.5944 58.6116C23.5944 58.6116 24.178 57.9582 23.7578 57.8649C23.3377 57.7948 23.4077 57.3981 23.4077 57.3981L23.7578 57.0947Z" fill="#009D57"/>
<path d="M26.8391 56.1613C26.8391 56.1613 25.3918 56.1146 25.6019 56.8614L25.952 56.9314C25.952 56.9314 25.3218 57.4449 25.8353 57.9349C25.8353 57.9349 27.1892 58.6817 28.333 57.7716C28.333 57.7716 28.8465 57.0248 28.2863 56.8848C28.2863 56.8848 30.1537 57.8183 30.2704 57.0015C30.2704 57.0015 30.3871 56.5814 30.0837 56.0213C30.0837 56.0213 31.4376 55.3212 31.3209 54.0376C31.3209 54.0376 32.4413 52.2873 32.1845 52.1707C32.1845 52.1707 27.3993 56.558 27.0491 57.4915H26.769C26.769 57.4915 27.1892 56.4414 27.9362 55.9746C27.9362 55.998 26.9558 56.1613 26.8391 56.1613Z" fill="#009D57"/>
<path d="M28.5431 61.0154C29.5235 60.8521 28.6131 63.3492 28.6131 63.3492C28.8932 63.0691 29.2433 63.5825 29.2433 63.5825C29.0566 64.516 28.2396 64.5627 28.2396 64.5627C27.2359 64.2126 27.7261 63.2325 27.7261 63.2325C27.1425 63.0691 27.0958 62.579 27.0958 62.1123C27.0958 62.1123 27.3759 61.3655 27.6094 61.3422C27.6094 61.3422 26.6056 60.5954 26.7223 60.3387C26.7223 60.3387 26.6523 58.8917 27.586 58.8684C27.586 58.8684 29.0333 59.2185 28.4497 61.0854" fill="#009D57"/>
<path d="M37.9972 67.1299C37.9972 67.1299 36.5266 67.83 37.6471 68.5768C37.6471 68.5768 37.0635 70.3971 38.1139 70.2104C38.1139 70.2104 38.2306 70.9105 38.6508 70.7938C38.6508 70.7938 38.7675 70.3738 38.2306 70.1404C38.2306 70.1404 38.5108 69.4403 37.8338 68.6235C37.8338 68.6001 38.5108 67.55 37.9972 67.1299Z" fill="#009D57"/>
<path d="M40.7516 58.5418C40.7516 58.5418 38.464 62.6258 39.7479 63.4426C39.7479 63.4426 39.7012 66.0564 38.1139 65.2629C38.1139 65.2629 37.647 67.1299 36.4799 67.0832C36.4799 67.0832 36.3165 68.2967 35.6162 68.1801C35.6162 68.1801 35.6629 64.2827 40.2847 58.3084C40.2847 58.3084 40.7516 57.865 40.7516 58.5418Z" fill="#009D57"/>
<path d="M38.1838 58.0751C38.1838 58.0751 39.4677 56.9082 39.4677 58.6585C39.4677 58.6585 37.9504 59.9888 37.3668 61.7624C37.3668 61.7624 35.6862 60.6422 36.5965 59.8487C36.5965 59.8487 37.1801 59.312 37.927 59.6154C37.927 59.6154 37.7403 59.0786 37.9737 58.5185C38.1838 57.9818 38.1838 58.0751 38.1838 58.0751Z" fill="#009D57"/>
<path d="M33.3985 59.5918C33.3985 59.5918 32.3014 63.9559 32.885 68.88L32.6983 68.7633C32.6983 68.7633 32.1847 67.7131 32.2314 66.943C32.2314 66.943 32.5349 63.0924 30.9476 64.4226C30.9476 64.4226 31.7646 64.5393 31.5778 65.4028C31.5778 65.4028 31.4144 66.523 30.9476 66.9897C30.9476 66.9897 30.3173 67.9232 31.7179 67.9232C31.7179 67.9232 32.0213 69.9068 33.0484 69.9535C33.0484 69.9535 33.7487 69.6035 33.7487 68.8333C33.7487 68.8333 35.6161 68.1799 34.449 65.6361C34.449 65.6361 36.1997 65.6361 35.4527 64.7026C35.4527 64.7026 33.772 62.1822 34.0521 61.0387C34.0755 61.0154 34.5423 60.5953 33.3985 59.5918Z" fill="#009D57"/>
<path d="M41.802 55.4147C41.802 55.4147 33.2353 51.214 35.8963 54.0144C35.8963 54.0144 35.5929 55.1113 37.2969 54.7845C37.2969 54.8079 35.733 56.3481 41.802 55.4147Z" fill="#009D57"/>
<path d="M34.1923 53.0808C34.1923 53.0808 32.3249 56.0446 33.422 59.1485C33.422 59.1485 34.5191 58.8451 34.0523 57.9116C34.0523 57.9116 36.3866 57.9116 34.3557 55.8813C34.3557 55.8813 35.2894 55.2512 34.5191 54.1777L34.1923 53.0808Z" fill="#009D57"/>
<path d="M32.6281 55.2744C32.6281 55.2744 32.1613 57.9115 32.7915 59.4751C32.7915 59.4751 31.391 60.4086 31.6944 58.845C31.6944 58.845 29.9904 59.0084 31.531 56.978L32.6281 55.2744Z" fill="#009D57"/>
<path d="M30.1537 57.9116C30.1537 57.9116 28.2863 59.3119 29.6869 61.6456C29.6869 61.6456 31.3909 60.8754 30.6206 59.942C30.6206 59.942 31.2275 59.6152 30.1537 57.9116Z" fill="#009D57"/>
<path d="M29.3604 65.0527C29.3604 65.0527 27.9598 65.5195 29.197 66.453C29.197 66.453 29.3604 68.0166 30.4341 67.2231C30.4341 67.2231 29.5004 64.4226 30.901 62.5557H30.1307C30.1307 62.5557 29.3604 64.8894 29.9673 65.9862L29.3604 65.0527Z" fill="#009D57"/>
<path d="M34.8926 50.677C36.5032 51.0737 39.0009 51.9605 40.4481 52.7774C42.7591 54.0842 44.1363 56.0446 44.8599 57.0481" stroke="#FFD520" stroke-width="0.551867"/>
<path d="M34.8926 49.7437C37.1101 50.7005 39.4911 50.9572 41.5452 52.4508C42.8291 53.3843 43.9495 54.3644 44.9533 55.5546C45.3968 56.068 45.5368 56.5581 46.0971 57.5149" stroke="#FFD520" stroke-width="0.551867"/>
<path d="M31.5312 47.0132C31.5312 47.0132 32.3016 49.6503 33.5621 46.5464C33.5621 46.5464 35.8963 47.1766 35.126 44.0494C35.126 44.0494 36.2231 42.8125 37.1568 42.8125C37.1335 42.8125 34.3324 42.2057 31.5312 47.0132Z" fill="#009D57"/>
<path d="M41.1949 48.1101C41.1949 48.1101 41.0316 42.2058 45.7001 43.1392C45.7001 43.1392 40.5647 40.8055 40.2612 47.8067C40.2612 47.8067 38.3938 45.0062 39.9578 44.7028C39.9578 44.7028 40.2612 40.8055 41.9886 42.6725C41.9886 42.6725 43.5526 40.0354 44.9531 42.2058C44.9531 42.2058 47.7542 42.0424 47.4508 43.7693C47.4508 43.7693 47.1473 44.8662 44.3462 44.5395C44.3462 44.5395 46.2136 45.9397 42.6422 46.2431C42.5955 46.2431 43.6693 47.1766 41.1949 48.1101Z" fill="#009D57"/>
<path d="M45.3969 45.7762C45.3969 45.7762 47.8946 45.7762 48.9683 48.2733C50.0654 50.7703 47.4044 45.3094 43.6695 47.0364C43.6695 47.0364 44.6033 47.5031 42.7358 48.6C42.7358 48.6 46.4707 49.5335 45.8404 48.2966C45.8404 48.2966 47.0776 51.5638 48.4781 49.6968C48.4781 49.6968 51.9095 50.6303 50.649 48.2966C50.649 48.2966 52.5164 46.2663 47.8479 45.7995C47.8479 45.7995 48.6182 44.5626 47.381 44.866C47.4044 44.8427 46.9375 45.9395 45.3969 45.7762Z" fill="#009D57"/>
<path d="M36.8999 34.6445C38.8607 35.0646 39.771 37.1416 41.1483 38.4952C42.0119 39.3353 43.1557 39.8021 43.9727 40.6422C44.2062 40.8756 44.0428 40.5255 44.2062 40.8756" stroke="#FFD520" stroke-width="0.551867"/>
<path d="M42.3623 38.3784C43.9029 39.4753 44.8133 39.942 45.3268 41.4823" stroke="#FFD520" stroke-width="0.551867"/>
<path d="M33.6089 39.7554C33.819 39.802 34.0291 39.7787 34.2391 39.9187C36.34 41.249 38.6509 41.2956 41.0085 40.9456C41.5454 40.8756 42.0589 40.9689 42.5725 41.1556" stroke="#FFD520" stroke-width="0.551867"/>
<path d="M35.4761 41.459C36.5265 41.9024 37.2735 42.0891 38.4406 42.0658C39.561 42.0424 40.5414 41.7624 41.4751 41.8557" stroke="#FFD520" stroke-width="0.551867"/>
<path d="M56.3911 35.7878C56.5778 36.3246 57.0214 36.7447 57.2081 37.2814C57.2781 37.4915 57.3948 37.7248 57.4182 37.9582C57.4649 38.2383 57.675 38.4716 57.7917 38.7283C58.0484 39.3118 58.1885 39.9185 58.2118 40.5253C58.2585 42.3923 58.2118 44.586 56.5778 45.8462C55.294 46.8497 54.1269 47.8298 53.2632 49.1601C53.4266 48.7867 53.2398 48.3666 53.3799 47.9932C53.4733 47.7365 53.5433 47.4565 53.6834 47.2231C54.1502 46.5463 54.7338 46.0796 55.4107 45.6128C56.0643 45.1461 56.8113 44.6793 56.928 43.8625" stroke="#FFD520" stroke-width="0.551867"/>
<path d="M51.1856 28.6934C50.9522 29.6268 51.3723 30.4437 51.6058 31.3305C51.8158 32.1706 52.4461 32.684 52.9363 33.4075C53.123 33.6875 53.3565 33.9442 53.6366 34.1776C54.0334 34.5277 54.3835 34.9011 54.7337 35.3211C55.2705 35.9512 55.7607 36.558 56.1109 37.2581C56.2976 37.6315 56.5544 38.0282 56.5544 38.4717" stroke="#FFD520" stroke-width="0.551867"/>
<path d="M54.3136 36.978C53.8934 37.0714 52.4695 37.5848 52.096 37.8415C51.9093 37.9582 51.6992 38.0982 51.4424 38.1449C50.9756 38.2149 50.6488 38.5883 50.322 38.8917C49.4116 39.7085 48.688 40.852 48.688 42.0889C48.688 42.7657 48.8514 43.4891 49.2249 44.0725C49.5283 44.5393 49.7151 45.0294 50.1119 45.4261" stroke="#FFD520" stroke-width="0.553112"/>
<path d="M48.3848 39.522C48.3848 39.662 48.3381 39.732 48.2447 39.8487C48.1747 39.9187 48.2681 40.1054 48.198 40.2221C48.1047 40.4321 47.9879 40.6422 47.9413 40.8522C47.6612 41.8324 47.7779 42.8359 48.2914 43.676C48.6415 44.2361 49.3418 44.4461 49.7853 44.9595" stroke="#FFD520" stroke-width="0.553112"/>
<path d="M68.0625 42.229C67.5256 42.4157 66.8953 42.6257 66.7086 43.1858C66.5685 43.5592 66.4051 43.9093 66.1951 44.2593C65.9616 44.6561 65.7049 45.0061 65.4714 45.3795C65.2847 45.7063 65.1213 46.033 64.9112 46.3364C64.6077 46.7331 64.1409 47.1765 63.7674 47.5032C63.7674 47.5032 63.2772 48.5767 63.2772 48.5534C62.857 50.6537 63.0905 52.6607 61.9934 54.481C61.9 54.6211 61.4798 54.7378 61.083 54.6911C61.2931 54.5044 61.2697 54.481 61.2931 54.4577C61.3865 54.271 61.3631 54.1076 61.4331 53.9443C62.1334 52.6607 62.2968 51.3539 62.2501 49.9536" stroke="#FFD520" stroke-width="0.551867"/>
<path d="M71.6571 52.194C71.0968 52.1707 71.0035 52.6141 70.5133 52.9408C69.4395 53.6176 67.8055 55.7413 66.7318 56.4647C65.0511 57.6316 63.9306 56.9548 62.1099 57.0948C60.8027 57.1882 60.2425 57.3982 58.6318 58.7051C58.5151 58.7984 58.0483 59.3352 58.1417 59.4986C58.3051 59.7319 58.2817 59.7319 58.4218 59.9186C58.6085 59.7553 58.6319 59.8253 58.7953 59.6619C59.6823 58.7984 60.3826 58.5184 61.503 58.1683C62.7635 57.7716 64.3041 58.425 66.2649 57.7483C67.7822 57.2115 69.2761 55.1578 70.4199 54.0143C71.6104 52.8241 73.6879 52.264 74.9951 53.3842" stroke="#FFD520" stroke-width="0.551867"/>
<path d="M63.2772 61.6455C63.2772 61.6455 62.04 62.9757 62.5769 63.3491L62.8804 63.7459C62.8804 63.7459 60.4761 65.9162 61.7132 66.383C61.7132 66.383 61.0129 68.7167 62.2501 68.3199C62.2501 68.3199 61.8533 70.0236 63.0204 69.8835C63.0438 69.8835 62.5769 64.7494 63.2772 61.6455Z" fill="#009D57"/>
<path d="M63.9077 60.6421C63.9077 60.6421 63.4408 66.6398 63.6742 70.2104C63.6742 70.2104 65.0048 69.0435 64.5379 68.4134C64.5379 68.4134 66.5687 68.11 64.9347 65.7763C64.9347 65.7763 66.8722 64.9128 64.4679 63.0458C64.4446 63.0458 65.8451 62.5791 63.9077 60.6421Z" fill="#009D57"/>
<path d="M65.1445 60.782C65.1445 60.782 70.2099 66.3829 71.1436 68.1799C71.1436 68.1799 70.6767 69.0434 69.8131 67.8765C69.8131 67.8765 67.3154 68.4133 68.0157 66.4063C68.0157 66.4063 66.2183 67.4098 65.9849 66.1029C65.9849 66.1029 67.152 65.0994 65.588 63.2324C65.6114 63.2091 66.3117 62.649 65.1445 60.782Z" fill="#009D57"/>
<path d="M64.3745 59.2419C64.3745 59.2419 69.043 62.5091 71.3773 67.6433C71.3773 67.6433 71.8675 67.3866 71.1439 66.1731C71.1439 66.1731 72.381 64.6095 70.4436 63.9094C70.4436 63.9094 70.9805 60.9455 67.8059 61.0389C67.8059 61.0155 68.5062 59.1486 64.3745 59.2419Z" fill="#009D57"/>
<path d="M72.0776 56.348C72.0776 56.348 72.3111 61.4122 73.3148 62.9524C73.9684 63.9792 73.6183 63.0224 73.6183 63.0224C73.6183 63.0224 72.918 58.1216 72.918 55.8579C72.918 55.8579 72.6145 54.5277 72.4511 53.9909C72.3344 53.6175 73.8517 54.9944 73.9217 55.6245C73.9917 56.2546 73.6883 56.2546 73.6883 56.2546C73.6883 56.2546 76.0225 59.1251 74.3886 59.2885C74.3886 59.2885 76.0226 61.5522 74.552 62.1589C74.552 62.1589 74.622 65.1928 73.5482 64.0959C73.0814 63.6292 72.8479 63.0924 72.8479 63.0924C72.8479 63.0924 72.918 64.726 72.0776 64.2593C72.0776 64.2593 70.6771 62.6257 71.4474 60.7587C71.4474 60.7587 69.1365 61.3655 70.9805 57.3281C70.9805 57.3281 69.5099 56.8614 70.5137 55.1578C70.5137 55.1578 71.0506 54.8544 71.3774 54.2243C71.6808 53.6409 72.0776 56.348 72.0776 56.348Z" fill="#009D57"/>
<path d="M74.645 54.9479C74.645 54.9479 77.3761 57.445 77.6796 61.0856L77.913 60.7822C77.913 60.7822 78.3798 57.9117 75.2753 54.8779C75.2753 54.8779 75.7421 53.4776 76.7459 54.6445C76.7459 54.6445 77.2127 55.1112 77.0493 55.8814C77.0493 55.8814 78.8467 56.1147 78.3798 57.8184C78.3798 57.8184 78.6833 61.389 77.6095 61.5523C77.6095 61.5523 76.6058 61.5523 76.7459 60.3855C76.7459 60.3855 75.5087 61.3189 75.9756 59.0552C75.9756 59.0786 75.7421 60.6422 74.645 54.9479Z" fill="#009D57"/>
<path d="M76.5825 53.781C76.5825 53.781 79.547 54.8779 80.4807 58.1451C80.4807 58.1451 80.8776 59.4753 80.0839 59.3119C80.0839 59.3119 78.8468 59.6153 79.3136 56.6748C79.3136 56.6748 78.2165 56.7448 77.9831 55.1112C77.9831 55.1112 77.843 55.7413 76.5825 53.781Z" fill="#009D57"/>
<path d="M78.8467 54.3411C78.8467 54.3411 80.4807 54.1777 80.7141 55.5779L80.4807 56.208C80.4807 56.208 81.1109 55.9046 80.9475 56.8381L80.7841 57.0715L78.8467 54.3411Z" fill="#009D57"/>
<path d="M82.581 50.607C82.418 51.3072 81.5777 52.0773 81.5777 52.0773C82.348 53.2441 78.9399 53.4075 78.9399 53.4075C79.01 55.1111 74.9717 52.404 74.9717 52.404C74.9717 52.404 79.01 53.1741 82.045 50.3737L80.644 50.6771C80.644 50.6771 79.3134 51.8439 76.2789 51.6806C76.2789 51.6806 76.8158 49.7436 78.5431 50.5837C78.5431 50.5837 80.1771 47.5499 81.1808 49.1835C81.1808 49.1835 82.815 48.5534 82.978 49.5802L82.908 50.2103L82.581 50.607Z" fill="#009D57"/>
<path d="M75.509 51.6106C75.509 51.6106 73.7116 51.6806 73.4782 51.6806C73.2448 51.6806 77.9133 50.047 79.3138 45.4496L79.0104 45.2862C79.0104 45.2862 77.213 48.0167 76.2093 48.8568C75.2055 49.6969 75.0421 47.4566 75.8124 47.2232C75.8124 47.2232 75.649 44.7261 76.8162 45.1228C76.8162 45.1228 78.987 41.0855 80.0841 43.0925C80.0841 43.0925 80.7144 44.8895 80.481 45.6596C80.2476 46.4297 79.0804 47.4566 79.0804 47.4566C79.0804 47.4566 79.9441 47.6899 79.0104 48.6934C79.0104 48.6934 78.3101 49.3936 78.3101 49.7903C78.3101 49.8136 76.5127 49.1135 75.509 51.6106Z" fill="#009D57"/>
<path d="M76.4423 42.3456C76.4423 42.3456 76.3722 41.8789 76.3722 43.3491C76.3722 43.3491 77.4693 43.7459 76.0688 44.9127L74.8316 45.9162C74.8316 45.9162 76.0688 46.313 74.5282 47.6199C74.5282 47.6199 75.1584 48.0166 73.1276 49.6502C73.1276 49.6502 72.5907 50.9804 72.5907 51.2838L72.3573 50.3503C72.3573 50.3503 75.4619 44.8194 75.3918 42.9524H74.925C74.925 42.9524 73.5945 46.6164 73.0576 47.4565C73.0576 47.4565 71.4936 46.8264 72.4273 45.5195C72.4273 45.5195 70.2565 43.4192 72.4973 42.5557C72.4973 42.5557 73.0342 42.3923 73.361 43.0224C73.3143 43.0458 75.2751 41.1788 76.4423 42.3456Z" fill="#009D57"/>
<path d="M70.0464 41.1089C70.0464 41.1089 75.0184 38.7752 77.5861 40.4788L77.6561 40.0821C77.6561 40.0821 75.8587 38.9152 72.0539 39.8487C72.0539 39.8487 73.291 37.0482 73.9913 38.5185C73.9913 38.5185 76.559 37.0482 76.1622 38.6819C76.1622 38.6819 78.7999 38.5185 77.8662 39.6854C77.8662 39.6854 79.8036 41.8557 79.0333 41.9491C79.0333 41.9491 76.5357 42.6492 77.0025 41.4123C77.0025 41.4123 75.3685 41.9491 73.6645 41.2489C73.7112 41.2723 73.7112 42.9759 70.0464 41.1089Z" fill="#009D57"/>
<path d="M68.5762 41.8088C68.5762 41.8088 71.5407 46.3129 70.607 50.8403C70.607 50.8403 72.7779 48.2032 71.8441 47.5031C70.9104 46.803 71.6107 47.5031 71.6107 47.5031C71.6107 47.5031 72.241 44.936 70.747 44.936C70.747 44.936 71.3773 41.8322 70.1168 42.6723C70.1401 42.6723 68.5762 42.0422 68.5762 41.8088Z" fill="#009D57"/>
<path d="M68.2724 41.9724C68.2724 41.9724 70.5367 47.1766 69.9764 48.5769C69.9764 48.5769 67.0119 46.4065 69.1128 46.3131C69.1128 46.3131 65.3079 44.1428 68.0157 43.2793C68.039 43.2793 67.2454 41.0389 68.2724 41.9724Z" fill="#009D57"/>
<path d="M65.238 47.4099C65.238 47.4099 67.6422 49.2069 67.2688 53.3142C67.2688 53.3142 65.5648 51.844 66.4985 51.5173C66.4985 51.5173 63.7674 50.3504 65.1679 49.4869C65.1679 49.4869 63.3005 48.5534 64.3976 47.69L65.238 47.4099Z" fill="#009D57"/>
<path d="M66.2418 45.5429C66.2418 45.5429 65.4715 47.2465 66.7087 47.8066L67.3389 47.9699C67.3389 47.9699 66.1718 49.2535 68.5061 50.3737C68.5061 50.3737 67.3389 51.3072 69.1363 52.0773C69.1363 52.0773 69.5332 48.9734 66.4986 45.0061L66.2418 45.5429Z" fill="#009D57"/>
<path d="M66.0784 53.5476C66.0784 53.5476 64.1409 55.3446 62.507 54.9478C60.873 54.5511 66.4052 57.8183 65.9383 54.7145C65.9383 54.7145 67.6423 54.6445 66.0784 53.5476Z" fill="#009D57"/>
<path d="M60.6394 51.1438C60.6394 51.1438 55.9008 48.3434 52.236 53.5476L52.166 53.1508C52.166 53.1508 54.5703 48.25 59.4022 49.9536C59.4022 49.9536 58.2584 47.2465 57.6048 48.7868C57.6048 48.7868 54.5703 47.0832 54.7337 49.1835C54.7337 49.1835 51.6991 48.9501 52.4694 50.9805C52.4694 50.9805 49.9718 52.1473 51.6058 53.4776C51.6058 53.4776 51.1389 55.0411 52.8429 54.1777C52.8429 54.1777 54.7804 55.0411 55.1772 52.9408C55.1772 52.9408 56.9746 53.4776 57.4414 51.8439C57.4414 51.8439 57.5348 52.9408 60.6394 51.1438Z" fill="#009D57"/>
<path d="M46.9141 51.9607C47.0541 52.1007 47.3109 52.8242 47.4743 53.0809C48.1512 54.1311 48.2213 54.3645 48.2679 54.6912C48.2679 54.7378 48.408 54.8079 48.4547 54.8545C49.1083 55.9747 49.8552 56.8849 50.4388 57.375C50.5088 57.445 50.8123 58.0517 50.8356 58.1217C51.0924 58.7519 50.929 58.9152 51.1391 59.5687C51.2791 60.0587 51.8394 60.2921 52.1428 60.7122C52.6564 61.3656 53.0532 61.9491 53.2633 62.7892C53.5434 62.6025 53.4734 62.1824 53.8002 62.0191C53.5667 61.8324 53.4267 61.2256 53.31 61.0389C52.703 60.1521 51.8861 60.0121 51.676 58.9619C51.4425 57.9117 51.5826 57.585 51.2091 56.9082C50.8823 56.3481 50.042 55.9047 49.6218 55.3913C49.4351 55.1579 49.2717 54.9012 49.155 54.6212C48.8982 53.8977 48.5247 53.2209 48.1045 52.5675C47.7311 52.0074 47.3342 51.5173 47.1241 50.8872" stroke="#FFD520" stroke-width="0.551867"/>
<path d="M56.4376 53.7108C56.4376 53.7108 53.1697 55.3444 53.7066 56.2779C53.7066 56.2779 55.1771 55.8112 55.3405 57.6781C55.3405 57.6781 56.2042 56.5113 56.2042 55.5778C56.2042 55.5778 57.208 56.5813 57.8382 54.8077C57.8382 54.8077 60.8027 54.971 59.869 53.3374C59.869 53.3374 61.0362 52.5673 61.0362 51.6338C61.0362 51.6105 59.2388 53.2207 56.4376 53.7108Z" fill="#009D57"/>
<path d="M59.7056 42.2056C59.7056 42.2056 62.5767 38.0049 69.8129 39.8719C69.8129 39.8719 70.8167 40.9687 68.3424 40.8054C68.3424 40.8054 68.8092 41.9722 66.0081 41.2021C66.0081 41.2021 66.2415 42.6723 62.6701 41.2721C62.6701 41.2721 64.0706 41.9722 59.7056 42.2056Z" fill="#009D57"/>
<path d="M61.7368 40.0119C61.7368 40.0119 64.3745 37.9115 69.0431 39.1484C69.0431 39.1484 68.5062 37.6782 67.1757 38.4483C67.1757 38.4483 66.4987 35.7178 64.608 38.6116C64.5613 38.6817 64.3745 38.6817 64.3745 38.6817C64.3745 38.6817 63.044 36.6747 61.7368 40.0119Z" fill="#009D57"/>
<path d="M61.0364 43.2792C61.0364 43.2792 59.3323 46.6397 61.1997 50.3503C61.2698 50.5137 61.4332 50.5137 61.4332 50.5137C61.4332 50.5137 64.0709 45.3095 62.1335 45.7762C62.1335 45.7762 65.6349 42.9758 62.7637 42.509L61.0364 43.2792Z" fill="#009D57"/>
<path d="M59.869 43.746C59.869 43.746 59.0987 46.9432 60.0324 48.7168C60.0324 48.7168 56.6944 47.0832 58.5618 46.2197C58.5385 46.2431 58.1416 41.6456 59.869 43.746Z" fill="#009D57"/>
<path d="M51.5358 46.173C51.5358 46.173 48.4313 43.2092 50.7655 42.9758C50.7655 42.9758 48.5947 39.7086 51.5358 39.7086C51.5358 39.7086 53.5667 36.8381 54.407 38.8451C54.407 38.8451 55.8076 36.9782 56.2044 38.6118C56.2044 38.6118 51.9327 39.8486 51.6059 42.8125C51.6059 42.8125 50.4387 44.3761 51.6059 45.6829L51.5358 46.173Z" fill="#009D57"/>
<path d="M52.7731 41.3423C52.7731 41.3423 54.5705 39.4053 56.3445 39.0085L56.648 40.5721C56.648 40.5721 55.5509 41.2723 55.084 40.6422C55.084 40.6422 53.6835 40.1054 53.6835 41.6457C53.6835 41.6457 53.1466 42.6492 52.2129 42.5791L52.7731 41.3423Z" fill="#009D57"/>
<path d="M52.0728 45.5428C52.0728 45.5428 53.2399 42.9057 56.2044 42.7423V42.2756C56.2044 42.2756 53.2399 42.7423 52.3995 44.2126C52.3995 44.2126 52.3295 42.649 53.7301 42.579C53.7301 42.579 54.1969 40.4086 55.9943 41.4821C55.9943 41.4821 56.3911 41.0154 56.6946 41.1787C56.6946 41.1787 56.928 42.7423 56.2978 43.8158C56.2744 43.8392 55.7376 46.3129 52.0728 45.5428Z" fill="#009D57"/>
<path d="M45.2332 51.1438C45.2332 51.1438 46.8672 51.0738 46.6338 53.2441C46.6338 53.2441 48.3378 54.8077 48.6646 57.5148C48.6646 57.5148 46.1669 55.1811 46.0969 53.2441L45.7001 53.3141C45.7001 53.3141 45.4666 54.8777 46.7972 56.348C46.7972 56.348 43.996 54.2476 44.8597 53.2441C44.8597 53.2441 41.5917 52.8474 42.222 50.9804C42.8522 49.1134 42.0586 50.677 42.0586 50.677L43.6226 50.1403C43.5992 50.1403 44.3695 51.2138 45.2332 51.1438Z" fill="#009D57"/>
<path d="M39.7013 42.7425C39.7013 42.7425 38.6042 43.0459 39.2344 44.2128C39.2344 44.2128 37.367 46.0097 40.1681 49.0436C40.1681 49.0436 35.9665 47.8067 37.297 45.2396C37.297 45.2396 37.7639 44.5395 37.9973 44.6095C37.9973 44.6095 37.0636 42.5791 39.7013 42.7425Z" fill="#009D57"/>
<path d="M37.2267 43.3726C37.2267 43.3726 36.7599 44.0727 37.3901 44.4694C37.3901 44.4694 34.8224 45.7996 37.5535 48.5067C37.5535 48.5067 35.4527 47.9233 34.9858 47.1065L35.5227 46.8731C35.5227 46.8731 36.6198 45.0762 35.9896 44.306C35.9662 44.306 36.5265 43.3726 37.2267 43.3726Z" fill="#009D57"/>
<path d="M38.1606 40.2453C38.4407 40.2453 41.2651 40.4087 41.732 40.1753C41.732 40.1753 40.7983 38.5417 39.2343 38.7751C39.2343 38.7751 39.9113 36.1146 37.2969 37.5382C37.2969 37.5382 36.5966 33.7342 34.9626 35.9746C34.9626 35.9746 34.0289 37.3748 34.7292 38.2383C35.4295 39.1018 36.5966 40.1753 37.0635 40.4087C37.5303 40.642 37.6003 40.2453 38.1606 40.2453Z" fill="#009D57"/>
<path d="M35.0324 34.971C35.0324 34.971 30.5273 34.901 27.1659 36.2079V35.6712C27.1659 35.6712 30.9008 34.3409 32.6982 34.5043C32.6982 34.5043 32.6281 32.474 31.6011 32.4039C31.6011 32.4039 30.7374 32.1006 30.7374 33.5008C30.7374 33.5008 28.94 32.1006 28.7066 34.2009C28.7066 34.2009 27.0726 33.6642 27.306 35.2044C27.306 35.2044 25.1118 36.0446 26.9092 37.1414C26.9092 37.1414 28.0063 37.3748 28.5432 36.6747C28.5432 36.6747 29.7103 38.0749 31.1809 35.8112C31.1809 35.8112 32.6515 36.908 33.7486 35.9745C33.7953 35.9745 34.2621 35.5078 35.0324 34.971Z" fill="#009D57"/>
<path d="M37.8339 31.3073C37.8339 31.3073 38.2307 26.1031 40.4015 24.4695L40.9384 24.3061C40.9384 24.3061 36.6667 30.9106 40.1681 35.2046C40.1681 35.2046 40.5649 33.641 40.0047 32.5675C40.0047 32.5675 41.1719 31.634 40.4716 29.697C40.4716 29.697 42.1756 28.7869 41.0085 27.0599C40.8451 26.8265 40.8451 26.8265 40.8451 26.8265C40.8451 26.8265 42.3156 25.4263 41.0785 23.9561C41.0785 23.9561 39.6079 23.5593 39.3745 24.4928C39.3745 24.4928 38.9076 25.1229 39.141 25.6597C39.141 25.6597 37.1102 24.4928 37.6705 27.9934C37.6938 27.9701 36.0598 28.8102 37.8339 31.3073Z" fill="#009D57"/>
<path d="M37.0634 34.1077C37.0634 34.1077 35.196 33.6176 31.858 27.4099C31.8113 27.3399 31.6946 27.8067 31.6946 27.8067C31.6946 27.8067 33.0952 31.5406 34.7992 33.1042C34.7992 33.1042 33.1652 31.4706 32.8617 31.4706C32.5583 31.4706 31.4612 31.4706 32.5583 30.7005C32.5583 30.7005 30.294 30.6305 31.858 29.3703C31.858 29.3703 30.7609 27.1999 31.4612 26.7332C31.4612 26.7332 33.1652 26.8032 33.3286 28.2034C33.3286 28.2034 34.4957 27.1999 34.7992 27.97C34.7992 27.97 35.4294 29.0669 34.3323 29.6036C34.3323 29.6036 35.4294 29.5336 34.9626 30.7005C34.9626 30.6771 35.266 29.2069 37.0634 34.1077Z" fill="#009D57"/>
<path d="M28.8236 31.0737C28.8236 31.0737 29.6873 31.9372 31.2279 32.0072C31.2279 32.0072 30.9944 30.3736 30.3642 30.7703C30.3642 30.7703 29.5005 29.5334 29.0337 30.3036C29.0337 30.3036 27.3296 30.3036 28.4034 31.7738C28.4034 31.7738 27.8665 32.8707 29.7339 32.3106C29.7339 32.3106 29.8973 32.3806 29.8973 32.3106L28.5668 31.3771L28.8236 31.0737Z" fill="#009D57"/>
<path d="M43.6693 32.8707C43.6693 32.8707 42.4322 34.8077 42.7356 36.768L42.969 36.6046C42.969 36.6046 44.3696 30.9337 47.1007 30.537C47.1007 30.537 48.2678 30.2336 48.5013 30.3736C48.7347 30.537 48.1044 34.8777 47.2641 32.3106C47.2641 32.3106 46.4004 36.2079 45.4667 33.9442C45.4667 33.9442 44.463 37.5148 43.6693 36.1145C43.6693 36.1145 43.3659 38.7517 42.5722 37.5848C42.5722 37.5848 41.4051 36.1145 42.4088 35.1811C42.4322 35.2044 40.9616 34.5743 43.6693 32.8707Z" fill="#009D57"/>
<path d="M47.1008 25.4028C47.1008 25.4028 41.6619 28.7401 41.4985 33.2675C41.4985 33.2675 46.4705 30.3036 43.8328 29.6035C43.8328 29.6035 48.0345 28.5067 46.0037 27.3398C46.0037 27.3398 49.9719 23.2091 45.8403 24.8427C45.8403 24.8427 44.6731 24.1426 43.8095 26.173C43.8095 26.173 41.872 26.243 42.1755 28.5067C42.1755 28.5067 45.28 25.6362 46.6106 25.1695C47.9645 24.7027 47.1008 25.4028 47.1008 25.4028Z" fill="#009D57"/>
<path d="M45.77 40.4787C45.77 40.4787 45.8167 33.2442 51.6757 34.9478C51.8158 34.9945 51.3723 34.9478 51.3723 34.9478L51.7691 34.6444C51.7691 34.6444 49.9717 33.8743 48.2677 34.341C48.2677 34.341 50.4386 31.0738 51.4656 33.1742C51.4656 33.1742 51.5357 33.4776 51.2322 33.8743C51.2322 33.8743 53.4964 33.4776 53.263 35.0412C53.263 35.0412 54.827 35.9746 52.9596 36.0447C52.9596 36.0447 53.0296 37.2815 51.3256 35.8813C51.3256 35.8813 51.3956 37.2815 49.0613 36.1147C49.0613 36.1147 50.3919 36.7448 46.5637 38.9151C46.5637 38.9385 46.0968 39.0785 45.77 40.4787Z" fill="#009D57"/>
<path d="M44.2297 24.7028C44.2297 24.7028 43.366 23.2325 44.7666 23.3725C44.7666 23.3725 44.0663 21.4355 45.2334 21.7389C45.2334 21.7389 45.8637 19.3352 46.704 21.4355L46.8674 22.5324C46.8674 22.5324 47.6377 22.6024 48.268 22.9291C48.268 22.9291 47.2643 22.9991 47.1709 24.096C47.1709 24.096 46.4706 23.7926 46.1671 24.166C46.1671 24.166 45.9337 21.9956 46.2372 21.8323H45.8403C45.8403 21.8323 45.3735 23.8626 45.5369 24.3294C45.5369 24.306 44.6966 24.0026 44.2297 24.7028Z" fill="#009D57"/>
<path d="M47.8711 24.1426C47.8711 24.1426 48.6414 24.306 48.3379 25.3795C48.3379 25.3795 49.9019 22.4156 52.1428 22.1123L52.5396 22.3456C52.5396 22.3456 47.4042 24.516 49.2016 29.7435L49.6685 30.8404C49.6685 30.8404 50.6722 29.3701 50.1353 28.9734C49.5985 28.5767 51.7693 26.4763 50.1353 26.3363C50.1353 26.3363 53.0999 25.7062 51.7693 24.0026C51.7693 24.0026 53.9402 23.0691 53.7068 21.5988C53.7068 21.5988 52.7731 20.8287 52.1428 21.2955C52.1428 21.2955 51.1391 21.4588 50.7422 21.9956C50.7422 21.9956 49.8085 21.2955 49.0382 23.1624C49.0382 23.1391 48.1045 23.3725 47.8711 24.1426Z" fill="#009D57"/>
<path d="M52.9365 31.3773C52.9365 31.3773 52.0728 30.2104 51.606 28.1801C51.606 28.1801 52.4696 26.9432 51.8394 26.5465C51.8394 26.5465 53.9402 25.3796 53.0765 24.2127C53.0765 24.2127 54.944 23.0459 55.3408 24.4461C55.3408 24.4461 56.5079 21.809 57.2782 22.7425C57.2782 22.7425 58.4454 22.6725 57.8151 24.2127C57.8151 24.2127 58.7488 25.3796 56.718 26.3831C56.718 26.3831 58.8188 27.4799 55.014 29.4869C55.014 29.4869 56.1111 30.6538 53.6835 33.1509C53.6835 33.1509 52.9131 28.1801 56.8814 23.746H56.4846C56.5079 23.7693 53.0999 25.8697 52.9365 31.3773Z" fill="#009D57"/>
<path d="M59.3091 38.0749C59.3091 38.0749 59.5426 33.0107 58.3754 30.0702H58.6789C58.6789 30.0702 61.1999 34.0142 59.6826 40.502C59.6826 40.502 62.8806 35.2978 60.8498 35.7645C60.8498 35.7645 63.3474 31.2604 60.5463 32.964C60.5463 32.964 61.55 29.3001 60.0094 30.5603C60.0094 30.5603 58.6089 27.1297 57.9086 28.53C57.9086 28.53 57.4417 28.9967 57.9086 30.0936C57.9086 30.0936 57.1383 29.9302 57.5118 31.2604C57.5118 31.2604 55.2475 30.957 56.8815 33.4308C56.8815 33.4308 57.185 33.9675 57.6518 34.4343C57.6752 34.411 55.6677 35.2044 59.3091 38.0749Z" fill="#009D57"/>
<path d="M58.5389 24.5395C58.5389 24.5395 59.0757 23.3726 58.4688 22.6725C58.4688 22.6725 58.4688 21.809 59.0057 21.809C59.0057 21.809 60.1028 19.8721 60.9432 23.1393C60.9432 23.1393 61.9469 24.1428 61.1766 24.7029C61.1766 24.7029 61.8068 26.4065 60.6397 27.9001C60.6397 27.9001 61.7368 28.2968 60.8731 29.3703C60.8731 29.3703 60.0095 28.5068 59.706 28.2735C59.706 28.2735 60.8731 24.1428 59.9394 22.1358H59.636C59.636 22.1358 60.1728 25.0996 59.1691 27.9701C59.1691 27.9701 58.5389 26.9666 57.7686 27.8067C57.7686 27.8067 58.5389 26.9432 57.7686 26.4065C57.7686 26.4065 59.3092 25.1696 58.5389 24.5395Z" fill="#009D57"/>
<path d="M62.2034 27.7366C62.2034 27.7366 61.5731 25.1695 61.97 25.0995C61.97 25.0995 62.9737 22.9291 64.3743 24.7027C64.3743 24.7027 64.6077 23.7692 65.2379 23.8393C65.8682 23.9093 66.4751 23.6059 66.8019 24.1426C67.1053 24.6794 67.1054 25.8463 66.1716 26.0796C66.1716 26.0796 67.3621 27.0831 64.7011 27.7832C64.7011 27.7832 67.0353 29.1835 62.3668 31.2838C62.3668 31.2838 61.8999 30.8171 61.6665 30.047C61.6665 30.047 64.8644 25.2162 66.1016 24.6794L65.7048 24.446C65.7048 24.4694 64.0708 25.4028 62.2034 27.7366Z" fill="#009D57"/>
<path d="M68.5761 29.2069C68.5761 29.2069 67.8058 26.7098 66.7087 28.8102C66.7087 28.8102 66.3118 29.2069 66.7087 30.1404C66.7087 30.1404 64.4444 29.2069 65.0046 32.0074C65.0046 32.0074 66.5686 33.1742 66.802 33.4076C66.802 33.4076 67.4323 30.6071 67.3389 29.6036H67.6424C67.6424 29.6036 67.9458 33.1742 66.7787 36.2081C66.7787 36.2081 69.7432 33.4776 68.2493 32.4041C68.2493 32.4041 70.3501 30.0704 68.4827 30.0704L68.5761 29.2069Z" fill="#009D57"/>
<path d="M69.2763 28.5068C69.2763 28.5068 69.6731 27.1066 70.28 27.1766C70.9103 27.2466 71.0503 28.0401 70.7469 29.207L70.5134 29.9771H71.0503L69.8832 31.0739C69.8832 31.0739 70.1166 29.7437 69.6498 29.6037L70.1866 28.6702L69.9532 28.4368L69.2529 29.207V28.5068H69.2763Z" fill="#009D57"/>
<path d="M68.3427 36.9082C68.3427 36.9082 67.5724 34.2711 68.973 35.0413C68.973 35.0413 68.6695 30.3038 70.5369 32.2408C70.5369 32.2408 70.9337 29.207 72.4043 30.3738C72.4043 30.3738 74.8086 29.207 73.9683 31.7741C73.9683 31.7741 75.3688 33.9444 72.7311 34.1078C72.7311 34.1078 74.2951 35.9047 71.3306 36.6049C71.3306 36.6049 72.3343 37.9351 70.0934 38.9386C70.0934 38.9386 69.4631 37.375 69.6966 36.9082C69.93 36.4415 71.6107 31.7974 73.5948 30.9106L73.2913 30.6072C73.2913 30.6072 70.2568 33.0109 68.9263 37.5383L68.3427 36.9082Z" fill="#009D57"/>
<path d="M73.7114 35.8113C73.7114 35.8113 73.1745 34.8778 73.7814 34.5744C74.4117 34.271 75.7189 34.6444 75.9523 34.411C75.9523 34.411 78.0532 33.4075 76.4892 35.8813C76.4892 35.8813 75.9523 36.278 75.8589 37.2115C75.8589 37.2115 74.6918 37.3749 72.9878 37.7483C72.9878 37.7483 74.7852 35.1812 75.8589 35.1112L75.5555 34.8778C75.5788 34.8778 73.7814 35.3445 73.7114 35.8113Z" fill="#009D57"/>
<path d="M63.7439 32.6375C63.7439 32.6375 64.911 35.508 63.9773 37.3049C63.9773 37.3049 66.3816 35.9047 65.3779 34.9712C65.3779 34.9712 66.6151 33.501 63.3471 31.774C63.3471 31.774 62.4834 31.4706 62.4134 32.2407C62.4134 32.2407 62.1099 33.3376 62.8102 33.3376C62.8102 33.3376 61.1762 35.0412 62.8102 35.9747C62.8102 35.9747 61.8065 36.7448 63.1137 37.445C63.1137 37.445 64.2808 36.4414 63.4171 32.5441L63.7439 32.6375Z" fill="#009D57"/>
<path d="M43.2024 59.7786C43.2024 59.7786 44.3695 62.1123 43.3657 62.0423C43.3657 62.0423 46.0035 65.0761 43.6692 65.0061C43.6692 65.0061 43.8326 68.5767 41.9652 67.3398C41.9652 67.3398 42.362 68.9734 40.728 68.9734C40.728 68.9734 42.1286 67.4098 41.5917 65.7062C41.5917 65.7062 43.2257 64.306 42.5254 61.7389C42.5021 61.7156 43.2957 61.4122 43.2024 59.7786Z" fill="#009D57"/>
<path d="M41.8952 59.5453C41.8952 59.5453 42.6655 61.0156 41.4283 61.4823C41.4283 61.4823 43.0623 64.4461 40.7981 65.3796C40.7981 65.3796 41.2649 68.0167 40.2612 68.4135C40.2612 68.4135 40.3312 70.1171 39.024 70.1171C39.024 70.1171 37.7869 67.0832 38.8606 66.1497C38.8606 66.1497 41.0315 65.9864 40.0978 62.1824C40.0978 62.1824 40.1678 59.7787 41.3349 58.6118L41.8952 59.5453Z" fill="#009D57"/>
<path d="M5.55074 55.7412L5.48074 56.3246L5.15394 56.3479L5.03714 53.5008C4.92044 51.0737 6.90464 50.0935 8.58524 50.0002C10.2659 49.9302 12.3201 50.747 12.4368 53.1741L12.5535 56.0212L12.2267 56.0445L12.11 55.4611L5.55074 55.7412ZM12.0399 54.1776C12.0866 54.0375 12.11 53.7575 12.0866 53.3841C12.0399 52.1706 11.3397 51.2837 8.63194 51.4004C5.92424 51.5171 5.31734 52.4506 5.36394 53.6641C5.38734 54.0142 5.43404 54.2942 5.48074 54.4343L12.0399 54.1776Z" fill="white"/>
<path d="M13.0438 44.4461C12.9271 44.6328 12.8104 44.9828 12.7637 45.4029L12.2969 49.4402L11.9701 49.3936L11.9467 48.8101L5.43408 48.0633L5.29408 48.6234L4.96729 48.5768L5.43408 44.6094C5.48078 44.1894 5.48079 43.816 5.38749 43.6059L7.58168 43.3726L7.62828 43.7693C6.34448 44.1894 5.78428 44.6794 5.59748 46.2197C5.57418 46.4064 5.57418 46.5698 5.62088 46.7565L8.44528 47.0832L8.49199 46.6631C8.58539 45.9397 8.28189 45.6363 7.44159 45.3796L7.48829 45.0528L10.1727 45.3562L10.126 45.6829C9.26228 45.753 8.88888 45.9863 8.81878 46.7098L8.77209 47.1299L12.1335 47.5266C12.2269 47.3632 12.2502 47.1765 12.2735 46.9898C12.4603 45.4729 11.8534 44.7261 10.6396 44.0027L10.7796 43.6293L13.0438 44.4461Z" fill="white"/>
<path d="M6.48452 40.9921L6.25112 41.5289L5.92432 41.4355L6.64792 38.7751C7.04482 37.3748 7.88512 36.0913 9.23902 36.4647C10.9196 36.9314 10.8263 38.6584 10.4061 40.1986L10.2661 40.6887L13.1372 41.4822L13.3706 40.9454L13.6974 41.0388L13.0438 43.3958L12.717 43.3025L12.7871 42.7191L6.48452 40.9921ZM9.86922 40.5954C9.93932 40.4787 10.0326 40.292 10.1027 40.1053C10.3828 39.1018 10.1027 38.1683 8.95892 37.8649C8.00182 37.6082 7.25482 37.9583 6.95142 39.0551C6.88142 39.2885 6.85802 39.5452 6.85802 39.7786L9.86922 40.5954Z" fill="white"/>
<path d="M14.1409 39.0784L13.8375 38.9384C13.9075 38.3316 13.7908 38.0282 13.3239 37.6315L9.00561 33.851H8.32861L8.81881 32.5208L16.1951 33.1741L16.5452 32.6841L16.8487 32.8241L15.845 35.1344L15.5415 34.9944L15.6582 34.411L13.6741 34.2243L12.6704 36.5348L13.464 37.2349C13.6041 37.3516 13.6974 37.4216 13.8608 37.4916C14.211 37.6316 14.4211 37.3048 14.6545 37.0247L14.9579 37.1649L14.1409 39.0784ZM13.2072 34.1544L9.58911 33.8042V33.8275L12.3202 36.208L13.2072 34.1544Z" fill="white"/>
<path d="M11.3166 28.5301L10.9198 28.9735L10.6396 28.7868L12.0869 26.5231C12.8339 25.3563 13.931 24.1894 15.3315 25.0996C16.1018 25.5896 16.1952 26.6631 15.8451 27.4333L19.5799 27.76L19.9767 27.3166L20.2568 27.5033L19.2764 29.0202L15.1681 28.6468L14.7713 29.2536L17.5024 31.0039L17.8992 30.5605L18.1793 30.7472L16.8488 32.8008L16.5687 32.6141L16.8021 32.0774L11.3166 28.5301ZM14.5145 29.0669L14.7713 28.6701C15.5183 27.5033 15.3549 26.7798 14.4912 26.2431C13.5575 25.6363 12.7872 26.0797 12.297 26.8265C12.1803 26.9899 12.0869 27.2232 11.9702 27.4333L14.5145 29.0669Z" fill="white"/>
<path d="M17.6188 19.4053C17.8989 19.0786 18.109 18.7752 18.1557 18.5652L20.1398 19.7087L19.9764 20.0121C18.9727 19.662 17.9923 19.4987 17.1986 20.3855L22.1706 24.7729L22.6141 24.3995L22.8709 24.6329L21.2369 26.4765L20.9802 26.2431L21.307 25.7531L16.335 21.3657C15.5413 22.2525 15.8448 23.2093 16.3116 24.1661L16.0315 24.3528L14.6543 22.5092C14.8644 22.4392 15.1445 22.2058 15.4246 21.8791L17.6188 19.4053Z" fill="white"/>
<path d="M23.945 23.3025L23.7349 23.0458C24.015 22.6024 24.2017 22.3224 23.7349 21.7156L20.3735 17.2115L19.86 17.5149L19.6499 17.2582L21.1672 16.068L24.9253 18.285L23.6182 14.1077L25.1121 12.9175L25.3222 13.1742L24.9253 13.5943L29.1737 18.5884L29.6873 18.285L29.8973 18.5418L27.9599 20.082L27.7498 19.8253L28.1466 19.4052L24.3418 14.9245L24.3184 14.9478L25.8591 19.9653L25.649 20.1287L21.1672 17.4682L21.1438 17.4916L24.155 21.4589C24.5519 21.9723 24.9487 21.9957 25.4155 21.6689L25.6256 21.9256L23.945 23.3025Z" fill="white"/>
<path d="M34.8926 16.1146C34.6825 16.1146 34.3324 16.2313 33.9589 16.4413L30.3641 18.355L30.2007 18.0516L30.6676 17.7015L27.563 11.9139L27.0028 12.124L26.8394 11.8206L30.3641 9.93029C30.7376 9.72019 31.041 9.51019 31.1577 9.32349L32.605 10.9804L32.3015 11.2371C31.2278 10.4203 30.5042 10.2336 29.1269 10.9571C28.9635 11.0504 28.8235 11.1438 28.6834 11.2838L30.014 13.7809L30.3874 13.5709C31.041 13.2208 31.1111 12.8007 30.8543 11.9839L31.1577 11.8206L32.4416 14.201L32.1381 14.3643C31.5779 13.6875 31.2044 13.5242 30.5508 13.8742L30.1774 14.0843L31.788 17.0714C31.9747 17.0481 32.1381 16.9781 32.3015 16.8847C33.6554 16.1613 33.9122 15.2278 33.8188 13.8276L34.1923 13.7109L34.8926 16.1146Z" fill="white"/>
<path d="M39.9577 11.8206L38.6505 7.87656C38.4637 7.31646 38.1603 7.29316 37.6234 7.38656L37.5067 7.05976L39.4908 6.38306L39.6075 6.70976C39.1407 6.94306 38.9539 7.33986 39.1173 7.82996L41.1248 13.8043L40.6579 13.9677L34.939 9.51016H34.9156L36.4096 13.921C36.5963 14.4577 37.0632 14.5978 37.5534 14.4811L37.6701 14.8078L35.5226 15.5312L35.4058 15.2045C35.8494 14.9945 36.1295 14.5277 35.9427 13.9443L34.4488 9.51016C34.2387 8.90346 33.7485 8.71676 33.2583 8.81006L33.1416 8.48336L34.9857 7.85326L39.9577 11.8206Z" fill="white"/>
<path d="M45.1865 5.40287C45.6066 5.33287 45.9568 5.21617 46.1202 5.07617L46.9372 7.22317L46.6104 7.36317C46.0501 6.45307 45.3965 5.70627 44.2294 5.89297L45.3032 12.4507H45.8867L45.9334 12.7775L43.5525 13.1742L43.5058 12.8475L44.066 12.6608L42.9923 6.10297C41.8018 6.28967 41.4516 7.22317 41.1949 8.24997L40.8447 8.22667L40.9148 5.93957C41.1248 6.00967 41.4983 6.00967 41.9185 5.93957L45.1865 5.40287Z" fill="white"/>
<path d="M50.3923 8.64673C50.4856 6.87313 51.9095 4.86613 53.7303 4.95943C55.7144 5.07613 56.7415 6.91983 56.6248 8.99683C56.5314 10.7704 55.1075 12.7774 53.2867 12.6841C51.3026 12.5674 50.2755 10.7004 50.3923 8.64673ZM55.2242 8.90343C55.3642 6.31303 54.7573 5.42623 53.6836 5.37953C52.7732 5.33283 51.9095 6.28973 51.7695 8.71673C51.6294 11.3072 52.2363 12.194 53.3101 12.2407C54.2205 12.3107 55.0841 11.3305 55.2242 8.90343Z" fill="white"/>
<path d="M56.6714 12.7775L56.7414 12.4508L57.325 12.4975L58.6789 6.07967L58.1186 5.86967L58.1887 5.54297L61.9468 6.33637C62.367 6.42977 62.7405 6.45307 62.9506 6.38307L63.0439 8.71677H62.6238C62.2269 7.43327 61.8768 6.66317 60.4762 6.35977C60.2895 6.31307 60.1261 6.31307 59.9394 6.33637L59.3324 9.20687L59.9394 9.32357C60.6163 9.46357 60.9431 9.02017 61.1532 8.43677L61.48 8.50677L60.9198 11.1206L60.593 11.0506C60.6396 10.3271 60.5463 9.79027 59.846 9.65027L59.2391 9.53357L58.5621 12.7542L59.1224 12.9642L59.0523 13.2909L56.6714 12.7775Z" fill="white"/>
<path d="M68.7163 16.7915C68.5762 16.6282 68.2728 16.4181 67.8759 16.2548L64.1411 14.6212L64.2812 14.3178L64.8414 14.4811L67.4791 8.48351L66.9889 8.18011L67.129 7.87671L70.7938 9.48701C71.1906 9.65031 71.5407 9.76701 71.7508 9.74371L71.3307 11.914L70.9338 11.844C70.9105 10.5138 70.607 9.81371 69.1831 9.18361C69.0197 9.11361 68.8563 9.06691 68.6462 9.04361L67.5025 11.634L67.8993 11.7974C68.5762 12.1007 68.9497 11.8907 69.4399 11.1906L69.7434 11.3306L68.6929 13.7344L68.3895 13.5943C68.5762 12.7542 68.4595 12.3341 67.8059 12.0307L67.4091 11.8674L66.0319 14.9712C66.1719 15.1112 66.3353 15.2046 66.4987 15.2746C67.8993 15.9047 68.7863 15.5313 69.8367 14.5978L70.1635 14.8312L68.7163 16.7915Z" fill="white"/>
<path d="M73.8746 11.4473L73.4311 11.0506L73.6179 10.7705L75.9988 12.3108C78.0296 13.641 77.6795 15.8113 76.7691 17.2349C75.8588 18.6352 73.9914 19.8487 71.9605 18.5185L69.5796 16.9782L69.7663 16.6982L70.3032 16.9549L73.8746 11.4473ZM71.377 17.655C71.4703 17.7717 71.6804 17.9584 71.9839 18.1451C73.011 18.7985 74.1314 18.7518 75.602 16.4881C77.0726 14.2244 76.6758 13.1742 75.6487 12.4975C75.3452 12.3108 75.0885 12.1707 74.9484 12.1474L71.377 17.655Z" fill="white"/>
<path d="M81.7413 16.6748L81.5078 16.9315L81.0176 16.6048L77.6563 20.2687C77.0027 20.9922 77.1194 22.089 77.7263 22.6491C78.45 23.3259 79.4537 23.3959 80.224 22.5557L83.002 19.5219C83.399 19.1018 83.282 18.6351 82.955 18.2617L83.189 18.005L84.869 19.5452L84.636 19.802C84.239 19.4986 83.749 19.4286 83.375 19.8486L80.7842 22.6724C79.9205 23.6293 78.7067 24.1427 77.2361 22.8125C76.069 21.7389 75.6255 20.5954 76.7226 19.4052L80.0839 15.7413L79.7105 15.2745L79.9439 15.0178L81.7413 16.6748Z" fill="white"/>
<path d="M84.752 28.0167C83.515 28.4601 82.161 28.2734 81.3677 27.2699C80.1773 25.7996 80.8075 23.886 82.371 22.6491C83.795 21.5056 86.176 20.9222 87.414 22.4858C87.6 22.7191 87.717 22.9292 87.81 23.1625C87.904 23.3959 87.997 23.5826 88.09 23.6993C88.207 23.8393 88.464 24.026 88.744 24.166L87.273 26.0097L86.947 25.753C87.367 24.8195 87.764 23.6293 87.133 22.8358C86.316 21.8323 84.822 22.3457 83.842 23.1392C82.558 24.166 81.3678 25.9163 82.371 27.1765C82.908 27.83 83.842 27.97 84.636 27.69L84.752 28.0167Z" fill="white"/>
<path d="M83.002 28.9268L83.305 28.7635C83.749 29.1835 84.076 29.2536 84.659 29.1369L90.285 27.9467L90.705 27.4099L91.475 28.6234L86.527 34.131L86.713 34.6911L86.41 34.8545L85.149 32.6608L85.453 32.4974L85.85 32.9408L87.18 31.4706L85.92 29.2769L84.893 29.5103C84.706 29.5569 84.589 29.6036 84.449 29.6736C84.122 29.8603 84.262 30.2104 84.332 30.5838L84.029 30.7471L83.002 28.9268ZM87.484 31.1439L89.935 28.4601V28.4368L86.387 29.2069L87.484 31.1439Z" fill="white"/>
<path d="M94.7901 36.2079C94.9301 36.6046 95.1171 36.9313 95.2801 37.0714L93.3431 38.3082L93.1331 38.0282C93.9031 37.2814 94.5101 36.5113 94.0901 35.3911L87.8801 37.7715L88.0201 38.3549L87.6941 38.4716L86.8071 36.1846L87.1331 36.0679L87.4141 36.5813L93.6231 34.2009C93.2031 33.0807 92.2221 32.9173 91.1481 32.8707L91.1021 32.5206L93.3661 32.1472C93.3431 32.3573 93.4131 32.7306 93.5761 33.1274L94.7901 36.2079Z" fill="white"/>
<path d="M88.3472 40.4555L88.6742 40.3621L88.9072 40.8989L95.2572 39.2886L95.1872 38.7052L95.5132 38.6118L96.1202 40.9922L95.7932 41.0856L95.5602 40.5488L89.2112 42.1591L89.2812 42.7425L88.9542 42.8359L88.3472 40.4555Z" fill="white"/>
<path d="M92.8518 42.8591C94.6028 42.649 96.8438 43.6992 97.0768 45.4962C97.3108 47.4565 95.6768 48.8101 93.6218 49.0668C91.8718 49.2768 89.6308 48.2266 89.3968 46.4297C89.1408 44.4693 90.7978 43.1158 92.8518 42.8591ZM93.4358 47.6665C96.0268 47.3398 96.7738 46.593 96.6338 45.5429C96.5168 44.6327 95.4198 43.9559 93.0158 44.2593C90.4238 44.586 89.6778 45.3328 89.8178 46.383C89.9108 47.2698 91.0308 47.9699 93.4358 47.6665Z" fill="white"/>
<path d="M91.8251 55.0646L95.9801 55.2746C96.5641 55.2979 96.7041 55.0179 96.7971 54.5045L97.1241 54.5278L97.0311 56.6282L96.7041 56.5815C96.6571 56.0447 96.3301 55.7413 95.8401 55.718L89.5381 55.438L89.5611 54.9479L95.7931 51.2373V51.2139L91.1481 51.0039C90.5881 50.9806 90.2851 51.3773 90.2151 51.8674L89.8641 51.844L89.9581 49.5803L90.2851 49.6037C90.3081 50.0937 90.6351 50.5138 91.2651 50.5371L95.9331 50.7472C96.5641 50.7705 96.9371 50.3971 97.0071 49.8837L97.3571 49.907L97.2641 51.844L91.8251 55.0646Z" fill="white"/>
<path d="M16.8017 71.5405L16.615 71.6572L16.3582 71.3538L13.487 73.1041C12.9268 73.4542 12.8101 74.201 13.0902 74.6677C13.4404 75.2511 14.0706 75.4612 14.7242 75.0878L17.1052 73.6409C17.4319 73.4308 17.4553 73.1041 17.3152 72.8007L17.502 72.684L18.2956 73.9909L18.1089 74.1076C17.8988 73.8509 17.5953 73.7109 17.2685 73.8976L15.051 75.2511C14.304 75.7179 13.4404 75.8346 12.7401 74.6677C12.1798 73.7576 12.1098 72.9174 13.0435 72.3573L15.9147 70.607L15.7513 70.2336L15.938 70.1169L16.8017 71.5405Z" fill="white"/>
<path d="M17.6654 78.9617L19.883 77.2348C20.2098 76.9781 20.1398 76.7914 19.953 76.4647L20.1398 76.3246L21.0035 77.4448L20.8167 77.5848C20.5599 77.3281 20.2565 77.3281 19.9997 77.5382L16.6384 80.1753L16.4283 79.9186L17.9922 75.2745L15.5179 77.2114C15.2145 77.4448 15.2378 77.7715 15.4012 78.0749L15.2145 78.215L14.2808 77.0014L14.4675 76.8614C14.7009 77.0948 15.0511 77.1648 15.3779 76.9081L17.8755 74.9711C18.2023 74.7144 18.2257 74.341 18.0623 74.0609L18.249 73.9209L19.066 74.9477L17.6654 78.9617Z" fill="white"/>
<path d="M17.5723 81.0155L17.7357 80.8521L18.0391 81.1088L21.3071 78.1217L21.0737 77.7949L21.2371 77.6316L22.3575 78.8451L22.1941 79.0085L21.8907 78.7518L18.646 81.7623L18.8795 82.089L18.7161 82.252L17.5723 81.0155Z" fill="white"/>
<path d="M24.8085 81.2022C25.0186 81.3889 25.2287 81.5523 25.3687 81.5756L24.5751 82.906L24.365 82.789C24.6218 82.112 24.7385 81.4589 24.1549 80.8988L21.097 84.189L21.3538 84.493L21.1904 84.656L19.9766 83.536L20.14 83.373L20.4668 83.606L23.5246 80.3154C22.9411 79.7553 22.2875 79.942 21.6339 80.2454L21.4938 80.0587L22.7543 79.1719C22.801 79.3119 22.9644 79.4986 23.1745 79.7086L24.8085 81.2022Z" fill="white"/>
<path d="M25.2284 88.04C25.1584 87.9 24.995 87.737 24.7616 87.55L22.5674 85.893L22.7074 85.706L23.0576 85.893L25.7186 82.346L25.4385 82.066L25.5786 81.8789L27.7261 83.513C27.9595 83.676 28.1696 83.816 28.333 83.816L27.7261 85.169L27.4693 85.053C27.6561 84.166 27.5861 83.676 26.7457 83.022C26.6524 82.952 26.5356 82.882 26.4189 82.859L25.2751 84.399L25.5086 84.563C25.9054 84.866 26.1855 84.796 26.629 84.399L26.8157 84.539L25.7186 86.01L25.5319 85.87C25.7887 85.356 25.7887 85.053 25.3918 84.749L25.1584 84.586L23.7812 86.406C23.8512 86.523 23.9446 86.593 24.038 86.663C24.855 87.293 25.5086 87.176 26.3489 86.733L26.5356 86.943L25.2284 88.04Z" fill="white"/>
<path d="M28.9869 84.7731L28.6834 84.5161L28.8001 84.3291L30.4574 85.3101C31.858 86.1501 31.6946 87.6431 31.111 88.6231C30.5275 89.6041 29.2903 90.4441 27.8898 89.6041L26.2324 88.6231L26.3491 88.4371L26.7226 88.6001L28.9869 84.7731ZM27.4696 89.0201C27.5396 89.1131 27.6797 89.2071 27.8898 89.3471C28.59 89.7671 29.3603 89.6971 30.294 88.1331C31.2278 86.5701 30.9476 85.8701 30.224 85.4501C30.0139 85.3331 29.8505 85.2401 29.7338 85.2161L27.4696 89.0201Z" fill="white"/>
<path d="M36.4564 89.7899L36.1996 89.7439C36.1762 89.1599 36.0829 88.3199 35.4293 88.0399C34.9624 87.8299 34.5423 87.9929 34.3789 88.3899C33.842 89.6969 36.5497 90.1169 35.8028 91.9139C35.4526 92.7069 34.5656 93.0109 33.772 92.6839C33.2818 92.4739 33.0016 92.1239 32.7916 92.0309C32.6515 91.9839 32.4881 91.9609 32.3247 91.9609L32.6748 90.4439L32.9316 90.5139C32.955 91.2839 33.1884 92.1239 33.9354 92.4269C34.3789 92.6139 34.9157 92.4269 35.1025 91.9839C35.616 90.7469 32.9783 90.2569 33.7486 88.4129C34.0054 87.8069 34.7523 87.4099 35.5227 87.7369C35.7094 87.8299 35.8495 87.8999 35.9662 87.9929C36.0829 88.0869 36.1762 88.1569 36.293 88.2269C36.433 88.2729 36.6198 88.3199 36.8065 88.2729L36.4564 89.7899Z" fill="white"/>
<path d="M40.3316 89.603C40.6117 89.697 40.8451 89.72 41.0085 89.697L40.8685 91.237L40.635 91.214C40.565 90.49 40.4016 89.837 39.6313 89.603L38.3008 93.898L38.6509 94.061L38.5809 94.271L36.9936 93.781L37.0636 93.571L37.4604 93.641L38.791 89.347C38.0206 89.113 37.5305 89.557 37.0636 90.094L36.8535 89.977L37.6005 88.623C37.6939 88.74 37.9273 88.833 38.2074 88.927L40.3316 89.603Z" fill="white"/>
<path d="M39.5845 94.645L39.6312 94.411C40.0513 94.364 40.2381 94.248 40.4248 93.898L42.3389 90.537L42.2455 90.094L43.2026 90.234L43.7628 95.205L44.1363 95.368L44.0896 95.601L42.4089 95.251L42.4556 95.018H42.8524L42.7124 93.688L41.0551 93.338L40.7049 93.968C40.6349 94.084 40.6116 94.154 40.5882 94.271C40.5415 94.504 40.7749 94.621 40.985 94.738L40.9383 94.971L39.5845 94.645ZM42.7124 93.361L42.4556 90.934H42.4323L41.2185 93.058L42.7124 93.361Z" fill="white"/>
<path d="M47.7544 90.934C48.0345 90.957 48.2913 90.957 48.4313 90.911L48.5714 92.451L48.338 92.474C48.1279 91.774 47.8478 91.167 47.0541 91.097L46.5639 95.555L46.9374 95.648L46.9141 95.881L45.2567 95.695L45.2801 95.461L45.6769 95.438L46.1671 90.981C45.3735 90.887 44.9533 91.424 44.6032 92.054L44.3931 91.961L44.8833 90.49C45 90.584 45.2567 90.631 45.5369 90.677L47.7544 90.934Z" fill="white"/>
<path d="M52.283 96.185C52.1663 96.115 51.9095 96.068 51.6294 96.068L48.875 96.045V95.811L49.2718 95.765L49.2952 91.33L48.8983 91.26V91.027L51.6061 91.05C51.8862 91.05 52.143 91.027 52.283 90.957L52.6098 92.404L52.3531 92.451C51.9796 91.634 51.6061 91.284 50.5557 91.26C50.439 91.26 50.3222 91.284 50.1822 91.307L50.1588 93.221H50.439C50.9292 93.221 51.1159 92.987 51.2326 92.427H51.466L51.4427 94.248H51.2093C51.0926 93.664 50.9292 93.454 50.439 93.431H50.1588L50.1355 95.718C50.2522 95.765 50.3689 95.788 50.509 95.788C51.5361 95.788 52.0029 95.344 52.3997 94.458L52.6565 94.528L52.283 96.185Z" fill="white"/>
<path d="M56.2512 92.1471L56.0178 92.2411C55.7144 91.7271 55.2475 91.0271 54.5472 91.0971C54.0337 91.1441 53.7302 91.4711 53.7769 91.9141C53.8936 93.3141 56.508 92.4041 56.6714 94.3881C56.7414 95.2511 56.0878 95.9281 55.2242 95.9981C54.6873 96.0451 54.2905 95.8581 54.0337 95.8811C53.8936 95.9051 53.7302 95.9751 53.5902 96.0451L53.1934 94.5511L53.4501 94.4811C53.8236 95.1351 54.4305 95.7881 55.2475 95.7181C55.7144 95.6711 56.1112 95.2511 56.0645 94.7851C55.9478 93.4311 53.3801 94.2481 53.2167 92.2641C53.17 91.6111 53.6369 90.9111 54.4772 90.8411C54.6873 90.8171 54.8507 90.8411 54.9907 90.8641C55.1308 90.8871 55.2475 90.9111 55.3876 90.9111C55.5276 90.8871 55.7144 90.8411 55.8544 90.7241L56.2512 92.1471Z" fill="white"/>
<path d="M58.7253 92.941C58.4452 91.774 59.0054 90.187 60.1959 89.93C61.5031 89.627 62.5302 90.631 62.8336 91.984C63.1137 93.151 62.5535 94.738 61.3631 94.995C60.0559 95.298 59.0288 94.294 58.7253 92.941ZM61.8999 92.194C61.5031 90.49 60.9429 90.024 60.2426 90.187C59.6357 90.327 59.2622 91.121 59.6357 92.708C60.0325 94.411 60.5927 94.878 61.293 94.715C61.8999 94.575 62.2734 93.781 61.8999 92.194Z" fill="white"/>
<path d="M64.1408 94.1779L64.0708 93.9679L64.4209 93.7809L62.9737 89.5799L62.5769 89.6499L62.5068 89.4399L64.9578 88.5999C65.2379 88.5069 65.448 88.3899 65.5414 88.2729L66.4051 89.5799L66.1716 89.7199C65.4947 89.1139 65.0278 88.7869 64.0941 89.0899C63.9774 89.1369 63.8607 89.1839 63.7673 89.2539L64.4209 91.1439L64.8178 91.0039C65.2613 90.8409 65.308 90.4899 65.2146 90.0699L65.4247 89.9999L66.0082 91.7039L65.7982 91.7739C65.5881 91.3309 65.3313 91.0509 64.8878 91.2139L64.491 91.3539L65.2146 93.4539L65.6114 93.3839L65.6814 93.5939L64.1408 94.1779Z" fill="white"/>
<path d="M69.2528 92.3111L69.1595 92.1011C69.4629 91.8211 69.5329 91.6111 69.4629 91.1911L68.856 87.3631L68.5059 87.0601L69.3462 86.5701L72.8943 90.0941L73.2911 90.0001L73.3845 90.2101L71.8672 90.9811L71.7738 90.7711L72.0773 90.5141L71.1436 89.5571L69.6263 90.3271L69.743 91.0271C69.7664 91.1441 69.7897 91.2371 69.8364 91.3311C69.9531 91.5641 70.2099 91.4711 70.4433 91.4241L70.5367 91.6341L69.2528 92.3111ZM70.9102 89.3471L69.1828 87.5971H69.1595L69.5563 90.0001L70.9102 89.3471Z" fill="white"/>
<path d="M73.6881 90.0699L73.5714 89.8839C73.7815 89.6039 73.9215 89.4169 73.6414 88.9969L71.6573 85.7759L71.3071 85.9399L71.1904 85.7529L72.2642 85.0289L74.6685 86.7329L74.0382 83.8389L75.112 83.1389L75.2287 83.3259L74.9253 83.5829L77.493 87.1999L77.8431 87.0359L77.9598 87.2229L76.5592 88.1569L76.4425 87.9699L76.746 87.7129L74.4584 84.4689H74.4351L75.182 87.9469L75.0186 88.0399L72.1475 85.9859H72.1241L73.9215 88.8329C74.1549 89.2069 74.4351 89.2539 74.7619 89.0669L74.8786 89.2539L73.6881 90.0699Z" fill="white"/>
<path d="M81.3442 84.539C81.2041 84.563 80.994 84.703 80.7606 84.89L78.6598 86.663L78.5197 86.5L78.7765 86.196L75.9053 82.812L75.5785 83.023L75.4385 82.859L77.4926 81.1089C77.7027 80.9222 77.8895 80.7355 77.9361 80.5955L79.1266 81.4823L78.9632 81.6923C78.1462 81.3189 77.6327 81.2722 76.839 81.9724C76.7457 82.042 76.6523 82.136 76.6056 82.252L77.8428 83.723L78.0529 83.536C78.4263 83.209 78.4263 82.929 78.1462 82.416L78.3096 82.276L79.5001 83.676L79.3367 83.816C78.8699 83.443 78.5897 83.396 78.2163 83.723L78.0062 83.909L79.4768 85.66C79.5935 85.613 79.7102 85.543 79.8036 85.473C80.5972 84.796 80.6439 84.166 80.3638 83.233L80.5972 83.116L81.3442 84.539Z" fill="white"/>
<path d="M79.0333 80.1053L78.7298 80.3387L78.5664 80.1754L79.8269 78.8685C80.4805 78.1917 81.3442 77.5616 82.161 78.3551C82.605 78.7751 82.535 79.4986 82.208 79.9653L84.636 80.6654L84.939 80.4321L85.102 80.5954L84.262 81.4822L81.5776 80.6888L81.2275 81.0388L82.815 82.556L83.118 82.322L83.282 82.486L82.138 83.676L81.9744 83.513L82.208 83.186L79.0333 80.1053ZM81.0874 80.8521L81.3208 80.6188C81.9744 79.942 81.9511 79.4519 81.4609 78.9618C80.924 78.4484 80.3405 78.6351 79.9203 79.0785C79.8269 79.1719 79.7335 79.3119 79.6168 79.4519L81.0874 80.8521Z" fill="white"/>
<path d="M85.383 80.1753L85.196 80.0353L85.406 79.6852L81.9746 76.8847L81.6711 77.1648L81.4844 77.0248L82.535 75.7412L82.722 75.8812L82.511 76.2313L85.943 79.0318L86.246 78.7517L86.433 78.8917L85.383 80.1753Z" fill="white"/>
<path d="M87.9969 74.3644C88.5339 75.0879 88.6509 75.998 88.1599 76.6981C87.4369 77.7483 86.0829 77.725 84.9619 76.9548C83.9349 76.2547 83.1179 74.8311 83.8649 73.711C83.9819 73.5476 84.0989 73.4309 84.2149 73.3142C84.3559 73.1975 84.4489 73.1042 84.5189 73.0342C84.5889 72.9408 84.6589 72.7308 84.6819 72.5208L86.1529 73.1275L86.0599 73.3842C85.3829 73.2909 84.5189 73.2675 84.1449 73.8276C83.6549 74.5511 84.2859 75.4146 84.9619 75.9046C85.8729 76.5348 87.2269 76.9782 87.8569 76.068C88.1839 75.6013 88.0669 74.9712 87.7639 74.5044L87.9969 74.3644Z" fill="white"/>
<path d="M89.281 74.9244L89.071 74.8077C89.164 74.3876 89.094 74.2009 88.814 73.8975L86.153 71.0737L85.686 71.027L86.106 70.1636L91.008 71.0971L91.265 70.7937L91.475 70.9104L90.658 72.4039L90.448 72.2873L90.565 71.8905L89.257 71.6338L88.44 73.1274L88.931 73.6408C89.024 73.7342 89.071 73.7808 89.187 73.8275C89.398 73.9442 89.561 73.7342 89.748 73.5708L89.958 73.6875L89.281 74.9244ZM88.977 71.5638L86.573 71.0971V71.1204L88.254 72.894L88.977 71.5638Z" fill="white"/>
</g>
<defs>
<clipPath id="clip0_327_617">
<rect width="102" height="102" fill="white"/>
</clipPath>
</defs>
</svg>
