<svg width="60" height="60" viewBox="0 0 60 60" fill="none" xmlns="http://www.w3.org/2000/svg">
<path d="M26.6645 25.5371L28.9175 32.5928H21.5641L23.7744 25.5371C24.2847 23.8369 24.7096 21.8393 25.1344 20.1816H25.2194C25.6445 21.8394 26.1119 23.7944 26.6645 25.5371ZM60 10V50.0001C60 55.5001 55.5 60.0001 50 60.0001H10C4.5 60 0 55.5 0 50V10C0 4.5 4.5 0 10 0H50.0001C55.5 0 60 4.5 60 10ZM38.0132 44.6636L28.7045 16.0166H22.0317L12.851 44.6636H18.249L20.7144 36.5454H29.8101L32.4029 44.6636H38.0132ZM46.8517 23.9644H41.5811V44.6636H46.8517V23.9644ZM47.149 18.1841C47.1065 16.5689 46.0016 15.3365 44.2162 15.3365C42.4735 15.3365 41.2836 16.5689 41.2836 18.1841C41.2836 19.7569 42.431 20.9893 44.1737 20.9893C46.0014 20.9892 47.149 19.7568 47.149 18.1841Z" fill="#FF9A00"/>
</svg>
