<svg width="60" height="60" viewBox="0 0 60 60" fill="none" xmlns="http://www.w3.org/2000/svg">
<path d="M29.5 30C29.5 24.4715 33.8629 19.9972 39.2543 19.9972C44.6371 19.9972 49.0086 24.4715 49.0086 30C49.0086 35.52 44.6457 40.0029 39.2543 40.0029C33.8714 40.0029 29.5 35.5286 29.5 30Z" fill="#1ABCFE"/>
<path d="M10 49.9971C10 44.4771 14.3714 39.9943 19.7543 39.9943H29.5086V49.9971C29.5086 55.5171 25.1371 60 19.7543 60C14.3714 60 10 55.5257 10 49.9971Z" fill="#0ACF83"/>
<path d="M29.5 0V19.9971H39.2543C44.6457 19.9971 49.0086 15.5229 49.0086 9.99428C49 4.48286 44.6371 0 39.2457 0H29.5Z" fill="#FF7262"/>
<path d="M10 9.99428C10 15.5143 14.3714 19.9971 19.7543 19.9971H29.5086V0H19.7543C14.3714 0 10 4.48286 10 9.99428Z" fill="#F24E1E"/>
<path d="M10 30C10 35.52 14.3714 40.0029 19.7543 40.0029H29.5086V19.9972H19.7543C14.3714 19.9972 10 24.4715 10 30Z" fill="#A259FF"/>
</svg>
