<svg width="597" height="391" viewBox="0 0 597 391" fill="none" xmlns="http://www.w3.org/2000/svg">
<circle cx="407.5" cy="219.5" r="12.5" fill="#F68A59"/>
<circle cx="407.5" cy="264.5" r="12.5" fill="#D5E2CD"/>
<path d="M442.08 228.144C440.816 228.144 439.64 227.936 438.552 227.52C437.48 227.088 436.544 226.488 435.744 225.72C434.96 224.936 434.344 224.032 433.896 223.008C433.464 221.968 433.248 220.832 433.248 219.6C433.248 218.368 433.464 217.24 433.896 216.216C434.344 215.176 434.96 214.272 435.744 213.504C436.544 212.72 437.48 212.12 438.552 211.704C439.624 211.272 440.8 211.056 442.08 211.056C443.344 211.056 444.512 211.272 445.584 211.704C446.656 212.12 447.584 212.712 448.368 213.48C449.168 214.248 449.784 215.152 450.216 216.192C450.664 217.232 450.888 218.368 450.888 219.6C450.888 220.832 450.664 221.968 450.216 223.008C449.784 224.048 449.168 224.952 448.368 225.72C447.584 226.488 446.656 227.088 445.584 227.52C444.512 227.936 443.344 228.144 442.08 228.144ZM447.576 231.336C447.064 231.336 446.568 231.272 446.088 231.144C445.608 231.016 445.12 230.808 444.624 230.52C444.144 230.248 443.648 229.888 443.136 229.44C442.624 228.992 442.064 228.448 441.456 227.808L443.4 227.328C443.896 227.92 444.376 228.408 444.84 228.792C445.32 229.176 445.784 229.456 446.232 229.632C446.696 229.824 447.152 229.92 447.6 229.92C448.848 229.92 449.912 229.408 450.792 228.384L451.656 229.416C450.6 230.696 449.24 231.336 447.576 231.336ZM442.08 226.56C443.088 226.56 444.016 226.392 444.864 226.056C445.728 225.704 446.472 225.208 447.096 224.568C447.736 223.928 448.232 223.192 448.584 222.36C448.936 221.512 449.112 220.592 449.112 219.6C449.112 218.592 448.936 217.672 448.584 216.84C448.232 215.992 447.736 215.256 447.096 214.632C446.472 213.992 445.728 213.504 444.864 213.168C444.016 212.816 443.088 212.64 442.08 212.64C441.072 212.64 440.136 212.816 439.272 213.168C438.408 213.504 437.656 213.992 437.016 214.632C436.392 215.256 435.896 215.992 435.528 216.84C435.176 217.672 435 218.592 435 219.6C435 220.592 435.176 221.512 435.528 222.36C435.896 223.192 436.392 223.928 437.016 224.568C437.656 225.208 438.408 225.704 439.272 226.056C440.136 226.392 441.072 226.56 442.08 226.56ZM454.869 228V211.2H461.157C462.581 211.2 463.805 211.432 464.829 211.896C465.853 212.344 466.637 213 467.181 213.864C467.741 214.712 468.021 215.744 468.021 216.96C468.021 218.144 467.741 219.168 467.181 220.032C466.637 220.88 465.853 221.536 464.829 222C463.805 222.448 462.581 222.672 461.157 222.672H455.853L456.645 221.856V228H454.869ZM466.341 228L462.021 221.904H463.941L468.285 228H466.341ZM456.645 222L455.853 221.16H461.109C462.789 221.16 464.061 220.792 464.925 220.056C465.805 219.32 466.245 218.288 466.245 216.96C466.245 215.616 465.805 214.576 464.925 213.84C464.061 213.104 462.789 212.736 461.109 212.736H455.853L456.645 211.896V222ZM493.878 215.28C494.902 215.28 495.79 215.48 496.542 215.88C497.31 216.264 497.902 216.856 498.318 217.656C498.75 218.456 498.966 219.464 498.966 220.68V228H497.262V220.848C497.262 219.52 496.942 218.52 496.302 217.848C495.678 217.16 494.79 216.816 493.638 216.816C492.774 216.816 492.022 217 491.382 217.368C490.758 217.72 490.27 218.24 489.918 218.928C489.582 219.6 489.414 220.416 489.414 221.376V228H487.71V220.848C487.71 219.52 487.39 218.52 486.75 217.848C486.11 217.16 485.214 216.816 484.062 216.816C483.214 216.816 482.47 217 481.83 217.368C481.19 217.72 480.694 218.24 480.342 218.928C480.006 219.6 479.838 220.416 479.838 221.376V228H478.134V215.4H479.766V218.808L479.502 218.208C479.886 217.296 480.502 216.584 481.35 216.072C482.214 215.544 483.23 215.28 484.398 215.28C485.63 215.28 486.678 215.592 487.542 216.216C488.406 216.824 488.966 217.744 489.222 218.976L488.55 218.712C488.918 217.688 489.566 216.864 490.494 216.24C491.438 215.6 492.566 215.28 493.878 215.28ZM508.939 228.12C507.627 228.12 506.475 227.848 505.483 227.304C504.491 226.744 503.715 225.984 503.155 225.024C502.595 224.048 502.315 222.936 502.315 221.688C502.315 220.44 502.579 219.336 503.107 218.376C503.651 217.416 504.387 216.664 505.315 216.12C506.259 215.56 507.315 215.28 508.483 215.28C509.667 215.28 510.715 215.552 511.627 216.096C512.555 216.624 513.283 217.376 513.811 218.352C514.339 219.312 514.603 220.424 514.603 221.688C514.603 221.768 514.595 221.856 514.579 221.952C514.579 222.032 514.579 222.12 514.579 222.216H503.611V220.944H513.667L512.995 221.448C512.995 220.536 512.795 219.728 512.395 219.024C512.011 218.304 511.483 217.744 510.811 217.344C510.139 216.944 509.363 216.744 508.483 216.744C507.619 216.744 506.843 216.944 506.155 217.344C505.467 217.744 504.931 218.304 504.547 219.024C504.163 219.744 503.971 220.568 503.971 221.496V221.76C503.971 222.72 504.179 223.568 504.595 224.304C505.027 225.024 505.619 225.592 506.371 226.008C507.139 226.408 508.011 226.608 508.987 226.608C509.755 226.608 510.467 226.472 511.123 226.2C511.795 225.928 512.371 225.512 512.851 224.952L513.811 226.056C513.251 226.728 512.547 227.24 511.699 227.592C510.867 227.944 509.947 228.12 508.939 228.12ZM524.503 215.28C525.527 215.28 526.423 215.48 527.191 215.88C527.975 216.264 528.583 216.856 529.015 217.656C529.463 218.456 529.687 219.464 529.687 220.68V228H527.983V220.848C527.983 219.52 527.647 218.52 526.975 217.848C526.319 217.16 525.391 216.816 524.191 216.816C523.295 216.816 522.511 217 521.839 217.368C521.183 217.72 520.671 218.24 520.303 218.928C519.951 219.6 519.775 220.416 519.775 221.376V228H518.071V215.4H519.703V218.856L519.439 218.208C519.839 217.296 520.479 216.584 521.359 216.072C522.239 215.544 523.287 215.28 524.503 215.28ZM539.498 228.12C538.426 228.12 537.49 227.92 536.69 227.52C535.89 227.12 535.266 226.52 534.818 225.72C534.386 224.92 534.17 223.92 534.17 222.72V215.4H535.874V222.528C535.874 223.872 536.202 224.888 536.858 225.576C537.53 226.248 538.466 226.584 539.666 226.584C540.546 226.584 541.306 226.408 541.946 226.056C542.602 225.688 543.098 225.16 543.434 224.472C543.786 223.784 543.962 222.96 543.962 222V215.4H545.666V228H544.034V224.544L544.298 225.168C543.898 226.096 543.274 226.824 542.426 227.352C541.594 227.864 540.618 228.12 539.498 228.12ZM553.799 228.12C552.759 228.12 551.775 227.976 550.847 227.688C549.919 227.384 549.191 227.008 548.663 226.56L549.431 225.216C549.943 225.6 550.599 225.936 551.399 226.224C552.199 226.496 553.039 226.632 553.919 226.632C555.119 226.632 555.983 226.448 556.511 226.08C557.039 225.696 557.303 225.192 557.303 224.568C557.303 224.104 557.151 223.744 556.847 223.488C556.559 223.216 556.175 223.016 555.695 222.888C555.215 222.744 554.679 222.624 554.087 222.528C553.495 222.432 552.903 222.32 552.311 222.192C551.735 222.064 551.207 221.88 550.727 221.64C550.247 221.384 549.855 221.04 549.551 220.608C549.263 220.176 549.119 219.6 549.119 218.88C549.119 218.192 549.311 217.576 549.695 217.032C550.079 216.488 550.639 216.064 551.375 215.76C552.127 215.44 553.039 215.28 554.111 215.28C554.927 215.28 555.743 215.392 556.559 215.616C557.375 215.824 558.047 216.104 558.575 216.456L557.831 217.824C557.271 217.44 556.671 217.168 556.031 217.008C555.391 216.832 554.751 216.744 554.111 216.744C552.975 216.744 552.135 216.944 551.591 217.344C551.063 217.728 550.799 218.224 550.799 218.832C550.799 219.312 550.943 219.688 551.231 219.96C551.535 220.232 551.927 220.448 552.407 220.608C552.903 220.752 553.439 220.872 554.015 220.968C554.607 221.064 555.191 221.184 555.767 221.328C556.359 221.456 556.895 221.64 557.375 221.88C557.871 222.104 558.263 222.432 558.551 222.864C558.855 223.28 559.007 223.832 559.007 224.52C559.007 225.256 558.799 225.896 558.383 226.44C557.983 226.968 557.391 227.384 556.607 227.688C555.839 227.976 554.903 228.12 553.799 228.12Z" fill="white"/>
<path d="M437.736 275V258.2H444.024C445.448 258.2 446.672 258.432 447.696 258.896C448.72 259.344 449.504 260 450.048 260.864C450.608 261.712 450.888 262.744 450.888 263.96C450.888 265.144 450.608 266.168 450.048 267.032C449.504 267.88 448.72 268.536 447.696 269C446.672 269.464 445.448 269.696 444.024 269.696H438.72L439.512 268.856V275H437.736ZM439.512 269L438.72 268.136H443.976C445.656 268.136 446.928 267.776 447.792 267.056C448.672 266.32 449.112 265.288 449.112 263.96C449.112 262.616 448.672 261.576 447.792 260.84C446.928 260.104 445.656 259.736 443.976 259.736H438.72L439.512 258.896V269ZM462.147 275V272.216L462.075 271.76V267.104C462.075 266.032 461.771 265.208 461.163 264.632C460.571 264.056 459.683 263.768 458.499 263.768C457.683 263.768 456.907 263.904 456.171 264.176C455.435 264.448 454.811 264.808 454.299 265.256L453.531 263.984C454.171 263.44 454.939 263.024 455.835 262.736C456.731 262.432 457.675 262.28 458.667 262.28C460.299 262.28 461.555 262.688 462.435 263.504C463.331 264.304 463.779 265.528 463.779 267.176V275H462.147ZM457.803 275.12C456.859 275.12 456.035 274.968 455.331 274.664C454.643 274.344 454.115 273.912 453.747 273.368C453.379 272.808 453.195 272.168 453.195 271.448C453.195 270.792 453.347 270.2 453.651 269.672C453.971 269.128 454.483 268.696 455.187 268.376C455.907 268.04 456.867 267.872 458.067 267.872H462.411V269.144H458.115C456.899 269.144 456.051 269.36 455.571 269.792C455.107 270.224 454.875 270.76 454.875 271.4C454.875 272.12 455.155 272.696 455.715 273.128C456.275 273.56 457.059 273.776 458.067 273.776C459.027 273.776 459.851 273.56 460.539 273.128C461.243 272.68 461.755 272.04 462.075 271.208L462.459 272.384C462.139 273.216 461.579 273.88 460.779 274.376C459.995 274.872 459.003 275.12 457.803 275.12ZM474.911 275.12C473.823 275.12 472.839 274.872 471.959 274.376C471.079 273.864 470.375 273.136 469.847 272.192C469.335 271.232 469.079 270.064 469.079 268.688C469.079 267.312 469.335 266.152 469.847 265.208C470.359 264.248 471.055 263.52 471.935 263.024C472.815 262.528 473.807 262.28 474.911 262.28C476.111 262.28 477.183 262.552 478.127 263.096C479.087 263.624 479.839 264.376 480.383 265.352C480.927 266.312 481.199 267.424 481.199 268.688C481.199 269.968 480.927 271.088 480.383 272.048C479.839 273.008 479.087 273.76 478.127 274.304C477.183 274.848 476.111 275.12 474.911 275.12ZM468.407 279.656V262.4H470.039V266.192L469.871 268.712L470.111 271.256V279.656H468.407ZM474.791 273.608C475.687 273.608 476.487 273.408 477.191 273.008C477.895 272.592 478.455 272.016 478.871 271.28C479.287 270.528 479.495 269.664 479.495 268.688C479.495 267.712 479.287 266.856 478.871 266.12C478.455 265.384 477.895 264.808 477.191 264.392C476.487 263.976 475.687 263.768 474.791 263.768C473.895 263.768 473.087 263.976 472.367 264.392C471.663 264.808 471.103 265.384 470.687 266.12C470.287 266.856 470.087 267.712 470.087 268.688C470.087 269.664 470.287 270.528 470.687 271.28C471.103 272.016 471.663 272.592 472.367 273.008C473.087 273.408 473.895 273.608 474.791 273.608ZM490.025 275.12C488.713 275.12 487.561 274.848 486.569 274.304C485.577 273.744 484.801 272.984 484.241 272.024C483.681 271.048 483.401 269.936 483.401 268.688C483.401 267.44 483.665 266.336 484.193 265.376C484.737 264.416 485.473 263.664 486.401 263.12C487.345 262.56 488.401 262.28 489.569 262.28C490.753 262.28 491.801 262.552 492.713 263.096C493.641 263.624 494.369 264.376 494.897 265.352C495.425 266.312 495.689 267.424 495.689 268.688C495.689 268.768 495.681 268.856 495.665 268.952C495.665 269.032 495.665 269.12 495.665 269.216H484.697V267.944H494.753L494.081 268.448C494.081 267.536 493.881 266.728 493.481 266.024C493.097 265.304 492.569 264.744 491.897 264.344C491.225 263.944 490.449 263.744 489.569 263.744C488.705 263.744 487.929 263.944 487.241 264.344C486.553 264.744 486.017 265.304 485.633 266.024C485.249 266.744 485.057 267.568 485.057 268.496V268.76C485.057 269.72 485.265 270.568 485.681 271.304C486.113 272.024 486.705 272.592 487.457 273.008C488.225 273.408 489.097 273.608 490.073 273.608C490.841 273.608 491.553 273.472 492.209 273.2C492.881 272.928 493.457 272.512 493.937 271.952L494.897 273.056C494.337 273.728 493.633 274.24 492.785 274.592C491.953 274.944 491.033 275.12 490.025 275.12ZM499.157 275V262.4H500.789V265.832L500.621 265.232C500.973 264.272 501.565 263.544 502.397 263.048C503.229 262.536 504.261 262.28 505.493 262.28V263.936C505.429 263.936 505.365 263.936 505.301 263.936C505.237 263.92 505.173 263.912 505.109 263.912C503.781 263.912 502.741 264.32 501.989 265.136C501.237 265.936 500.861 267.08 500.861 268.568V275H499.157ZM530.815 262.28C531.839 262.28 532.727 262.48 533.479 262.88C534.247 263.264 534.839 263.856 535.255 264.656C535.687 265.456 535.903 266.464 535.903 267.68V275H534.199V267.848C534.199 266.52 533.879 265.52 533.239 264.848C532.615 264.16 531.727 263.816 530.575 263.816C529.711 263.816 528.959 264 528.319 264.368C527.695 264.72 527.207 265.24 526.855 265.928C526.519 266.6 526.351 267.416 526.351 268.376V275H524.647V267.848C524.647 266.52 524.327 265.52 523.687 264.848C523.047 264.16 522.151 263.816 520.999 263.816C520.151 263.816 519.407 264 518.767 264.368C518.127 264.72 517.631 265.24 517.279 265.928C516.943 266.6 516.775 267.416 516.775 268.376V275H515.071V262.4H516.703V265.808L516.439 265.208C516.823 264.296 517.439 263.584 518.287 263.072C519.151 262.544 520.167 262.28 521.335 262.28C522.567 262.28 523.615 262.592 524.479 263.216C525.343 263.824 525.903 264.744 526.159 265.976L525.487 265.712C525.855 264.688 526.503 263.864 527.431 263.24C528.375 262.6 529.503 262.28 530.815 262.28ZM545.876 275.12C544.564 275.12 543.412 274.848 542.42 274.304C541.428 273.744 540.652 272.984 540.092 272.024C539.532 271.048 539.252 269.936 539.252 268.688C539.252 267.44 539.516 266.336 540.044 265.376C540.588 264.416 541.324 263.664 542.252 263.12C543.196 262.56 544.252 262.28 545.42 262.28C546.604 262.28 547.652 262.552 548.564 263.096C549.492 263.624 550.22 264.376 550.748 265.352C551.276 266.312 551.54 267.424 551.54 268.688C551.54 268.768 551.532 268.856 551.516 268.952C551.516 269.032 551.516 269.12 551.516 269.216H540.548V267.944H550.604L549.932 268.448C549.932 267.536 549.732 266.728 549.332 266.024C548.948 265.304 548.42 264.744 547.748 264.344C547.076 263.944 546.3 263.744 545.42 263.744C544.556 263.744 543.78 263.944 543.092 264.344C542.404 264.744 541.868 265.304 541.484 266.024C541.1 266.744 540.908 267.568 540.908 268.496V268.76C540.908 269.72 541.116 270.568 541.532 271.304C541.964 272.024 542.556 272.592 543.308 273.008C544.076 273.408 544.948 273.608 545.924 273.608C546.692 273.608 547.404 273.472 548.06 273.2C548.732 272.928 549.308 272.512 549.788 271.952L550.748 273.056C550.188 273.728 549.484 274.24 548.636 274.592C547.804 274.944 546.884 275.12 545.876 275.12ZM561.441 262.28C562.465 262.28 563.361 262.48 564.129 262.88C564.913 263.264 565.521 263.856 565.953 264.656C566.401 265.456 566.625 266.464 566.625 267.68V275H564.921V267.848C564.921 266.52 564.585 265.52 563.913 264.848C563.257 264.16 562.329 263.816 561.129 263.816C560.233 263.816 559.449 264 558.777 264.368C558.121 264.72 557.609 265.24 557.241 265.928C556.889 266.6 556.713 267.416 556.713 268.376V275H555.009V262.4H556.641V265.856L556.377 265.208C556.777 264.296 557.417 263.584 558.297 263.072C559.177 262.544 560.225 262.28 561.441 262.28ZM576.436 275.12C575.364 275.12 574.428 274.92 573.628 274.52C572.828 274.12 572.204 273.52 571.756 272.72C571.324 271.92 571.108 270.92 571.108 269.72V262.4H572.812V269.528C572.812 270.872 573.14 271.888 573.796 272.576C574.468 273.248 575.404 273.584 576.604 273.584C577.484 273.584 578.244 273.408 578.884 273.056C579.54 272.688 580.036 272.16 580.372 271.472C580.724 270.784 580.9 269.96 580.9 269V262.4H582.604V275H580.972V271.544L581.236 272.168C580.836 273.096 580.212 273.824 579.364 274.352C578.532 274.864 577.556 275.12 576.436 275.12ZM590.737 275.12C589.697 275.12 588.713 274.976 587.785 274.688C586.857 274.384 586.129 274.008 585.601 273.56L586.369 272.216C586.881 272.6 587.537 272.936 588.337 273.224C589.137 273.496 589.977 273.632 590.857 273.632C592.057 273.632 592.921 273.448 593.449 273.08C593.977 272.696 594.241 272.192 594.241 271.568C594.241 271.104 594.089 270.744 593.785 270.488C593.497 270.216 593.113 270.016 592.633 269.888C592.153 269.744 591.617 269.624 591.025 269.528C590.433 269.432 589.841 269.32 589.249 269.192C588.673 269.064 588.145 268.88 587.665 268.64C587.185 268.384 586.793 268.04 586.489 267.608C586.201 267.176 586.057 266.6 586.057 265.88C586.057 265.192 586.249 264.576 586.633 264.032C587.017 263.488 587.577 263.064 588.313 262.76C589.065 262.44 589.977 262.28 591.049 262.28C591.865 262.28 592.681 262.392 593.497 262.616C594.313 262.824 594.985 263.104 595.513 263.456L594.769 264.824C594.209 264.44 593.609 264.168 592.969 264.008C592.329 263.832 591.689 263.744 591.049 263.744C589.913 263.744 589.073 263.944 588.529 264.344C588.001 264.728 587.737 265.224 587.737 265.832C587.737 266.312 587.881 266.688 588.169 266.96C588.473 267.232 588.865 267.448 589.345 267.608C589.841 267.752 590.377 267.872 590.953 267.968C591.545 268.064 592.129 268.184 592.705 268.328C593.297 268.456 593.833 268.64 594.313 268.88C594.809 269.104 595.201 269.432 595.489 269.864C595.793 270.28 595.945 270.832 595.945 271.52C595.945 272.256 595.737 272.896 595.321 273.44C594.921 273.968 594.329 274.384 593.545 274.688C592.777 274.976 591.841 275.12 590.737 275.12Z" fill="white"/>
<path d="M147.5 391C228.962 391 295 324.962 295 243.5C295 162.038 228.962 96 147.5 96C66.038 96 0 162.038 0 243.5C0 324.962 66.038 391 147.5 391Z" fill="#D5E2CD"/>
<path d="M190.936 199V197.776L197.92 190.936C198.56 190.312 199.04 189.768 199.36 189.304C199.68 188.824 199.896 188.376 200.008 187.96C200.12 187.544 200.176 187.152 200.176 186.784C200.176 185.808 199.84 185.04 199.168 184.48C198.512 183.92 197.536 183.64 196.24 183.64C195.248 183.64 194.368 183.792 193.6 184.096C192.848 184.4 192.2 184.872 191.656 185.512L190.432 184.456C191.088 183.688 191.928 183.096 192.952 182.68C193.976 182.264 195.12 182.056 196.384 182.056C197.52 182.056 198.504 182.24 199.336 182.608C200.168 182.96 200.808 183.48 201.256 184.168C201.72 184.856 201.952 185.664 201.952 186.592C201.952 187.136 201.872 187.672 201.712 188.2C201.568 188.728 201.296 189.288 200.896 189.88C200.512 190.456 199.944 191.112 199.192 191.848L192.784 198.136L192.304 197.464H202.72V199H190.936ZM211.538 199.144C210.242 199.144 209.09 198.808 208.082 198.136C207.074 197.448 206.282 196.472 205.706 195.208C205.13 193.928 204.842 192.392 204.842 190.6C204.842 188.808 205.13 187.28 205.706 186.016C206.282 184.736 207.074 183.76 208.082 183.088C209.09 182.4 210.242 182.056 211.538 182.056C212.834 182.056 213.986 182.4 214.994 183.088C216.002 183.76 216.794 184.736 217.37 186.016C217.962 187.28 218.258 188.808 218.258 190.6C218.258 192.392 217.962 193.928 217.37 195.208C216.794 196.472 216.002 197.448 214.994 198.136C213.986 198.808 212.834 199.144 211.538 199.144ZM211.538 197.56C212.53 197.56 213.394 197.296 214.13 196.768C214.866 196.224 215.442 195.44 215.858 194.416C216.274 193.376 216.482 192.104 216.482 190.6C216.482 189.096 216.274 187.832 215.858 186.808C215.442 185.768 214.866 184.984 214.13 184.456C213.394 183.912 212.53 183.64 211.538 183.64C210.578 183.64 209.722 183.912 208.97 184.456C208.218 184.984 207.634 185.768 207.218 186.808C206.802 187.832 206.594 189.096 206.594 190.6C206.594 192.104 206.802 193.376 207.218 194.416C207.634 195.44 208.218 196.224 208.97 196.768C209.722 197.296 210.578 197.56 211.538 197.56ZM222.988 199L234.46 182.2H235.876L224.404 199H222.988ZM224.284 191.2C223.532 191.2 222.868 191.016 222.292 190.648C221.716 190.264 221.268 189.728 220.948 189.04C220.644 188.352 220.492 187.552 220.492 186.64C220.492 185.728 220.644 184.928 220.948 184.24C221.268 183.552 221.716 183.024 222.292 182.656C222.868 182.272 223.532 182.08 224.284 182.08C225.036 182.08 225.692 182.272 226.252 182.656C226.828 183.024 227.276 183.552 227.596 184.24C227.916 184.928 228.076 185.728 228.076 186.64C228.076 187.552 227.916 188.352 227.596 189.04C227.276 189.728 226.828 190.264 226.252 190.648C225.692 191.016 225.036 191.2 224.284 191.2ZM224.284 190.12C225.068 190.12 225.692 189.816 226.156 189.208C226.636 188.584 226.876 187.728 226.876 186.64C226.876 185.552 226.636 184.704 226.156 184.096C225.692 183.472 225.068 183.16 224.284 183.16C223.484 183.16 222.852 183.472 222.388 184.096C221.924 184.704 221.692 185.552 221.692 186.64C221.692 187.728 221.924 188.584 222.388 189.208C222.852 189.816 223.484 190.12 224.284 190.12ZM234.58 199.12C233.844 199.12 233.188 198.936 232.612 198.568C232.036 198.184 231.588 197.648 231.268 196.96C230.948 196.272 230.788 195.472 230.788 194.56C230.788 193.648 230.948 192.848 231.268 192.16C231.588 191.472 232.036 190.944 232.612 190.576C233.188 190.192 233.844 190 234.58 190C235.348 190 236.012 190.192 236.572 190.576C237.148 190.944 237.588 191.472 237.892 192.16C238.212 192.848 238.372 193.648 238.372 194.56C238.372 195.472 238.212 196.272 237.892 196.96C237.588 197.648 237.148 198.184 236.572 198.568C236.012 198.936 235.348 199.12 234.58 199.12ZM234.58 198.04C235.364 198.04 235.988 197.736 236.452 197.128C236.932 196.504 237.172 195.648 237.172 194.56C237.172 193.472 236.932 192.624 236.452 192.016C235.988 191.392 235.364 191.08 234.58 191.08C233.796 191.08 233.164 191.392 232.684 192.016C232.22 192.624 231.988 193.472 231.988 194.56C231.988 195.648 232.22 196.504 232.684 197.128C233.164 197.736 233.796 198.04 234.58 198.04Z" fill="black"/>
<path d="M295 243.5C295 273.497 285.854 302.78 268.783 327.445C251.711 352.11 227.525 370.983 199.451 381.548C171.376 392.114 140.748 393.868 111.651 386.577C82.5537 379.287 56.371 363.298 36.5949 340.743C16.8188 318.189 4.38951 290.141 0.964672 260.341C-2.46017 230.54 3.28232 200.404 17.4262 173.951C31.5701 147.499 53.443 125.987 80.1276 112.286C106.812 98.5845 137.04 93.3448 166.779 97.2655L147.5 243.5H295Z" fill="#F68A59"/>
<path d="M96.6319 317.144C95.2879 317.144 94.1279 316.952 93.1519 316.568C92.1919 316.184 91.4479 315.632 90.9199 314.912C90.4079 314.176 90.1519 313.312 90.1519 312.32C90.1519 311.36 90.3999 310.544 90.8959 309.872C91.4079 309.184 92.1439 308.656 93.1039 308.288C94.0799 307.92 95.2559 307.736 96.6319 307.736C97.9919 307.736 99.1599 307.92 100.136 308.288C101.112 308.656 101.856 309.184 102.368 309.872C102.896 310.544 103.16 311.36 103.16 312.32C103.16 313.312 102.896 314.176 102.368 314.912C101.84 315.632 101.088 316.184 100.112 316.568C99.1359 316.952 97.9759 317.144 96.6319 317.144ZM96.6319 315.68C98.1199 315.68 99.2799 315.376 100.112 314.768C100.96 314.16 101.384 313.336 101.384 312.296C101.384 311.256 100.96 310.44 100.112 309.848C99.2799 309.24 98.1199 308.936 96.6319 308.936C95.1439 308.936 93.9839 309.24 93.1519 309.848C92.3199 310.44 91.9039 311.256 91.9039 312.296C91.9039 313.336 92.3199 314.16 93.1519 314.768C93.9839 315.376 95.1439 315.68 96.6319 315.68ZM96.6319 308.72C95.3839 308.72 94.3199 308.552 93.4399 308.216C92.5759 307.88 91.9119 307.4 91.4479 306.776C90.9839 306.136 90.7519 305.376 90.7519 304.496C90.7519 303.568 90.9919 302.776 91.4719 302.12C91.9679 301.448 92.6559 300.936 93.5359 300.584C94.4159 300.232 95.4479 300.056 96.6319 300.056C97.8159 300.056 98.8479 300.232 99.7279 300.584C100.624 300.936 101.32 301.448 101.816 302.12C102.312 302.776 102.56 303.568 102.56 304.496C102.56 305.376 102.328 306.136 101.864 306.776C101.4 307.4 100.72 307.88 99.8239 308.216C98.9439 308.552 97.8799 308.72 96.6319 308.72ZM96.6319 307.568C97.9439 307.568 98.9679 307.296 99.7039 306.752C100.44 306.208 100.808 305.48 100.808 304.568C100.808 303.608 100.424 302.864 99.6559 302.336C98.9039 301.792 97.8959 301.52 96.6319 301.52C95.3679 301.52 94.3599 301.792 93.6079 302.336C92.8559 302.864 92.4799 303.6 92.4799 304.544C92.4799 305.472 92.8399 306.208 93.5599 306.752C94.2959 307.296 95.3199 307.568 96.6319 307.568ZM112.249 317.144C110.953 317.144 109.801 316.808 108.793 316.136C107.785 315.448 106.993 314.472 106.417 313.208C105.841 311.928 105.553 310.392 105.553 308.6C105.553 306.808 105.841 305.28 106.417 304.016C106.993 302.736 107.785 301.76 108.793 301.088C109.801 300.4 110.953 300.056 112.249 300.056C113.545 300.056 114.697 300.4 115.705 301.088C116.713 301.76 117.505 302.736 118.081 304.016C118.673 305.28 118.969 306.808 118.969 308.6C118.969 310.392 118.673 311.928 118.081 313.208C117.505 314.472 116.713 315.448 115.705 316.136C114.697 316.808 113.545 317.144 112.249 317.144ZM112.249 315.56C113.241 315.56 114.105 315.296 114.841 314.768C115.577 314.224 116.153 313.44 116.569 312.416C116.985 311.376 117.193 310.104 117.193 308.6C117.193 307.096 116.985 305.832 116.569 304.808C116.153 303.768 115.577 302.984 114.841 302.456C114.105 301.912 113.241 301.64 112.249 301.64C111.289 301.64 110.433 301.912 109.681 302.456C108.929 302.984 108.345 303.768 107.929 304.808C107.513 305.832 107.305 307.096 107.305 308.6C107.305 310.104 107.513 311.376 107.929 312.416C108.345 313.44 108.929 314.224 109.681 314.768C110.433 315.296 111.289 315.56 112.249 315.56ZM123.699 317L135.171 300.2H136.587L125.115 317H123.699ZM124.995 309.2C124.243 309.2 123.579 309.016 123.003 308.648C122.427 308.264 121.979 307.728 121.659 307.04C121.355 306.352 121.203 305.552 121.203 304.64C121.203 303.728 121.355 302.928 121.659 302.24C121.979 301.552 122.427 301.024 123.003 300.656C123.579 300.272 124.243 300.08 124.995 300.08C125.747 300.08 126.403 300.272 126.963 300.656C127.539 301.024 127.987 301.552 128.307 302.24C128.627 302.928 128.787 303.728 128.787 304.64C128.787 305.552 128.627 306.352 128.307 307.04C127.987 307.728 127.539 308.264 126.963 308.648C126.403 309.016 125.747 309.2 124.995 309.2ZM124.995 308.12C125.779 308.12 126.403 307.816 126.867 307.208C127.347 306.584 127.587 305.728 127.587 304.64C127.587 303.552 127.347 302.704 126.867 302.096C126.403 301.472 125.779 301.16 124.995 301.16C124.195 301.16 123.563 301.472 123.099 302.096C122.635 302.704 122.403 303.552 122.403 304.64C122.403 305.728 122.635 306.584 123.099 307.208C123.563 307.816 124.195 308.12 124.995 308.12ZM135.291 317.12C134.555 317.12 133.899 316.936 133.323 316.568C132.747 316.184 132.299 315.648 131.979 314.96C131.659 314.272 131.499 313.472 131.499 312.56C131.499 311.648 131.659 310.848 131.979 310.16C132.299 309.472 132.747 308.944 133.323 308.576C133.899 308.192 134.555 308 135.291 308C136.059 308 136.723 308.192 137.283 308.576C137.859 308.944 138.299 309.472 138.603 310.16C138.923 310.848 139.083 311.648 139.083 312.56C139.083 313.472 138.923 314.272 138.603 314.96C138.299 315.648 137.859 316.184 137.283 316.568C136.723 316.936 136.059 317.12 135.291 317.12ZM135.291 316.04C136.075 316.04 136.699 315.736 137.163 315.128C137.643 314.504 137.883 313.648 137.883 312.56C137.883 311.472 137.643 310.624 137.163 310.016C136.699 309.392 136.075 309.08 135.291 309.08C134.507 309.08 133.875 309.392 133.395 310.016C132.931 310.624 132.699 311.472 132.699 312.56C132.699 313.648 132.931 314.504 133.395 315.128C133.875 315.736 134.507 316.04 135.291 316.04Z" fill="black"/>
<path d="M2.736 27V10.2H9.576C11.368 10.2 12.936 10.56 14.28 11.28C15.64 11.984 16.696 12.968 17.448 14.232C18.2 15.496 18.576 16.952 18.576 18.6C18.576 20.248 18.2 21.704 17.448 22.968C16.696 24.232 15.64 25.224 14.28 25.944C12.936 26.648 11.368 27 9.576 27H2.736ZM4.512 25.464H9.48C10.968 25.464 12.256 25.176 13.344 24.6C14.448 24.008 15.304 23.2 15.912 22.176C16.52 21.136 16.824 19.944 16.824 18.6C16.824 17.24 16.52 16.048 15.912 15.024C15.304 14 14.448 13.2 13.344 12.624C12.256 12.032 10.968 11.736 9.48 11.736H4.512V25.464ZM27.3401 27.12C26.1241 27.12 25.0281 26.848 24.0521 26.304C23.0921 25.744 22.3321 24.984 21.7721 24.024C21.2121 23.048 20.9321 21.936 20.9321 20.688C20.9321 19.424 21.2121 18.312 21.7721 17.352C22.3321 16.392 23.0921 15.64 24.0521 15.096C25.0121 14.552 26.1081 14.28 27.3401 14.28C28.5881 14.28 29.6921 14.552 30.6521 15.096C31.6281 15.64 32.3881 16.392 32.9321 17.352C33.4921 18.312 33.7721 19.424 33.7721 20.688C33.7721 21.936 33.4921 23.048 32.9321 24.024C32.3881 24.984 31.6281 25.744 30.6521 26.304C29.6761 26.848 28.5721 27.12 27.3401 27.12ZM27.3401 25.608C28.2521 25.608 29.0601 25.408 29.7641 25.008C30.4681 24.592 31.0201 24.016 31.4201 23.28C31.8361 22.528 32.0441 21.664 32.0441 20.688C32.0441 19.696 31.8361 18.832 31.4201 18.096C31.0201 17.36 30.4681 16.792 29.7641 16.392C29.0601 15.976 28.2601 15.768 27.3641 15.768C26.4681 15.768 25.6681 15.976 24.9641 16.392C24.2601 16.792 23.7001 17.36 23.2841 18.096C22.8681 18.832 22.6601 19.696 22.6601 20.688C22.6601 21.664 22.8681 22.528 23.2841 23.28C23.7001 24.016 24.2601 24.592 24.9641 25.008C25.6681 25.408 26.4601 25.608 27.3401 25.608ZM43.6283 31.776C43.0363 31.776 42.4683 31.68 41.9243 31.488C41.3963 31.296 40.9402 31.008 40.5562 30.624L41.3483 29.352C41.6683 29.656 42.0123 29.888 42.3803 30.048C42.7643 30.224 43.1883 30.312 43.6523 30.312C44.2123 30.312 44.6923 30.152 45.0923 29.832C45.5083 29.528 45.9003 28.984 46.2683 28.2L47.0843 26.352L47.2763 26.088L52.4603 14.4H54.1403L47.8283 28.512C47.4763 29.328 47.0843 29.976 46.6523 30.456C46.2363 30.936 45.7803 31.272 45.2843 31.464C44.7883 31.672 44.2363 31.776 43.6283 31.776ZM46.9883 27.36L41.1803 14.4H42.9563L48.0923 25.968L46.9883 27.36ZM61.3245 27.12C60.1085 27.12 59.0125 26.848 58.0365 26.304C57.0765 25.744 56.3165 24.984 55.7565 24.024C55.1965 23.048 54.9165 21.936 54.9165 20.688C54.9165 19.424 55.1965 18.312 55.7565 17.352C56.3165 16.392 57.0765 15.64 58.0365 15.096C58.9965 14.552 60.0925 14.28 61.3245 14.28C62.5725 14.28 63.6765 14.552 64.6365 15.096C65.6125 15.64 66.3725 16.392 66.9165 17.352C67.4765 18.312 67.7565 19.424 67.7565 20.688C67.7565 21.936 67.4765 23.048 66.9165 24.024C66.3725 24.984 65.6125 25.744 64.6365 26.304C63.6605 26.848 62.5565 27.12 61.3245 27.12ZM61.3245 25.608C62.2365 25.608 63.0445 25.408 63.7485 25.008C64.4525 24.592 65.0045 24.016 65.4045 23.28C65.8205 22.528 66.0285 21.664 66.0285 20.688C66.0285 19.696 65.8205 18.832 65.4045 18.096C65.0045 17.36 64.4525 16.792 63.7485 16.392C63.0445 15.976 62.2445 15.768 61.3485 15.768C60.4525 15.768 59.6525 15.976 58.9485 16.392C58.2445 16.792 57.6845 17.36 57.2685 18.096C56.8525 18.832 56.6445 19.696 56.6445 20.688C56.6445 21.664 56.8525 22.528 57.2685 23.28C57.6845 24.016 58.2445 24.592 58.9485 25.008C59.6525 25.408 60.4445 25.608 61.3245 25.608ZM76.4434 27.12C75.3714 27.12 74.4354 26.92 73.6354 26.52C72.8354 26.12 72.2114 25.52 71.7634 24.72C71.3314 23.92 71.1154 22.92 71.1154 21.72V14.4H72.8194V21.528C72.8194 22.872 73.1474 23.888 73.8034 24.576C74.4754 25.248 75.4114 25.584 76.6114 25.584C77.4914 25.584 78.2514 25.408 78.8914 25.056C79.5474 24.688 80.0434 24.16 80.3794 23.472C80.7314 22.784 80.9074 21.96 80.9074 21V14.4H82.6114V27H80.9794V23.544L81.2434 24.168C80.8434 25.096 80.2194 25.824 79.3714 26.352C78.5394 26.864 77.5634 27.12 76.4434 27.12ZM100.146 27.12C99.0576 27.12 98.0736 26.872 97.1936 26.376C96.3136 25.864 95.6096 25.136 95.0816 24.192C94.5696 23.232 94.3136 22.064 94.3136 20.688C94.3136 19.312 94.5696 18.152 95.0816 17.208C95.5936 16.248 96.2896 15.52 97.1696 15.024C98.0496 14.528 99.0416 14.28 100.146 14.28C101.346 14.28 102.418 14.552 103.362 15.096C104.322 15.624 105.074 16.376 105.618 17.352C106.162 18.312 106.434 19.424 106.434 20.688C106.434 21.968 106.162 23.088 105.618 24.048C105.074 25.008 104.322 25.76 103.362 26.304C102.418 26.848 101.346 27.12 100.146 27.12ZM93.6416 31.656V14.4H95.2736V18.192L95.1056 20.712L95.3456 23.256V31.656H93.6416ZM100.026 25.608C100.922 25.608 101.722 25.408 102.426 25.008C103.13 24.592 103.69 24.016 104.106 23.28C104.522 22.528 104.73 21.664 104.73 20.688C104.73 19.712 104.522 18.856 104.106 18.12C103.69 17.384 103.13 16.808 102.426 16.392C101.722 15.976 100.922 15.768 100.026 15.768C99.1296 15.768 98.3216 15.976 97.6016 16.392C96.8976 16.808 96.3376 17.384 95.9216 18.12C95.5216 18.856 95.3216 19.712 95.3216 20.688C95.3216 21.664 95.5216 22.528 95.9216 23.28C96.3376 24.016 96.8976 24.592 97.6016 25.008C98.3216 25.408 99.1296 25.608 100.026 25.608ZM109.907 27V14.4H111.539V17.832L111.371 17.232C111.723 16.272 112.315 15.544 113.147 15.048C113.979 14.536 115.011 14.28 116.243 14.28V15.936C116.179 15.936 116.115 15.936 116.051 15.936C115.987 15.92 115.923 15.912 115.859 15.912C114.531 15.912 113.491 16.32 112.739 17.136C111.987 17.936 111.611 19.08 111.611 20.568V27H109.907ZM124.587 27.12C123.275 27.12 122.123 26.848 121.131 26.304C120.139 25.744 119.363 24.984 118.803 24.024C118.243 23.048 117.963 21.936 117.963 20.688C117.963 19.44 118.227 18.336 118.755 17.376C119.299 16.416 120.035 15.664 120.963 15.12C121.907 14.56 122.963 14.28 124.131 14.28C125.315 14.28 126.363 14.552 127.275 15.096C128.203 15.624 128.931 16.376 129.459 17.352C129.987 18.312 130.251 19.424 130.251 20.688C130.251 20.768 130.243 20.856 130.227 20.952C130.227 21.032 130.227 21.12 130.227 21.216H119.259V19.944H129.315L128.643 20.448C128.643 19.536 128.443 18.728 128.043 18.024C127.659 17.304 127.131 16.744 126.459 16.344C125.787 15.944 125.011 15.744 124.131 15.744C123.267 15.744 122.491 15.944 121.803 16.344C121.115 16.744 120.579 17.304 120.195 18.024C119.811 18.744 119.619 19.568 119.619 20.496V20.76C119.619 21.72 119.827 22.568 120.243 23.304C120.675 24.024 121.267 24.592 122.019 25.008C122.787 25.408 123.659 25.608 124.635 25.608C125.403 25.608 126.115 25.472 126.771 25.2C127.443 24.928 128.019 24.512 128.499 23.952L129.459 25.056C128.899 25.728 128.195 26.24 127.347 26.592C126.515 26.944 125.595 27.12 124.587 27.12ZM134.008 27V12.816C134.008 11.696 134.336 10.792 134.992 10.104C135.648 9.416 136.592 9.072 137.824 9.072C138.304 9.072 138.768 9.136 139.216 9.264C139.664 9.392 140.04 9.592 140.344 9.864L139.768 11.136C139.528 10.928 139.248 10.776 138.928 10.68C138.608 10.568 138.264 10.512 137.896 10.512C137.176 10.512 136.624 10.712 136.24 11.112C135.856 11.512 135.664 12.104 135.664 12.888V14.808L135.712 15.6V27H134.008ZM131.752 15.816V14.4H139.552V15.816H131.752ZM146.994 27.12C145.682 27.12 144.53 26.848 143.538 26.304C142.546 25.744 141.77 24.984 141.21 24.024C140.65 23.048 140.37 21.936 140.37 20.688C140.37 19.44 140.634 18.336 141.162 17.376C141.706 16.416 142.442 15.664 143.37 15.12C144.314 14.56 145.37 14.28 146.538 14.28C147.722 14.28 148.77 14.552 149.682 15.096C150.61 15.624 151.338 16.376 151.866 17.352C152.394 18.312 152.658 19.424 152.658 20.688C152.658 20.768 152.65 20.856 152.634 20.952C152.634 21.032 152.634 21.12 152.634 21.216H141.666V19.944H151.722L151.05 20.448C151.05 19.536 150.85 18.728 150.45 18.024C150.066 17.304 149.538 16.744 148.866 16.344C148.194 15.944 147.418 15.744 146.538 15.744C145.674 15.744 144.898 15.944 144.21 16.344C143.522 16.744 142.986 17.304 142.602 18.024C142.218 18.744 142.026 19.568 142.026 20.496V20.76C142.026 21.72 142.234 22.568 142.65 23.304C143.082 24.024 143.674 24.592 144.426 25.008C145.194 25.408 146.066 25.608 147.042 25.608C147.81 25.608 148.522 25.472 149.178 25.2C149.85 24.928 150.426 24.512 150.906 23.952L151.866 25.056C151.306 25.728 150.602 26.24 149.754 26.592C148.922 26.944 148.002 27.12 146.994 27.12ZM156.126 27V14.4H157.758V17.832L157.59 17.232C157.942 16.272 158.534 15.544 159.366 15.048C160.198 14.536 161.23 14.28 162.462 14.28V15.936C162.398 15.936 162.334 15.936 162.27 15.936C162.206 15.92 162.142 15.912 162.078 15.912C160.75 15.912 159.71 16.32 158.958 17.136C158.206 17.936 157.83 19.08 157.83 20.568V27H156.126ZM179.744 27.144C178.48 27.144 177.304 26.936 176.216 26.52C175.144 26.088 174.208 25.488 173.408 24.72C172.624 23.936 172.008 23.032 171.56 22.008C171.128 20.968 170.912 19.832 170.912 18.6C170.912 17.368 171.128 16.24 171.56 15.216C172.008 14.176 172.624 13.272 173.408 12.504C174.208 11.72 175.144 11.12 176.216 10.704C177.288 10.272 178.464 10.056 179.744 10.056C181.008 10.056 182.176 10.272 183.248 10.704C184.32 11.12 185.248 11.712 186.032 12.48C186.832 13.248 187.448 14.152 187.88 15.192C188.328 16.232 188.552 17.368 188.552 18.6C188.552 19.832 188.328 20.968 187.88 22.008C187.448 23.048 186.832 23.952 186.032 24.72C185.248 25.488 184.32 26.088 183.248 26.52C182.176 26.936 181.008 27.144 179.744 27.144ZM185.24 30.336C184.728 30.336 184.232 30.272 183.752 30.144C183.272 30.016 182.784 29.808 182.288 29.52C181.808 29.248 181.312 28.888 180.8 28.44C180.288 27.992 179.728 27.448 179.12 26.808L181.064 26.328C181.56 26.92 182.04 27.408 182.504 27.792C182.984 28.176 183.448 28.456 183.896 28.632C184.36 28.824 184.816 28.92 185.264 28.92C186.512 28.92 187.576 28.408 188.456 27.384L189.32 28.416C188.264 29.696 186.904 30.336 185.24 30.336ZM179.744 25.56C180.752 25.56 181.68 25.392 182.528 25.056C183.392 24.704 184.136 24.208 184.76 23.568C185.4 22.928 185.896 22.192 186.248 21.36C186.6 20.512 186.776 19.592 186.776 18.6C186.776 17.592 186.6 16.672 186.248 15.84C185.896 14.992 185.4 14.256 184.76 13.632C184.136 12.992 183.392 12.504 182.528 12.168C181.68 11.816 180.752 11.64 179.744 11.64C178.736 11.64 177.8 11.816 176.936 12.168C176.072 12.504 175.32 12.992 174.68 13.632C174.056 14.256 173.56 14.992 173.192 15.84C172.84 16.672 172.664 17.592 172.664 18.6C172.664 19.592 172.84 20.512 173.192 21.36C173.56 22.192 174.056 22.928 174.68 23.568C175.32 24.208 176.072 24.704 176.936 25.056C177.8 25.392 178.736 25.56 179.744 25.56ZM192.533 27V10.2H198.821C200.245 10.2 201.469 10.432 202.493 10.896C203.517 11.344 204.301 12 204.845 12.864C205.405 13.712 205.685 14.744 205.685 15.96C205.685 17.144 205.405 18.168 204.845 19.032C204.301 19.88 203.517 20.536 202.493 21C201.469 21.448 200.245 21.672 198.821 21.672H193.517L194.309 20.856V27H192.533ZM204.005 27L199.685 20.904H201.605L205.949 27H204.005ZM194.309 21L193.517 20.16H198.773C200.453 20.16 201.725 19.792 202.589 19.056C203.469 18.32 203.909 17.288 203.909 15.96C203.909 14.616 203.469 13.576 202.589 12.84C201.725 12.104 200.453 11.736 198.773 11.736H193.517L194.309 10.896V21ZM231.542 14.28C232.566 14.28 233.454 14.48 234.206 14.88C234.974 15.264 235.566 15.856 235.982 16.656C236.414 17.456 236.63 18.464 236.63 19.68V27H234.926V19.848C234.926 18.52 234.606 17.52 233.966 16.848C233.342 16.16 232.454 15.816 231.302 15.816C230.438 15.816 229.686 16 229.046 16.368C228.422 16.72 227.934 17.24 227.582 17.928C227.246 18.6 227.078 19.416 227.078 20.376V27H225.374V19.848C225.374 18.52 225.054 17.52 224.414 16.848C223.774 16.16 222.878 15.816 221.726 15.816C220.878 15.816 220.134 16 219.494 16.368C218.854 16.72 218.358 17.24 218.006 17.928C217.67 18.6 217.502 19.416 217.502 20.376V27H215.798V14.4H217.43V17.808L217.166 17.208C217.55 16.296 218.166 15.584 219.014 15.072C219.878 14.544 220.894 14.28 222.062 14.28C223.294 14.28 224.342 14.592 225.206 15.216C226.07 15.824 226.63 16.744 226.886 17.976L226.214 17.712C226.582 16.688 227.23 15.864 228.158 15.24C229.102 14.6 230.23 14.28 231.542 14.28ZM246.603 27.12C245.291 27.12 244.139 26.848 243.147 26.304C242.155 25.744 241.379 24.984 240.819 24.024C240.259 23.048 239.979 21.936 239.979 20.688C239.979 19.44 240.243 18.336 240.771 17.376C241.315 16.416 242.051 15.664 242.979 15.12C243.923 14.56 244.979 14.28 246.147 14.28C247.331 14.28 248.379 14.552 249.291 15.096C250.219 15.624 250.947 16.376 251.475 17.352C252.003 18.312 252.267 19.424 252.267 20.688C252.267 20.768 252.259 20.856 252.243 20.952C252.243 21.032 252.243 21.12 252.243 21.216H241.275V19.944H251.331L250.659 20.448C250.659 19.536 250.459 18.728 250.059 18.024C249.675 17.304 249.147 16.744 248.475 16.344C247.803 15.944 247.027 15.744 246.147 15.744C245.283 15.744 244.507 15.944 243.819 16.344C243.131 16.744 242.595 17.304 242.211 18.024C241.827 18.744 241.635 19.568 241.635 20.496V20.76C241.635 21.72 241.843 22.568 242.259 23.304C242.691 24.024 243.283 24.592 244.035 25.008C244.803 25.408 245.675 25.608 246.651 25.608C247.419 25.608 248.131 25.472 248.787 25.2C249.459 24.928 250.035 24.512 250.515 23.952L251.475 25.056C250.915 25.728 250.211 26.24 249.363 26.592C248.531 26.944 247.611 27.12 246.603 27.12ZM262.167 14.28C263.191 14.28 264.087 14.48 264.855 14.88C265.639 15.264 266.247 15.856 266.679 16.656C267.127 17.456 267.351 18.464 267.351 19.68V27H265.647V19.848C265.647 18.52 265.311 17.52 264.639 16.848C263.983 16.16 263.055 15.816 261.855 15.816C260.959 15.816 260.175 16 259.503 16.368C258.847 16.72 258.335 17.24 257.967 17.928C257.615 18.6 257.439 19.416 257.439 20.376V27H255.735V14.4H257.367V17.856L257.103 17.208C257.503 16.296 258.143 15.584 259.023 15.072C259.903 14.544 260.951 14.28 262.167 14.28ZM277.162 27.12C276.09 27.12 275.154 26.92 274.354 26.52C273.554 26.12 272.93 25.52 272.482 24.72C272.05 23.92 271.834 22.92 271.834 21.72V14.4H273.538V21.528C273.538 22.872 273.866 23.888 274.522 24.576C275.194 25.248 276.13 25.584 277.33 25.584C278.21 25.584 278.97 25.408 279.61 25.056C280.266 24.688 280.762 24.16 281.098 23.472C281.45 22.784 281.626 21.96 281.626 21V14.4H283.33V27H281.698V23.544L281.962 24.168C281.562 25.096 280.938 25.824 280.09 26.352C279.258 26.864 278.282 27.12 277.162 27.12ZM291.463 27.12C290.423 27.12 289.439 26.976 288.511 26.688C287.583 26.384 286.855 26.008 286.327 25.56L287.095 24.216C287.607 24.6 288.263 24.936 289.063 25.224C289.863 25.496 290.703 25.632 291.583 25.632C292.783 25.632 293.647 25.448 294.175 25.08C294.703 24.696 294.967 24.192 294.967 23.568C294.967 23.104 294.815 22.744 294.511 22.488C294.223 22.216 293.839 22.016 293.359 21.888C292.879 21.744 292.343 21.624 291.751 21.528C291.159 21.432 290.567 21.32 289.975 21.192C289.399 21.064 288.871 20.88 288.391 20.64C287.911 20.384 287.519 20.04 287.215 19.608C286.927 19.176 286.783 18.6 286.783 17.88C286.783 17.192 286.975 16.576 287.359 16.032C287.743 15.488 288.303 15.064 289.039 14.76C289.791 14.44 290.703 14.28 291.775 14.28C292.591 14.28 293.407 14.392 294.223 14.616C295.039 14.824 295.711 15.104 296.239 15.456L295.495 16.824C294.935 16.44 294.335 16.168 293.695 16.008C293.055 15.832 292.415 15.744 291.775 15.744C290.639 15.744 289.799 15.944 289.255 16.344C288.727 16.728 288.463 17.224 288.463 17.832C288.463 18.312 288.607 18.688 288.895 18.96C289.199 19.232 289.591 19.448 290.071 19.608C290.567 19.752 291.103 19.872 291.679 19.968C292.271 20.064 292.855 20.184 293.431 20.328C294.023 20.456 294.559 20.64 295.039 20.88C295.535 21.104 295.927 21.432 296.215 21.864C296.519 22.28 296.671 22.832 296.671 23.52C296.671 24.256 296.463 24.896 296.047 25.44C295.647 25.968 295.055 26.384 294.271 26.688C293.503 26.976 292.567 27.12 291.463 27.12ZM311.215 27.12C309.999 27.12 308.903 26.848 307.927 26.304C306.967 25.744 306.207 24.984 305.647 24.024C305.087 23.048 304.807 21.936 304.807 20.688C304.807 19.424 305.087 18.312 305.647 17.352C306.207 16.392 306.967 15.64 307.927 15.096C308.887 14.552 309.983 14.28 311.215 14.28C312.463 14.28 313.567 14.552 314.527 15.096C315.503 15.64 316.263 16.392 316.807 17.352C317.367 18.312 317.647 19.424 317.647 20.688C317.647 21.936 317.367 23.048 316.807 24.024C316.263 24.984 315.503 25.744 314.527 26.304C313.551 26.848 312.447 27.12 311.215 27.12ZM311.215 25.608C312.127 25.608 312.935 25.408 313.639 25.008C314.343 24.592 314.895 24.016 315.295 23.28C315.711 22.528 315.919 21.664 315.919 20.688C315.919 19.696 315.711 18.832 315.295 18.096C314.895 17.36 314.343 16.792 313.639 16.392C312.935 15.976 312.135 15.768 311.239 15.768C310.343 15.768 309.543 15.976 308.839 16.392C308.135 16.792 307.575 17.36 307.159 18.096C306.743 18.832 306.535 19.696 306.535 20.688C306.535 21.664 306.743 22.528 307.159 23.28C307.575 24.016 308.135 24.592 308.839 25.008C309.543 25.408 310.335 25.608 311.215 25.608ZM321.126 27V14.4H322.758V17.832L322.59 17.232C322.942 16.272 323.534 15.544 324.366 15.048C325.198 14.536 326.23 14.28 327.462 14.28V15.936C327.398 15.936 327.334 15.936 327.27 15.936C327.206 15.92 327.142 15.912 327.078 15.912C325.75 15.912 324.71 16.32 323.958 17.136C323.206 17.936 322.83 19.08 322.83 20.568V27H321.126ZM343.544 27.12C342.456 27.12 341.472 26.872 340.592 26.376C339.712 25.864 339.008 25.136 338.48 24.192C337.968 23.232 337.712 22.064 337.712 20.688C337.712 19.312 337.968 18.152 338.48 17.208C338.992 16.248 339.688 15.52 340.568 15.024C341.448 14.528 342.44 14.28 343.544 14.28C344.744 14.28 345.816 14.552 346.76 15.096C347.72 15.624 348.472 16.376 349.016 17.352C349.56 18.312 349.832 19.424 349.832 20.688C349.832 21.968 349.56 23.088 349.016 24.048C348.472 25.008 347.72 25.76 346.76 26.304C345.816 26.848 344.744 27.12 343.544 27.12ZM337.04 31.656V14.4H338.672V18.192L338.504 20.712L338.744 23.256V31.656H337.04ZM343.424 25.608C344.32 25.608 345.12 25.408 345.824 25.008C346.528 24.592 347.088 24.016 347.504 23.28C347.92 22.528 348.128 21.664 348.128 20.688C348.128 19.712 347.92 18.856 347.504 18.12C347.088 17.384 346.528 16.808 345.824 16.392C345.12 15.976 344.32 15.768 343.424 15.768C342.528 15.768 341.72 15.976 341 16.392C340.296 16.808 339.736 17.384 339.32 18.12C338.92 18.856 338.72 19.712 338.72 20.688C338.72 21.664 338.92 22.528 339.32 23.28C339.736 24.016 340.296 24.592 341 25.008C341.72 25.408 342.528 25.608 343.424 25.608ZM361.131 27V24.216L361.059 23.76V19.104C361.059 18.032 360.755 17.208 360.147 16.632C359.555 16.056 358.667 15.768 357.483 15.768C356.667 15.768 355.891 15.904 355.155 16.176C354.419 16.448 353.795 16.808 353.283 17.256L352.515 15.984C353.155 15.44 353.923 15.024 354.819 14.736C355.715 14.432 356.659 14.28 357.651 14.28C359.283 14.28 360.539 14.688 361.419 15.504C362.315 16.304 362.763 17.528 362.763 19.176V27H361.131ZM356.787 27.12C355.843 27.12 355.019 26.968 354.315 26.664C353.627 26.344 353.099 25.912 352.731 25.368C352.363 24.808 352.179 24.168 352.179 23.448C352.179 22.792 352.331 22.2 352.635 21.672C352.955 21.128 353.467 20.696 354.171 20.376C354.891 20.04 355.851 19.872 357.051 19.872H361.395V21.144H357.099C355.883 21.144 355.035 21.36 354.555 21.792C354.091 22.224 353.859 22.76 353.859 23.4C353.859 24.12 354.139 24.696 354.699 25.128C355.259 25.56 356.043 25.776 357.051 25.776C358.011 25.776 358.835 25.56 359.523 25.128C360.227 24.68 360.739 24.04 361.059 23.208L361.443 24.384C361.123 25.216 360.563 25.88 359.763 26.376C358.979 26.872 357.987 27.12 356.787 27.12ZM373.896 27.12C372.808 27.12 371.824 26.872 370.944 26.376C370.064 25.864 369.36 25.136 368.832 24.192C368.32 23.232 368.064 22.064 368.064 20.688C368.064 19.312 368.32 18.152 368.832 17.208C369.344 16.248 370.04 15.52 370.92 15.024C371.8 14.528 372.792 14.28 373.896 14.28C375.096 14.28 376.168 14.552 377.112 15.096C378.072 15.624 378.824 16.376 379.368 17.352C379.912 18.312 380.184 19.424 380.184 20.688C380.184 21.968 379.912 23.088 379.368 24.048C378.824 25.008 378.072 25.76 377.112 26.304C376.168 26.848 375.096 27.12 373.896 27.12ZM367.392 31.656V14.4H369.024V18.192L368.856 20.712L369.096 23.256V31.656H367.392ZM373.776 25.608C374.672 25.608 375.472 25.408 376.176 25.008C376.88 24.592 377.44 24.016 377.856 23.28C378.272 22.528 378.48 21.664 378.48 20.688C378.48 19.712 378.272 18.856 377.856 18.12C377.44 17.384 376.88 16.808 376.176 16.392C375.472 15.976 374.672 15.768 373.776 15.768C372.88 15.768 372.072 15.976 371.352 16.392C370.648 16.808 370.088 17.384 369.672 18.12C369.272 18.856 369.072 19.712 369.072 20.688C369.072 21.664 369.272 22.528 369.672 23.28C370.088 24.016 370.648 24.592 371.352 25.008C372.072 25.408 372.88 25.608 373.776 25.608ZM389.009 27.12C387.697 27.12 386.545 26.848 385.553 26.304C384.561 25.744 383.785 24.984 383.225 24.024C382.665 23.048 382.385 21.936 382.385 20.688C382.385 19.44 382.649 18.336 383.177 17.376C383.721 16.416 384.457 15.664 385.385 15.12C386.329 14.56 387.385 14.28 388.553 14.28C389.737 14.28 390.785 14.552 391.697 15.096C392.625 15.624 393.353 16.376 393.881 17.352C394.409 18.312 394.673 19.424 394.673 20.688C394.673 20.768 394.665 20.856 394.649 20.952C394.649 21.032 394.649 21.12 394.649 21.216H383.681V19.944H393.737L393.065 20.448C393.065 19.536 392.865 18.728 392.465 18.024C392.081 17.304 391.553 16.744 390.881 16.344C390.209 15.944 389.433 15.744 388.553 15.744C387.689 15.744 386.913 15.944 386.225 16.344C385.537 16.744 385.001 17.304 384.617 18.024C384.233 18.744 384.041 19.568 384.041 20.496V20.76C384.041 21.72 384.249 22.568 384.665 23.304C385.097 24.024 385.689 24.592 386.441 25.008C387.209 25.408 388.081 25.608 389.057 25.608C389.825 25.608 390.537 25.472 391.193 25.2C391.865 24.928 392.441 24.512 392.921 23.952L393.881 25.056C393.321 25.728 392.617 26.24 391.769 26.592C390.937 26.944 390.017 27.12 389.009 27.12ZM398.142 27V14.4H399.774V17.832L399.606 17.232C399.958 16.272 400.55 15.544 401.382 15.048C402.214 14.536 403.246 14.28 404.478 14.28V15.936C404.414 15.936 404.35 15.936 404.286 15.936C404.222 15.92 404.158 15.912 404.094 15.912C402.766 15.912 401.726 16.32 400.974 17.136C400.222 17.936 399.846 19.08 399.846 20.568V27H398.142ZM429.8 14.28C430.824 14.28 431.712 14.48 432.464 14.88C433.232 15.264 433.824 15.856 434.24 16.656C434.672 17.456 434.888 18.464 434.888 19.68V27H433.184V19.848C433.184 18.52 432.864 17.52 432.224 16.848C431.6 16.16 430.712 15.816 429.56 15.816C428.696 15.816 427.944 16 427.304 16.368C426.68 16.72 426.192 17.24 425.84 17.928C425.504 18.6 425.336 19.416 425.336 20.376V27H423.632V19.848C423.632 18.52 423.312 17.52 422.672 16.848C422.032 16.16 421.136 15.816 419.984 15.816C419.136 15.816 418.392 16 417.752 16.368C417.112 16.72 416.616 17.24 416.264 17.928C415.928 18.6 415.76 19.416 415.76 20.376V27H414.056V14.4H415.688V17.808L415.424 17.208C415.808 16.296 416.424 15.584 417.272 15.072C418.136 14.544 419.152 14.28 420.32 14.28C421.552 14.28 422.6 14.592 423.464 15.216C424.328 15.824 424.888 16.744 425.144 17.976L424.472 17.712C424.84 16.688 425.488 15.864 426.416 15.24C427.36 14.6 428.488 14.28 429.8 14.28ZM444.861 27.12C443.549 27.12 442.397 26.848 441.405 26.304C440.413 25.744 439.637 24.984 439.077 24.024C438.517 23.048 438.237 21.936 438.237 20.688C438.237 19.44 438.501 18.336 439.029 17.376C439.573 16.416 440.309 15.664 441.237 15.12C442.181 14.56 443.237 14.28 444.405 14.28C445.589 14.28 446.637 14.552 447.549 15.096C448.477 15.624 449.205 16.376 449.733 17.352C450.261 18.312 450.525 19.424 450.525 20.688C450.525 20.768 450.517 20.856 450.501 20.952C450.501 21.032 450.501 21.12 450.501 21.216H439.533V19.944H449.589L448.917 20.448C448.917 19.536 448.717 18.728 448.317 18.024C447.933 17.304 447.405 16.744 446.733 16.344C446.061 15.944 445.285 15.744 444.405 15.744C443.541 15.744 442.765 15.944 442.077 16.344C441.389 16.744 440.853 17.304 440.469 18.024C440.085 18.744 439.893 19.568 439.893 20.496V20.76C439.893 21.72 440.101 22.568 440.517 23.304C440.949 24.024 441.541 24.592 442.293 25.008C443.061 25.408 443.933 25.608 444.909 25.608C445.677 25.608 446.389 25.472 447.045 25.2C447.717 24.928 448.293 24.512 448.773 23.952L449.733 25.056C449.173 25.728 448.469 26.24 447.621 26.592C446.789 26.944 445.869 27.12 444.861 27.12ZM460.425 14.28C461.449 14.28 462.345 14.48 463.113 14.88C463.897 15.264 464.505 15.856 464.937 16.656C465.385 17.456 465.609 18.464 465.609 19.68V27H463.905V19.848C463.905 18.52 463.569 17.52 462.897 16.848C462.241 16.16 461.313 15.816 460.113 15.816C459.217 15.816 458.433 16 457.761 16.368C457.105 16.72 456.593 17.24 456.225 17.928C455.873 18.6 455.697 19.416 455.697 20.376V27H453.993V14.4H455.625V17.856L455.361 17.208C455.761 16.296 456.401 15.584 457.281 15.072C458.161 14.544 459.209 14.28 460.425 14.28ZM475.42 27.12C474.348 27.12 473.412 26.92 472.612 26.52C471.812 26.12 471.188 25.52 470.74 24.72C470.308 23.92 470.092 22.92 470.092 21.72V14.4H471.796V21.528C471.796 22.872 472.124 23.888 472.78 24.576C473.452 25.248 474.388 25.584 475.588 25.584C476.468 25.584 477.228 25.408 477.868 25.056C478.524 24.688 479.02 24.16 479.356 23.472C479.708 22.784 479.884 21.96 479.884 21V14.4H481.588V27H479.956V23.544L480.22 24.168C479.82 25.096 479.196 25.824 478.348 26.352C477.516 26.864 476.54 27.12 475.42 27.12ZM489.721 27.12C488.681 27.12 487.697 26.976 486.769 26.688C485.841 26.384 485.113 26.008 484.585 25.56L485.353 24.216C485.865 24.6 486.521 24.936 487.321 25.224C488.121 25.496 488.961 25.632 489.841 25.632C491.041 25.632 491.905 25.448 492.433 25.08C492.961 24.696 493.225 24.192 493.225 23.568C493.225 23.104 493.073 22.744 492.769 22.488C492.481 22.216 492.097 22.016 491.617 21.888C491.137 21.744 490.601 21.624 490.009 21.528C489.417 21.432 488.825 21.32 488.233 21.192C487.657 21.064 487.129 20.88 486.649 20.64C486.169 20.384 485.777 20.04 485.473 19.608C485.185 19.176 485.041 18.6 485.041 17.88C485.041 17.192 485.233 16.576 485.617 16.032C486.001 15.488 486.561 15.064 487.297 14.76C488.049 14.44 488.961 14.28 490.033 14.28C490.849 14.28 491.665 14.392 492.481 14.616C493.297 14.824 493.969 15.104 494.497 15.456L493.753 16.824C493.193 16.44 492.593 16.168 491.953 16.008C491.313 15.832 490.673 15.744 490.033 15.744C488.897 15.744 488.057 15.944 487.513 16.344C486.985 16.728 486.721 17.224 486.721 17.832C486.721 18.312 486.865 18.688 487.153 18.96C487.457 19.232 487.849 19.448 488.329 19.608C488.825 19.752 489.361 19.872 489.937 19.968C490.529 20.064 491.113 20.184 491.689 20.328C492.281 20.456 492.817 20.64 493.297 20.88C493.793 21.104 494.185 21.432 494.473 21.864C494.777 22.28 494.929 22.832 494.929 23.52C494.929 24.256 494.721 24.896 494.305 25.44C493.905 25.968 493.313 26.384 492.529 26.688C491.761 26.976 490.825 27.12 489.721 27.12ZM500.898 21.96C500.898 21.288 501.002 20.712 501.21 20.232C501.434 19.752 501.706 19.328 502.026 18.96C502.362 18.592 502.714 18.248 503.082 17.928C503.466 17.608 503.826 17.288 504.162 16.968C504.498 16.632 504.77 16.272 504.978 15.888C505.186 15.488 505.29 15.024 505.29 14.496C505.29 13.632 504.954 12.928 504.282 12.384C503.61 11.84 502.658 11.568 501.426 11.568C500.402 11.568 499.514 11.736 498.762 12.072C498.01 12.392 497.37 12.872 496.842 13.512L495.57 12.552C496.21 11.752 497.034 11.136 498.042 10.704C499.05 10.272 500.218 10.056 501.546 10.056C502.666 10.056 503.634 10.224 504.45 10.56C505.282 10.896 505.922 11.376 506.37 12C506.834 12.624 507.066 13.368 507.066 14.232C507.066 14.92 506.954 15.512 506.73 16.008C506.522 16.488 506.25 16.92 505.914 17.304C505.594 17.672 505.242 18.024 504.858 18.36C504.49 18.68 504.138 19.008 503.802 19.344C503.466 19.68 503.194 20.056 502.986 20.472C502.778 20.888 502.674 21.384 502.674 21.96H500.898ZM501.786 27.12C501.45 27.12 501.154 27 500.898 26.76C500.658 26.504 500.538 26.208 500.538 25.872C500.538 25.52 500.658 25.232 500.898 25.008C501.154 24.768 501.45 24.648 501.786 24.648C502.154 24.648 502.458 24.768 502.698 25.008C502.938 25.232 503.058 25.52 503.058 25.872C503.058 26.208 502.938 26.504 502.698 26.76C502.458 27 502.154 27.12 501.786 27.12Z" fill="white"/>
</svg>
