<svg width="418" height="408" viewBox="0 0 418 408" fill="none" xmlns="http://www.w3.org/2000/svg">
<path d="M262.836 327V323.248L263.158 324.116L258.944 317.2H260.442L263.984 323.038H263.172L266.728 317.2H268.114L263.914 324.116L264.222 323.248V327H262.836ZM271.808 327.084C271.015 327.084 270.315 326.921 269.708 326.594C269.111 326.267 268.644 325.819 268.308 325.25C267.982 324.681 267.818 324.027 267.818 323.29C267.818 322.553 267.977 321.899 268.294 321.33C268.621 320.761 269.064 320.317 269.624 320C270.194 319.673 270.833 319.51 271.542 319.51C272.261 319.51 272.896 319.669 273.446 319.986C273.997 320.303 274.426 320.751 274.734 321.33C275.052 321.899 275.21 322.567 275.21 323.332C275.21 323.388 275.206 323.453 275.196 323.528C275.196 323.603 275.192 323.673 275.182 323.738H268.868V322.772H274.482L273.936 323.108C273.946 322.632 273.848 322.207 273.642 321.834C273.437 321.461 273.152 321.171 272.788 320.966C272.434 320.751 272.018 320.644 271.542 320.644C271.076 320.644 270.66 320.751 270.296 320.966C269.932 321.171 269.648 321.465 269.442 321.848C269.237 322.221 269.134 322.651 269.134 323.136V323.36C269.134 323.855 269.246 324.298 269.47 324.69C269.704 325.073 270.026 325.371 270.436 325.586C270.847 325.801 271.318 325.908 271.85 325.908C272.289 325.908 272.686 325.833 273.04 325.684C273.404 325.535 273.722 325.311 273.992 325.012L274.734 325.88C274.398 326.272 273.978 326.571 273.474 326.776C272.98 326.981 272.424 327.084 271.808 327.084ZM279.205 327.084C278.589 327.084 278.001 327 277.441 326.832C276.89 326.664 276.456 326.459 276.139 326.216L276.699 325.152C277.016 325.367 277.408 325.549 277.875 325.698C278.341 325.847 278.817 325.922 279.303 325.922C279.928 325.922 280.376 325.833 280.647 325.656C280.927 325.479 281.067 325.231 281.067 324.914C281.067 324.681 280.983 324.499 280.815 324.368C280.647 324.237 280.423 324.139 280.143 324.074C279.872 324.009 279.569 323.953 279.233 323.906C278.897 323.85 278.561 323.785 278.225 323.71C277.889 323.626 277.581 323.514 277.301 323.374C277.021 323.225 276.797 323.024 276.629 322.772C276.461 322.511 276.377 322.165 276.377 321.736C276.377 321.288 276.503 320.896 276.755 320.56C277.007 320.224 277.361 319.967 277.819 319.79C278.285 319.603 278.836 319.51 279.471 319.51C279.956 319.51 280.446 319.571 280.941 319.692C281.445 319.804 281.855 319.967 282.173 320.182L281.599 321.246C281.263 321.022 280.913 320.868 280.549 320.784C280.185 320.7 279.821 320.658 279.457 320.658C278.869 320.658 278.43 320.756 278.141 320.952C277.851 321.139 277.707 321.381 277.707 321.68C277.707 321.932 277.791 322.128 277.959 322.268C278.136 322.399 278.36 322.501 278.631 322.576C278.911 322.651 279.219 322.716 279.555 322.772C279.891 322.819 280.227 322.884 280.563 322.968C280.899 323.043 281.202 323.15 281.473 323.29C281.753 323.43 281.977 323.626 282.145 323.878C282.322 324.13 282.411 324.466 282.411 324.886C282.411 325.334 282.28 325.721 282.019 326.048C281.757 326.375 281.389 326.631 280.913 326.818C280.437 326.995 279.867 327.084 279.205 327.084Z" fill="white"/>
<ellipse cx="237.1" cy="356.658" rx="7" ry="6.99534" fill="#D5E2CD"/>
<path d="M265.326 362.112C264.579 362.112 263.865 362 263.184 361.776C262.503 361.543 261.966 361.244 261.574 360.88L262.092 359.788C262.465 360.115 262.941 360.385 263.52 360.6C264.099 360.815 264.701 360.922 265.326 360.922C265.895 360.922 266.357 360.857 266.712 360.726C267.067 360.595 267.328 360.418 267.496 360.194C267.664 359.961 267.748 359.699 267.748 359.41C267.748 359.074 267.636 358.803 267.412 358.598C267.197 358.393 266.913 358.229 266.558 358.108C266.213 357.977 265.83 357.865 265.41 357.772C264.99 357.679 264.565 357.571 264.136 357.45C263.716 357.319 263.329 357.156 262.974 356.96C262.629 356.764 262.349 356.503 262.134 356.176C261.919 355.84 261.812 355.411 261.812 354.888C261.812 354.384 261.943 353.922 262.204 353.502C262.475 353.073 262.885 352.732 263.436 352.48C263.996 352.219 264.705 352.088 265.564 352.088C266.133 352.088 266.698 352.163 267.258 352.312C267.818 352.461 268.303 352.676 268.714 352.956L268.252 354.076C267.832 353.796 267.389 353.595 266.922 353.474C266.455 353.343 266.003 353.278 265.564 353.278C265.013 353.278 264.561 353.348 264.206 353.488C263.851 353.628 263.59 353.815 263.422 354.048C263.263 354.281 263.184 354.543 263.184 354.832C263.184 355.177 263.291 355.453 263.506 355.658C263.73 355.863 264.015 356.027 264.36 356.148C264.715 356.269 265.102 356.381 265.522 356.484C265.942 356.577 266.362 356.685 266.782 356.806C267.211 356.927 267.599 357.086 267.944 357.282C268.299 357.478 268.583 357.739 268.798 358.066C269.013 358.393 269.12 358.813 269.12 359.326C269.12 359.821 268.985 360.283 268.714 360.712C268.443 361.132 268.023 361.473 267.454 361.734C266.894 361.986 266.185 362.112 265.326 362.112ZM274.147 362.084C273.401 362.084 272.738 361.921 272.159 361.594C271.581 361.267 271.123 360.819 270.787 360.25C270.451 359.671 270.283 359.018 270.283 358.29C270.283 357.553 270.451 356.899 270.787 356.33C271.123 355.761 271.581 355.317 272.159 355C272.738 354.673 273.401 354.51 274.147 354.51C274.885 354.51 275.543 354.673 276.121 355C276.709 355.317 277.167 355.761 277.493 356.33C277.829 356.89 277.997 357.543 277.997 358.29C277.997 359.027 277.829 359.681 277.493 360.25C277.167 360.819 276.709 361.267 276.121 361.594C275.543 361.921 274.885 362.084 274.147 362.084ZM274.147 360.908C274.623 360.908 275.048 360.801 275.421 360.586C275.804 360.371 276.103 360.068 276.317 359.676C276.532 359.275 276.639 358.813 276.639 358.29C276.639 357.758 276.532 357.301 276.317 356.918C276.103 356.526 275.804 356.223 275.421 356.008C275.048 355.793 274.623 355.686 274.147 355.686C273.671 355.686 273.247 355.793 272.873 356.008C272.5 356.223 272.201 356.526 271.977 356.918C271.753 357.301 271.641 357.758 271.641 358.29C271.641 358.813 271.753 359.275 271.977 359.676C272.201 360.068 272.5 360.371 272.873 360.586C273.247 360.801 273.671 360.908 274.147 360.908ZM289.138 354.51C289.735 354.51 290.263 354.627 290.72 354.86C291.177 355.093 291.532 355.448 291.784 355.924C292.045 356.4 292.176 357.002 292.176 357.73V362H290.832V357.884C290.832 357.165 290.664 356.624 290.328 356.26C289.992 355.896 289.521 355.714 288.914 355.714C288.466 355.714 288.074 355.807 287.738 355.994C287.402 356.181 287.141 356.456 286.954 356.82C286.777 357.184 286.688 357.637 286.688 358.178V362H285.344V357.884C285.344 357.165 285.176 356.624 284.84 356.26C284.513 355.896 284.042 355.714 283.426 355.714C282.987 355.714 282.6 355.807 282.264 355.994C281.928 356.181 281.667 356.456 281.48 356.82C281.293 357.184 281.2 357.637 281.2 358.178V362H279.856V354.58H281.144V356.554L280.934 356.05C281.167 355.565 281.527 355.187 282.012 354.916C282.497 354.645 283.062 354.51 283.706 354.51C284.415 354.51 285.027 354.687 285.54 355.042C286.053 355.387 286.389 355.915 286.548 356.624L286.002 356.4C286.226 355.831 286.618 355.373 287.178 355.028C287.738 354.683 288.391 354.51 289.138 354.51ZM297.953 362.084C297.16 362.084 296.46 361.921 295.853 361.594C295.256 361.267 294.789 360.819 294.453 360.25C294.126 359.681 293.963 359.027 293.963 358.29C293.963 357.553 294.122 356.899 294.439 356.33C294.766 355.761 295.209 355.317 295.769 355C296.338 354.673 296.978 354.51 297.687 354.51C298.406 354.51 299.04 354.669 299.591 354.986C300.142 355.303 300.571 355.751 300.879 356.33C301.196 356.899 301.355 357.567 301.355 358.332C301.355 358.388 301.35 358.453 301.341 358.528C301.341 358.603 301.336 358.673 301.327 358.738H295.013V357.772H300.627L300.081 358.108C300.09 357.632 299.992 357.207 299.787 356.834C299.582 356.461 299.297 356.171 298.933 355.966C298.578 355.751 298.163 355.644 297.687 355.644C297.22 355.644 296.805 355.751 296.441 355.966C296.077 356.171 295.792 356.465 295.587 356.848C295.382 357.221 295.279 357.651 295.279 358.136V358.36C295.279 358.855 295.391 359.298 295.615 359.69C295.848 360.073 296.17 360.371 296.581 360.586C296.992 360.801 297.463 360.908 297.995 360.908C298.434 360.908 298.83 360.833 299.185 360.684C299.549 360.535 299.866 360.311 300.137 360.012L300.879 360.88C300.543 361.272 300.123 361.571 299.619 361.776C299.124 361.981 298.569 362.084 297.953 362.084ZM305.769 362.084C305.023 362.084 304.444 361.883 304.033 361.482C303.623 361.081 303.417 360.507 303.417 359.76V352.956H304.761V359.704C304.761 360.105 304.859 360.413 305.055 360.628C305.261 360.843 305.55 360.95 305.923 360.95C306.343 360.95 306.693 360.833 306.973 360.6L307.393 361.566C307.188 361.743 306.941 361.874 306.651 361.958C306.371 362.042 306.077 362.084 305.769 362.084ZM302.157 355.686V354.58H306.889V355.686H302.157ZM309.018 362V354.58H310.362V362H309.018ZM309.69 353.152C309.429 353.152 309.209 353.068 309.032 352.9C308.864 352.732 308.78 352.527 308.78 352.284C308.78 352.032 308.864 351.822 309.032 351.654C309.209 351.486 309.429 351.402 309.69 351.402C309.951 351.402 310.166 351.486 310.334 351.654C310.511 351.813 310.6 352.013 310.6 352.256C310.6 352.508 310.516 352.723 310.348 352.9C310.18 353.068 309.961 353.152 309.69 353.152ZM322.21 354.51C322.808 354.51 323.335 354.627 323.792 354.86C324.25 355.093 324.604 355.448 324.856 355.924C325.118 356.4 325.248 357.002 325.248 357.73V362H323.904V357.884C323.904 357.165 323.736 356.624 323.4 356.26C323.064 355.896 322.593 355.714 321.986 355.714C321.538 355.714 321.146 355.807 320.81 355.994C320.474 356.181 320.213 356.456 320.026 356.82C319.849 357.184 319.76 357.637 319.76 358.178V362H318.416V357.884C318.416 357.165 318.248 356.624 317.912 356.26C317.586 355.896 317.114 355.714 316.498 355.714C316.06 355.714 315.672 355.807 315.336 355.994C315 356.181 314.739 356.456 314.552 356.82C314.366 357.184 314.272 357.637 314.272 358.178V362H312.928V354.58H314.216V356.554L314.006 356.05C314.24 355.565 314.599 355.187 315.084 354.916C315.57 354.645 316.134 354.51 316.778 354.51C317.488 354.51 318.099 354.687 318.612 355.042C319.126 355.387 319.462 355.915 319.62 356.624L319.074 356.4C319.298 355.831 319.69 355.373 320.25 355.028C320.81 354.683 321.464 354.51 322.21 354.51ZM331.025 362.084C330.232 362.084 329.532 361.921 328.925 361.594C328.328 361.267 327.861 360.819 327.525 360.25C327.199 359.681 327.035 359.027 327.035 358.29C327.035 357.553 327.194 356.899 327.511 356.33C327.838 355.761 328.281 355.317 328.841 355C329.411 354.673 330.05 354.51 330.759 354.51C331.478 354.51 332.113 354.669 332.663 354.986C333.214 355.303 333.643 355.751 333.951 356.33C334.269 356.899 334.427 357.567 334.427 358.332C334.427 358.388 334.423 358.453 334.413 358.528C334.413 358.603 334.409 358.673 334.399 358.738H328.085V357.772H333.699L333.153 358.108C333.163 357.632 333.065 357.207 332.859 356.834C332.654 356.461 332.369 356.171 332.005 355.966C331.651 355.751 331.235 355.644 330.759 355.644C330.293 355.644 329.877 355.751 329.513 355.966C329.149 356.171 328.865 356.465 328.659 356.848C328.454 357.221 328.351 357.651 328.351 358.136V358.36C328.351 358.855 328.463 359.298 328.687 359.69C328.921 360.073 329.243 360.371 329.653 360.586C330.064 360.801 330.535 360.908 331.067 360.908C331.506 360.908 331.903 360.833 332.257 360.684C332.621 360.535 332.939 360.311 333.209 360.012L333.951 360.88C333.615 361.272 333.195 361.571 332.691 361.776C332.197 361.981 331.641 362.084 331.025 362.084ZM338.422 362.084C337.806 362.084 337.218 362 336.658 361.832C336.107 361.664 335.673 361.459 335.356 361.216L335.916 360.152C336.233 360.367 336.625 360.549 337.092 360.698C337.558 360.847 338.034 360.922 338.52 360.922C339.145 360.922 339.593 360.833 339.864 360.656C340.144 360.479 340.284 360.231 340.284 359.914C340.284 359.681 340.2 359.499 340.032 359.368C339.864 359.237 339.64 359.139 339.36 359.074C339.089 359.009 338.786 358.953 338.45 358.906C338.114 358.85 337.778 358.785 337.442 358.71C337.106 358.626 336.798 358.514 336.518 358.374C336.238 358.225 336.014 358.024 335.846 357.772C335.678 357.511 335.594 357.165 335.594 356.736C335.594 356.288 335.72 355.896 335.972 355.56C336.224 355.224 336.578 354.967 337.036 354.79C337.502 354.603 338.053 354.51 338.688 354.51C339.173 354.51 339.663 354.571 340.158 354.692C340.662 354.804 341.072 354.967 341.39 355.182L340.816 356.246C340.48 356.022 340.13 355.868 339.766 355.784C339.402 355.7 339.038 355.658 338.674 355.658C338.086 355.658 337.647 355.756 337.358 355.952C337.068 356.139 336.924 356.381 336.924 356.68C336.924 356.932 337.008 357.128 337.176 357.268C337.353 357.399 337.577 357.501 337.848 357.576C338.128 357.651 338.436 357.716 338.772 357.772C339.108 357.819 339.444 357.884 339.78 357.968C340.116 358.043 340.419 358.15 340.69 358.29C340.97 358.43 341.194 358.626 341.362 358.878C341.539 359.13 341.628 359.466 341.628 359.886C341.628 360.334 341.497 360.721 341.236 361.048C340.974 361.375 340.606 361.631 340.13 361.818C339.654 361.995 339.084 362.084 338.422 362.084Z" fill="white"/>
<ellipse cx="237.1" cy="321.555" rx="7" ry="6.99534" fill="#F68A59"/>
<path d="M65 407.913C100.898 407.913 130 378.831 130 342.957C130 307.082 100.898 278 65 278C29.1015 278 0 307.082 0 342.957C0 378.831 29.1015 407.913 65 407.913Z" fill="#D5E2CD"/>
<path d="M130 342.957C130 356.167 125.97 369.063 118.447 379.925C110.923 390.787 100.265 399.098 87.8937 403.751C75.5217 408.404 62.0246 409.177 49.2022 405.966C36.3796 402.755 24.8415 395.714 16.1266 385.781C7.41168 375.849 1.93436 363.497 0.425109 350.373C-1.08414 337.249 1.44645 323.978 7.67935 312.329C13.9123 300.679 23.5512 291.206 35.3105 285.172C47.0697 279.138 60.3905 276.831 73.4959 278.557L65 342.957H130Z" fill="#F68A59"/>
<circle cx="65" cy="343" r="65" fill="#F68A59"/>
<path d="M130 343C130 356.711 125.664 370.071 117.613 381.169C109.562 392.267 98.2076 400.535 85.1738 404.79C72.14 409.046 58.0943 409.07 45.0455 404.861C31.9966 400.652 20.613 392.425 12.5225 381.355L65 343H130Z" fill="#D5E2CD"/>
<path d="M63.4501 375.847V374.587L68.2801 368.273H70.2261L65.4661 374.587L64.5561 374.307H72.3261V375.847H63.4501ZM68.8261 378.073V375.847L68.8821 374.307V372.333H70.5901V378.073H68.8261ZM77.1801 378.213C76.4054 378.213 75.7054 378.017 75.0801 377.625C74.4641 377.233 73.9787 376.664 73.6241 375.917C73.2694 375.161 73.0921 374.247 73.0921 373.173C73.0921 372.1 73.2694 371.19 73.6241 370.443C73.9787 369.687 74.4641 369.113 75.0801 368.721C75.7054 368.329 76.4054 368.133 77.1801 368.133C77.9641 368.133 78.6641 368.329 79.2801 368.721C79.8961 369.113 80.3814 369.687 80.7361 370.443C81.1001 371.19 81.2821 372.1 81.2821 373.173C81.2821 374.247 81.1001 375.161 80.7361 375.917C80.3814 376.664 79.8961 377.233 79.2801 377.625C78.6641 378.017 77.9641 378.213 77.1801 378.213ZM77.1801 376.631C77.6374 376.631 78.0341 376.51 78.3701 376.267C78.7061 376.015 78.9674 375.633 79.1541 375.119C79.3501 374.606 79.4481 373.957 79.4481 373.173C79.4481 372.38 79.3501 371.731 79.1541 371.227C78.9674 370.714 78.7061 370.336 78.3701 370.093C78.0341 369.841 77.6374 369.715 77.1801 369.715C76.7414 369.715 76.3494 369.841 76.0041 370.093C75.6681 370.336 75.4021 370.714 75.2061 371.227C75.0194 371.731 74.9261 372.38 74.9261 373.173C74.9261 373.957 75.0194 374.606 75.2061 375.119C75.4021 375.633 75.6681 376.015 76.0041 376.267C76.3494 376.51 76.7414 376.631 77.1801 376.631ZM83.884 378.073L90.576 368.273H91.948L85.256 378.073H83.884ZM84.696 373.551C84.2387 373.551 83.8327 373.439 83.478 373.215C83.1233 372.991 82.848 372.679 82.652 372.277C82.456 371.876 82.358 371.405 82.358 370.863C82.358 370.322 82.456 369.851 82.652 369.449C82.848 369.048 83.1233 368.735 83.478 368.511C83.8327 368.287 84.2387 368.175 84.696 368.175C85.172 368.175 85.5827 368.287 85.928 368.511C86.2827 368.735 86.558 369.048 86.754 369.449C86.95 369.851 87.048 370.322 87.048 370.863C87.048 371.405 86.95 371.876 86.754 372.277C86.558 372.679 86.2827 372.991 85.928 373.215C85.5827 373.439 85.172 373.551 84.696 373.551ZM84.71 372.571C85.0833 372.571 85.3727 372.427 85.578 372.137C85.7927 371.839 85.9 371.414 85.9 370.863C85.9 370.313 85.7927 369.893 85.578 369.603C85.3727 369.305 85.0833 369.155 84.71 369.155C84.3367 369.155 84.038 369.305 83.814 369.603C83.5993 369.902 83.492 370.322 83.492 370.863C83.492 371.405 83.5993 371.825 83.814 372.123C84.038 372.422 84.3367 372.571 84.71 372.571ZM91.122 378.171C90.6647 378.171 90.2587 378.059 89.904 377.835C89.5493 377.611 89.274 377.299 89.078 376.897C88.882 376.496 88.784 376.025 88.784 375.483C88.784 374.942 88.882 374.471 89.078 374.069C89.274 373.668 89.5493 373.355 89.904 373.131C90.2587 372.907 90.6647 372.795 91.122 372.795C91.598 372.795 92.0087 372.907 92.354 373.131C92.7087 373.355 92.984 373.668 93.18 374.069C93.376 374.471 93.474 374.942 93.474 375.483C93.474 376.025 93.376 376.496 93.18 376.897C92.984 377.299 92.7087 377.611 92.354 377.835C92.0087 378.059 91.598 378.171 91.122 378.171ZM91.122 377.191C91.4953 377.191 91.7893 377.042 92.004 376.743C92.2187 376.445 92.326 376.025 92.326 375.483C92.326 374.942 92.2187 374.522 92.004 374.223C91.7893 373.925 91.4953 373.775 91.122 373.775C90.758 373.775 90.464 373.925 90.24 374.223C90.0253 374.513 89.918 374.933 89.918 375.483C89.918 376.034 90.0253 376.459 90.24 376.757C90.464 377.047 90.758 377.191 91.122 377.191Z" fill="black"/>
<path d="M40.858 318.248C39.9713 318.248 39.2107 318.061 38.576 317.688C37.9413 317.305 37.456 316.755 37.12 316.036C36.784 315.317 36.616 314.431 36.616 313.376C36.616 312.256 36.8167 311.309 37.218 310.534C37.6287 309.759 38.1933 309.171 38.912 308.77C39.64 308.369 40.4753 308.168 41.418 308.168C41.9127 308.168 42.384 308.219 42.832 308.322C43.2893 308.425 43.6767 308.583 43.994 308.798L43.322 310.17C43.0513 309.993 42.7573 309.871 42.44 309.806C42.132 309.731 41.8053 309.694 41.46 309.694C40.536 309.694 39.8033 309.979 39.262 310.548C38.7207 311.117 38.45 311.957 38.45 313.068C38.45 313.245 38.4547 313.455 38.464 313.698C38.4733 313.931 38.506 314.169 38.562 314.412L38.002 313.796C38.17 313.413 38.3987 313.096 38.688 312.844C38.9867 312.583 39.3367 312.387 39.738 312.256C40.1487 312.125 40.592 312.06 41.068 312.06C41.712 312.06 42.286 312.186 42.79 312.438C43.294 312.681 43.6953 313.031 43.994 313.488C44.2927 313.936 44.442 314.463 44.442 315.07C44.442 315.714 44.2833 316.274 43.966 316.75C43.6487 317.226 43.2193 317.595 42.678 317.856C42.1367 318.117 41.53 318.248 40.858 318.248ZM40.76 316.82C41.1333 316.82 41.4647 316.755 41.754 316.624C42.0433 316.484 42.2673 316.288 42.426 316.036C42.594 315.784 42.678 315.49 42.678 315.154C42.678 314.641 42.5007 314.235 42.146 313.936C41.7913 313.637 41.3153 313.488 40.718 313.488C40.326 313.488 39.9807 313.563 39.682 313.712C39.3927 313.852 39.1593 314.048 38.982 314.3C38.814 314.552 38.73 314.841 38.73 315.168C38.73 315.467 38.8093 315.742 38.968 315.994C39.1267 316.246 39.3553 316.447 39.654 316.596C39.962 316.745 40.3307 316.82 40.76 316.82ZM49.4813 318.248C48.7067 318.248 48.0067 318.052 47.3813 317.66C46.7653 317.268 46.28 316.699 45.9253 315.952C45.5707 315.196 45.3933 314.281 45.3933 313.208C45.3933 312.135 45.5707 311.225 45.9253 310.478C46.28 309.722 46.7653 309.148 47.3813 308.756C48.0067 308.364 48.7067 308.168 49.4813 308.168C50.2653 308.168 50.9653 308.364 51.5813 308.756C52.1973 309.148 52.6827 309.722 53.0373 310.478C53.4013 311.225 53.5833 312.135 53.5833 313.208C53.5833 314.281 53.4013 315.196 53.0373 315.952C52.6827 316.699 52.1973 317.268 51.5813 317.66C50.9653 318.052 50.2653 318.248 49.4813 318.248ZM49.4813 316.666C49.9387 316.666 50.3353 316.545 50.6713 316.302C51.0073 316.05 51.2687 315.667 51.4553 315.154C51.6513 314.641 51.7493 313.992 51.7493 313.208C51.7493 312.415 51.6513 311.766 51.4553 311.262C51.2687 310.749 51.0073 310.371 50.6713 310.128C50.3353 309.876 49.9387 309.75 49.4813 309.75C49.0427 309.75 48.6507 309.876 48.3053 310.128C47.9693 310.371 47.7033 310.749 47.5073 311.262C47.3207 311.766 47.2273 312.415 47.2273 313.208C47.2273 313.992 47.3207 314.641 47.5073 315.154C47.7033 315.667 47.9693 316.05 48.3053 316.302C48.6507 316.545 49.0427 316.666 49.4813 316.666ZM56.1853 318.108L62.8773 308.308H64.2493L57.5573 318.108H56.1853ZM56.9973 313.586C56.5399 313.586 56.1339 313.474 55.7793 313.25C55.4246 313.026 55.1493 312.713 54.9533 312.312C54.7573 311.911 54.6593 311.439 54.6593 310.898C54.6593 310.357 54.7573 309.885 54.9533 309.484C55.1493 309.083 55.4246 308.77 55.7793 308.546C56.1339 308.322 56.5399 308.21 56.9973 308.21C57.4733 308.21 57.8839 308.322 58.2293 308.546C58.5839 308.77 58.8593 309.083 59.0553 309.484C59.2513 309.885 59.3493 310.357 59.3493 310.898C59.3493 311.439 59.2513 311.911 59.0553 312.312C58.8593 312.713 58.5839 313.026 58.2293 313.25C57.8839 313.474 57.4733 313.586 56.9973 313.586ZM57.0113 312.606C57.3846 312.606 57.6739 312.461 57.8793 312.172C58.0939 311.873 58.2013 311.449 58.2013 310.898C58.2013 310.347 58.0939 309.927 57.8793 309.638C57.6739 309.339 57.3846 309.19 57.0113 309.19C56.6379 309.19 56.3393 309.339 56.1153 309.638C55.9006 309.937 55.7933 310.357 55.7933 310.898C55.7933 311.439 55.9006 311.859 56.1153 312.158C56.3393 312.457 56.6379 312.606 57.0113 312.606ZM63.4233 318.206C62.9659 318.206 62.5599 318.094 62.2053 317.87C61.8506 317.646 61.5753 317.333 61.3793 316.932C61.1833 316.531 61.0853 316.059 61.0853 315.518C61.0853 314.977 61.1833 314.505 61.3793 314.104C61.5753 313.703 61.8506 313.39 62.2053 313.166C62.5599 312.942 62.9659 312.83 63.4233 312.83C63.8993 312.83 64.3099 312.942 64.6553 313.166C65.0099 313.39 65.2853 313.703 65.4813 314.104C65.6773 314.505 65.7753 314.977 65.7753 315.518C65.7753 316.059 65.6773 316.531 65.4813 316.932C65.2853 317.333 65.0099 317.646 64.6553 317.87C64.3099 318.094 63.8993 318.206 63.4233 318.206ZM63.4233 317.226C63.7966 317.226 64.0906 317.077 64.3053 316.778C64.5199 316.479 64.6273 316.059 64.6273 315.518C64.6273 314.977 64.5199 314.557 64.3053 314.258C64.0906 313.959 63.7966 313.81 63.4233 313.81C63.0593 313.81 62.7653 313.959 62.5413 314.258C62.3266 314.547 62.2193 314.967 62.2193 315.518C62.2193 316.069 62.3266 316.493 62.5413 316.792C62.7653 317.081 63.0593 317.226 63.4233 317.226Z" fill="black"/>
<path d="M1.162 234V224.2H5.614C6.678 224.2 7.616 224.405 8.428 224.816C9.24 225.217 9.87467 225.782 10.332 226.51C10.7893 227.238 11.018 228.101 11.018 229.1C11.018 230.089 10.7893 230.953 10.332 231.69C9.87467 232.418 9.24 232.987 8.428 233.398C7.616 233.799 6.678 234 5.614 234H1.162ZM3.43 232.138H5.502C6.15533 232.138 6.72 232.017 7.196 231.774C7.68133 231.522 8.05467 231.167 8.316 230.71C8.58667 230.253 8.722 229.716 8.722 229.1C8.722 228.475 8.58667 227.938 8.316 227.49C8.05467 227.033 7.68133 226.683 7.196 226.44C6.72 226.188 6.15533 226.062 5.502 226.062H3.43V232.138ZM17.4884 234.168C16.7137 234.168 15.9951 234.042 15.3324 233.79C14.6791 233.538 14.1097 233.183 13.6244 232.726C13.1484 232.269 12.7751 231.732 12.5044 231.116C12.2431 230.5 12.1124 229.828 12.1124 229.1C12.1124 228.372 12.2431 227.7 12.5044 227.084C12.7751 226.468 13.1531 225.931 13.6384 225.474C14.1237 225.017 14.6931 224.662 15.3464 224.41C15.9997 224.158 16.7091 224.032 17.4744 224.032C18.2491 224.032 18.9584 224.158 19.6024 224.41C20.2557 224.662 20.8204 225.017 21.2964 225.474C21.7817 225.931 22.1597 226.468 22.4304 227.084C22.7011 227.691 22.8364 228.363 22.8364 229.1C22.8364 229.828 22.7011 230.505 22.4304 231.13C22.1597 231.746 21.7817 232.283 21.2964 232.74C20.8204 233.188 20.2557 233.538 19.6024 233.79C18.9584 234.042 18.2537 234.168 17.4884 234.168ZM17.4744 232.236C17.9131 232.236 18.3144 232.161 18.6784 232.012C19.0517 231.863 19.3784 231.648 19.6584 231.368C19.9384 231.088 20.1531 230.757 20.3024 230.374C20.4611 229.991 20.5404 229.567 20.5404 229.1C20.5404 228.633 20.4611 228.209 20.3024 227.826C20.1531 227.443 19.9384 227.112 19.6584 226.832C19.3877 226.552 19.0657 226.337 18.6924 226.188C18.3191 226.039 17.9131 225.964 17.4744 225.964C17.0357 225.964 16.6297 226.039 16.2564 226.188C15.8924 226.337 15.5704 226.552 15.2904 226.832C15.0104 227.112 14.7911 227.443 14.6324 227.826C14.4831 228.209 14.4084 228.633 14.4084 229.1C14.4084 229.557 14.4831 229.982 14.6324 230.374C14.7911 230.757 15.0057 231.088 15.2764 231.368C15.5564 231.648 15.8831 231.863 16.2564 232.012C16.6297 232.161 17.0357 232.236 17.4744 232.236ZM30.9417 234V229.996L31.4597 231.368L27.1477 224.2H29.5558L32.8598 229.702H31.4738L34.7918 224.2H37.0178L32.7058 231.368L33.2098 229.996V234H30.9417ZM42.3029 234.168C41.5282 234.168 40.8095 234.042 40.1469 233.79C39.4935 233.538 38.9242 233.183 38.4389 232.726C37.9629 232.269 37.5895 231.732 37.3189 231.116C37.0575 230.5 36.9269 229.828 36.9269 229.1C36.9269 228.372 37.0575 227.7 37.3189 227.084C37.5895 226.468 37.9675 225.931 38.4529 225.474C38.9382 225.017 39.5075 224.662 40.1609 224.41C40.8142 224.158 41.5235 224.032 42.2889 224.032C43.0635 224.032 43.7729 224.158 44.4169 224.41C45.0702 224.662 45.6349 225.017 46.1109 225.474C46.5962 225.931 46.9742 226.468 47.2449 227.084C47.5155 227.691 47.6509 228.363 47.6509 229.1C47.6509 229.828 47.5155 230.505 47.2449 231.13C46.9742 231.746 46.5962 232.283 46.1109 232.74C45.6349 233.188 45.0702 233.538 44.4169 233.79C43.7729 234.042 43.0682 234.168 42.3029 234.168ZM42.2889 232.236C42.7275 232.236 43.1289 232.161 43.4929 232.012C43.8662 231.863 44.1929 231.648 44.4729 231.368C44.7529 231.088 44.9675 230.757 45.1169 230.374C45.2755 229.991 45.3549 229.567 45.3549 229.1C45.3549 228.633 45.2755 228.209 45.1169 227.826C44.9675 227.443 44.7529 227.112 44.4729 226.832C44.2022 226.552 43.8802 226.337 43.5069 226.188C43.1335 226.039 42.7275 225.964 42.2889 225.964C41.8502 225.964 41.4442 226.039 41.0709 226.188C40.7069 226.337 40.3849 226.552 40.1049 226.832C39.8249 227.112 39.6055 227.443 39.4469 227.826C39.2975 228.209 39.2229 228.633 39.2229 229.1C39.2229 229.557 39.2975 229.982 39.4469 230.374C39.6055 230.757 39.8202 231.088 40.0909 231.368C40.3709 231.648 40.6975 231.863 41.0709 232.012C41.4442 232.161 41.8502 232.236 42.2889 232.236ZM53.7094 234.168C52.3187 234.168 51.2314 233.781 50.4474 233.006C49.6634 232.231 49.2714 231.125 49.2714 229.688V224.2H51.5394V229.604C51.5394 230.537 51.7307 231.209 52.1134 231.62C52.496 232.031 53.0327 232.236 53.7234 232.236C54.414 232.236 54.9507 232.031 55.3334 231.62C55.716 231.209 55.9074 230.537 55.9074 229.604V224.2H58.1474V229.688C58.1474 231.125 57.7554 232.231 56.9714 233.006C56.1874 233.781 55.1 234.168 53.7094 234.168ZM66.4394 228.148H71.1574V229.912H66.4394V228.148ZM66.6074 232.18H71.9414V234H64.3534V224.2H71.7594V226.02H66.6074V232.18ZM73.746 234V224.2H75.622L81.404 231.256H80.494V224.2H82.734V234H80.872L75.076 226.944H75.986V234H73.746ZM86.8586 234.168C86.196 234.168 85.5846 234.047 85.0246 233.804C84.474 233.552 84.0213 233.197 83.6666 232.74L84.9266 231.228C85.1973 231.583 85.482 231.853 85.7806 232.04C86.0793 232.217 86.4013 232.306 86.7466 232.306C87.6706 232.306 88.1326 231.765 88.1326 230.682V226.02H84.6886V224.2H90.3866V230.556C90.3866 231.769 90.088 232.675 89.4906 233.272C88.8933 233.869 88.016 234.168 86.8586 234.168ZM97.3868 234.168C96.6122 234.168 95.8935 234.042 95.2308 233.79C94.5775 233.538 94.0082 233.183 93.5228 232.726C93.0468 232.269 92.6735 231.732 92.4028 231.116C92.1415 230.5 92.0108 229.828 92.0108 229.1C92.0108 228.372 92.1415 227.7 92.4028 227.084C92.6735 226.468 93.0515 225.931 93.5368 225.474C94.0222 225.017 94.5915 224.662 95.2448 224.41C95.8982 224.158 96.6075 224.032 97.3728 224.032C98.1475 224.032 98.8568 224.158 99.5008 224.41C100.154 224.662 100.719 225.017 101.195 225.474C101.68 225.931 102.058 226.468 102.329 227.084C102.6 227.691 102.735 228.363 102.735 229.1C102.735 229.828 102.6 230.505 102.329 231.13C102.058 231.746 101.68 232.283 101.195 232.74C100.719 233.188 100.154 233.538 99.5008 233.79C98.8568 234.042 98.1522 234.168 97.3868 234.168ZM97.3728 232.236C97.8115 232.236 98.2128 232.161 98.5768 232.012C98.9502 231.863 99.2768 231.648 99.5568 231.368C99.8368 231.088 100.052 230.757 100.201 230.374C100.36 229.991 100.439 229.567 100.439 229.1C100.439 228.633 100.36 228.209 100.201 227.826C100.052 227.443 99.8368 227.112 99.5568 226.832C99.2862 226.552 98.9642 226.337 98.5908 226.188C98.2175 226.039 97.8115 225.964 97.3728 225.964C96.9342 225.964 96.5282 226.039 96.1548 226.188C95.7908 226.337 95.4688 226.552 95.1888 226.832C94.9088 227.112 94.6895 227.443 94.5308 227.826C94.3815 228.209 94.3068 228.633 94.3068 229.1C94.3068 229.557 94.3815 229.982 94.5308 230.374C94.6895 230.757 94.9042 231.088 95.1748 231.368C95.4548 231.648 95.7815 231.863 96.1548 232.012C96.5282 232.161 96.9342 232.236 97.3728 232.236ZM106.452 234V229.996L106.97 231.368L102.658 224.2H105.066L108.37 229.702H106.984L110.302 224.2H112.528L108.216 231.368L108.72 229.996V234H106.452ZM117.441 234V224.2H119.709V234H117.441ZM122.035 234V224.2H123.911L129.693 231.256H128.783V224.2H131.023V234H129.161L123.365 226.944H124.275V234H122.035ZM135.372 234V226.048H132.236V224.2H140.776V226.048H137.64V234H135.372ZM144.082 228.148H148.8V229.912H144.082V228.148ZM144.25 232.18H149.584V234H141.996V224.2H149.402V226.02H144.25V232.18ZM151.389 234V224.2H155.631C156.508 224.2 157.264 224.345 157.899 224.634C158.533 224.914 159.023 225.32 159.369 225.852C159.714 226.384 159.887 227.019 159.887 227.756C159.887 228.484 159.714 229.114 159.369 229.646C159.023 230.169 158.533 230.57 157.899 230.85C157.264 231.13 156.508 231.27 155.631 231.27H152.649L153.657 230.276V234H151.389ZM157.619 234L155.169 230.444H157.591L160.069 234H157.619ZM153.657 230.528L152.649 229.464H155.505C156.205 229.464 156.727 229.315 157.073 229.016C157.418 228.708 157.591 228.288 157.591 227.756C157.591 227.215 157.418 226.795 157.073 226.496C156.727 226.197 156.205 226.048 155.505 226.048H152.649L153.657 224.97V230.528ZM160.395 234L164.763 224.2H167.003L171.385 234H169.005L165.421 225.348H166.317L162.719 234H160.395ZM162.579 231.9L163.181 230.178H168.221L168.837 231.9H162.579ZM176.956 234.168C176.2 234.168 175.495 234.047 174.842 233.804C174.198 233.552 173.638 233.197 173.162 232.74C172.686 232.283 172.312 231.746 172.042 231.13C171.78 230.514 171.65 229.837 171.65 229.1C171.65 228.363 171.78 227.686 172.042 227.07C172.312 226.454 172.686 225.917 173.162 225.46C173.647 225.003 174.212 224.653 174.856 224.41C175.5 224.158 176.204 224.032 176.97 224.032C177.819 224.032 178.584 224.181 179.266 224.48C179.956 224.769 180.535 225.199 181.002 225.768L179.546 227.112C179.21 226.729 178.836 226.445 178.426 226.258C178.015 226.062 177.567 225.964 177.082 225.964C176.624 225.964 176.204 226.039 175.822 226.188C175.439 226.337 175.108 226.552 174.828 226.832C174.548 227.112 174.328 227.443 174.17 227.826C174.02 228.209 173.946 228.633 173.946 229.1C173.946 229.567 174.02 229.991 174.17 230.374C174.328 230.757 174.548 231.088 174.828 231.368C175.108 231.648 175.439 231.863 175.822 232.012C176.204 232.161 176.624 232.236 177.082 232.236C177.567 232.236 178.015 232.143 178.426 231.956C178.836 231.76 179.21 231.466 179.546 231.074L181.002 232.418C180.535 232.987 179.956 233.421 179.266 233.72C178.584 234.019 177.814 234.168 176.956 234.168ZM184.467 234V226.048H181.331V224.2H189.871V226.048H186.735V234H184.467ZM191.092 234V224.2H193.36V234H191.092ZM195.685 234V224.2H197.561L203.343 231.256H202.433V224.2H204.673V234H202.811L197.015 226.944H197.925V234H195.685ZM211.724 234.168C210.949 234.168 210.235 234.047 209.582 233.804C208.938 233.552 208.373 233.197 207.888 232.74C207.412 232.283 207.039 231.746 206.768 231.13C206.507 230.514 206.376 229.837 206.376 229.1C206.376 228.363 206.507 227.686 206.768 227.07C207.039 226.454 207.417 225.917 207.902 225.46C208.387 225.003 208.957 224.653 209.61 224.41C210.263 224.158 210.982 224.032 211.766 224.032C212.634 224.032 213.413 224.177 214.104 224.466C214.804 224.755 215.392 225.175 215.868 225.726L214.412 227.07C214.057 226.697 213.67 226.421 213.25 226.244C212.83 226.057 212.373 225.964 211.878 225.964C211.402 225.964 210.968 226.039 210.576 226.188C210.184 226.337 209.843 226.552 209.554 226.832C209.274 227.112 209.055 227.443 208.896 227.826C208.747 228.209 208.672 228.633 208.672 229.1C208.672 229.557 208.747 229.977 208.896 230.36C209.055 230.743 209.274 231.079 209.554 231.368C209.843 231.648 210.179 231.863 210.562 232.012C210.954 232.161 211.383 232.236 211.85 232.236C212.298 232.236 212.732 232.166 213.152 232.026C213.581 231.877 213.997 231.629 214.398 231.284L215.686 232.922C215.154 233.323 214.533 233.631 213.824 233.846C213.124 234.061 212.424 234.168 211.724 234.168ZM213.614 232.628V228.946H215.686V232.922L213.614 232.628ZM224.11 234L220.904 224.2H223.256L226.042 232.88H224.866L227.778 224.2H229.878L232.678 232.88H231.544L234.4 224.2H236.57L233.364 234H230.928L228.45 226.384H229.094L226.546 234H224.11ZM237.836 234V224.2H240.104V234H237.836ZM244.46 234V226.048H241.324V224.2H249.864V226.048H246.728V234H244.46ZM257.804 224.2H260.072V234H257.804V224.2ZM253.352 234H251.084V224.2H253.352V234ZM257.972 229.982H253.184V228.064H257.972V229.982ZM269.575 234.168C268.791 234.168 268.04 234.065 267.321 233.86C266.603 233.645 266.024 233.37 265.585 233.034L266.355 231.326C266.775 231.625 267.27 231.872 267.839 232.068C268.418 232.255 269.001 232.348 269.589 232.348C270.037 232.348 270.397 232.306 270.667 232.222C270.947 232.129 271.153 232.003 271.283 231.844C271.414 231.685 271.479 231.503 271.479 231.298C271.479 231.037 271.377 230.831 271.171 230.682C270.966 230.523 270.695 230.397 270.359 230.304C270.023 230.201 269.65 230.108 269.239 230.024C268.838 229.931 268.432 229.819 268.021 229.688C267.62 229.557 267.251 229.389 266.915 229.184C266.579 228.979 266.304 228.708 266.089 228.372C265.884 228.036 265.781 227.607 265.781 227.084C265.781 226.524 265.931 226.015 266.229 225.558C266.537 225.091 266.995 224.723 267.601 224.452C268.217 224.172 268.987 224.032 269.911 224.032C270.527 224.032 271.134 224.107 271.731 224.256C272.329 224.396 272.856 224.611 273.313 224.9L272.613 226.622C272.156 226.361 271.699 226.169 271.241 226.048C270.784 225.917 270.336 225.852 269.897 225.852C269.459 225.852 269.099 225.903 268.819 226.006C268.539 226.109 268.339 226.244 268.217 226.412C268.096 226.571 268.035 226.757 268.035 226.972C268.035 227.224 268.138 227.429 268.343 227.588C268.549 227.737 268.819 227.859 269.155 227.952C269.491 228.045 269.86 228.139 270.261 228.232C270.672 228.325 271.078 228.433 271.479 228.554C271.89 228.675 272.263 228.839 272.599 229.044C272.935 229.249 273.206 229.52 273.411 229.856C273.626 230.192 273.733 230.617 273.733 231.13C273.733 231.681 273.579 232.185 273.271 232.642C272.963 233.099 272.501 233.468 271.885 233.748C271.279 234.028 270.509 234.168 269.575 234.168ZM277.369 228.148H282.087V229.912H277.369V228.148ZM277.537 232.18H282.871V234H275.283V224.2H282.689V226.02H277.537V232.18ZM284.676 234V224.2H288.918C289.795 224.2 290.551 224.345 291.186 224.634C291.82 224.914 292.31 225.32 292.656 225.852C293.001 226.384 293.174 227.019 293.174 227.756C293.174 228.484 293.001 229.114 292.656 229.646C292.31 230.169 291.82 230.57 291.186 230.85C290.551 231.13 289.795 231.27 288.918 231.27H285.936L286.944 230.276V234H284.676ZM290.906 234L288.456 230.444H290.878L293.356 234H290.906ZM286.944 230.528L285.936 229.464H288.792C289.492 229.464 290.014 229.315 290.36 229.016C290.705 228.708 290.878 228.288 290.878 227.756C290.878 227.215 290.705 226.795 290.36 226.496C290.014 226.197 289.492 226.048 288.792 226.048H285.936L286.944 224.97V230.528ZM297.911 234L293.683 224.2H296.133L299.829 232.88H298.387L302.139 224.2H304.393L300.151 234H297.911ZM307.297 228.148H312.015V229.912H307.297V228.148ZM307.465 232.18H312.799V234H305.211V224.2H312.617V226.02H307.465V232.18ZM314.603 234V224.2H318.845C319.723 224.2 320.479 224.345 321.113 224.634C321.748 224.914 322.238 225.32 322.583 225.852C322.929 226.384 323.101 227.019 323.101 227.756C323.101 228.484 322.929 229.114 322.583 229.646C322.238 230.169 321.748 230.57 321.113 230.85C320.479 231.13 319.723 231.27 318.845 231.27H315.863L316.871 230.276V234H314.603ZM320.833 234L318.383 230.444H320.805L323.283 234H320.833ZM316.871 230.528L315.863 229.464H318.719C319.419 229.464 319.942 229.315 320.287 229.016C320.633 228.708 320.805 228.288 320.805 227.756C320.805 227.215 320.633 226.795 320.287 226.496C319.942 226.197 319.419 226.048 318.719 226.048H315.863L316.871 224.97V230.528ZM328.118 234.168C327.334 234.168 326.583 234.065 325.864 233.86C325.146 233.645 324.567 233.37 324.128 233.034L324.898 231.326C325.318 231.625 325.813 231.872 326.382 232.068C326.961 232.255 327.544 232.348 328.132 232.348C328.58 232.348 328.94 232.306 329.21 232.222C329.49 232.129 329.696 232.003 329.826 231.844C329.957 231.685 330.022 231.503 330.022 231.298C330.022 231.037 329.92 230.831 329.714 230.682C329.509 230.523 329.238 230.397 328.902 230.304C328.566 230.201 328.193 230.108 327.782 230.024C327.381 229.931 326.975 229.819 326.564 229.688C326.163 229.557 325.794 229.389 325.458 229.184C325.122 228.979 324.847 228.708 324.632 228.372C324.427 228.036 324.324 227.607 324.324 227.084C324.324 226.524 324.474 226.015 324.772 225.558C325.08 225.091 325.538 224.723 326.144 224.452C326.76 224.172 327.53 224.032 328.454 224.032C329.07 224.032 329.677 224.107 330.274 224.256C330.872 224.396 331.399 224.611 331.856 224.9L331.156 226.622C330.699 226.361 330.242 226.169 329.784 226.048C329.327 225.917 328.879 225.852 328.44 225.852C328.002 225.852 327.642 225.903 327.362 226.006C327.082 226.109 326.882 226.244 326.76 226.412C326.639 226.571 326.578 226.757 326.578 226.972C326.578 227.224 326.681 227.429 326.886 227.588C327.092 227.737 327.362 227.859 327.698 227.952C328.034 228.045 328.403 228.139 328.804 228.232C329.215 228.325 329.621 228.433 330.022 228.554C330.433 228.675 330.806 228.839 331.142 229.044C331.478 229.249 331.749 229.52 331.954 229.856C332.169 230.192 332.276 230.617 332.276 231.13C332.276 231.681 332.122 232.185 331.814 232.642C331.506 233.099 331.044 233.468 330.428 233.748C329.822 234.028 329.052 234.168 328.118 234.168ZM342.551 234.168C341.776 234.168 341.058 234.042 340.395 233.79C339.742 233.538 339.172 233.183 338.687 232.726C338.211 232.269 337.838 231.732 337.567 231.116C337.306 230.5 337.175 229.828 337.175 229.1C337.175 228.372 337.306 227.7 337.567 227.084C337.838 226.468 338.216 225.931 338.701 225.474C339.186 225.017 339.756 224.662 340.409 224.41C341.062 224.158 341.772 224.032 342.537 224.032C343.312 224.032 344.021 224.158 344.665 224.41C345.318 224.662 345.883 225.017 346.359 225.474C346.844 225.931 347.222 226.468 347.493 227.084C347.764 227.691 347.899 228.363 347.899 229.1C347.899 229.828 347.764 230.505 347.493 231.13C347.222 231.746 346.844 232.283 346.359 232.74C345.883 233.188 345.318 233.538 344.665 233.79C344.021 234.042 343.316 234.168 342.551 234.168ZM342.537 232.236C342.976 232.236 343.377 232.161 343.741 232.012C344.114 231.863 344.441 231.648 344.721 231.368C345.001 231.088 345.216 230.757 345.365 230.374C345.524 229.991 345.603 229.567 345.603 229.1C345.603 228.633 345.524 228.209 345.365 227.826C345.216 227.443 345.001 227.112 344.721 226.832C344.45 226.552 344.128 226.337 343.755 226.188C343.382 226.039 342.976 225.964 342.537 225.964C342.098 225.964 341.692 226.039 341.319 226.188C340.955 226.337 340.633 226.552 340.353 226.832C340.073 227.112 339.854 227.443 339.695 227.826C339.546 228.209 339.471 228.633 339.471 229.1C339.471 229.557 339.546 229.982 339.695 230.374C339.854 230.757 340.068 231.088 340.339 231.368C340.619 231.648 340.946 231.863 341.319 232.012C341.692 232.161 342.098 232.236 342.537 232.236ZM349.603 234V224.2H353.845C354.723 224.2 355.479 224.345 356.113 224.634C356.748 224.914 357.238 225.32 357.583 225.852C357.929 226.384 358.101 227.019 358.101 227.756C358.101 228.484 357.929 229.114 357.583 229.646C357.238 230.169 356.748 230.57 356.113 230.85C355.479 231.13 354.723 231.27 353.845 231.27H350.863L351.871 230.276V234H349.603ZM355.833 234L353.383 230.444H355.805L358.283 234H355.833ZM351.871 230.528L350.863 229.464H353.719C354.419 229.464 354.942 229.315 355.287 229.016C355.633 228.708 355.805 228.288 355.805 227.756C355.805 227.215 355.633 226.795 355.287 226.496C354.942 226.197 354.419 226.048 353.719 226.048H350.863L351.871 224.97V230.528ZM368.623 234.168C367.849 234.168 367.13 234.042 366.467 233.79C365.814 233.538 365.245 233.183 364.759 232.726C364.283 232.269 363.91 231.732 363.639 231.116C363.378 230.5 363.247 229.828 363.247 229.1C363.247 228.372 363.378 227.7 363.639 227.084C363.91 226.468 364.288 225.931 364.773 225.474C365.259 225.017 365.828 224.662 366.481 224.41C367.135 224.158 367.844 224.032 368.609 224.032C369.384 224.032 370.093 224.158 370.737 224.41C371.391 224.662 371.955 225.017 372.431 225.474C372.917 225.931 373.295 226.468 373.565 227.084C373.836 227.691 373.971 228.363 373.971 229.1C373.971 229.828 373.836 230.505 373.565 231.13C373.295 231.746 372.917 232.283 372.431 232.74C371.955 233.188 371.391 233.538 370.737 233.79C370.093 234.042 369.389 234.168 368.623 234.168ZM368.609 232.236C369.048 232.236 369.449 232.161 369.813 232.012C370.187 231.863 370.513 231.648 370.793 231.368C371.073 231.088 371.288 230.757 371.437 230.374C371.596 229.991 371.675 229.567 371.675 229.1C371.675 228.633 371.596 228.209 371.437 227.826C371.288 227.443 371.073 227.112 370.793 226.832C370.523 226.552 370.201 226.337 369.827 226.188C369.454 226.039 369.048 225.964 368.609 225.964C368.171 225.964 367.765 226.039 367.391 226.188C367.027 226.337 366.705 226.552 366.425 226.832C366.145 227.112 365.926 227.443 365.767 227.826C365.618 228.209 365.543 228.633 365.543 229.1C365.543 229.557 365.618 229.982 365.767 230.374C365.926 230.757 366.141 231.088 366.411 231.368C366.691 231.648 367.018 231.863 367.391 232.012C367.765 232.161 368.171 232.236 368.609 232.236ZM377.569 234V226.048H374.433V224.2H382.973V226.048H379.837V234H377.569ZM390.913 224.2H393.181V234H390.913V224.2ZM386.461 234H384.193V224.2H386.461V234ZM391.081 229.982H386.293V228.064H391.081V229.982ZM397.586 228.148H402.304V229.912H397.586V228.148ZM397.754 232.18H403.088V234H395.5V224.2H402.906V226.02H397.754V232.18ZM404.892 234V224.2H409.134C410.012 224.2 410.768 224.345 411.402 224.634C412.037 224.914 412.527 225.32 412.872 225.852C413.218 226.384 413.39 227.019 413.39 227.756C413.39 228.484 413.218 229.114 412.872 229.646C412.527 230.169 412.037 230.57 411.402 230.85C410.768 231.13 410.012 231.27 409.134 231.27H406.152L407.16 230.276V234H404.892ZM411.122 234L408.672 230.444H411.094L413.572 234H411.122ZM407.16 230.528L406.152 229.464H409.008C409.708 229.464 410.231 229.315 410.576 229.016C410.922 228.708 411.094 228.288 411.094 227.756C411.094 227.215 410.922 226.795 410.576 226.496C410.231 226.197 409.708 226.048 409.008 226.048H406.152L407.16 224.97V230.528ZM1.162 255V245.2H5.404C6.28133 245.2 7.03733 245.345 7.672 245.634C8.30667 245.914 8.79667 246.32 9.142 246.852C9.48733 247.384 9.66 248.019 9.66 248.756C9.66 249.484 9.48733 250.114 9.142 250.646C8.79667 251.169 8.30667 251.57 7.672 251.85C7.03733 252.13 6.28133 252.27 5.404 252.27H2.422L3.43 251.276V255H1.162ZM7.392 255L4.942 251.444H7.364L9.842 255H7.392ZM3.43 251.528L2.422 250.464H5.278C5.978 250.464 6.50067 250.315 6.846 250.016C7.19133 249.708 7.364 249.288 7.364 248.756C7.364 248.215 7.19133 247.795 6.846 247.496C6.50067 247.197 5.978 247.048 5.278 247.048H2.422L3.43 245.97V251.528ZM13.5429 249.148H18.2609V250.912H13.5429V249.148ZM13.7109 253.18H19.0449V255H11.4569V245.2H18.8629V247.02H13.7109V253.18ZM24.0695 255.168C23.2855 255.168 22.5342 255.065 21.8155 254.86C21.0968 254.645 20.5182 254.37 20.0795 254.034L20.8495 252.326C21.2695 252.625 21.7642 252.872 22.3335 253.068C22.9122 253.255 23.4955 253.348 24.0835 253.348C24.5315 253.348 24.8908 253.306 25.1615 253.222C25.4415 253.129 25.6468 253.003 25.7775 252.844C25.9082 252.685 25.9735 252.503 25.9735 252.298C25.9735 252.037 25.8708 251.831 25.6655 251.682C25.4602 251.523 25.1895 251.397 24.8535 251.304C24.5175 251.201 24.1442 251.108 23.7335 251.024C23.3322 250.931 22.9262 250.819 22.5155 250.688C22.1142 250.557 21.7455 250.389 21.4095 250.184C21.0735 249.979 20.7982 249.708 20.5835 249.372C20.3782 249.036 20.2755 248.607 20.2755 248.084C20.2755 247.524 20.4248 247.015 20.7235 246.558C21.0315 246.091 21.4888 245.723 22.0955 245.452C22.7115 245.172 23.4815 245.032 24.4055 245.032C25.0215 245.032 25.6282 245.107 26.2255 245.256C26.8228 245.396 27.3502 245.611 27.8075 245.9L27.1075 247.622C26.6502 247.361 26.1928 247.169 25.7355 247.048C25.2782 246.917 24.8302 246.852 24.3915 246.852C23.9528 246.852 23.5935 246.903 23.3135 247.006C23.0335 247.109 22.8328 247.244 22.7115 247.412C22.5902 247.571 22.5295 247.757 22.5295 247.972C22.5295 248.224 22.6322 248.429 22.8375 248.588C23.0428 248.737 23.3135 248.859 23.6495 248.952C23.9855 249.045 24.3542 249.139 24.7555 249.232C25.1662 249.325 25.5722 249.433 25.9735 249.554C26.3842 249.675 26.7575 249.839 27.0935 250.044C27.4295 250.249 27.7002 250.52 27.9055 250.856C28.1202 251.192 28.2275 251.617 28.2275 252.13C28.2275 252.681 28.0735 253.185 27.7655 253.642C27.4575 254.099 26.9955 254.468 26.3795 254.748C25.7728 255.028 25.0028 255.168 24.0695 255.168ZM31.6705 255V247.048H28.5345V245.2H37.0745V247.048H33.9385V255H31.6705ZM36.5146 255L40.8826 245.2H43.1226L47.5046 255H45.1246L41.5406 246.348H42.4366L38.8386 255H36.5146ZM38.6986 252.9L39.3006 251.178H44.3406L44.9566 252.9H38.6986ZM52.6703 255.168C51.2796 255.168 50.1923 254.781 49.4083 254.006C48.6243 253.231 48.2323 252.125 48.2323 250.688V245.2H50.5003V250.604C50.5003 251.537 50.6916 252.209 51.0743 252.62C51.457 253.031 51.9936 253.236 52.6843 253.236C53.375 253.236 53.9116 253.031 54.2943 252.62C54.677 252.209 54.8683 251.537 54.8683 250.604V245.2H57.1083V250.688C57.1083 252.125 56.7163 253.231 55.9323 254.006C55.1483 254.781 54.061 255.168 52.6703 255.168ZM59.3495 255V245.2H63.5915C64.4688 245.2 65.2248 245.345 65.8595 245.634C66.4942 245.914 66.9842 246.32 67.3295 246.852C67.6748 247.384 67.8475 248.019 67.8475 248.756C67.8475 249.484 67.6748 250.114 67.3295 250.646C66.9842 251.169 66.4942 251.57 65.8595 251.85C65.2248 252.13 64.4688 252.27 63.5915 252.27H60.6095L61.6175 251.276V255H59.3495ZM65.5795 255L63.1295 251.444H65.5515L68.0295 255H65.5795ZM61.6175 251.528L60.6095 250.464H63.4655C64.1655 250.464 64.6882 250.315 65.0335 250.016C65.3788 249.708 65.5515 249.288 65.5515 248.756C65.5515 248.215 65.3788 247.795 65.0335 247.496C64.6882 247.197 64.1655 247.048 63.4655 247.048H60.6095L61.6175 245.97V251.528ZM68.3564 255L72.7244 245.2H74.9644L79.3464 255H76.9664L73.3824 246.348H74.2784L70.6804 255H68.3564ZM70.5404 252.9L71.1424 251.178H76.1824L76.7984 252.9H70.5404ZM80.3632 255V245.2H82.2392L88.0212 252.256H87.1112V245.2H89.3512V255H87.4892L81.6932 247.944H82.6032V255H80.3632ZM93.6998 255V247.048H90.5638V245.2H99.1038V247.048H95.9678V255H93.6998ZM107.509 255.168C106.725 255.168 105.974 255.065 105.255 254.86C104.536 254.645 103.958 254.37 103.519 254.034L104.289 252.326C104.709 252.625 105.204 252.872 105.773 253.068C106.352 253.255 106.935 253.348 107.523 253.348C107.971 253.348 108.33 253.306 108.601 253.222C108.881 253.129 109.086 253.003 109.217 252.844C109.348 252.685 109.413 252.503 109.413 252.298C109.413 252.037 109.31 251.831 109.105 251.682C108.9 251.523 108.629 251.397 108.293 251.304C107.957 251.201 107.584 251.108 107.173 251.024C106.772 250.931 106.366 250.819 105.955 250.688C105.554 250.557 105.185 250.389 104.849 250.184C104.513 249.979 104.238 249.708 104.023 249.372C103.818 249.036 103.715 248.607 103.715 248.084C103.715 247.524 103.864 247.015 104.163 246.558C104.471 246.091 104.928 245.723 105.535 245.452C106.151 245.172 106.921 245.032 107.845 245.032C108.461 245.032 109.068 245.107 109.665 245.256C110.262 245.396 110.79 245.611 111.247 245.9L110.547 247.622C110.09 247.361 109.632 247.169 109.175 247.048C108.718 246.917 108.27 246.852 107.831 246.852C107.392 246.852 107.033 246.903 106.753 247.006C106.473 247.109 106.272 247.244 106.151 247.412C106.03 247.571 105.969 247.757 105.969 247.972C105.969 248.224 106.072 248.429 106.277 248.588C106.482 248.737 106.753 248.859 107.089 248.952C107.425 249.045 107.794 249.139 108.195 249.232C108.606 249.325 109.012 249.433 109.413 249.554C109.824 249.675 110.197 249.839 110.533 250.044C110.869 250.249 111.14 250.52 111.345 250.856C111.56 251.192 111.667 251.617 111.667 252.13C111.667 252.681 111.513 253.185 111.205 253.642C110.897 254.099 110.435 254.468 109.819 254.748C109.212 255.028 108.442 255.168 107.509 255.168ZM115.11 255V247.048H111.974V245.2H120.514V247.048H117.378V255H115.11ZM119.954 255L124.322 245.2H126.562L130.944 255H128.564L124.98 246.348H125.876L122.278 255H119.954ZM122.138 252.9L122.74 251.178H127.78L128.396 252.9H122.138ZM134.061 249.61H138.765V251.43H134.061V249.61ZM134.229 255H131.961V245.2H139.367V247.02H134.229V255ZM143.002 249.61H147.706V251.43H143.002V249.61ZM143.17 255H140.902V245.2H148.308V247.02H143.17V255ZM151.761 251.598C151.761 251.271 151.812 250.982 151.915 250.73C152.027 250.478 152.162 250.254 152.321 250.058C152.489 249.862 152.666 249.68 152.853 249.512C153.039 249.344 153.212 249.185 153.371 249.036C153.539 248.877 153.674 248.714 153.777 248.546C153.889 248.378 153.945 248.191 153.945 247.986C153.945 247.65 153.805 247.379 153.525 247.174C153.254 246.969 152.89 246.866 152.433 246.866C151.994 246.866 151.602 246.959 151.257 247.146C150.911 247.323 150.627 247.575 150.403 247.902L148.709 246.908C149.082 246.339 149.6 245.886 150.263 245.55C150.925 245.205 151.728 245.032 152.671 245.032C153.371 245.032 153.987 245.135 154.519 245.34C155.051 245.536 155.466 245.825 155.765 246.208C156.073 246.591 156.227 247.062 156.227 247.622C156.227 247.986 156.171 248.308 156.059 248.588C155.947 248.868 155.802 249.111 155.625 249.316C155.447 249.521 155.256 249.713 155.051 249.89C154.855 250.067 154.668 250.24 154.491 250.408C154.313 250.576 154.164 250.753 154.043 250.94C153.931 251.127 153.875 251.346 153.875 251.598H151.761ZM152.825 255.112C152.433 255.112 152.111 254.986 151.859 254.734C151.607 254.482 151.481 254.183 151.481 253.838C151.481 253.483 151.607 253.189 151.859 252.956C152.111 252.713 152.433 252.592 152.825 252.592C153.226 252.592 153.548 252.713 153.791 252.956C154.043 253.189 154.169 253.483 154.169 253.838C154.169 254.183 154.043 254.482 153.791 254.734C153.548 254.986 153.226 255.112 152.825 255.112Z" fill="white"/>
<path d="M264.894 82.112C264.147 82.112 263.452 81.986 262.808 81.734C262.173 81.482 261.623 81.132 261.156 80.684C260.689 80.2267 260.325 79.6947 260.064 79.088C259.803 78.4813 259.672 77.8187 259.672 77.1C259.672 76.3813 259.803 75.7187 260.064 75.112C260.325 74.5053 260.689 73.978 261.156 73.53C261.623 73.0727 262.173 72.718 262.808 72.466C263.443 72.214 264.138 72.088 264.894 72.088C265.641 72.088 266.327 72.214 266.952 72.466C267.587 72.7087 268.137 73.0587 268.604 73.516C269.08 73.964 269.444 74.4913 269.696 75.098C269.957 75.7047 270.088 76.372 270.088 77.1C270.088 77.828 269.957 78.4953 269.696 79.102C269.444 79.7087 269.08 80.2407 268.604 80.698C268.137 81.146 267.587 81.496 266.952 81.748C266.327 81.9907 265.641 82.112 264.894 82.112ZM268.1 84.044C267.773 84.044 267.461 84.002 267.162 83.918C266.863 83.8433 266.565 83.7173 266.266 83.54C265.967 83.372 265.659 83.148 265.342 82.868C265.025 82.5973 264.679 82.2613 264.306 81.86L265.804 81.468C266.084 81.8133 266.35 82.0933 266.602 82.308C266.863 82.532 267.12 82.6907 267.372 82.784C267.624 82.8867 267.871 82.938 268.114 82.938C268.814 82.938 269.411 82.658 269.906 82.098L270.564 82.896C269.929 83.6613 269.108 84.044 268.1 84.044ZM264.894 80.866C265.435 80.866 265.935 80.7727 266.392 80.586C266.859 80.3993 267.26 80.1333 267.596 79.788C267.941 79.4427 268.207 79.0413 268.394 78.584C268.59 78.1267 268.688 77.632 268.688 77.1C268.688 76.5587 268.59 76.0593 268.394 75.602C268.207 75.1447 267.941 74.748 267.596 74.412C267.26 74.0667 266.859 73.8007 266.392 73.614C265.935 73.4273 265.435 73.334 264.894 73.334C264.343 73.334 263.835 73.4273 263.368 73.614C262.911 73.8007 262.509 74.0667 262.164 74.412C261.819 74.748 261.548 75.1447 261.352 75.602C261.165 76.0593 261.072 76.5587 261.072 77.1C261.072 77.632 261.165 78.1267 261.352 78.584C261.548 79.0413 261.819 79.4427 262.164 79.788C262.509 80.1333 262.911 80.3993 263.368 80.586C263.835 80.7727 264.343 80.866 264.894 80.866ZM272.228 82V72.2H276.05C276.908 72.2 277.641 72.3353 278.248 72.606C278.854 72.8767 279.321 73.2687 279.648 73.782C279.974 74.2953 280.138 74.9067 280.138 75.616C280.138 76.3253 279.974 76.9367 279.648 77.45C279.321 77.954 278.854 78.3413 278.248 78.612C277.641 78.8827 276.908 79.018 276.05 79.018H272.998L273.628 78.374V82H272.228ZM278.78 82L276.288 78.444H277.786L280.306 82H278.78ZM273.628 78.514L272.998 77.828H276.008C276.904 77.828 277.58 77.6367 278.038 77.254C278.504 76.862 278.738 76.316 278.738 75.616C278.738 74.916 278.504 74.3747 278.038 73.992C277.58 73.6093 276.904 73.418 276.008 73.418H272.998L273.628 72.718V78.514ZM295.245 74.51C295.843 74.51 296.37 74.6267 296.827 74.86C297.285 75.0933 297.639 75.448 297.891 75.924C298.153 76.4 298.283 77.002 298.283 77.73V82H296.939V77.884C296.939 77.1653 296.771 76.624 296.435 76.26C296.099 75.896 295.628 75.714 295.021 75.714C294.573 75.714 294.181 75.8073 293.845 75.994C293.509 76.1807 293.248 76.456 293.061 76.82C292.884 77.184 292.795 77.6367 292.795 78.178V82H291.451V77.884C291.451 77.1653 291.283 76.624 290.947 76.26C290.621 75.896 290.149 75.714 289.533 75.714C289.095 75.714 288.707 75.8073 288.371 75.994C288.035 76.1807 287.774 76.456 287.587 76.82C287.401 77.184 287.307 77.6367 287.307 78.178V82H285.963V74.58H287.251V76.554L287.041 76.05C287.275 75.5647 287.634 75.1867 288.119 74.916C288.605 74.6453 289.169 74.51 289.813 74.51C290.523 74.51 291.134 74.6873 291.647 75.042C292.161 75.3873 292.497 75.9147 292.655 76.624L292.109 76.4C292.333 75.8307 292.725 75.3733 293.285 75.028C293.845 74.6827 294.499 74.51 295.245 74.51ZM304.06 82.084C303.267 82.084 302.567 81.9207 301.96 81.594C301.363 81.2673 300.896 80.8193 300.56 80.25C300.234 79.6807 300.07 79.0273 300.07 78.29C300.07 77.5527 300.229 76.8993 300.546 76.33C300.873 75.7607 301.316 75.3173 301.876 75C302.446 74.6733 303.085 74.51 303.794 74.51C304.513 74.51 305.148 74.6687 305.698 74.986C306.249 75.3033 306.678 75.7513 306.986 76.33C307.304 76.8993 307.462 77.5667 307.462 78.332C307.462 78.388 307.458 78.4533 307.448 78.528C307.448 78.6027 307.444 78.6727 307.434 78.738H301.12V77.772H306.734L306.188 78.108C306.198 77.632 306.1 77.2073 305.894 76.834C305.689 76.4607 305.404 76.1713 305.04 75.966C304.686 75.7513 304.27 75.644 303.794 75.644C303.328 75.644 302.912 75.7513 302.548 75.966C302.184 76.1713 301.9 76.4653 301.694 76.848C301.489 77.2213 301.386 77.6507 301.386 78.136V78.36C301.386 78.8547 301.498 79.298 301.722 79.69C301.956 80.0727 302.278 80.3713 302.688 80.586C303.099 80.8007 303.57 80.908 304.102 80.908C304.541 80.908 304.938 80.8333 305.292 80.684C305.656 80.5347 305.974 80.3107 306.244 80.012L306.986 80.88C306.65 81.272 306.23 81.5707 305.726 81.776C305.232 81.9813 304.676 82.084 304.06 82.084ZM313.291 74.51C313.897 74.51 314.429 74.6267 314.887 74.86C315.353 75.0933 315.717 75.448 315.979 75.924C316.24 76.4 316.371 77.002 316.371 77.73V82H315.027V77.884C315.027 77.1653 314.849 76.624 314.495 76.26C314.149 75.896 313.659 75.714 313.025 75.714C312.549 75.714 312.133 75.8073 311.779 75.994C311.424 76.1807 311.149 76.456 310.953 76.82C310.766 77.184 310.673 77.6367 310.673 78.178V82H309.329V74.58H310.617V76.582L310.407 76.05C310.649 75.5647 311.023 75.1867 311.527 74.916C312.031 74.6453 312.619 74.51 313.291 74.51ZM321.98 82.084C321.345 82.084 320.785 81.9673 320.3 81.734C319.824 81.5007 319.451 81.146 319.18 80.67C318.919 80.1847 318.788 79.578 318.788 78.85V74.58H320.132V78.696C320.132 79.424 320.305 79.97 320.65 80.334C321.005 80.698 321.499 80.88 322.134 80.88C322.601 80.88 323.007 80.7867 323.352 80.6C323.697 80.404 323.963 80.124 324.15 79.76C324.337 79.3867 324.43 78.9387 324.43 78.416V74.58H325.774V82H324.5V79.998L324.71 80.53C324.467 81.0247 324.103 81.4073 323.618 81.678C323.133 81.9487 322.587 82.084 321.98 82.084ZM330.461 82.084C329.845 82.084 329.257 82 328.697 81.832C328.146 81.664 327.712 81.4587 327.395 81.216L327.955 80.152C328.272 80.3667 328.664 80.5487 329.131 80.698C329.597 80.8473 330.073 80.922 330.559 80.922C331.184 80.922 331.632 80.8333 331.903 80.656C332.183 80.4787 332.323 80.2313 332.323 79.914C332.323 79.6807 332.239 79.4987 332.071 79.368C331.903 79.2373 331.679 79.1393 331.399 79.074C331.128 79.0087 330.825 78.9527 330.489 78.906C330.153 78.85 329.817 78.7847 329.481 78.71C329.145 78.626 328.837 78.514 328.557 78.374C328.277 78.2247 328.053 78.024 327.885 77.772C327.717 77.5107 327.633 77.1653 327.633 76.736C327.633 76.288 327.759 75.896 328.011 75.56C328.263 75.224 328.617 74.9673 329.075 74.79C329.541 74.6033 330.092 74.51 330.727 74.51C331.212 74.51 331.702 74.5707 332.197 74.692C332.701 74.804 333.111 74.9673 333.429 75.182L332.855 76.246C332.519 76.022 332.169 75.868 331.805 75.784C331.441 75.7 331.077 75.658 330.713 75.658C330.125 75.658 329.686 75.756 329.397 75.952C329.107 76.1387 328.963 76.3813 328.963 76.68C328.963 76.932 329.047 77.128 329.215 77.268C329.392 77.3987 329.616 77.5013 329.887 77.576C330.167 77.6507 330.475 77.716 330.811 77.772C331.147 77.8187 331.483 77.884 331.819 77.968C332.155 78.0427 332.458 78.15 332.729 78.29C333.009 78.43 333.233 78.626 333.401 78.878C333.578 79.13 333.667 79.466 333.667 79.886C333.667 80.334 333.536 80.7213 333.275 81.048C333.013 81.3747 332.645 81.6313 332.169 81.818C331.693 81.9953 331.123 82.084 330.461 82.084Z" fill="white"/>
<ellipse cx="237.1" cy="111.658" rx="7" ry="6.99534" fill="#D5E2CD"/>
<path d="M262.47 117V107.2H266.292C267.151 107.2 267.883 107.335 268.49 107.606C269.097 107.877 269.563 108.269 269.89 108.782C270.217 109.295 270.38 109.907 270.38 110.616C270.38 111.325 270.217 111.937 269.89 112.45C269.563 112.954 269.097 113.346 268.49 113.626C267.883 113.897 267.151 114.032 266.292 114.032H263.24L263.87 113.374V117H262.47ZM263.87 113.514L263.24 112.814H266.25C267.146 112.814 267.823 112.623 268.28 112.24C268.747 111.857 268.98 111.316 268.98 110.616C268.98 109.916 268.747 109.375 268.28 108.992C267.823 108.609 267.146 108.418 266.25 108.418H263.24L263.87 107.718V113.514ZM276.778 117V115.432L276.708 115.138V112.464C276.708 111.895 276.54 111.456 276.204 111.148C275.878 110.831 275.383 110.672 274.72 110.672C274.282 110.672 273.852 110.747 273.432 110.896C273.012 111.036 272.658 111.227 272.368 111.47L271.808 110.462C272.191 110.154 272.648 109.921 273.18 109.762C273.722 109.594 274.286 109.51 274.874 109.51C275.892 109.51 276.676 109.757 277.226 110.252C277.777 110.747 278.052 111.503 278.052 112.52V117H276.778ZM274.342 117.084C273.792 117.084 273.306 116.991 272.886 116.804C272.476 116.617 272.158 116.361 271.934 116.034C271.71 115.698 271.598 115.32 271.598 114.9C271.598 114.499 271.692 114.135 271.878 113.808C272.074 113.481 272.387 113.22 272.816 113.024C273.255 112.828 273.843 112.73 274.58 112.73H276.932V113.696H274.636C273.964 113.696 273.512 113.808 273.278 114.032C273.045 114.256 272.928 114.527 272.928 114.844C272.928 115.208 273.073 115.502 273.362 115.726C273.652 115.941 274.053 116.048 274.566 116.048C275.07 116.048 275.509 115.936 275.882 115.712C276.265 115.488 276.54 115.161 276.708 114.732L276.974 115.656C276.797 116.095 276.484 116.445 276.036 116.706C275.588 116.958 275.024 117.084 274.342 117.084ZM284.474 117.084C283.858 117.084 283.293 116.944 282.78 116.664C282.276 116.375 281.87 115.95 281.562 115.39C281.263 114.83 281.114 114.13 281.114 113.29C281.114 112.45 281.258 111.75 281.548 111.19C281.846 110.63 282.248 110.21 282.752 109.93C283.265 109.65 283.839 109.51 284.474 109.51C285.202 109.51 285.846 109.669 286.406 109.986C286.966 110.303 287.409 110.747 287.736 111.316C288.062 111.876 288.226 112.534 288.226 113.29C288.226 114.046 288.062 114.709 287.736 115.278C287.409 115.847 286.966 116.291 286.406 116.608C285.846 116.925 285.202 117.084 284.474 117.084ZM280.54 119.716V109.58H281.828V111.582L281.744 113.304L281.884 115.026V119.716H280.54ZM284.362 115.908C284.838 115.908 285.262 115.801 285.636 115.586C286.018 115.371 286.317 115.068 286.532 114.676C286.756 114.275 286.868 113.813 286.868 113.29C286.868 112.758 286.756 112.301 286.532 111.918C286.317 111.526 286.018 111.223 285.636 111.008C285.262 110.793 284.838 110.686 284.362 110.686C283.895 110.686 283.47 110.793 283.088 111.008C282.714 111.223 282.416 111.526 282.192 111.918C281.977 112.301 281.87 112.758 281.87 113.29C281.87 113.813 281.977 114.275 282.192 114.676C282.416 115.068 282.714 115.371 283.088 115.586C283.47 115.801 283.895 115.908 284.362 115.908ZM293.387 117.084C292.593 117.084 291.893 116.921 291.287 116.594C290.689 116.267 290.223 115.819 289.887 115.25C289.56 114.681 289.397 114.027 289.397 113.29C289.397 112.553 289.555 111.899 289.873 111.33C290.199 110.761 290.643 110.317 291.203 110C291.772 109.673 292.411 109.51 293.121 109.51C293.839 109.51 294.474 109.669 295.025 109.986C295.575 110.303 296.005 110.751 296.313 111.33C296.63 111.899 296.789 112.567 296.789 113.332C296.789 113.388 296.784 113.453 296.775 113.528C296.775 113.603 296.77 113.673 296.761 113.738H290.447V112.772H296.061L295.515 113.108C295.524 112.632 295.426 112.207 295.221 111.834C295.015 111.461 294.731 111.171 294.367 110.966C294.012 110.751 293.597 110.644 293.121 110.644C292.654 110.644 292.239 110.751 291.875 110.966C291.511 111.171 291.226 111.465 291.021 111.848C290.815 112.221 290.713 112.651 290.713 113.136V113.36C290.713 113.855 290.825 114.298 291.049 114.69C291.282 115.073 291.604 115.371 292.015 115.586C292.425 115.801 292.897 115.908 293.429 115.908C293.867 115.908 294.264 115.833 294.619 115.684C294.983 115.535 295.3 115.311 295.571 115.012L296.313 115.88C295.977 116.272 295.557 116.571 295.053 116.776C294.558 116.981 294.003 117.084 293.387 117.084ZM298.655 117V109.58H299.943V111.596L299.817 111.092C300.022 110.579 300.368 110.187 300.853 109.916C301.338 109.645 301.936 109.51 302.645 109.51V110.812C302.589 110.803 302.533 110.798 302.477 110.798C302.43 110.798 302.384 110.798 302.337 110.798C301.618 110.798 301.049 111.013 300.629 111.442C300.209 111.871 299.999 112.492 299.999 113.304V117H298.655ZM317.439 109.51C318.036 109.51 318.563 109.627 319.021 109.86C319.478 110.093 319.833 110.448 320.085 110.924C320.346 111.4 320.477 112.002 320.477 112.73V117H319.133V112.884C319.133 112.165 318.965 111.624 318.629 111.26C318.293 110.896 317.821 110.714 317.215 110.714C316.767 110.714 316.375 110.807 316.039 110.994C315.703 111.181 315.441 111.456 315.255 111.82C315.077 112.184 314.989 112.637 314.989 113.178V117H313.645V112.884C313.645 112.165 313.477 111.624 313.141 111.26C312.814 110.896 312.343 110.714 311.727 110.714C311.288 110.714 310.901 110.807 310.565 110.994C310.229 111.181 309.967 111.456 309.781 111.82C309.594 112.184 309.501 112.637 309.501 113.178V117H308.157V109.58H309.445V111.554L309.235 111.05C309.468 110.565 309.827 110.187 310.313 109.916C310.798 109.645 311.363 109.51 312.007 109.51C312.716 109.51 313.327 109.687 313.841 110.042C314.354 110.387 314.69 110.915 314.849 111.624L314.303 111.4C314.527 110.831 314.919 110.373 315.479 110.028C316.039 109.683 316.692 109.51 317.439 109.51ZM326.254 117.084C325.46 117.084 324.76 116.921 324.154 116.594C323.556 116.267 323.09 115.819 322.754 115.25C322.427 114.681 322.264 114.027 322.264 113.29C322.264 112.553 322.422 111.899 322.74 111.33C323.066 110.761 323.51 110.317 324.07 110C324.639 109.673 325.278 109.51 325.988 109.51C326.706 109.51 327.341 109.669 327.892 109.986C328.442 110.303 328.872 110.751 329.18 111.33C329.497 111.899 329.656 112.567 329.656 113.332C329.656 113.388 329.651 113.453 329.642 113.528C329.642 113.603 329.637 113.673 329.628 113.738H323.314V112.772H328.928L328.382 113.108C328.391 112.632 328.293 112.207 328.088 111.834C327.882 111.461 327.598 111.171 327.234 110.966C326.879 110.751 326.464 110.644 325.988 110.644C325.521 110.644 325.106 110.751 324.742 110.966C324.378 111.171 324.093 111.465 323.888 111.848C323.682 112.221 323.58 112.651 323.58 113.136V113.36C323.58 113.855 323.692 114.298 323.916 114.69C324.149 115.073 324.471 115.371 324.882 115.586C325.292 115.801 325.764 115.908 326.296 115.908C326.734 115.908 327.131 115.833 327.486 115.684C327.85 115.535 328.167 115.311 328.438 115.012L329.18 115.88C328.844 116.272 328.424 116.571 327.92 116.776C327.425 116.981 326.87 117.084 326.254 117.084ZM335.484 109.51C336.091 109.51 336.623 109.627 337.08 109.86C337.547 110.093 337.911 110.448 338.172 110.924C338.433 111.4 338.564 112.002 338.564 112.73V117H337.22V112.884C337.22 112.165 337.043 111.624 336.688 111.26C336.343 110.896 335.853 110.714 335.218 110.714C334.742 110.714 334.327 110.807 333.972 110.994C333.617 111.181 333.342 111.456 333.146 111.82C332.959 112.184 332.866 112.637 332.866 113.178V117H331.522V109.58H332.81V111.582L332.6 111.05C332.843 110.565 333.216 110.187 333.72 109.916C334.224 109.645 334.812 109.51 335.484 109.51ZM344.173 117.084C343.539 117.084 342.979 116.967 342.493 116.734C342.017 116.501 341.644 116.146 341.373 115.67C341.112 115.185 340.981 114.578 340.981 113.85V109.58H342.325V113.696C342.325 114.424 342.498 114.97 342.843 115.334C343.198 115.698 343.693 115.88 344.327 115.88C344.794 115.88 345.2 115.787 345.545 115.6C345.891 115.404 346.157 115.124 346.343 114.76C346.53 114.387 346.623 113.939 346.623 113.416V109.58H347.967V117H346.693V114.998L346.903 115.53C346.661 116.025 346.297 116.407 345.811 116.678C345.326 116.949 344.78 117.084 344.173 117.084ZM352.654 117.084C352.038 117.084 351.45 117 350.89 116.832C350.339 116.664 349.905 116.459 349.588 116.216L350.148 115.152C350.465 115.367 350.857 115.549 351.324 115.698C351.791 115.847 352.267 115.922 352.752 115.922C353.377 115.922 353.825 115.833 354.096 115.656C354.376 115.479 354.516 115.231 354.516 114.914C354.516 114.681 354.432 114.499 354.264 114.368C354.096 114.237 353.872 114.139 353.592 114.074C353.321 114.009 353.018 113.953 352.682 113.906C352.346 113.85 352.01 113.785 351.674 113.71C351.338 113.626 351.03 113.514 350.75 113.374C350.47 113.225 350.246 113.024 350.078 112.772C349.91 112.511 349.826 112.165 349.826 111.736C349.826 111.288 349.952 110.896 350.204 110.56C350.456 110.224 350.811 109.967 351.268 109.79C351.735 109.603 352.285 109.51 352.92 109.51C353.405 109.51 353.895 109.571 354.39 109.692C354.894 109.804 355.305 109.967 355.622 110.182L355.048 111.246C354.712 111.022 354.362 110.868 353.998 110.784C353.634 110.7 353.27 110.658 352.906 110.658C352.318 110.658 351.879 110.756 351.59 110.952C351.301 111.139 351.156 111.381 351.156 111.68C351.156 111.932 351.24 112.128 351.408 112.268C351.585 112.399 351.809 112.501 352.08 112.576C352.36 112.651 352.668 112.716 353.004 112.772C353.34 112.819 353.676 112.884 354.012 112.968C354.348 113.043 354.651 113.15 354.922 113.29C355.202 113.43 355.426 113.626 355.594 113.878C355.771 114.13 355.86 114.466 355.86 114.886C355.86 115.334 355.729 115.721 355.468 116.048C355.207 116.375 354.838 116.631 354.362 116.818C353.886 116.995 353.317 117.084 352.654 117.084Z" fill="white"/>
<ellipse cx="237.1" cy="76.5554" rx="7" ry="6.99534" fill="#F68A59"/>
<path d="M65 162.913C100.898 162.913 130 133.831 130 97.9567C130 62.0821 100.898 33 65 33C29.1015 33 0 62.0821 0 97.9567C0 133.831 29.1015 162.913 65 162.913Z" fill="#D5E2CD"/>
<path d="M130 97.9568C130 111.167 125.97 124.063 118.447 134.925C110.923 145.787 100.265 154.098 87.8937 158.751C75.5217 163.404 62.0246 164.177 49.2022 160.966C36.3796 157.755 24.8415 150.714 16.1266 140.781C7.41168 130.849 1.93436 118.497 0.425109 105.373C-1.08414 92.2494 1.44645 78.978 7.67935 67.3286C13.9123 55.6793 23.5512 46.2059 35.3105 40.172C47.0697 34.1382 60.3905 31.8307 73.4959 33.5573L65 97.9568H130Z" fill="#F68A59"/>
<path d="M43.5241 133.213C42.7121 133.213 42.0075 133.092 41.4101 132.849C40.8128 132.607 40.3508 132.266 40.0241 131.827C39.6975 131.379 39.5341 130.857 39.5341 130.259C39.5341 129.662 39.6928 129.158 40.0101 128.747C40.3275 128.337 40.7848 128.024 41.3821 127.809C41.9795 127.595 42.6935 127.487 43.5241 127.487C44.3548 127.487 45.0688 127.595 45.6661 127.809C46.2728 128.024 46.7348 128.341 47.0521 128.761C47.3788 129.172 47.5421 129.671 47.5421 130.259C47.5421 130.857 47.3741 131.379 47.0381 131.827C46.7115 132.266 46.2448 132.607 45.6381 132.849C45.0408 133.092 44.3361 133.213 43.5241 133.213ZM43.5241 131.785C44.1961 131.785 44.7281 131.645 45.1201 131.365C45.5121 131.085 45.7081 130.698 45.7081 130.203C45.7081 129.718 45.5121 129.335 45.1201 129.055C44.7281 128.775 44.1961 128.635 43.5241 128.635C42.8521 128.635 42.3248 128.775 41.9421 129.055C41.5595 129.335 41.3681 129.718 41.3681 130.203C41.3681 130.698 41.5595 131.085 41.9421 131.365C42.3248 131.645 42.8521 131.785 43.5241 131.785ZM43.5241 128.439C42.7681 128.439 42.1195 128.341 41.5781 128.145C41.0368 127.94 40.6168 127.646 40.3181 127.263C40.0288 126.871 39.8841 126.405 39.8841 125.863C39.8841 125.303 40.0335 124.823 40.3321 124.421C40.6401 124.011 41.0695 123.693 41.6201 123.469C42.1708 123.245 42.8055 123.133 43.5241 123.133C44.2521 123.133 44.8915 123.245 45.4421 123.469C45.9928 123.693 46.4221 124.011 46.7301 124.421C47.0381 124.823 47.1921 125.303 47.1921 125.863C47.1921 126.405 47.0428 126.871 46.7441 127.263C46.4548 127.646 46.0348 127.94 45.4841 128.145C44.9335 128.341 44.2801 128.439 43.5241 128.439ZM43.5241 127.319C44.1028 127.319 44.5601 127.198 44.8961 126.955C45.2321 126.703 45.4001 126.367 45.4001 125.947C45.4001 125.509 45.2275 125.168 44.8821 124.925C44.5368 124.683 44.0841 124.561 43.5241 124.561C42.9641 124.561 42.5161 124.683 42.1801 124.925C41.8441 125.168 41.6761 125.509 41.6761 125.947C41.6761 126.367 41.8395 126.703 42.1661 126.955C42.5021 127.198 42.9548 127.319 43.5241 127.319ZM52.8109 133.213C52.0363 133.213 51.3363 133.017 50.7109 132.625C50.0949 132.233 49.6096 131.664 49.2549 130.917C48.9003 130.161 48.7229 129.247 48.7229 128.173C48.7229 127.1 48.9003 126.19 49.2549 125.443C49.6096 124.687 50.0949 124.113 50.7109 123.721C51.3363 123.329 52.0363 123.133 52.8109 123.133C53.5949 123.133 54.2949 123.329 54.9109 123.721C55.5269 124.113 56.0123 124.687 56.3669 125.443C56.7309 126.19 56.9129 127.1 56.9129 128.173C56.9129 129.247 56.7309 130.161 56.3669 130.917C56.0123 131.664 55.5269 132.233 54.9109 132.625C54.2949 133.017 53.5949 133.213 52.8109 133.213ZM52.8109 131.631C53.2683 131.631 53.6649 131.51 54.0009 131.267C54.3369 131.015 54.5983 130.633 54.7849 130.119C54.9809 129.606 55.0789 128.957 55.0789 128.173C55.0789 127.38 54.9809 126.731 54.7849 126.227C54.5983 125.714 54.3369 125.336 54.0009 125.093C53.6649 124.841 53.2683 124.715 52.8109 124.715C52.3723 124.715 51.9803 124.841 51.6349 125.093C51.2989 125.336 51.0329 125.714 50.8369 126.227C50.6503 126.731 50.5569 127.38 50.5569 128.173C50.5569 128.957 50.6503 129.606 50.8369 130.119C51.0329 130.633 51.2989 131.015 51.6349 131.267C51.9803 131.51 52.3723 131.631 52.8109 131.631ZM59.5149 133.073L66.2069 123.273H67.5789L60.8869 133.073H59.5149ZM60.3269 128.551C59.8695 128.551 59.4635 128.439 59.1089 128.215C58.7542 127.991 58.4789 127.679 58.2829 127.277C58.0869 126.876 57.9889 126.405 57.9889 125.863C57.9889 125.322 58.0869 124.851 58.2829 124.449C58.4789 124.048 58.7542 123.735 59.1089 123.511C59.4635 123.287 59.8695 123.175 60.3269 123.175C60.8029 123.175 61.2135 123.287 61.5589 123.511C61.9135 123.735 62.1889 124.048 62.3849 124.449C62.5809 124.851 62.6789 125.322 62.6789 125.863C62.6789 126.405 62.5809 126.876 62.3849 127.277C62.1889 127.679 61.9135 127.991 61.5589 128.215C61.2135 128.439 60.8029 128.551 60.3269 128.551ZM60.3409 127.571C60.7142 127.571 61.0035 127.427 61.2089 127.137C61.4235 126.839 61.5309 126.414 61.5309 125.863C61.5309 125.313 61.4235 124.893 61.2089 124.603C61.0035 124.305 60.7142 124.155 60.3409 124.155C59.9675 124.155 59.6689 124.305 59.4449 124.603C59.2302 124.902 59.1229 125.322 59.1229 125.863C59.1229 126.405 59.2302 126.825 59.4449 127.123C59.6689 127.422 59.9675 127.571 60.3409 127.571ZM66.7529 133.171C66.2955 133.171 65.8895 133.059 65.5349 132.835C65.1802 132.611 64.9049 132.299 64.7089 131.897C64.5129 131.496 64.4149 131.025 64.4149 130.483C64.4149 129.942 64.5129 129.471 64.7089 129.069C64.9049 128.668 65.1802 128.355 65.5349 128.131C65.8895 127.907 66.2955 127.795 66.7529 127.795C67.2289 127.795 67.6395 127.907 67.9849 128.131C68.3395 128.355 68.6149 128.668 68.8109 129.069C69.0069 129.471 69.1049 129.942 69.1049 130.483C69.1049 131.025 69.0069 131.496 68.8109 131.897C68.6149 132.299 68.3395 132.611 67.9849 132.835C67.6395 133.059 67.2289 133.171 66.7529 133.171ZM66.7529 132.191C67.1262 132.191 67.4202 132.042 67.6349 131.743C67.8495 131.445 67.9569 131.025 67.9569 130.483C67.9569 129.942 67.8495 129.522 67.6349 129.223C67.4202 128.925 67.1262 128.775 66.7529 128.775C66.3889 128.775 66.0949 128.925 65.8709 129.223C65.6562 129.513 65.5489 129.933 65.5489 130.483C65.5489 131.034 65.6562 131.459 65.8709 131.757C66.0949 132.047 66.3889 132.191 66.7529 132.191Z" fill="black"/>
<path d="M83.6345 81.108V79.89L87.5265 76.194C87.8532 75.886 88.0959 75.6154 88.2545 75.382C88.4132 75.1487 88.5159 74.934 88.5625 74.738C88.6185 74.5327 88.6465 74.3414 88.6465 74.164C88.6465 73.716 88.4925 73.3707 88.1845 73.128C87.8765 72.876 87.4239 72.75 86.8265 72.75C86.3505 72.75 85.9165 72.834 85.5245 73.002C85.1419 73.17 84.8105 73.4267 84.5305 73.772L83.2565 72.792C83.6392 72.2787 84.1525 71.882 84.7965 71.602C85.4499 71.3127 86.1779 71.168 86.9805 71.168C87.6899 71.168 88.3059 71.2847 88.8285 71.518C89.3605 71.742 89.7665 72.064 90.0465 72.484C90.3359 72.904 90.4805 73.4034 90.4805 73.982C90.4805 74.2994 90.4385 74.6167 90.3545 74.934C90.2705 75.242 90.1119 75.5687 89.8785 75.914C89.6452 76.2594 89.3045 76.6467 88.8565 77.076L85.5105 80.254L85.1325 79.568H90.8585V81.108H83.6345ZM95.997 81.248C95.2223 81.248 94.5223 81.052 93.897 80.66C93.281 80.268 92.7956 79.6987 92.441 78.952C92.0863 78.196 91.909 77.2814 91.909 76.208C91.909 75.1347 92.0863 74.2247 92.441 73.478C92.7956 72.722 93.281 72.148 93.897 71.756C94.5223 71.364 95.2223 71.168 95.997 71.168C96.781 71.168 97.481 71.364 98.097 71.756C98.713 72.148 99.1983 72.722 99.553 73.478C99.917 74.2247 100.099 75.1347 100.099 76.208C100.099 77.2814 99.917 78.196 99.553 78.952C99.1983 79.6987 98.713 80.268 98.097 80.66C97.481 81.052 96.781 81.248 95.997 81.248ZM95.997 79.666C96.4543 79.666 96.851 79.5447 97.187 79.302C97.523 79.05 97.7843 78.6674 97.971 78.154C98.167 77.6407 98.265 76.992 98.265 76.208C98.265 75.4147 98.167 74.766 97.971 74.262C97.7843 73.7487 97.523 73.3707 97.187 73.128C96.851 72.876 96.4543 72.75 95.997 72.75C95.5583 72.75 95.1663 72.876 94.821 73.128C94.485 73.3707 94.219 73.7487 94.023 74.262C93.8363 74.766 93.743 75.4147 93.743 76.208C93.743 76.992 93.8363 77.6407 94.023 78.154C94.219 78.6674 94.485 79.05 94.821 79.302C95.1663 79.5447 95.5583 79.666 95.997 79.666ZM102.701 81.108L109.393 71.308H110.765L104.073 81.108H102.701ZM103.513 76.586C103.056 76.586 102.65 76.474 102.295 76.25C101.94 76.026 101.665 75.7134 101.469 75.312C101.273 74.9107 101.175 74.4394 101.175 73.898C101.175 73.3567 101.273 72.8854 101.469 72.484C101.665 72.0827 101.94 71.77 102.295 71.546C102.65 71.322 103.056 71.21 103.513 71.21C103.989 71.21 104.4 71.322 104.745 71.546C105.1 71.77 105.375 72.0827 105.571 72.484C105.767 72.8854 105.865 73.3567 105.865 73.898C105.865 74.4394 105.767 74.9107 105.571 75.312C105.375 75.7134 105.1 76.026 104.745 76.25C104.4 76.474 103.989 76.586 103.513 76.586ZM103.527 75.606C103.9 75.606 104.19 75.4614 104.395 75.172C104.61 74.8734 104.717 74.4487 104.717 73.898C104.717 73.3474 104.61 72.9274 104.395 72.638C104.19 72.3394 103.9 72.19 103.527 72.19C103.154 72.19 102.855 72.3394 102.631 72.638C102.416 72.9367 102.309 73.3567 102.309 73.898C102.309 74.4394 102.416 74.8594 102.631 75.158C102.855 75.4567 103.154 75.606 103.527 75.606ZM109.939 81.206C109.482 81.206 109.076 81.094 108.721 80.87C108.366 80.646 108.091 80.3334 107.895 79.932C107.699 79.5307 107.601 79.0594 107.601 78.518C107.601 77.9767 107.699 77.5054 107.895 77.104C108.091 76.7027 108.366 76.39 108.721 76.166C109.076 75.942 109.482 75.83 109.939 75.83C110.415 75.83 110.826 75.942 111.171 76.166C111.526 76.39 111.801 76.7027 111.997 77.104C112.193 77.5054 112.291 77.9767 112.291 78.518C112.291 79.0594 112.193 79.5307 111.997 79.932C111.801 80.3334 111.526 80.646 111.171 80.87C110.826 81.094 110.415 81.206 109.939 81.206ZM109.939 80.226C110.312 80.226 110.606 80.0767 110.821 79.778C111.036 79.4794 111.143 79.0594 111.143 78.518C111.143 77.9767 111.036 77.5567 110.821 77.258C110.606 76.9594 110.312 76.81 109.939 76.81C109.575 76.81 109.281 76.9594 109.057 77.258C108.842 77.5474 108.735 77.9674 108.735 78.518C108.735 79.0687 108.842 79.4934 109.057 79.792C109.281 80.0814 109.575 80.226 109.939 80.226Z" fill="black"/>
<path d="M1.162 10V0.199999H5.614C6.678 0.199999 7.616 0.405333 8.428 0.816C9.24 1.21733 9.87467 1.782 10.332 2.51C10.7893 3.238 11.018 4.10133 11.018 5.1C11.018 6.08933 10.7893 6.95267 10.332 7.69C9.87467 8.418 9.24 8.98733 8.428 9.398C7.616 9.79933 6.678 10 5.614 10H1.162ZM3.43 8.138H5.502C6.15533 8.138 6.72 8.01667 7.196 7.774C7.68133 7.522 8.05467 7.16733 8.316 6.71C8.58667 6.25267 8.722 5.716 8.722 5.1C8.722 4.47467 8.58667 3.938 8.316 3.49C8.05467 3.03267 7.68133 2.68267 7.196 2.44C6.72 2.188 6.15533 2.062 5.502 2.062H3.43V8.138ZM17.4884 10.168C16.7137 10.168 15.9951 10.042 15.3324 9.79C14.6791 9.538 14.1097 9.18333 13.6244 8.726C13.1484 8.26867 12.7751 7.732 12.5044 7.116C12.2431 6.5 12.1124 5.828 12.1124 5.1C12.1124 4.372 12.2431 3.7 12.5044 3.084C12.7751 2.468 13.1531 1.93133 13.6384 1.474C14.1237 1.01667 14.6931 0.661999 15.3464 0.409999C15.9997 0.158 16.7091 0.0319998 17.4744 0.0319998C18.2491 0.0319998 18.9584 0.158 19.6024 0.409999C20.2557 0.661999 20.8204 1.01667 21.2964 1.474C21.7817 1.93133 22.1597 2.468 22.4304 3.084C22.7011 3.69067 22.8364 4.36267 22.8364 5.1C22.8364 5.828 22.7011 6.50467 22.4304 7.13C22.1597 7.746 21.7817 8.28267 21.2964 8.74C20.8204 9.188 20.2557 9.538 19.6024 9.79C18.9584 10.042 18.2537 10.168 17.4884 10.168ZM17.4744 8.236C17.9131 8.236 18.3144 8.16133 18.6784 8.012C19.0517 7.86267 19.3784 7.648 19.6584 7.368C19.9384 7.088 20.1531 6.75667 20.3024 6.374C20.4611 5.99133 20.5404 5.56667 20.5404 5.1C20.5404 4.63333 20.4611 4.20867 20.3024 3.826C20.1531 3.44333 19.9384 3.112 19.6584 2.832C19.3877 2.552 19.0657 2.33733 18.6924 2.188C18.3191 2.03867 17.9131 1.964 17.4744 1.964C17.0357 1.964 16.6297 2.03867 16.2564 2.188C15.8924 2.33733 15.5704 2.552 15.2904 2.832C15.0104 3.112 14.7911 3.44333 14.6324 3.826C14.4831 4.20867 14.4084 4.63333 14.4084 5.1C14.4084 5.55733 14.4831 5.982 14.6324 6.374C14.7911 6.75667 15.0057 7.088 15.2764 7.368C15.5564 7.648 15.8831 7.86267 16.2564 8.012C16.6297 8.16133 17.0357 8.236 17.4744 8.236ZM30.9417 10V5.996L31.4597 7.368L27.1477 0.199999H29.5558L32.8598 5.702H31.4738L34.7918 0.199999H37.0178L32.7058 7.368L33.2098 5.996V10H30.9417ZM42.3029 10.168C41.5282 10.168 40.8095 10.042 40.1469 9.79C39.4935 9.538 38.9242 9.18333 38.4389 8.726C37.9629 8.26867 37.5895 7.732 37.3189 7.116C37.0575 6.5 36.9269 5.828 36.9269 5.1C36.9269 4.372 37.0575 3.7 37.3189 3.084C37.5895 2.468 37.9675 1.93133 38.4529 1.474C38.9382 1.01667 39.5075 0.661999 40.1609 0.409999C40.8142 0.158 41.5235 0.0319998 42.2889 0.0319998C43.0635 0.0319998 43.7729 0.158 44.4169 0.409999C45.0702 0.661999 45.6349 1.01667 46.1109 1.474C46.5962 1.93133 46.9742 2.468 47.2449 3.084C47.5155 3.69067 47.6509 4.36267 47.6509 5.1C47.6509 5.828 47.5155 6.50467 47.2449 7.13C46.9742 7.746 46.5962 8.28267 46.1109 8.74C45.6349 9.188 45.0702 9.538 44.4169 9.79C43.7729 10.042 43.0682 10.168 42.3029 10.168ZM42.2889 8.236C42.7275 8.236 43.1289 8.16133 43.4929 8.012C43.8662 7.86267 44.1929 7.648 44.4729 7.368C44.7529 7.088 44.9675 6.75667 45.1169 6.374C45.2755 5.99133 45.3549 5.56667 45.3549 5.1C45.3549 4.63333 45.2755 4.20867 45.1169 3.826C44.9675 3.44333 44.7529 3.112 44.4729 2.832C44.2022 2.552 43.8802 2.33733 43.5069 2.188C43.1335 2.03867 42.7275 1.964 42.2889 1.964C41.8502 1.964 41.4442 2.03867 41.0709 2.188C40.7069 2.33733 40.3849 2.552 40.1049 2.832C39.8249 3.112 39.6055 3.44333 39.4469 3.826C39.2975 4.20867 39.2229 4.63333 39.2229 5.1C39.2229 5.55733 39.2975 5.982 39.4469 6.374C39.6055 6.75667 39.8202 7.088 40.0909 7.368C40.3709 7.648 40.6975 7.86267 41.0709 8.012C41.4442 8.16133 41.8502 8.236 42.2889 8.236ZM53.7094 10.168C52.3187 10.168 51.2314 9.78067 50.4474 9.006C49.6634 8.23133 49.2714 7.12533 49.2714 5.688V0.199999H51.5394V5.604C51.5394 6.53733 51.7307 7.20933 52.1134 7.62C52.496 8.03067 53.0327 8.236 53.7234 8.236C54.414 8.236 54.9507 8.03067 55.3334 7.62C55.716 7.20933 55.9074 6.53733 55.9074 5.604V0.199999H58.1474V5.688C58.1474 7.12533 57.7554 8.23133 56.9714 9.006C56.1874 9.78067 55.1 10.168 53.7094 10.168ZM64.3534 10V0.199999H68.5954C69.4727 0.199999 70.2287 0.344666 70.8634 0.634C71.4981 0.913999 71.9881 1.32 72.3334 1.852C72.6787 2.384 72.8514 3.01867 72.8514 3.756C72.8514 4.484 72.6787 5.114 72.3334 5.646C71.9881 6.178 71.4981 6.58867 70.8634 6.878C70.2287 7.158 69.4727 7.298 68.5954 7.298H65.6134L66.6214 6.276V10H64.3534ZM66.6214 6.528L65.6134 5.45H68.4694C69.1694 5.45 69.6921 5.30067 70.0374 5.002C70.3827 4.70333 70.5554 4.288 70.5554 3.756C70.5554 3.21467 70.3827 2.79467 70.0374 2.496C69.6921 2.19733 69.1694 2.048 68.4694 2.048H65.6134L66.6214 0.969999V6.528ZM74.4706 10V0.199999H78.7126C79.5899 0.199999 80.3459 0.344666 80.9806 0.634C81.6153 0.913999 82.1053 1.32 82.4506 1.852C82.7959 2.384 82.9686 3.01867 82.9686 3.756C82.9686 4.484 82.7959 5.114 82.4506 5.646C82.1053 6.16867 81.6153 6.57 80.9806 6.85C80.3459 7.13 79.5899 7.27 78.7126 7.27H75.7306L76.7386 6.276V10H74.4706ZM80.7006 10L78.2506 6.444H80.6726L83.1506 10H80.7006ZM76.7386 6.528L75.7306 5.464H78.5866C79.2866 5.464 79.8093 5.31467 80.1546 5.016C80.4999 4.708 80.6726 4.288 80.6726 3.756C80.6726 3.21467 80.4999 2.79467 80.1546 2.496C79.8093 2.19733 79.2866 2.048 78.5866 2.048H75.7306L76.7386 0.969999V6.528ZM86.8515 4.148H91.5695V5.912H86.8515V4.148ZM87.0195 8.18H92.3535V10H84.7655V0.199999H92.1715V2.02H87.0195V8.18ZM96.2581 4.61H100.962V6.43H96.2581V4.61ZM96.4261 10H94.1581V0.199999H101.564V2.02H96.4261V10ZM105.186 4.148H109.904V5.912H105.186V4.148ZM105.354 8.18H110.688V10H103.1V0.199999H110.506V2.02H105.354V8.18ZM112.492 10V0.199999H116.734C117.611 0.199999 118.367 0.344666 119.002 0.634C119.637 0.913999 120.127 1.32 120.472 1.852C120.817 2.384 120.99 3.01867 120.99 3.756C120.99 4.484 120.817 5.114 120.472 5.646C120.127 6.16867 119.637 6.57 119.002 6.85C118.367 7.13 117.611 7.27 116.734 7.27H113.752L114.76 6.276V10H112.492ZM118.722 10L116.272 6.444H118.694L121.172 10H118.722ZM114.76 6.528L113.752 5.464H116.608C117.308 5.464 117.831 5.31467 118.176 5.016C118.521 4.708 118.694 4.288 118.694 3.756C118.694 3.21467 118.521 2.79467 118.176 2.496C117.831 2.19733 117.308 2.048 116.608 2.048H113.752L114.76 0.969999V6.528ZM131.498 10.168C130.733 10.168 130.019 10.042 129.356 9.79C128.703 9.538 128.133 9.18333 127.648 8.726C127.172 8.26867 126.799 7.732 126.528 7.116C126.267 6.5 126.136 5.828 126.136 5.1C126.136 4.372 126.267 3.7 126.528 3.084C126.799 2.468 127.177 1.93133 127.662 1.474C128.147 1.01667 128.717 0.661999 129.37 0.409999C130.023 0.158 130.733 0.0319998 131.498 0.0319998C132.273 0.0319998 132.982 0.158 133.626 0.409999C134.279 0.661999 134.844 1.01667 135.32 1.474C135.805 1.922 136.183 2.454 136.454 3.07C136.725 3.686 136.86 4.36267 136.86 5.1C136.86 5.828 136.725 6.50467 136.454 7.13C136.183 7.746 135.805 8.28267 135.32 8.74C134.844 9.188 134.279 9.538 133.626 9.79C132.982 10.042 132.273 10.168 131.498 10.168ZM134.704 12.254C134.321 12.254 133.957 12.212 133.612 12.128C133.276 12.044 132.94 11.9087 132.604 11.722C132.277 11.5353 131.932 11.2833 131.568 10.966C131.213 10.6487 130.826 10.2567 130.406 9.79L132.786 9.188C133.038 9.53333 133.271 9.80867 133.486 10.014C133.701 10.2193 133.906 10.364 134.102 10.448C134.307 10.532 134.522 10.574 134.746 10.574C135.343 10.574 135.875 10.3313 136.342 9.846L137.35 11.05C136.687 11.8527 135.805 12.254 134.704 12.254ZM131.498 8.236C131.937 8.236 132.338 8.16133 132.702 8.012C133.075 7.86267 133.402 7.648 133.682 7.368C133.962 7.088 134.177 6.75667 134.326 6.374C134.485 5.982 134.564 5.55733 134.564 5.1C134.564 4.63333 134.485 4.20867 134.326 3.826C134.177 3.44333 133.962 3.112 133.682 2.832C133.402 2.552 133.075 2.33733 132.702 2.188C132.338 2.03867 131.937 1.964 131.498 1.964C131.059 1.964 130.653 2.03867 130.28 2.188C129.907 2.33733 129.58 2.552 129.3 2.832C129.029 3.112 128.815 3.44333 128.656 3.826C128.507 4.20867 128.432 4.63333 128.432 5.1C128.432 5.55733 128.507 5.982 128.656 6.374C128.815 6.75667 129.029 7.088 129.3 7.368C129.58 7.648 129.907 7.86267 130.28 8.012C130.653 8.16133 131.059 8.236 131.498 8.236ZM138.564 10V0.199999H142.806C143.684 0.199999 144.44 0.344666 145.074 0.634C145.709 0.913999 146.199 1.32 146.544 1.852C146.89 2.384 147.062 3.01867 147.062 3.756C147.062 4.484 146.89 5.114 146.544 5.646C146.199 6.16867 145.709 6.57 145.074 6.85C144.44 7.13 143.684 7.27 142.806 7.27H139.824L140.832 6.276V10H138.564ZM144.794 10L142.344 6.444H144.766L147.244 10H144.794ZM140.832 6.528L139.824 5.464H142.68C143.38 5.464 143.903 5.31467 144.248 5.016C144.594 4.708 144.766 4.288 144.766 3.756C144.766 3.21467 144.594 2.79467 144.248 2.496C143.903 2.19733 143.38 2.048 142.68 2.048H139.824L140.832 0.969999V6.528ZM152.824 10V0.199999H154.7L158.872 7.116H157.878L161.98 0.199999H163.842L163.87 10H161.742L161.728 3.462H162.12L158.844 8.964H157.822L154.476 3.462H154.952V10H152.824ZM168.281 4.148H172.999V5.912H168.281V4.148ZM168.449 8.18H173.783V10H166.195V0.199999H173.601V2.02H168.449V8.18ZM175.588 10V0.199999H177.464L183.246 7.256H182.336V0.199999H184.576V10H182.714L176.918 2.944H177.828V10H175.588ZM191.248 10.168C189.858 10.168 188.77 9.78067 187.986 9.006C187.202 8.23133 186.81 7.12533 186.81 5.688V0.199999H189.078V5.604C189.078 6.53733 189.27 7.20933 189.652 7.62C190.035 8.03067 190.572 8.236 191.262 8.236C191.953 8.236 192.49 8.03067 192.872 7.62C193.255 7.20933 193.446 6.53733 193.446 5.604V0.199999H195.686V5.688C195.686 7.12533 195.294 8.23133 194.51 9.006C193.726 9.78067 192.639 10.168 191.248 10.168ZM201.148 10.168C200.364 10.168 199.612 10.0653 198.894 9.86C198.175 9.64533 197.596 9.37 197.158 9.034L197.928 7.326C198.348 7.62467 198.842 7.872 199.412 8.068C199.99 8.25467 200.574 8.348 201.162 8.348C201.61 8.348 201.969 8.306 202.24 8.222C202.52 8.12867 202.725 8.00267 202.856 7.844C202.986 7.68533 203.052 7.50333 203.052 7.298C203.052 7.03667 202.949 6.83133 202.744 6.682C202.538 6.52333 202.268 6.39733 201.932 6.304C201.596 6.20133 201.222 6.108 200.812 6.024C200.41 5.93067 200.004 5.81867 199.594 5.688C199.192 5.55733 198.824 5.38933 198.488 5.184C198.152 4.97867 197.876 4.708 197.662 4.372C197.456 4.036 197.354 3.60667 197.354 3.084C197.354 2.524 197.503 2.01533 197.802 1.558C198.11 1.09133 198.567 0.722666 199.174 0.451999C199.79 0.172 200.56 0.0319998 201.484 0.0319998C202.1 0.0319998 202.706 0.106666 203.304 0.255999C203.901 0.395999 204.428 0.610666 204.886 0.899999L204.186 2.622C203.728 2.36067 203.271 2.16933 202.814 2.048C202.356 1.91733 201.908 1.852 201.47 1.852C201.031 1.852 200.672 1.90333 200.392 2.006C200.112 2.10867 199.911 2.244 199.79 2.412C199.668 2.57067 199.608 2.75733 199.608 2.972C199.608 3.224 199.71 3.42933 199.916 3.588C200.121 3.73733 200.392 3.85867 200.728 3.952C201.064 4.04533 201.432 4.13867 201.834 4.232C202.244 4.32533 202.65 4.43267 203.052 4.554C203.462 4.67533 203.836 4.83867 204.172 5.044C204.508 5.24933 204.778 5.52 204.984 5.856C205.198 6.192 205.306 6.61667 205.306 7.13C205.306 7.68067 205.152 8.18467 204.844 8.642C204.536 9.09933 204.074 9.468 203.458 9.748C202.851 10.028 202.081 10.168 201.148 10.168ZM215.58 10.168C214.806 10.168 214.087 10.042 213.424 9.79C212.771 9.538 212.202 9.18333 211.716 8.726C211.24 8.26867 210.867 7.732 210.596 7.116C210.335 6.5 210.204 5.828 210.204 5.1C210.204 4.372 210.335 3.7 210.596 3.084C210.867 2.468 211.245 1.93133 211.73 1.474C212.216 1.01667 212.785 0.661999 213.438 0.409999C214.092 0.158 214.801 0.0319998 215.566 0.0319998C216.341 0.0319998 217.05 0.158 217.694 0.409999C218.348 0.661999 218.912 1.01667 219.388 1.474C219.874 1.93133 220.252 2.468 220.522 3.084C220.793 3.69067 220.928 4.36267 220.928 5.1C220.928 5.828 220.793 6.50467 220.522 7.13C220.252 7.746 219.874 8.28267 219.388 8.74C218.912 9.188 218.348 9.538 217.694 9.79C217.05 10.042 216.346 10.168 215.58 10.168ZM215.566 8.236C216.005 8.236 216.406 8.16133 216.77 8.012C217.144 7.86267 217.47 7.648 217.75 7.368C218.03 7.088 218.245 6.75667 218.394 6.374C218.553 5.99133 218.632 5.56667 218.632 5.1C218.632 4.63333 218.553 4.20867 218.394 3.826C218.245 3.44333 218.03 3.112 217.75 2.832C217.48 2.552 217.158 2.33733 216.784 2.188C216.411 2.03867 216.005 1.964 215.566 1.964C215.128 1.964 214.722 2.03867 214.348 2.188C213.984 2.33733 213.662 2.552 213.382 2.832C213.102 3.112 212.883 3.44333 212.724 3.826C212.575 4.20867 212.5 4.63333 212.5 5.1C212.5 5.55733 212.575 5.982 212.724 6.374C212.883 6.75667 213.098 7.088 213.368 7.368C213.648 7.648 213.975 7.86267 214.348 8.012C214.722 8.16133 215.128 8.236 215.566 8.236ZM222.633 10V0.199999H226.875C227.752 0.199999 228.508 0.344666 229.143 0.634C229.777 0.913999 230.267 1.32 230.613 1.852C230.958 2.384 231.131 3.01867 231.131 3.756C231.131 4.484 230.958 5.114 230.613 5.646C230.267 6.16867 229.777 6.57 229.143 6.85C228.508 7.13 227.752 7.27 226.875 7.27H223.893L224.901 6.276V10H222.633ZM228.863 10L226.413 6.444H228.835L231.313 10H228.863ZM224.901 6.528L223.893 5.464H226.749C227.449 5.464 227.971 5.31467 228.317 5.016C228.662 4.708 228.835 4.288 228.835 3.756C228.835 3.21467 228.662 2.79467 228.317 2.496C227.971 2.19733 227.449 2.048 226.749 2.048H223.893L224.901 0.969999V6.528ZM236.892 10V0.199999H241.134C242.012 0.199999 242.768 0.344666 243.402 0.634C244.037 0.913999 244.527 1.32 244.872 1.852C245.218 2.384 245.39 3.01867 245.39 3.756C245.39 4.484 245.218 5.114 244.872 5.646C244.527 6.178 244.037 6.58867 243.402 6.878C242.768 7.158 242.012 7.298 241.134 7.298H238.152L239.16 6.276V10H236.892ZM239.16 6.528L238.152 5.45H241.008C241.708 5.45 242.231 5.30067 242.576 5.002C242.922 4.70333 243.094 4.288 243.094 3.756C243.094 3.21467 242.922 2.79467 242.576 2.496C242.231 2.19733 241.708 2.048 241.008 2.048H238.152L239.16 0.969999V6.528ZM245.229 10L249.597 0.199999H251.837L256.219 10H253.839L250.255 1.348H251.151L247.553 10H245.229ZM247.413 7.9L248.015 6.178H253.055L253.671 7.9H247.413ZM257.236 10V0.199999H261.478C262.356 0.199999 263.112 0.344666 263.746 0.634C264.381 0.913999 264.871 1.32 265.216 1.852C265.562 2.384 265.734 3.01867 265.734 3.756C265.734 4.484 265.562 5.114 265.216 5.646C264.871 6.178 264.381 6.58867 263.746 6.878C263.112 7.158 262.356 7.298 261.478 7.298H258.496L259.504 6.276V10H257.236ZM259.504 6.528L258.496 5.45H261.352C262.052 5.45 262.575 5.30067 262.92 5.002C263.266 4.70333 263.438 4.288 263.438 3.756C263.438 3.21467 263.266 2.79467 262.92 2.496C262.575 2.19733 262.052 2.048 261.352 2.048H258.496L259.504 0.969999V6.528ZM269.439 4.148H274.157V5.912H269.439V4.148ZM269.607 8.18H274.941V10H267.353V0.199999H274.759V2.02H269.607V8.18ZM276.746 10V0.199999H280.988C281.865 0.199999 282.621 0.344666 283.256 0.634C283.891 0.913999 284.381 1.32 284.726 1.852C285.071 2.384 285.244 3.01867 285.244 3.756C285.244 4.484 285.071 5.114 284.726 5.646C284.381 6.16867 283.891 6.57 283.256 6.85C282.621 7.13 281.865 7.27 280.988 7.27H278.006L279.014 6.276V10H276.746ZM282.976 10L280.526 6.444H282.948L285.426 10H282.976ZM279.014 6.528L278.006 5.464H280.862C281.562 5.464 282.085 5.31467 282.43 5.016C282.775 4.708 282.948 4.288 282.948 3.756C282.948 3.21467 282.775 2.79467 282.43 2.496C282.085 2.19733 281.562 2.048 280.862 2.048H278.006L279.014 0.969999V6.528ZM291.006 10V0.199999H292.882L297.054 7.116H296.06L300.162 0.199999H302.024L302.052 10H299.924L299.91 3.462H300.302L297.026 8.964H296.004L292.658 3.462H293.134V10H291.006ZM306.463 4.148H311.181V5.912H306.463V4.148ZM306.631 8.18H311.965V10H304.377V0.199999H311.783V2.02H306.631V8.18ZM313.769 10V0.199999H315.645L321.427 7.256H320.517V0.199999H322.757V10H320.895L315.099 2.944H316.009V10H313.769ZM329.43 10.168C328.039 10.168 326.952 9.78067 326.168 9.006C325.384 8.23133 324.992 7.12533 324.992 5.688V0.199999H327.26V5.604C327.26 6.53733 327.451 7.20933 327.834 7.62C328.217 8.03067 328.753 8.236 329.444 8.236C330.135 8.236 330.671 8.03067 331.054 7.62C331.437 7.20933 331.628 6.53733 331.628 5.604V0.199999H333.868V5.688C333.868 7.12533 333.476 8.23133 332.692 9.006C331.908 9.78067 330.821 10.168 329.43 10.168ZM339.329 10.168C338.545 10.168 337.794 10.0653 337.075 9.86C336.357 9.64533 335.778 9.37 335.339 9.034L336.109 7.326C336.529 7.62467 337.024 7.872 337.593 8.068C338.172 8.25467 338.755 8.348 339.343 8.348C339.791 8.348 340.151 8.306 340.421 8.222C340.701 8.12867 340.907 8.00267 341.037 7.844C341.168 7.68533 341.233 7.50333 341.233 7.298C341.233 7.03667 341.131 6.83133 340.925 6.682C340.72 6.52333 340.449 6.39733 340.113 6.304C339.777 6.20133 339.404 6.108 338.993 6.024C338.592 5.93067 338.186 5.81867 337.775 5.688C337.374 5.55733 337.005 5.38933 336.669 5.184C336.333 4.97867 336.058 4.708 335.843 4.372C335.638 4.036 335.535 3.60667 335.535 3.084C335.535 2.524 335.685 2.01533 335.983 1.558C336.291 1.09133 336.749 0.722666 337.355 0.451999C337.971 0.172 338.741 0.0319998 339.665 0.0319998C340.281 0.0319998 340.888 0.106666 341.485 0.255999C342.083 0.395999 342.61 0.610666 343.067 0.899999L342.367 2.622C341.91 2.36067 341.453 2.16933 340.995 2.048C340.538 1.91733 340.09 1.852 339.651 1.852C339.213 1.852 338.853 1.90333 338.573 2.006C338.293 2.10867 338.093 2.244 337.971 2.412C337.85 2.57067 337.789 2.75733 337.789 2.972C337.789 3.224 337.892 3.42933 338.097 3.588C338.303 3.73733 338.573 3.85867 338.909 3.952C339.245 4.04533 339.614 4.13867 340.015 4.232C340.426 4.32533 340.832 4.43267 341.233 4.554C341.644 4.67533 342.017 4.83867 342.353 5.044C342.689 5.24933 342.96 5.52 343.165 5.856C343.38 6.192 343.487 6.61667 343.487 7.13C343.487 7.68067 343.333 8.18467 343.025 8.642C342.717 9.09933 342.255 9.468 341.639 9.748C341.033 10.028 340.263 10.168 339.329 10.168ZM346.64 6.598C346.64 6.27133 346.691 5.982 346.794 5.73C346.906 5.478 347.041 5.254 347.2 5.058C347.368 4.862 347.545 4.68 347.732 4.512C347.918 4.344 348.091 4.18533 348.25 4.036C348.418 3.87733 348.553 3.714 348.656 3.546C348.768 3.378 348.824 3.19133 348.824 2.986C348.824 2.65 348.684 2.37933 348.404 2.174C348.133 1.96867 347.769 1.866 347.312 1.866C346.873 1.866 346.481 1.95933 346.136 2.146C345.79 2.32333 345.506 2.57533 345.282 2.902L343.588 1.908C343.961 1.33867 344.479 0.885999 345.142 0.55C345.804 0.204666 346.607 0.0319998 347.55 0.0319998C348.25 0.0319998 348.866 0.134666 349.398 0.339999C349.93 0.535999 350.345 0.825333 350.644 1.208C350.952 1.59067 351.106 2.062 351.106 2.622C351.106 2.986 351.05 3.308 350.938 3.588C350.826 3.868 350.681 4.11067 350.504 4.316C350.326 4.52133 350.135 4.71267 349.93 4.89C349.734 5.06733 349.547 5.24 349.37 5.408C349.192 5.576 349.043 5.75333 348.922 5.94C348.81 6.12667 348.754 6.346 348.754 6.598H346.64ZM347.704 10.112C347.312 10.112 346.99 9.986 346.738 9.734C346.486 9.482 346.36 9.18333 346.36 8.838C346.36 8.48333 346.486 8.18933 346.738 7.956C346.99 7.71333 347.312 7.592 347.704 7.592C348.105 7.592 348.427 7.71333 348.67 7.956C348.922 8.18933 349.048 8.48333 349.048 8.838C349.048 9.18333 348.922 9.482 348.67 9.734C348.427 9.986 348.105 10.112 347.704 10.112Z" fill="white"/>
</svg>
